<?xml version="1.0" encoding="utf-8"?>
<!-- Generator: Adobe Illustrator 20.0.0, SVG Export Plug-In . SVG Version: 6.00 Build 0)  -->
<svg version="1.1" id="Vrstva_1" xmlns="http://www.w3.org/2000/svg" xmlns:xlink="http://www.w3.org/1999/xlink" x="0px" y="0px"
	 viewBox="0 0 32 32" style="enable-background:new 0 0 32 32;" xml:space="preserve">
<style type="text/css">
	.st0{fill-rule:evenodd;clip-rule:evenodd;}
</style>
<g>
	<path class="st0" d="M22.372,22.347v-8.412l-1.052-1.052h-1.051V10.78h-2.103V9.728h-1.052V8.677c0-0.581-0.471-1.052-1.051-1.052
		s-1.051,0.47-1.051,1.052v1.052h-1.052v1.052h-2.103v2.103h-1.051l-1.052,1.052v8.412c-1.161,0-2.103,0.941-2.103,2.103h16.825
		C24.475,23.287,23.533,22.347,22.372,22.347z M13.959,21.295h-2.103v-1.052h2.103V21.295z M13.959,19.192h-2.103v-1.052h2.103
		V19.192z M13.959,17.089h-2.103v-1.052h2.103V17.089z M13.959,14.986h-2.103v-1.052h2.103V14.986z M17.114,21.295h-2.103v-1.052
		h2.103V21.295z M17.114,19.192h-2.103v-1.052h2.103V19.192z M17.114,17.089h-2.103v-1.052h2.103V17.089z M17.114,14.986h-2.103
		v-1.052h2.103V14.986z M20.269,21.295h-2.103v-1.052h2.103V21.295z M20.269,19.192h-2.103v-1.052h2.103V19.192z M20.269,17.089
		h-2.103v-1.052h2.103V17.089z M20.269,14.986h-2.103v-1.052h2.103V14.986z"/>
</g>
</svg>
