<?xml version="1.0" encoding="utf-8"?>
<!-- Generator: Adobe Illustrator 20.0.0, SVG Export Plug-In . SVG Version: 6.00 Build 0)  -->
<svg version="1.1" id="Vrstva_1" xmlns="http://www.w3.org/2000/svg" xmlns:xlink="http://www.w3.org/1999/xlink" x="0px" y="0px"
	 viewBox="0 0 32 32" style="enable-background:new 0 0 32 32;" xml:space="preserve">
<style type="text/css">
	.st0{fill-rule:evenodd;clip-rule:evenodd;}
</style>
<g>
	<path class="st0" d="M15.089,25.825V6.414H6.023v19.411h3.893v-2.951h1.28v2.951H15.089z M8.085,8.888h4.942v1.28H8.085V8.888z
		 M8.085,12.002h4.942v1.28H8.085V12.002z M8.085,15.117h4.942v1.28H8.085V15.117z M8.085,19.511v-1.28h4.942v1.28H8.085z"/>
	<path class="st0" d="M26.102,25.825V9.528h-9.066v16.297h3.893v-2.951h1.28v2.951H26.102z M19.098,12.002h4.942v1.28h-4.942V12.002
		z M19.098,15.117h4.942v1.28h-4.942V15.117z M19.098,19.511v-1.28h4.942v1.28H19.098z"/>
</g>
</svg>
