<?xml version="1.0" encoding="utf-8"?>
<!-- Generator: Adobe Illustrator 20.0.0, SVG Export Plug-In . SVG Version: 6.00 Build 0)  -->
<svg version="1.1" id="Vrstva_1" xmlns="http://www.w3.org/2000/svg" xmlns:xlink="http://www.w3.org/1999/xlink" x="0px" y="0px"
	 viewBox="0 0 32 32" style="enable-background:new 0 0 32 32;" xml:space="preserve">
<style type="text/css">
	.st0{fill-rule:evenodd;clip-rule:evenodd;}
</style>
<g>
	<path class="st0" d="M10.659,8.616c0-0.42-0.341-0.76-0.76-0.76c-0.42,0-0.76,0.34-0.76,0.76v13.768c0,0.42,0.34,0.76,0.76,0.76
		c0.42,0,0.76-0.34,0.76-0.76v-6.018l0,0L10.659,8.616z"/>
	<path class="st0" d="M22.922,9.315c0.615-0.495-0.187-0.856-0.367-0.932c-3.663-1.542-7.322,1.685-10.983,0.703v7.618
		c3.666,0.983,7.333-2.258,10.999-0.696c0.179,0.076,0.342,0.057,0.421-0.062c0.079-0.118,0.059-0.321-0.05-0.52
		c-0.726-1.313-1.453-2.425-2.179-3.407c-0.132-0.178-0.131-0.417,0.004-0.579C21.484,10.581,22.224,9.877,22.922,9.315z"/>
</g>
</svg>
