<?xml version="1.0" encoding="utf-8"?>
<!-- Generator: Adobe Illustrator 20.0.0, SVG Export Plug-In . SVG Version: 6.00 Build 0)  -->
<svg version="1.1" id="Vrstva_1" xmlns="http://www.w3.org/2000/svg" xmlns:xlink="http://www.w3.org/1999/xlink" x="0px" y="0px"
	 viewBox="0 0 32 32" style="enable-background:new 0 0 32 32;" xml:space="preserve">
<style type="text/css">
	.st0{fill-rule:evenodd;clip-rule:evenodd;}
</style>
<g>
	<path class="st0" d="M6.48,24.018h19.166c0-1.142-3.576-2.084-8.222-2.241l-0.231-2.451c-0.003-0.034-0.02-0.065-0.048-0.086
		c-0.027-0.021-0.062-0.028-0.096-0.023l-0.73,0.133c0.174-0.235,0.453-0.61,0.749-1.001c0.018-0.024,0.027-0.055,0.024-0.085
		L16.795,15.1c0.399-0.272,0.851-0.485,1.334-0.624c0.019-0.005,0.036-0.016,0.05-0.029l0.579-0.551l-0.098,0.275
		c-0.014,0.04-0.006,0.085,0.02,0.118c0.027,0.033,0.07,0.048,0.112,0.044c0.181-0.026,0.343-0.041,0.495-0.047
		c0.196-0.009,0.388-0.003,0.625,0.017c0.027,0.002,0.052-0.004,0.074-0.017l0.518-0.32l-0.086,0.267
		c-0.011,0.033-0.007,0.069,0.01,0.099c0.017,0.03,0.046,0.051,0.08,0.058c0.692,0.146,1.337,0.442,1.864,0.857
		c0.04,0.031,0.095,0.035,0.138,0.009c0.043-0.026,0.066-0.076,0.058-0.126c-0.283-1.614-1.71-2.771-3.359-2.705
		c-0.485,0.02-0.943,0.149-1.353,0.36l0.303-0.986l0.096,0.552c0.007,0.042,0.036,0.077,0.076,0.093
		c0.039,0.015,0.084,0.009,0.118-0.017c0.194-0.148,0.374-0.273,0.549-0.381c0.217-0.134,0.453-0.258,0.744-0.391
		c0.024-0.011,0.043-0.029,0.056-0.052l0.447-0.809l0.096,0.475c0.007,0.034,0.028,0.063,0.057,0.081
		c0.03,0.017,0.066,0.022,0.098,0.011c0.909-0.285,1.858-0.362,2.749-0.223c0.049,0.007,0.099-0.016,0.124-0.06
		c0.025-0.044,0.02-0.098-0.012-0.137c-0.825-1.009-2.048-1.588-3.356-1.588c-0.8,0-1.584,0.223-2.269,0.646
		c-0.847,0.523-1.453,1.305-1.778,2.187c-0.256-0.778-0.797-1.459-1.562-1.868c-0.473-0.252-1.004-0.386-1.537-0.386
		c-1.054,0-2.049,0.511-2.663,1.365c-0.029,0.041-0.03,0.096-0.003,0.138c0.028,0.042,0.079,0.062,0.128,0.052
		c0.654-0.145,1.365-0.132,2.051,0.036c0.033,0.008,0.069,0.002,0.098-0.018c0.028-0.019,0.047-0.05,0.052-0.084l0.038-0.278
		l0.328,0.513c0.014,0.022,0.035,0.039,0.059,0.048c0.223,0.085,0.404,0.166,0.571,0.255c0.136,0.073,0.275,0.157,0.425,0.258
		c0.035,0.024,0.081,0.027,0.119,0.009c0.039-0.018,0.065-0.055,0.07-0.097l0.032-0.29l0.282,0.748
		c0.007,0.018,0.018,0.035,0.033,0.048c0.424,0.379,0.77,0.824,1.021,1.304c-0.632-0.716-1.554-1.159-2.539-1.159
		c-0.19,0-0.382,0.016-0.571,0.048c-1.667,0.284-2.879,1.772-2.818,3.463c0.002,0.051,0.035,0.095,0.082,0.111
		c0.013,0.004,0.026,0.006,0.039,0.006c0.036,0,0.07-0.015,0.094-0.044c0.445-0.535,1.036-0.975,1.707-1.273
		c0.031-0.014,0.056-0.041,0.066-0.074c0.01-0.033,0.007-0.069-0.01-0.099l-0.151-0.262l0.606,0.217
		c0.024,0.009,0.052,0.009,0.076,0.002c0.236-0.071,0.437-0.12,0.631-0.153c0.156-0.027,0.324-0.046,0.513-0.059
		c0.042-0.003,0.08-0.028,0.1-0.066c0.02-0.038,0.018-0.083-0.004-0.12l-0.168-0.274l0.722,0.443
		c0.017,0.01,0.036,0.016,0.055,0.018c0.594,0.042,1.167,0.19,1.683,0.429l-1.251,6.691C9.882,21.98,6.48,22.904,6.48,24.018z"/>
</g>
</svg>
