<?xml version="1.0" encoding="utf-8"?>
<!-- Generator: Adobe Illustrator 20.0.0, SVG Export Plug-In . SVG Version: 6.00 Build 0)  -->
<svg version="1.1" id="Vrstva_1" xmlns="http://www.w3.org/2000/svg" xmlns:xlink="http://www.w3.org/1999/xlink" x="0px" y="0px"
	 viewBox="0 0 32 32" style="enable-background:new 0 0 32 32;" xml:space="preserve">
<style type="text/css">
	.st0{fill-rule:evenodd;clip-rule:evenodd;}
</style>
<g>
	<path class="st0" d="M24.252,15.811c0-4.482-3.667-8.149-8.149-8.149c-4.482,0-8.149,3.667-8.149,8.149
		c0,4.482,3.667,8.149,8.149,8.149C20.585,23.96,24.252,20.293,24.252,15.811z M18.222,22.004c0.489-0.896,0.896-1.874,1.141-2.934
		h2.363C20.993,20.456,19.689,21.434,18.222,22.004z M22.459,14.182c0.163,0.489,0.245,1.059,0.245,1.63
		c0,0.571-0.082,1.141-0.245,1.63h-2.771c0.081-0.571,0.081-1.059,0.081-1.63c0-0.57-0.081-1.059-0.081-1.63H22.459z M21.726,12.552
		h-2.363c-0.244-1.059-0.652-1.956-1.141-2.934C19.689,10.189,20.993,11.166,21.726,12.552z M16.103,9.292
		c0.652,0.978,1.222,2.037,1.548,3.26h-3.096C14.881,11.411,15.451,10.27,16.103,9.292z M9.829,17.441
		c-0.163-0.489-0.244-1.059-0.244-1.63c0-0.57,0.081-1.141,0.244-1.63h2.771c-0.081,0.57-0.081,1.059-0.081,1.63
		c0,0.571,0.081,1.059,0.081,1.63H9.829z M10.48,19.071h2.363c0.244,1.059,0.652,1.956,1.141,2.934
		C12.518,21.434,11.214,20.456,10.48,19.071z M12.844,12.552H10.48c0.815-1.385,2.037-2.363,3.504-2.934
		C13.496,10.596,13.088,11.492,12.844,12.552z M14.066,15.811c0-0.57,0.081-1.059,0.163-1.63h3.83
		c0.081,0.57,0.163,1.059,0.163,1.63c0,0.571-0.163,1.059-0.244,1.63h-3.749C14.148,16.871,14.066,16.382,14.066,15.811z
		 M17.651,19.071c-0.326,1.141-0.896,2.282-1.548,3.26c-0.652-0.978-1.222-2.037-1.548-3.26H17.651z"/>
</g>
</svg>
