<?xml version="1.0" encoding="utf-8"?>
<!-- Generator: Adobe Illustrator 20.0.0, SVG Export Plug-In . SVG Version: 6.00 Build 0)  -->
<svg version="1.1" id="Vrstva_1" xmlns="http://www.w3.org/2000/svg" xmlns:xlink="http://www.w3.org/1999/xlink" x="0px" y="0px"
	 viewBox="0 0 32 32" style="enable-background:new 0 0 32 32;" xml:space="preserve">
<style type="text/css">
	.st0{fill-rule:evenodd;clip-rule:evenodd;}
</style>
<g>
	<path class="st0" d="M6.54,16.516c0.176,0,0.352-0.068,0.486-0.204l5.287-5.36l5.067,5.137l-0.533,0.489l-4.531-4.575l-5.207,5.251
		v5.361c0,0.135,0.108,0.244,0.241,0.244h5.675v-4.855h2.666v4.855h1.586c0.133,0,0.241-0.109,0.241-0.244v0.117
		c0.087,0.077,0.198,0.127,0.323,0.127h1.758c0.271,0,0.491-0.219,0.491-0.491v-3.356h2.243v3.356
		c-0.004,0.271,0.19,0.491,0.461,0.491h1.864c0.271,0,0.491-0.219,0.491-0.491v-4.622c0,0,0.093,0.081,0.208,0.183
		c0.115,0.101,0.355,0.02,0.538-0.181l0.128-0.141c0.182-0.201,0.165-0.508-0.039-0.686l-4.496-3.934
		c-0.204-0.179-0.531-0.175-0.731,0.008l-2.354,2.158l-6.088-6.173l-2.952,2.993v-1.317c0-0.308-0.246-0.558-0.55-0.558
		c-0.304,0-0.55,0.25-0.55,0.558v2.432l-2.206,2.237c-0.269,0.272-0.269,0.713,0,0.985C6.189,16.448,6.365,16.516,6.54,16.516z
		 M11.341,20.267H8.935v-2.262h2.406V20.267z"/>
</g>
</svg>
