<?xml version="1.0" encoding="utf-8"?>
<!-- Generator: Adobe Illustrator 20.0.0, SVG Export Plug-In . SVG Version: 6.00 Build 0)  -->
<svg version="1.1" id="Vrstva_1" xmlns="http://www.w3.org/2000/svg" xmlns:xlink="http://www.w3.org/1999/xlink" x="0px" y="0px"
	 viewBox="0 0 32 32" style="enable-background:new 0 0 32 32;" xml:space="preserve">
<g>
	<path d="M6.739,21.428c-0.515,0-0.932,0.417-0.932,0.932s0.417,0.932,0.932,0.932h18.647c0.515,0,0.932-0.417,0.932-0.932v-6.525
		h-11.81v5.593h-4.351v-3.237c1.433-0.407,2.486-1.726,2.486-3.288v-2.486C12.644,10.533,11.11,9,9.225,9s-3.418,1.533-3.418,3.418
		v2.486c0,1.561,1.053,2.881,2.486,3.287v3.237H6.739z M19.481,19.875c0-0.515,0.417-0.932,0.932-0.932s0.932,0.417,0.932,0.932
		v1.553H19.48v-1.553H19.481z"/>
	<path d="M19.754,9.273l-4.699,4.698h10.717l-4.699-4.698C20.709,8.909,20.118,8.909,19.754,9.273z"/>
</g>
</svg>
