<?xml version="1.0" encoding="utf-8"?>
<!-- Generator: Adobe Illustrator 20.0.0, SVG Export Plug-In . SVG Version: 6.00 Build 0)  -->
<svg version="1.1" id="Vrstva_1" xmlns="http://www.w3.org/2000/svg" xmlns:xlink="http://www.w3.org/1999/xlink" x="0px" y="0px"
	 viewBox="0 0 32 32" style="enable-background:new 0 0 32 32;" xml:space="preserve">
<style type="text/css">
	.st0{fill-rule:evenodd;clip-rule:evenodd;}
</style>
<g>
	<path class="st0" d="M6.739,21.428c-0.515,0-0.932,0.417-0.932,0.932c0,0.515,0.417,0.932,0.932,0.932h18.647
		c0.515,0,0.932-0.417,0.932-0.932v-6.525h-11.81v5.593h-4.351v-3.237c1.433-0.407,2.486-1.726,2.486-3.288v-2.486
		C12.644,10.533,11.11,9,9.225,9c-1.885,0-3.418,1.533-3.418,3.418v2.486c0,1.561,1.053,2.881,2.486,3.287v3.237H6.739z
		 M19.481,19.875c0-0.515,0.417-0.932,0.932-0.932c0.515,0,0.932,0.417,0.932,0.932v1.553h-1.865V19.875z"/>
	<path class="st0" d="M19.754,9.273l-4.699,4.698h10.717l-4.699-4.698C20.709,8.909,20.118,8.909,19.754,9.273z"/>
</g>
</svg>
