<?xml version="1.0" encoding="utf-8"?>
<!-- Generator: Adobe Illustrator 20.0.0, SVG Export Plug-In . SVG Version: 6.00 Build 0)  -->
<svg version="1.1" id="Vrstva_1" xmlns="http://www.w3.org/2000/svg" xmlns:xlink="http://www.w3.org/1999/xlink" x="0px" y="0px"
	 viewBox="0 0 32 32" style="enable-background:new 0 0 32 32;" xml:space="preserve">
<style type="text/css">
	.st0{fill-rule:evenodd;clip-rule:evenodd;}
</style>
<g>
	<path class="st0" d="M16.945,19.046l8.283-5.082c0.418-0.256,0.418-0.676,0-0.932l-8.283-4.144c-0.418-0.256-1.101-0.256-1.519,0
		l-8.283,4.144c-0.418,0.256-0.418,0.676,0,0.932l8.283,5.082C15.844,19.303,16.527,19.303,16.945,19.046z"/>
	<path class="st0" d="M23.996,21.621c-0.286,0.168-0.479,0.479-0.479,0.836c0,0.535,0.434,0.97,0.969,0.97
		c0.535,0,0.969-0.434,0.969-0.97c0-0.358-0.194-0.67-0.482-0.838c-0.028-0.017-0.089-0.05-0.089-0.122c0-1.403,0-5.613,0-5.613
		s0.004-0.266-0.154-0.178c-0.126,0.071-0.436,0.243-0.546,0.338c-0.126,0.11-0.098,0.356-0.098,0.356s0,3.822,0,5.097
		C24.088,21.569,24.026,21.604,23.996,21.621z"/>
	<path class="st0" d="M22.965,16.531l-5.579,3.423c-0.333,0.204-0.759,0.317-1.201,0.317c-0.441,0-0.868-0.113-1.201-0.317
		l-5.437-3.336c0,0-0.491-0.301-0.491,0.381c0,0.774,0,3.097,0,3.097v0.234c0,1.755,3.192,3.647,7.129,3.647
		c3.937,0,7.129-1.892,7.129-3.647v-0.234c0,0,0-2.463,0-3.284C23.314,16.263,22.965,16.531,22.965,16.531z"/>
</g>
</svg>
