<?xml version="1.0" encoding="utf-8"?>
<!-- Generator: Adobe Illustrator 20.0.0, SVG Export Plug-In . SVG Version: 6.00 Build 0)  -->
<svg version="1.1" id="Vrstva_1" xmlns="http://www.w3.org/2000/svg" xmlns:xlink="http://www.w3.org/1999/xlink" x="0px" y="0px"
	 viewBox="0 0 32 32" style="enable-background:new 0 0 32 32;" xml:space="preserve">
<style type="text/css">
	.st0{fill-rule:evenodd;clip-rule:evenodd;}
</style>
<g>
	<path class="st0" d="M7.953,22.558h16.219c0.147,0,0.265-0.119,0.265-0.266V9.601c0-0.147-0.118-0.266-0.265-0.266H7.953
		c-0.147,0-0.265,0.119-0.265,0.266v12.692C7.688,22.44,7.806,22.558,7.953,22.558z M9.28,10.929h13.565v9.512l-3.65-3.783
		c-0.04-0.042-0.106-0.044-0.15-0.006l-2.531,2.23l-3.236-3.988c-0.021-0.026-0.052-0.041-0.086-0.04
		c-0.033,0.001-0.065,0.017-0.085,0.044l-3.827,5.14V10.929z"/>
	<circle class="st0" cx="18.837" cy="13.462" r="1.303"/>
</g>
</svg>
