<?xml version="1.0" encoding="utf-8"?>
<!-- Generator: Adobe Illustrator 20.0.0, SVG Export Plug-In . SVG Version: 6.00 Build 0)  -->
<svg version="1.1" id="Vrstva_1" xmlns="http://www.w3.org/2000/svg" xmlns:xlink="http://www.w3.org/1999/xlink" x="0px" y="0px"
	 viewBox="0 0 32 32" style="enable-background:new 0 0 32 32;" xml:space="preserve">
<style type="text/css">
	.st0{fill-rule:evenodd;clip-rule:evenodd;}
</style>
<g>
	<path class="st0" d="M24.288,20.887c0.957-1.659,0.402-3.775-1.235-4.754c1.637-0.979,2.192-3.095,1.235-4.754
		c-0.957-1.659-3.065-2.236-4.73-1.306c-0.029-1.909-1.582-3.447-3.495-3.447c-1.913,0-3.467,1.539-3.495,3.447
		c-1.665-0.93-3.773-0.352-4.73,1.307c-0.957,1.659-0.402,3.775,1.235,4.754c-1.637,0.979-2.191,3.095-1.235,4.754
		c0.957,1.659,3.065,2.236,4.73,1.306c0.028,1.909,1.582,3.448,3.495,3.447c1.913,0,3.467-1.539,3.495-3.447
		C21.223,23.123,23.331,22.545,24.288,20.887z M16.062,19.338c-1.768,0-3.202-1.435-3.202-3.205c0-1.77,1.434-3.206,3.202-3.206
		c1.768,0,3.202,1.435,3.202,3.206C19.264,17.903,17.831,19.338,16.062,19.338z"/>
</g>
</svg>
