<?xml version="1.0" encoding="utf-8"?>
<!-- Generator: Adobe Illustrator 20.0.0, SVG Export Plug-In . SVG Version: 6.00 Build 0)  -->
<svg version="1.1" id="Vrstva_1" xmlns="http://www.w3.org/2000/svg" xmlns:xlink="http://www.w3.org/1999/xlink" x="0px" y="0px"
	 viewBox="0 0 32 32" style="enable-background:new 0 0 32 32;" xml:space="preserve">
<style type="text/css">
	.st0{fill-rule:evenodd;clip-rule:evenodd;}
</style>
<g>
	<path class="st0" d="M9.315,12.972c-0.551,0.292-1.027,0.76-1.256,1.35c-0.182,0.473-0.2,0.999-0.107,1.498
		c0.226,1.204,1.064,2.32,1.905,3.157c1.038,1.035,2.291,1.878,3.585,2.541c2.08,1.068,4.519,1.813,6.866,1.69
		c0.889-0.046,1.835-0.232,2.599-0.722c0.269-0.171,0.521-0.39,0.726-0.657c0.402-0.522,0.57-1.187,0.487-1.844
		c-0.1-0.791-0.495-1.5-0.978-2.111c-0.203-0.257-0.416-0.488-0.628-0.699c0.069,0.413,0.101,0.831,0.098,1.254
		c-0.002,0.085-0.004,0.169-0.008,0.254c0.045,0.082,0.089,0.167,0.13,0.252c0.246,0.52,0.449,1.169,0.222,1.732
		c-0.154,0.384-0.498,0.663-0.873,0.824c-0.794,0.342-1.734,0.349-2.576,0.282c-2.402-0.192-4.788-1.152-6.825-2.435
		c-0.229-0.144-0.453-0.298-0.673-0.453c-1.068-0.762-2.206-1.734-2.719-2.99c-0.261-0.64-0.25-1.341,0.29-1.819
		c0.353-0.315,0.863-0.509,1.314-0.618c0.342-0.357,0.724-0.676,1.139-0.953c-0.086-0.004-0.173-0.008-0.261-0.01
		C10.94,12.476,10.063,12.574,9.315,12.972z"/>
	<path class="st0" d="M12.376,21.587c-0.534-0.313-1.051-0.659-1.544-1.035c-0.433-0.332-0.846-0.688-1.236-1.075
		c0.359,2.034,1.672,3.854,3.666,4.741c1.992,0.889,4.19,0.636,5.894-0.476c-0.542-0.029-1.078-0.096-1.608-0.194
		c-0.606-0.111-1.205-0.265-1.792-0.453C14.581,22.718,13.445,22.213,12.376,21.587z"/>
	<ellipse class="st0" cx="22.479" cy="10.75" rx="1.749" ry="1.786"/>
	<ellipse class="st0" cx="17.016" cy="8.879" rx="0.982" ry="1.002"/>
	<path class="st0" d="M14.925,12.004c-1.138,0.157-2.219,0.659-3.107,1.396c-0.111,0.09-0.216,0.184-0.32,0.28
		c-0.321,0.303-0.613,0.641-0.867,1.006c-0.303,0.434-0.773,1.027-0.547,1.571c0.128,0.309,0.361,0.563,0.592,0.793
		c1.636,1.629,3.712,2.744,5.877,3.49c1.335,0.459,2.732,0.789,4.139,0.73c0.263-0.011,0.551-0.048,0.733-0.242
		c0.094-0.1,0.148-0.229,0.197-0.357c0.784-2.068,0.419-4.548-0.925-6.288C19.354,12.643,17.076,11.704,14.925,12.004z"/>
</g>
</svg>
