<?xml version="1.0" encoding="utf-8"?>
<!-- Generator: Adobe Illustrator 20.0.0, SVG Export Plug-In . SVG Version: 6.00 Build 0)  -->
<svg version="1.1" id="Vrstva_1" xmlns="http://www.w3.org/2000/svg" xmlns:xlink="http://www.w3.org/1999/xlink" x="0px" y="0px"
	 viewBox="0 0 32 32" style="enable-background:new 0 0 32 32;" xml:space="preserve">
<style type="text/css">
	.st0{fill-rule:evenodd;clip-rule:evenodd;}
</style>
<g>
	<path class="st0" d="M24.567,19.042l0.214-0.393c0-0.119-0.03-0.197-0.089-0.232c-0.06-0.036-0.137-0.018-0.232,0.053l-2.713,1.928
		c-1.19-0.881-2.487-1.511-3.891-1.892v-1.821l-3.32,1.678c-0.904,0.143-1.785,0.41-2.641,0.803
		c-0.857,0.393-1.499,0.762-1.928,1.107c-0.428,0.345-0.642,0.589-0.642,0.732c0,0.167,0.28,0.458,0.839,0.875
		c0.559,0.417,1.38,0.833,2.463,1.25c1.083,0.416,2.183,0.625,3.302,0.625c0.547,0,1.118-0.071,1.713-0.214l1.749,1v-1.571
		c1.475-0.833,2.261-1.297,2.356-1.392l2.713,1.963c0.071,0.048,0.143,0.054,0.214,0.018c0.072-0.036,0.107-0.101,0.107-0.196
		c-0.547-0.928-0.821-1.702-0.821-2.32c0-0.286,0.065-0.625,0.196-1.017C24.287,19.631,24.424,19.304,24.567,19.042z M13.34,20.737
		c-0.155,0.154-0.339,0.232-0.553,0.232c-0.214,0-0.399-0.078-0.553-0.232c-0.155-0.155-0.232-0.339-0.232-0.553
		c0-0.214,0.077-0.399,0.232-0.553c0.155-0.155,0.339-0.232,0.553-0.232c0.214,0,0.399,0.077,0.553,0.232
		c0.155,0.155,0.232,0.339,0.232,0.553C13.573,20.398,13.495,20.583,13.34,20.737z"/>
	<path class="st0" d="M12.645,13.295v1.535l1.713-0.964c0.619,0.143,1.202,0.214,1.749,0.214c1.095,0,2.184-0.208,3.266-0.625
		c1.083-0.416,1.904-0.839,2.463-1.267c0.559-0.428,0.839-0.726,0.839-0.892c0-0.119-0.214-0.351-0.643-0.696
		c-0.428-0.345-1.065-0.72-1.91-1.125c-0.845-0.404-1.719-0.678-2.624-0.821l-3.32-1.677v1.82c-1.428,0.405-2.737,1.047-3.927,1.928
		L7.54,8.797C7.445,8.725,7.367,8.708,7.308,8.743C7.248,8.779,7.219,8.844,7.219,8.94c0.071,0.119,0.155,0.268,0.25,0.446
		c0.095,0.178,0.214,0.482,0.357,0.91c0.143,0.428,0.214,0.779,0.214,1.053c0,0.274-0.065,0.607-0.196,0.999
		c-0.131,0.393-0.268,0.708-0.41,0.946l-0.214,0.393c0,0.095,0.036,0.161,0.107,0.196c0.071,0.036,0.143,0.018,0.214-0.054
		l2.713-1.927C10.348,11.974,11.145,12.438,12.645,13.295z M19.195,10.457c0.155-0.155,0.339-0.232,0.553-0.232
		c0.214,0,0.399,0.077,0.554,0.232c0.154,0.155,0.232,0.339,0.232,0.553c0,0.214-0.077,0.398-0.232,0.553
		c-0.155,0.155-0.339,0.232-0.554,0.232c-0.214,0-0.399-0.077-0.553-0.232c-0.155-0.155-0.232-0.339-0.232-0.553
		C18.963,10.796,19.04,10.611,19.195,10.457z"/>
</g>
</svg>
