<?xml version="1.0" encoding="utf-8"?>
<!-- Generator: Adobe Illustrator 20.0.0, SVG Export Plug-In . SVG Version: 6.00 Build 0)  -->
<svg version="1.1" id="Vrstva_1" xmlns="http://www.w3.org/2000/svg" xmlns:xlink="http://www.w3.org/1999/xlink" x="0px" y="0px"
	 viewBox="0 0 32 32" style="enable-background:new 0 0 32 32;" xml:space="preserve">
<style type="text/css">
	.st0{fill-rule:evenodd;clip-rule:evenodd;}
</style>
<g>
	<path class="st0" d="M23.787,12.657l-4.735,4.086c0,0,0.483,0.951,0.475,2.106L23.787,12.657z"/>
	<path class="st0" d="M11.14,19.174c0.052,0.861,0.407,1.706,1.065,2.364c1.43,1.429,3.749,1.429,5.179,0
		c1.43-1.429,1.43-3.746,0-5.175c-1.43-1.429-3.749-1.429-5.179,0c-0.44,0.44-0.745,0.964-0.914,1.52
		c0.222-0.049,0.464,0.012,0.637,0.185c0.269,0.269,0.269,0.705,0,0.973C11.715,19.255,11.397,19.299,11.14,19.174z M15.166,19.282
		c0.292-0.291,0.764-0.291,1.056,0c0.292,0.291,0.292,0.763,0,1.055c-0.292,0.291-0.764,0.291-1.056,0
		C14.874,20.046,14.874,19.574,15.166,19.282z M13.785,16.449c0.248-0.248,0.651-0.248,0.9,0c0.248,0.248,0.248,0.651,0,0.899
		c-0.248,0.248-0.651,0.248-0.9,0C13.537,17.1,13.537,16.698,13.785,16.449z M12.728,19.65c0.222-0.222,0.581-0.222,0.803,0
		c0.222,0.221,0.222,0.581,0,0.802c-0.222,0.222-0.582,0.222-0.803,0C12.506,20.231,12.506,19.872,12.728,19.65z"/>
	<path class="st0" d="M14.897,14.223c1.156-0.009,2.108,0.474,2.108,0.474l4.089-4.731L14.897,14.223z"/>
	<path class="st0" d="M8.998,18.434c-0.031,0.213-0.052,0.427-0.059,0.642c-0.006,0.215-0.001,0.431,0.017,0.645
		c0.036,0.43,0.123,0.855,0.258,1.266c0.067,0.206,0.146,0.407,0.238,0.603c0.092,0.196,0.194,0.387,0.308,0.572
		c0.222,0.36,0.487,0.694,0.783,0.995l0.021,0.021c0.301,0.296,0.635,0.56,0.995,0.783c0.37,0.226,0.765,0.412,1.176,0.546
		c0.411,0.135,0.838,0.222,1.267,0.258c0.215,0.018,0.431,0.023,0.646,0.017c0.215-0.006,0.43-0.027,0.643-0.059
		c0.426-0.062,0.843-0.177,1.241-0.337c0.398-0.16,0.776-0.367,1.124-0.615c0.317-0.225,0.595-0.486,0.847-0.774
		c0.163-0.187,0.315-0.385,0.459-0.593c0.273-0.393,0.549-0.788,0.799-1.196l0.154-0.241c0.103-0.161,0.203-0.322,0.304-0.484
		c0.1-0.162,1.825-3.113,2.008-3.445c0.092-0.166,0.183-0.332,0.273-0.499l0.269-0.502c0.178-0.335,0.356-0.67,0.527-1.009
		c0.172-0.339,0.344-0.677,0.51-1.019c-0.234,0.3-0.462,0.603-0.69,0.906l-0.68,0.912l-0.674,0.914l-0.672,0.914
		c0,0-2.474,3.324-2.704,3.618c0,0-0.165,0.21-0.172,0.22c-1.405,1.793-3.877,2.524-5.898,1.253c-0.27-0.169-0.521-0.37-0.748-0.595
		c-0.795-0.799-1.249-1.905-1.253-3.032c-0.005-1.383,0.645-2.572,1.695-3.437l0.216-0.174l0.219-0.173
		c0.293-0.231,0.591-0.458,0.89-0.685c0.149-0.114,0.3-0.226,0.45-0.339c0.151-0.113,4.103-3.028,4.103-3.028l0.912-0.679
		c0.304-0.228,0.607-0.456,0.907-0.689c-0.342,0.166-0.681,0.338-1.019,0.51c-0.338,0.171-0.674,0.349-1.009,0.527l-0.502,0.269
		c-0.167,0.091-0.333,0.182-0.499,0.274c-0.333,0.183-0.665,0.367-0.994,0.556c-0.33,0.187-0.66,0.377-0.986,0.57
		c-0.163,0.097-1.788,1.086-1.948,1.189c-0.161,0.103-0.322,0.204-0.481,0.311c-0.16,0.106-0.32,0.209-0.479,0.318L11.551,14.6
		l-0.238,0.166c-0.527,0.368-0.988,0.781-1.363,1.306c-0.248,0.347-0.454,0.725-0.615,1.123C9.176,17.592,9.06,18.009,8.998,18.434z
		"/>
</g>
</svg>
