<?xml version="1.0" encoding="utf-8"?>
<!-- Generator: Adobe Illustrator 20.0.0, SVG Export Plug-In . SVG Version: 6.00 Build 0)  -->
<svg version="1.1" id="Vrstva_1" xmlns="http://www.w3.org/2000/svg" xmlns:xlink="http://www.w3.org/1999/xlink" x="0px" y="0px"
	 viewBox="0 0 32 32" style="enable-background:new 0 0 32 32;" xml:space="preserve">
<style type="text/css">
	.st0{fill-rule:evenodd;clip-rule:evenodd;}
</style>
<g>
	<path class="st0" d="M10.743,14.878c0,1.145,0.931,2.076,2.078,2.076c0.439,0,0.839-0.134,1.18-0.364l-0.017,0.157
		c0,1.145,0.931,2.076,2.078,2.076c1.147,0,2.078-0.931,2.078-2.076l-0.016-0.157c0.332,0.23,0.74,0.364,1.18,0.364
		c1.147,0,2.078-0.931,2.078-2.076c0-0.831-0.49-1.536-1.188-1.869c0.698-0.331,1.188-1.038,1.188-1.867
		c0-1.148-0.932-2.076-2.078-2.076c-0.44,0-0.839,0.134-1.18,0.364l0.016-0.157c0.001-1.146-0.93-2.077-2.077-2.077
		c-1.148,0-2.078,0.931-2.078,2.076l0.017,0.157c-0.333-0.23-0.74-0.364-1.18-0.364c-1.148,0-2.078,0.929-2.078,2.076
		c0,0.829,0.49,1.536,1.188,1.867C11.232,13.343,10.743,14.048,10.743,14.878z M16.063,10.933c1.148,0,2.078,0.931,2.078,2.076
		c0,1.148-0.931,2.076-2.078,2.076c-1.147,0-2.078-0.929-2.078-2.076C13.985,11.864,14.915,10.933,16.063,10.933z"/>
	<path class="st0" d="M23.544,17.163c-4.132,0-7.481,3.347-7.481,7.476C20.194,24.638,23.544,21.292,23.544,17.163z"/>
	<path class="st0" d="M16.063,24.638c0-4.128-3.349-7.476-7.481-7.476C8.581,21.292,11.931,24.638,16.063,24.638z"/>
</g>
</svg>
