<?xml version="1.0" encoding="utf-8"?>
<!-- Generator: Adobe Illustrator 20.0.0, SVG Export Plug-In . SVG Version: 6.00 Build 0)  -->
<svg version="1.1" id="Vrstva_1" xmlns="http://www.w3.org/2000/svg" xmlns:xlink="http://www.w3.org/1999/xlink" x="0px" y="0px"
	 viewBox="0 0 32 32" style="enable-background:new 0 0 32 32;" xml:space="preserve">
<style type="text/css">
	.st0{fill-rule:evenodd;clip-rule:evenodd;}
</style>
<g>
	<path class="st0" d="M23.147,17.483c-0.177-0.477-0.388-0.783-0.632-0.919c-0.155-0.113-0.422-0.204-0.799-0.272
		c-0.178-0.023-0.311-0.045-0.399-0.068c-0.022-0.023-0.056-0.045-0.1-0.068c-0.311-0.25-1.026-0.551-2.146-0.903
		c-1.12-0.352-1.913-0.755-2.379-1.209c-1.93-1.771-3.66-3.837-5.191-6.199L9.339,9.616L9.222,9.701L9.056,9.837
		c0,0-0.144,0.148-0.1,0.17c0.044,0.023,0.028,0.119-0.05,0.29c0,0.204,0.155,0.261,0.466,0.17l1.231-0.409l3.427,4.87v3.269
		c0,0,0.039,0.153,0.116,0.46c0.078,0.307,0.205,0.448,0.383,0.426l-1.298,5.517h0.865l0.799-2.623l0.832-1.294v3.916h0.998v-4.359
		c0-0.068,0.011-0.153,0.033-0.255c0.022-0.102,0.105-0.233,0.25-0.392c0.144-0.159,0.344-0.238,0.599-0.238
		s0.449,0.074,0.582,0.221c0.133,0.147,0.211,0.289,0.233,0.426l0.033,0.238v4.359h0.665v-3.508l1.896,3.508h0.865
		c-0.133-0.386-0.344-0.795-0.632-1.226c-0.288-0.431-0.432-0.885-0.432-1.362v-0.885c0-0.318,0.172-0.766,0.515-1.345
		c0.344-0.579,0.516-1.016,0.516-1.311v-0.885c0-0.204-0.022-0.397-0.067-0.579c0.177,0.045,0.311,0.091,0.399,0.136
		c0.111,0.068,0.222,0.272,0.333,0.613l0.033,0.102c0.089,0.204,0.238,0.267,0.449,0.187c0.211-0.08,0.272-0.233,0.183-0.46
		L23.147,17.483z"/>
</g>
</svg>
