<?xml version="1.0" encoding="utf-8"?>
<!-- Generator: Adobe Illustrator 20.0.0, SVG Export Plug-In . SVG Version: 6.00 Build 0)  -->
<svg version="1.1" id="Vrstva_1" xmlns="http://www.w3.org/2000/svg" xmlns:xlink="http://www.w3.org/1999/xlink" x="0px" y="0px"
	 viewBox="0 0 32 32" style="enable-background:new 0 0 32 32;" xml:space="preserve">
<style type="text/css">
	.st0{fill-rule:evenodd;clip-rule:evenodd;}
</style>
<g>
	<path class="st0" d="M19.268,22.931c0-0.306-0.248-0.553-0.553-0.553H13.64c-0.306,0-0.553,0.247-0.553,0.553
		c0,0.306,0.247,0.553,0.553,0.553h5.074C19.02,23.484,19.268,23.237,19.268,22.931z"/>
	<path class="st0" d="M19.464,21.271c0-0.306-0.247-0.553-0.553-0.553h-5.533c-0.306,0-0.553,0.247-0.553,0.553
		c0,0.306,0.247,0.553,0.553,0.553h5.533C19.217,21.824,19.464,21.577,19.464,21.271z"/>
	<path class="st0" d="M15.038,25.144h2.213c0.612,0,1.107-0.495,1.107-1.107h-4.426C13.931,24.649,14.426,25.144,15.038,25.144z"/>
	<path class="st0" d="M12.765,19.611c0,0.306,0.247,0.553,0.553,0.553h5.652c0.306,0,0.553-0.247,0.553-0.553
		c0.34-3.281,2.154-3.631,2.154-6.64c0-3.056-2.477-5.533-5.533-5.533s-5.533,2.477-5.533,5.533c0,3.009,1.813,3.359,2.153,6.64
		H12.765z"/>
</g>
</svg>
