<?xml version="1.0" encoding="utf-8"?>
<!-- Generator: Adobe Illustrator 20.0.0, SVG Export Plug-In . SVG Version: 6.00 Build 0)  -->
<svg version="1.1" id="Vrstva_1" xmlns="http://www.w3.org/2000/svg" xmlns:xlink="http://www.w3.org/1999/xlink" x="0px" y="0px"
	 viewBox="0 0 32 32" style="enable-background:new 0 0 32 32;" xml:space="preserve">
<style type="text/css">
	.st0{fill-rule:evenodd;clip-rule:evenodd;}
</style>
<g>
	<path class="st0" d="M8.306,15.949c0.039,0.568,0.212,1.111,0.51,1.606c0.597,0.992,0.916,2.131,0.916,3.289l0.006,2.137
		c0.03,0.262,0.649,0.471,1.413,0.471c0.765,0,1.383-0.209,1.414-0.471l0.006-1.387c0-0.364,0.152-0.712,0.419-0.96
		c0.267-0.248,0.625-0.347,0.989-0.347c0.226,0,0.688,0,0.715,0c0.349-0.004,0.686,0.157,0.934,0.402
		c0.248,0.246,0.388,0.581,0.388,0.93l0.006,1.361c0.03,0.262,0.649,0.471,1.413,0.471s1.383-0.209,1.414-0.471l0.006-1.198
		c0-3.555,2.607-5.142,2.916-5.33c1.537-0.934,0.854,1.895,0.854,1.895c-1.021,3.18,1.335,4.633,1.335,4.633l0.011-0.012
		c0.007,0.008,0.009,0.02,0.018,0.026c0.151,0.114,0.426,0.005,0.613-0.244c0.173-0.229,0.204-0.489,0.093-0.619l0.012-0.014
		c-1.257-0.981-0.118-3.376-0.118-3.376c2.278-5.811-1.663-8.738-2.337-9.119c-1.372-0.777-4.636-1.538-6.283,0.553
		c-0.466,0.591-0.31,1.325-0.096,1.838c0.552,1.32,2.036,2.508,3.308,2.646c0.363,0.041,0.627-0.042,0.806-0.251
		c0.569-0.662,0.269-2.402,0.105-3.017c-0.044-0.167,0.055-0.34,0.223-0.384c0.048-0.013,0.096-0.011,0.142-0.001
		c0.113,0.023,0.211,0.105,0.242,0.224c0.069,0.259,0.648,2.56-0.236,3.588c-0.195,0.227-0.541,0.479-1.117,0.479
		c-0.074,0-0.152-0.004-0.233-0.013c-1.501-0.164-3.178-1.494-3.82-3.029c-0.162-0.386-0.242-0.76-0.251-1.112
		c-3.598,0-7.705,2.005-7.973,5.611c-0.009,0.116,0.063,0.222,0.173,0.259c0.11,0.037,0.231-0.006,0.293-0.104
		C7.758,16.561,8.033,16.185,8.306,15.949z"/>
</g>
</svg>
