<?xml version="1.0" encoding="utf-8"?>
<!-- Generator: Adobe Illustrator 20.0.0, SVG Export Plug-In . SVG Version: 6.00 Build 0)  -->
<svg version="1.1" id="Vrstva_1" xmlns="http://www.w3.org/2000/svg" xmlns:xlink="http://www.w3.org/1999/xlink" x="0px" y="0px"
	 viewBox="0 0 32 32" style="enable-background:new 0 0 32 32;" xml:space="preserve">
<style type="text/css">
	.st0{fill-rule:evenodd;clip-rule:evenodd;}
</style>
<g>
	<path class="st0" d="M8.678,14.895v5.94H8.295c-0.325,0-0.588,0.263-0.588,0.589v0.382h16.71v-0.382
		c0-0.325-0.263-0.589-0.589-0.589h-0.382v-5.94h-3.118v5.94h-2.707v-5.94h-3.119v5.94h-2.706v-5.94H8.678z"/>
	<path class="st0" d="M24.948,22.793H7.177c-0.33,0-0.598,0.268-0.598,0.598c0,0.33,0.268,0.598,0.598,0.598h17.771
		c0.33,0,0.598-0.268,0.598-0.598C25.547,23.061,25.279,22.793,24.948,22.793z"/>
	<path class="st0" d="M7.765,13.907h16.594c0,0,0.001,0,0.001,0c0.325,0,0.588-0.264,0.588-0.588c0-0.238-0.141-0.443-0.344-0.535
		L16.332,8.51c-0.169-0.088-0.371-0.088-0.54,0l-8.297,4.286c-0.241,0.124-0.366,0.398-0.302,0.662
		C7.258,13.722,7.494,13.907,7.765,13.907z"/>
</g>
</svg>
