<?xml version="1.0" encoding="utf-8"?>
<!-- Generator: Adobe Illustrator 20.0.0, SVG Export Plug-In . SVG Version: 6.00 Build 0)  -->
<svg version="1.1" id="Vrstva_1" xmlns="http://www.w3.org/2000/svg" xmlns:xlink="http://www.w3.org/1999/xlink" x="0px" y="0px"
	 viewBox="0 0 32 32" style="enable-background:new 0 0 32 32;" xml:space="preserve">
<style type="text/css">
	.st0{fill-rule:evenodd;clip-rule:evenodd;}
</style>
<g>
	<path class="st0" d="M22.829,21.081c-0.641,0-1.244,0.249-1.697,0.702c-0.164,0.164-0.381,0.254-0.613,0.254
		c-0.232,0-0.449-0.09-0.613-0.254c-0.468-0.467-1.082-0.701-1.697-0.701c-0.615,0-1.229,0.234-1.697,0.701
		c-0.164,0.164-0.381,0.254-0.613,0.254c-0.232,0-0.449-0.09-0.613-0.254c-0.468-0.467-1.082-0.701-1.697-0.701
		s-1.229,0.234-1.697,0.701c-0.169,0.169-0.391,0.253-0.613,0.253c-0.222,0-0.444-0.084-0.613-0.253
		c-0.468-0.467-1.082-0.701-1.697-0.701c-0.614,0-1.229,0.234-1.697,0.701c-0.299,0.299-0.299,0.784,0,1.083
		c0.299,0.299,0.785,0.299,1.084,0c0.169-0.169,0.391-0.253,0.613-0.253c0.222,0,0.444,0.084,0.613,0.253
		c0.468,0.467,1.082,0.701,1.697,0.701s1.229-0.234,1.697-0.701c0.169-0.169,0.391-0.253,0.613-0.253
		c0.222,0,0.444,0.084,0.613,0.253c0.453,0.453,1.056,0.702,1.697,0.702c0.641,0,1.244-0.249,1.697-0.702
		c0.169-0.169,0.391-0.253,0.613-0.253c0.222,0,0.444,0.084,0.613,0.253c0.453,0.453,1.056,0.702,1.697,0.702
		c0.641,0,1.244-0.249,1.697-0.702c0.164-0.164,0.382-0.254,0.613-0.254c0.231,0,0.449,0.09,0.613,0.254
		c0.299,0.299,0.785,0.299,1.084,0c0.299-0.299,0.299-0.784,0-1.083C24.072,21.33,23.47,21.081,22.829,21.081z"/>
	<path class="st0" d="M18.941,14.56c1.451-0.405,6.059-2.686,3.353-5.955c-0.051-0.062-0.128-0.098-0.208-0.097
		c-0.08,0-0.156,0.037-0.207,0.099c-0.434,0.536-1.53,1.735-2.637,1.711c-1.286-0.027-2.682,0.355-3.342,1.307
		c-0.661-0.951-2.058-1.331-3.344-1.303c-1.108,0.025-2.205-1.173-2.639-1.708C9.865,8.551,9.789,8.515,9.709,8.514
		c-0.08,0-0.157,0.036-0.208,0.098c-2.702,3.272,1.909,5.548,3.36,5.951c0.611,0.17,1.124,0.583,1.42,1.143
		c0.296,0.56,0.349,1.216,0.146,1.816l-0.688,2.031c0.787,0.029,1.533,0.288,2.16,0.744c0.625-0.455,1.368-0.713,2.153-0.744
		l-0.672-1.84c-0.204-0.599-0.152-1.256,0.143-1.816C17.818,15.338,18.331,14.73,18.941,14.56z"/>
</g>
</svg>
