<?xml version="1.0" encoding="utf-8"?>
<!-- Generator: Adobe Illustrator 20.0.0, SVG Export Plug-In . SVG Version: 6.00 Build 0)  -->
<svg version="1.1" id="Vrstva_1" xmlns="http://www.w3.org/2000/svg" xmlns:xlink="http://www.w3.org/1999/xlink" x="0px" y="0px"
	 viewBox="0 0 32 32" style="enable-background:new 0 0 32 32;" xml:space="preserve">
<style type="text/css">
	.st0{fill-rule:evenodd;clip-rule:evenodd;}
</style>
<g>
	<path class="st0" d="M7.406,17.767c0,3.347,2.299,6.06,5.134,6.06c2.836,0,5.134-2.712,5.134-6.06v-6.062
		c0,0-0.935,1.032-5.134,1.032c-4.198,0-5.134-1.032-5.134-1.032V17.767z M14.68,15.572c0.8,0,1.46,0.602,1.56,1.382
		c0.015,0.113-0.079,0.207-0.192,0.207h-2.736c-0.113,0-0.207-0.093-0.192-0.207C13.22,16.174,13.88,15.572,14.68,15.572z
		 M12.562,19.295c0.366-0.002,0.805-0.004,1.232-0.034c0.395-0.029,0.797-0.058,1.321-0.199c0.109-0.029,0.196,0.036,0.182,0.15
		c-0.084,0.688-0.495,1.272-0.968,1.651c-0.54,0.422-1.142,0.627-1.814,0.629c-0.124-0.006-0.255-0.012-0.441-0.038
		c-0.165-0.033-0.314-0.06-0.468-0.117c-0.302-0.107-0.596-0.258-0.859-0.471C10.275,20.487,9.863,19.9,9.78,19.21
		c-0.014-0.114,0.073-0.18,0.183-0.15c0.526,0.14,0.929,0.169,1.324,0.197l0.636,0.028L12.562,19.295z M10.401,15.572
		c0.8,0,1.46,0.602,1.56,1.382c0.015,0.113-0.079,0.207-0.192,0.207H9.032c-0.113,0-0.207-0.093-0.192-0.207
		C8.941,16.174,9.601,15.572,10.401,15.572z"/>
	<path class="st0" d="M22.034,17.98c-0.526-0.14-0.928-0.167-1.323-0.198l-0.636-0.028l-0.64-0.01
		c-0.366,0.004-0.805,0.006-1.231,0.034c-0.006,0-0.013,0.001-0.019,0.002c-0.002,1.144-0.256,2.221-0.701,3.158
		c0.608,0.3,1.275,0.466,1.975,0.466c2.836,0,5.134-2.715,5.134-6.062V9.28c0,0,0.032-1.032-5.136-1.032S14.326,9.28,14.326,9.28
		v2.867c0.96-0.087,1.619-0.235,2.045-0.366c0.634-0.196,0.888-0.393,0.933-0.431c0.095-0.118,0.229-0.178,0.371-0.178
		c0.059,0,0.119,0.01,0.179,0.031c0.206,0.072,0.332,0.282,0.332,0.502v4.146c0.401-0.201,0.832-0.303,1.296-0.304
		c0.124,0.006,0.256,0.014,0.441,0.038c0.165,0.032,0.314,0.062,0.468,0.117c0.302,0.107,0.597,0.258,0.86,0.474
		c0.473,0.378,0.884,0.963,0.967,1.653C22.231,17.943,22.144,18.009,22.034,17.98z M20.788,13.739
		c-0.565-0.571-0.61-1.469-0.135-2.092c0.069-0.091,0.2-0.09,0.281-0.009l1.935,1.954c0.08,0.081,0.081,0.214-0.009,0.283
		C22.242,14.356,21.353,14.31,20.788,13.739z"/>
</g>
</svg>
