<?xml version="1.0" encoding="utf-8"?>
<!-- Generator: Adobe Illustrator 20.0.0, SVG Export Plug-In . SVG Version: 6.00 Build 0)  -->
<svg version="1.1" id="Vrstva_1" xmlns="http://www.w3.org/2000/svg" xmlns:xlink="http://www.w3.org/1999/xlink" x="0px" y="0px"
	 viewBox="0 0 32 32" style="enable-background:new 0 0 32 32;" xml:space="preserve">
<style type="text/css">
	.st0{fill-rule:evenodd;clip-rule:evenodd;}
</style>
<g>
	<path class="st0" d="M25.688,15.984c-0.146-5.122-4.322-9.23-9.455-9.23c-5.133,0-9.309,4.108-9.451,9.23
		c1.32,0.184,1.802-1.01,3.223-0.758c-0.138,0.251-0.262,0.515-0.37,0.788c-1.133-0.128-1.6,0.902-2.841,0.758
		c0.011,0.229,0.03,0.455,0.06,0.676c1.069,0.18,1.451-0.782,2.55-0.732c-0.068,0.233-0.12,0.473-0.161,0.718
		c-0.905-0.004-1.271,0.848-2.277,0.721c0.056,0.259,0.12,0.518,0.191,0.77c0.796,0.079,1.077-0.717,1.996-0.695
		c-0.008,0.131-0.011,0.263-0.011,0.398c0,0.075,0,0.15,0.004,0.222c-0.785-0.008-1.039,0.721-1.787,0.687
		c0.093,0.256,0.198,0.504,0.31,0.748c0.538-0.026,0.725-0.721,1.54-0.664c0.026,0.176,0.056,0.353,0.093,0.526
		c-0.71-0.049-0.863,0.608-1.372,0.661c0.131,0.237,0.269,0.47,0.419,0.691c0.303-0.161,0.565-0.65,1.133-0.68
		c-0.056-0.18-0.108-0.368-0.153-0.552c0.508,0,1.088-0.199,1.574-0.646c-0.157-0.901,1.233-1.818,1.233-2.478
		c0-0.717-0.359-1.112-0.359-2.08c0-0.713,0.348-1.495,0.867-2.024c0.101-0.105,0.206-0.188,0.325-0.264
		c-0.478,0.597-0.849,1.307-0.849,2.125c0,0.909,0.423,1.39,0.423,2.23c0,0.838-1.222,1.566-1.222,2.429
		c0,0.342,0.108,0.676,0.464,1.33c-0.55,0.552-1.264,0.852-1.724,0.852c-0.153,0-0.232-0.049-0.284-0.165
		c-0.049-0.101-0.09-0.207-0.131-0.308c-0.497,0.019-0.725,0.473-1.002,0.653c0.15,0.203,0.31,0.398,0.475,0.59
		c0.187-0.206,0.434-0.548,0.796-0.646c0.063,0.128,0.134,0.252,0.205,0.375c-0.31,0.083-0.527,0.402-0.691,0.608
		c0.179,0.188,0.366,0.364,0.557,0.533c0.12-0.188,0.31-0.428,0.52-0.556c0.078,0.105,0.157,0.21,0.243,0.312
		c-0.179,0.12-0.336,0.338-0.441,0.518c0.224,0.18,0.456,0.349,0.692,0.511c0.12-0.965,1.432-1.626,1.076-2.745
		c0.116,0.195,0.254,0.443,0.254,0.74c0,0.811-0.86,1.453-0.927,2.261c0.179,0.105,0.359,0.207,0.546,0.3
		c0.03-0.882,0.942-1.851,0.942-2.58c0-0.811-1.058-1.626-1.058-2.584c0-0.953,1.219-1.618,1.219-2.459
		c0-0.841-0.52-1.325-0.52-2.399c0-0.789,0.374-1.588,0.95-2.099c0.105-0.09,0.202-0.161,0.325-0.225
		c-0.546,0.654-0.86,1.25-0.86,2.152c0,1.014,0.595,1.573,0.595,2.564s-1.197,1.543-1.197,2.467c0,0.928,1.114,1.705,1.114,2.655
		c0,0.864-0.983,1.727-0.998,2.752c0.217,0.094,0.433,0.18,0.658,0.259c-0.127-1.036,0.98-2.107,0.98-2.951
		c0-0.924-1.155-1.716-1.155-2.715c0-0.995,1.174-1.457,1.174-2.482c0-1.021-0.722-1.588-0.722-2.715
		c0-0.882,0.434-1.675,1.066-2.163c0.015-0.011,0.026-0.022,0.041-0.034c0.06-0.041,0.108,0.011,0.067,0.064
		c-0.448,0.559-0.688,1.13-0.688,1.968c0,1.036,0.83,1.874,0.83,2.876c0,1.179-1.114,1.517-1.114,2.485
		c0,0.973,1.193,1.747,1.193,2.775c0,0.954-1.129,2.013-0.935,3.117c0.224,0.056,0.456,0.109,0.688,0.15
		c-0.213-1.371,0.898-2.358,0.898-3.252c0-0.972-1.237-1.84-1.237-2.79c0-0.893,0.886-1.186,1.002-2.102
		c0.019-0.124,0.12-0.218,0.254-0.195c0.183,0.033,0.412,0.154,0.774,0.154c0.363,0,0.595-0.12,0.774-0.154
		c0.139-0.023,0.239,0.071,0.254,0.195c0.116,0.916,1.002,1.209,1.002,2.102c0,0.95-1.234,1.818-1.234,2.79
		c0,0.894,1.107,1.881,0.894,3.252c0.232-0.041,0.463-0.094,0.688-0.15c0.195-1.104-0.934-2.163-0.934-3.117
		c0-1.029,1.193-1.803,1.193-2.775c0-0.969-1.11-1.306-1.11-2.485c0-1.003,0.826-1.84,0.826-2.876c0-0.838-0.239-1.409-0.684-1.968
		c-0.045-0.053,0.004-0.105,0.064-0.064c0.015,0.011,0.026,0.023,0.041,0.034c0.632,0.488,1.065,1.281,1.065,2.163
		c0,1.126-0.722,1.694-0.722,2.715c0,1.025,1.174,1.487,1.174,2.482c0,0.999-1.155,1.792-1.155,2.715
		c0,0.845,1.106,1.915,0.979,2.951c0.224-0.079,0.445-0.165,0.658-0.259c-0.015-1.025-0.998-1.889-0.998-2.752
		c0-0.95,1.114-1.728,1.114-2.655c0-0.924-1.196-1.476-1.196-2.467s0.594-1.551,0.594-2.564c0-0.902-0.314-1.498-0.856-2.152
		c0.119,0.064,0.22,0.135,0.321,0.225c0.575,0.511,0.949,1.311,0.949,2.099c0,1.074-0.52,1.558-0.52,2.399
		c0,0.841,1.223,1.506,1.223,2.459c0,0.958-1.058,1.773-1.058,2.584c0,0.636,0.692,1.455,0.888,2.24l-0.331-2.222
		c0-0.297,0.139-0.544,0.254-0.74c-0.351,1.119,0.957,1.78,1.077,2.745c0.239-0.161,0.471-0.33,0.692-0.511
		c-0.101-0.18-0.262-0.398-0.438-0.518c0.082-0.101,0.164-0.207,0.239-0.312c0.213,0.128,0.4,0.368,0.52,0.556
		c0.194-0.169,0.381-0.345,0.557-0.533c-0.164-0.206-0.378-0.526-0.692-0.608c0.075-0.124,0.142-0.248,0.206-0.375
		c0.362,0.098,0.613,0.439,0.796,0.646c0.164-0.191,0.325-0.387,0.475-0.59c-0.273-0.18-0.501-0.634-0.998-0.653
		c-0.041,0.101-0.086,0.206-0.13,0.308c-0.056,0.117-0.135,0.165-0.285,0.165c-0.463,0-1.178-0.3-1.727-0.852
		c0.359-0.653,0.467-0.988,0.467-1.33c0-0.863-1.222-1.592-1.222-2.429c0-0.841,0.419-1.321,0.419-2.23
		c0-0.819-0.366-1.528-0.849-2.125c0.12,0.076,0.225,0.158,0.325,0.264c0.523,0.529,0.871,1.31,0.871,2.024
		c0,0.969-0.363,1.363-0.363,2.08c0,0.661,1.391,1.577,1.234,2.478c0.486,0.447,1.065,0.646,1.574,0.646
		c-0.045,0.184-0.097,0.371-0.153,0.552c0.572,0.03,0.834,0.519,1.133,0.68c0.15-0.221,0.288-0.454,0.419-0.691
		c-0.508-0.052-0.662-0.71-1.372-0.661c0.037-0.173,0.067-0.349,0.093-0.526c0.819-0.057,1.002,0.638,1.54,0.664
		c0.116-0.244,0.221-0.492,0.311-0.748c-0.748,0.034-1.002-0.694-1.787-0.687c0.004-0.072,0.004-0.147,0.004-0.222
		c0-0.135-0.004-0.266-0.011-0.398c0.919-0.023,1.2,0.773,1.996,0.695c0.075-0.252,0.138-0.511,0.191-0.77
		c-1.006,0.128-1.372-0.725-2.277-0.721c-0.037-0.244-0.094-0.485-0.157-0.718c1.095-0.049,1.481,0.913,2.549,0.732
		c0.027-0.222,0.049-0.447,0.06-0.676c-1.245,0.143-1.712-0.886-2.845-0.758c-0.105-0.274-0.232-0.537-0.37-0.788
		C23.881,14.974,24.364,16.169,25.688,15.984z M10.344,14.659c-1.361-0.473-2.254,0.882-3.301,0.567
		c1.017-1.085,1.843-2.317,1.735-3.74c-0.008-0.083,0.067-0.132,0.138-0.083c0.519,0.361,0.882,0.962,0.994,1.634
		c0.718-0.466,1.563-0.53,2.258-0.244C11.45,13.296,10.83,13.93,10.344,14.659z M18.038,13.075c0.015,0.049-0.004,0.082-0.06,0.056
		c-0.157-0.071-0.34-0.105-0.535-0.105c-0.359,0-0.673,0.132-0.86,0.36c-0.116,0.379-0.108,0.804,0.03,1.138
		c0.206-0.022,0.191-0.39,0.363-0.39c0.142,0,0.209,0.102,0.456,0.102c0.225,0,0.315-0.064,0.415-0.136
		c0.194,0.026,0.239,0.218,0.239,0.436c0,0.984-0.897,2.335-1.854,2.335c-0.957,0-1.854-1.352-1.854-2.335
		c0-0.218,0.034-0.413,0.224-0.413c0.161,0,0.188,0.113,0.434,0.113c0.243,0,0.355-0.102,0.497-0.102
		c0.146,0,0.198,0.117,0.344,0.15c0.093-0.229,0.086-0.623,0.004-0.898c-0.187-0.229-0.501-0.36-0.86-0.36
		c-0.194,0-0.374,0.034-0.531,0.105c-0.056,0.026-0.078-0.007-0.063-0.056c0.194-0.646,0.927-1.142,1.806-1.142
		S17.847,12.428,18.038,13.075z M18.019,13.559c0,0.083-0.026,0.154-0.112,0.233c-0.165-0.184-0.501-0.18-0.882-0.049
		c-0.023-0.045-0.023-0.117-0.008-0.162c0.157-0.176,0.404-0.24,0.613-0.24C17.892,13.341,18.019,13.431,18.019,13.559z
		 M14.445,13.559c0-0.128,0.131-0.218,0.389-0.218c0.359,0,0.718,0.222,0.703,0.42c-0.404-0.15-0.792-0.158-0.976,0.03
		C14.475,13.713,14.445,13.641,14.445,13.559z M19.552,12.188c-0.03,0.071-0.097,0.094-0.168,0.056
		c-0.949-0.473-2.019-0.74-3.152-0.74c-1.133,0-2.202,0.267-3.152,0.74c-0.071,0.038-0.138,0.015-0.168-0.056
		c-0.273-0.616-0.639-1.186-1.058-1.724c0.695,0.049,1.297,0.289,1.783,0.687c-0.206-0.59-0.471-1.104-0.8-1.603
		c0.882,0.094,1.619,0.417,2.157,0.973l0.423-1.112l-0.938-0.83l1.252-0.086l0.501-1.172l0.501,1.172l1.252,0.086l-0.935,0.83
		l0.419,1.112c0.539-0.556,1.279-0.879,2.162-0.973c-0.333,0.499-0.595,1.014-0.804,1.603c0.486-0.398,1.091-0.638,1.783-0.687
		C20.195,11.002,19.825,11.572,19.552,12.188z M22.124,14.659c-0.489-0.728-1.11-1.363-1.825-1.866
		c0.696-0.285,1.537-0.222,2.259,0.244c0.112-0.672,0.474-1.273,0.991-1.634c0.071-0.049,0.146,0,0.142,0.083
		c-0.112,1.423,0.718,2.655,1.734,3.74C24.375,15.541,23.481,14.186,22.124,14.659z"/>
	<path class="st0" d="M16.232,10.048c0,0-0.946,0.725-0.979,0.751c-0.037,0.026-0.019,0.071,0.03,0.064
		c0.082-0.015,0.482-0.083,0.949-0.083c0.468,0,0.868,0.068,0.953,0.083c0.045,0.007,0.064-0.038,0.027-0.064
		C17.182,10.772,16.232,10.048,16.232,10.048z"/>
	<path class="st0" d="M16.232,14.978c-0.116,0-0.138-0.042-0.217-0.042c-0.075,0-0.22,0.06-0.254,0.113
		c0.004,0.03,0.015,0.053,0.034,0.075c0.168,0.026,0.243,0.12,0.437,0.12c0.194,0,0.269-0.094,0.438-0.12
		c0.022-0.022,0.03-0.045,0.034-0.075c-0.03-0.053-0.176-0.113-0.251-0.113C16.374,14.937,16.348,14.978,16.232,14.978z"/>
	<path class="st0" d="M15.548,15.564c0,0-0.052,0.019-0.063,0.064c0.198,0.154,0.333,0.503,0.747,0.503
		c0.415,0,0.554-0.349,0.752-0.503c-0.015-0.045-0.063-0.064-0.063-0.064s-0.262,0.064-0.688,0.064
		C15.806,15.628,15.548,15.564,15.548,15.564z"/>
</g>
</svg>
