<?xml version="1.0" encoding="utf-8"?>
<!-- Generator: Adobe Illustrator 20.0.0, SVG Export Plug-In . SVG Version: 6.00 Build 0)  -->
<svg version="1.1" id="Vrstva_1" xmlns="http://www.w3.org/2000/svg" xmlns:xlink="http://www.w3.org/1999/xlink" x="0px" y="0px"
	 viewBox="0 0 32 32" style="enable-background:new 0 0 32 32;" xml:space="preserve">
<style type="text/css">
	.st0{fill-rule:evenodd;clip-rule:evenodd;}
</style>
<g>
	<path class="st0" d="M21.847,9.963c-0.055-0.235-0.229-0.556-0.747-0.744c-0.148-0.053-0.311,0.022-0.365,0.169
		c-0.054,0.147,0.022,0.31,0.17,0.363c0.224,0.081,0.354,0.196,0.388,0.339c0.05,0.216-0.095,0.541-0.369,0.838
		c-0.22-0.048-0.474-0.084-0.743-0.084c-0.716,0-1.899,0.278-2.372,1.97l0.21-0.01c0.998-0.076,1.47-0.264,1.576-0.415l0.194-0.277
		l0.24,0.239c0.024,0.024,0.494,0.503,0.453,1.228c0.256-0.108,0.529-0.316,0.486-0.714l-0.077-0.712l0.546,0.467
		c0.03,0.026,0.642,0.561,0.697,1.444c0.075-0.049,0.154-0.108,0.233-0.178l0.027-0.021l0.547-0.377
		c0.046-0.494,0.013-0.992-0.179-1.409c-0.215-0.467-0.595-0.779-1.128-0.928c-0.023-0.01-0.066-0.028-0.118-0.048
		C21.802,10.717,21.927,10.306,21.847,9.963z"/>
	<path class="st0" d="M22.278,15.785c0.024-0.05,0.334-0.707,0.527-1.515l-0.075,0.052c-0.404,0.354-0.812,0.479-0.829,0.484
		l-0.448,0.135l0.086-0.458c0.075-0.398-0.015-0.729-0.136-0.972c-0.271,0.488-0.88,0.696-1.259,0.739l-0.456,0.052l0.156-0.43
		c0.14-0.386,0.041-0.705-0.065-0.902c-0.26,0.155-0.753,0.327-1.726,0.401l-0.368,0.017c-0.005,0.03-0.011,0.057-0.015,0.089
		c-0.039,0.132-0.076,0.271-0.113,0.429c-0.964,4.224-4.489,6.467-8.652,8.761c-0.222,0.123-0.348,0.403-0.288,0.637
		c0.046,0.179,0.193,0.294,0.374,0.294l0.064-0.005c0.353-0.053,0.787-0.087,1.29-0.126C13.468,23.224,19.281,22.773,22.278,15.785z
		 M13.108,22.215c-0.029,0.009-0.058,0.014-0.087,0.014c-0.12,0-0.232-0.077-0.271-0.196c-0.048-0.149,0.034-0.308,0.184-0.357
		c6.164-1.976,6.844-6.172,6.85-6.214c0.023-0.155,0.167-0.265,0.323-0.24c0.156,0.022,0.263,0.166,0.241,0.321
		C20.32,15.729,19.607,20.131,13.108,22.215z"/>
</g>
</svg>
