<?xml version="1.0" encoding="utf-8"?>
<!-- Generator: Adobe Illustrator 20.0.0, SVG Export Plug-In . SVG Version: 6.00 Build 0)  -->
<svg version="1.1" id="Vrstva_1" xmlns="http://www.w3.org/2000/svg" xmlns:xlink="http://www.w3.org/1999/xlink" x="0px" y="0px"
	 viewBox="0 0 32 32" style="enable-background:new 0 0 32 32;" xml:space="preserve">
<style type="text/css">
	.st0{fill-rule:evenodd;clip-rule:evenodd;}
</style>
<g>
	<path class="st0" d="M20.089,25.043l0.488-1.722c-9.007-2.543-10.895-9.75-10.97-10.056l-0.869,0.213l0.869-0.212l-1.738,0.424
		c0.054,0.219,0.904,3.548,4.046,6.689C13.754,22.221,16.38,23.997,20.089,25.043z"/>
	<path class="st0" d="M22.717,13.156c0.085-0.007,0.166,0.014,0.247,0.044l1.293-5.159l-13.964,5.028
		c0.238,0.659,0.506,1.312,0.846,1.951c1.805,3.393,4.746,5.785,8.101,6.989c0,0,1.016,0.42,1.475,0.175l1.501-5.99
		c-0.166-0.304-0.282-0.697-0.318-1.139C21.815,14.048,22.183,13.199,22.717,13.156z M16.187,15.618
		c-0.819,0.066-1.536-0.545-1.602-1.365c-0.066-0.82,0.544-1.536,1.364-1.601c0.821-0.066,1.537,0.545,1.603,1.364
		C17.617,14.834,17.006,15.552,16.187,15.618z M18.408,18.588c-0.536,0.042-1.002-0.355-1.045-0.889
		c-0.043-0.533,0.355-1.001,0.888-1.044c0.534-0.041,1.002,0.356,1.044,0.889C19.338,18.077,18.941,18.546,18.408,18.588z
		 M20.793,14.357c-0.576,0.045-1.078-0.381-1.124-0.957c-0.047-0.574,0.382-1.077,0.957-1.124c0.574-0.047,1.078,0.382,1.123,0.957
		C21.795,13.808,21.368,14.31,20.793,14.357z"/>
</g>
</svg>
