<?xml version="1.0" encoding="utf-8"?>
<!-- Generator: Adobe Illustrator 20.0.0, SVG Export Plug-In . SVG Version: 6.00 Build 0)  -->
<svg version="1.1" id="Vrstva_1" xmlns="http://www.w3.org/2000/svg" xmlns:xlink="http://www.w3.org/1999/xlink" x="0px" y="0px"
	 viewBox="0 0 32 32" style="enable-background:new 0 0 32 32;" xml:space="preserve">
<style type="text/css">
	.st0{fill-rule:evenodd;clip-rule:evenodd;}
</style>
<g>
	<path class="st0" d="M19.493,17.945h0.032l-0.186,5.982c-0.008,0.256,0.087,0.497,0.265,0.68c0.177,0.184,0.42,0.28,0.675,0.28
		h0.779c0.519,0,0.951-0.411,0.951-0.934V8.247c0-0.626-0.511-1.134-1.133-1.134c-1.066,0-1.954,0.83-2.029,1.9l-0.543,7.64
		c-0.024,0.333,0.09,0.663,0.316,0.908C18.846,17.804,19.162,17.945,19.493,17.945z"/>
	<path class="st0" d="M11.246,13.674h0.15l-0.318,10.251c-0.008,0.256,0.087,0.498,0.264,0.682c0.177,0.184,0.421,0.281,0.675,0.281
		h0.749c0.254,0,0.498-0.098,0.675-0.281c0.177-0.184,0.272-0.429,0.265-0.685l-0.318-10.248h0.214c0.623,0,1.121-0.496,1.121-1.122
		V7.459c0-0.191-0.149-0.334-0.339-0.334h-0.079c-0.189,0-0.335,0.143-0.335,0.335v3.367c0,0.299-0.249,0.543-0.545,0.543h-0.08
		c-0.296,0-0.547-0.244-0.547-0.543V7.46c0-0.191-0.143-0.335-0.333-0.335h-0.081c-0.19,0-0.341,0.143-0.341,0.335v3.367
		c0,0.299-0.243,0.543-0.54,0.543h-0.079c-0.296,0-0.526-0.244-0.526-0.543V7.46c0-0.191-0.165-0.335-0.355-0.335h-0.08
		c-0.19,0-0.347,0.143-0.347,0.335v5.093C10.117,13.178,10.624,13.674,11.246,13.674z"/>
</g>
</svg>
