<?xml version="1.0" encoding="utf-8"?>
<!-- Generator: Adobe Illustrator 20.0.0, SVG Export Plug-In . SVG Version: 6.00 Build 0)  -->
<svg version="1.1" id="Vrstva_1" xmlns="http://www.w3.org/2000/svg" xmlns:xlink="http://www.w3.org/1999/xlink" x="0px" y="0px"
	 viewBox="0 0 32 32" style="enable-background:new 0 0 32 32;" xml:space="preserve">
<style type="text/css">
	.st0{fill-rule:evenodd;clip-rule:evenodd;}
</style>
<g>
	<path class="st0" d="M15.056,19.363c2.369,0,4.404-1.397,5.318-3.4h1.253c1.486,0,2.696-1.194,2.696-2.662
		c0-1.468-1.21-2.662-2.696-2.662h-4.62v0.002H9.221v2.96C9.221,16.783,11.833,19.363,15.056,19.363z M20.891,13.601V12.04h0.736
		c0.704,0,1.277,0.566,1.277,1.261c0,0.695-0.573,1.261-1.277,1.261h-0.824C20.856,14.249,20.891,13.929,20.891,13.601z"/>
	<path class="st0" d="M9.789,22.308h10.534c0.314,0,0.7-0.214,0.863-0.479l1.123-1.818H7.802l1.123,1.818
		C9.089,22.093,9.475,22.308,9.789,22.308z"/>
</g>
</svg>
