<?xml version="1.0" encoding="utf-8"?>
<!-- Generator: Adobe Illustrator 20.0.0, SVG Export Plug-In . SVG Version: 6.00 Build 0)  -->
<svg version="1.1" id="Vrstva_1" xmlns="http://www.w3.org/2000/svg" xmlns:xlink="http://www.w3.org/1999/xlink" x="0px" y="0px"
	 viewBox="0 0 32 32" style="enable-background:new 0 0 32 32;" xml:space="preserve">
<style type="text/css">
	.st0{fill-rule:evenodd;clip-rule:evenodd;}
</style>
<g>
	<path class="st0" d="M16.383,22.991c2.651,0,5.013-1.727,6.211-4.232c0.167-0.367-0.121-0.431-0.499-0.334
		c-3.283,0.822-6.278,1.837-9.101,2.966c-0.254,0.095-0.333,0.29-0.063,0.508C13.927,22.592,15.108,22.991,16.383,22.991z"/>
	<path class="st0" d="M10.988,11.39c-0.145,0.23-0.307,0.935,0.046,0.835c3.246-1.07,6.491-1.987,9.737-2.646
		c0.227-0.026,0.267-0.187,0.038-0.401c-1.085-0.908-2.436-1.444-3.913-1.444C14.453,7.734,12.255,9.2,10.988,11.39z"/>
	<polygon class="st0" points="24.411,19.445 24.492,19.445 24.492,19.184 24.611,19.184 24.611,19.131 24.291,19.131 24.291,19.184 
		24.411,19.184 	"/>
	<polygon class="st0" points="24.738,19.198 24.818,19.445 24.896,19.445 24.976,19.198 24.976,19.445 25.051,19.445 25.051,19.131 
		24.929,19.131 24.857,19.346 24.784,19.131 24.662,19.131 24.662,19.445 24.738,19.445 	"/>
	<path class="st0" d="M11.329,20.956l0.022-1.495c0.41,0.418,0.821,0.835,1.231,1.253c0.557,0.582,1.472-0.488,1.055-0.945
		l-0.967-1.099c0.322-0.586,0.645-1.172,0.967-1.758c0.352-0.586-0.615-1.202-1.055-0.594l-1.28,2.066l0.005-1.604l-1.341,0.615
		v4.594c0.352-0.147,0.703-0.293,1.055-0.44C11.272,21.462,11.354,21.264,11.329,20.956z"/>
	<path class="st0" d="M13.976,16.317c0,0.086-0.017,4.168-0.017,4.168c0.298-0.126,0.597-0.253,0.896-0.379
		c0.37-0.169,0.509-0.422,0.517-0.758l0.034-4.133c-0.321,0.132-0.643,0.264-0.964,0.396C14.125,15.786,13.979,16.004,13.976,16.317
		z"/>
	<path class="st0" d="M17.076,18.849l0.052-1.774c0,0,1.287,1.395,1.464,1.636c0.258,0.322,1.122,0.066,1.12-0.413l-0.017-4.237
		l-0.551,0.172c-0.391,0.138-0.706,0.368-0.689,0.689c0.006,0.528,0.012,1.056,0.017,1.585l-1.292-1.412
		c-0.103-0.173-0.332-0.328-0.62-0.207c-0.253,0.092-0.505,0.184-0.758,0.276l0.034,4.564C16.671,19.517,17.05,19.353,17.076,18.849
		z"/>
	<path class="st0" d="M19.935,16.076c-0.023,1.412,0.781,2.159,2.101,2.032c1.033-0.161,1.619-0.551,1.808-1.275v-1.877
		l-1.895,0.465c0.035,0.017-0.017,0.551-0.017,0.551c-0.014,0.373,0.313,0.396,0.758,0.293l-0.017,0.448
		c-0.712,0.591-1.401,0.172-1.447-0.844c0.049-1.004,0.789-1.557,1.894-1.343c0.844,0.172,1.206-0.953,0.207-1.102
		C21.324,13.183,20.193,14.067,19.935,16.076z"/>
	<path class="st0" d="M18.364,11.762c0.548,0.115,0.782-0.637,0.134-0.737c-1.3-0.161-2.034,0.43-2.202,1.772
		c-0.015,0.944,0.507,1.443,1.364,1.358c0.671-0.108,1.051-0.368,1.174-0.852v-1.255l-1.229,0.311
		c0.022,0.011-0.011,0.368-0.011,0.368c-0.009,0.249,0.203,0.265,0.492,0.196l-0.011,0.299c-0.462,0.395-0.909,0.115-0.939-0.564
		C17.166,11.989,17.647,11.619,18.364,11.762z"/>
	<path class="st0" d="M11.032,14.849c0.618-0.642,0.223-1.757-0.383-1.558l-1.397,0.495c0.012,0.074,0.012,3.425,0.012,3.425
		l1.644-0.779C11.675,16.019,11.675,14.783,11.032,14.849z M10.031,14.058c0.326-0.167,0.586-0.094,0.581,0.124
		c0.003,0.426-0.316,0.594-0.62,0.708L10.031,14.058z M9.992,16.209l0.042-0.891c0.352-0.179,0.632-0.1,0.627,0.133
		C10.665,15.906,10.32,16.086,9.992,16.209z"/>
	<path class="st0" d="M11.588,13.118c0,0.074-0.012,2.114-0.012,2.114c-0.004,0.54,0.585,0.758,1.1,0.655
		c0.688-0.14,1.067-0.565,1.1-1.199c0.004-0.767,0.008-1.422,0.012-2.188c-0.012-0.416-0.791-0.268-0.816,0.136
		c0.008,0.709,0.016,1.356,0.025,2.065c-0.054,0.515-0.614,0.536-0.606,0.099v-1.805C12.4,12.576,11.584,12.638,11.588,13.118z"/>
	<path class="st0" d="M16.286,14.033c-0.194-0.218-0.387-0.437-0.581-0.655c0.849-0.849,0.305-1.892-0.458-1.657l-1.224,0.383
		l0.037,3.128c0.495-0.097,0.754-0.266,0.779-0.63c0.012-0.243,0.025-0.486,0.037-0.73l0.779,0.73
		C15.977,14.894,16.571,14.395,16.286,14.033z M14.84,13.328c0.004-0.297,0.008-0.631,0.012-0.927
		C15.516,12.079,15.611,12.957,14.84,13.328z"/>
	<path class="st0" d="M22.247,10.095l-1.264,0.209l0.021,3.025c0.51-0.028,0.779-0.157,0.806-0.506
		c0.014-0.233,0.028-0.466,0.042-0.7l0.799,0.807c0.33,0.325,0.944-0.078,0.653-0.466c-0.198-0.237-0.397-0.473-0.595-0.709
		C23.589,11.047,23.034,9.969,22.247,10.095z M21.818,11.593c0.006-0.286,0.012-0.608,0.018-0.894
		C22.521,10.476,22.614,11.336,21.818,11.593z"/>
	<path class="st0" d="M20.836,12.694l-0.977,0.235v-0.651c0.848-0.14,0.921-0.253,0.885-0.742l-0.925,0.169v-0.508
		c0.855-0.165,1.007-0.26,1.003-0.846l-1.784,0.365l0.026,3.06c0.478-0.095,0.799-0.165,1.276-0.26
		C20.836,13.393,20.858,13.063,20.836,12.694z"/>
	<path class="st0" d="M16.446,25.75c3.85,0,7.169-2.37,8.604-5.741c-0.539-0.309-1.2-0.687-1.69-0.964
		c-1.217,2.965-4.017,5.048-7.264,5.048c-2.053,0-3.928-0.834-5.337-2.197l-0.97,0.396v-1.52c-1.007-1.402-1.606-3.148-1.606-5.037
		c0-3.501,2.056-6.51,4.958-7.751c1.166-0.553,3.806-1.14,5.648-0.747l0.054-0.092c-0.766-0.206-1.57-0.316-2.398-0.316
		c-5.155,0-9.36,4.25-9.36,9.46C7.087,21.5,11.291,25.75,16.446,25.75z"/>
</g>
</svg>
