<?xml version="1.0" encoding="utf-8"?>
<!-- Generator: Adobe Illustrator 20.0.0, SVG Export Plug-In . SVG Version: 6.00 Build 0)  -->
<svg version="1.1" id="Vrstva_1" xmlns="http://www.w3.org/2000/svg" xmlns:xlink="http://www.w3.org/1999/xlink" x="0px" y="0px"
	 viewBox="0 0 32 32" style="enable-background:new 0 0 32 32;" xml:space="preserve">
<style type="text/css">
	.st0{fill-rule:evenodd;clip-rule:evenodd;}
</style>
<g>
	<path class="st0" d="M17.162,18.407h5.316v-3.796C20.676,16.631,17.612,18.285,17.162,18.407z"/>
	<path class="st0" d="M22.337,11.373c-0.42-1.206-1.022-2.67-3.066-3.806c-1.853-1.03-4.191-0.758-4.575-0.597
		c0.744,0.137,0.985,0.664,0.96,0.651c1.685-0.202,2.376,0.268,3.207,1.002c0.996,0.882,1.669,1.818,1.941,2.086
		C21.366,11.265,22.004,11.361,22.337,11.373z"/>
	<path class="st0" d="M17.291,8.299c-0.909-0.483-1.737-0.205-1.737-0.205c1.215,0.042,1.558,0.625,1.558,0.625
		c0.819,0.773,1.457,2.425,2.057,2.872c0.23-0.067,0.421-0.135,1.072-0.148c-0.458-0.042-1.263-1.343-1.267-1.352
		C18.746,9.667,18.161,8.759,17.291,8.299z"/>
	<path class="st0" d="M9.626,12.485c0,0.016,0,5.865,0,5.865h1.139c0.022-0.364,0.105-0.779,0.559-1.462
		c0.5-0.744,0.537-1.219,0.525-1.544c0.052-0.585-0.231-1.681-0.216-2.427c-0.092-1.474,0.242-2.977,1.263-3.872
		c-0.063-0.354-0.116-1.111,0.435-1.64C12.386,7.782,9.843,9.233,9.626,12.485z"/>
	<path class="st0" d="M13.14,9.015c-1.009,1.018-1.305,2.319-1.138,3.768c0.123,1.079,0.447,2.181,0.321,2.994
		c0,0,0.343-0.705,0.881-1.151c-0.091-0.922-0.268-1.493-0.407-2.385c-0.322-2.074,0.021-3.258,2.221-4.228
		c-0.575,0.079-1.482,0.637-1.546,0.745c0,0-0.384-0.825,0.192-1.368C12.794,7.946,13.14,9.015,13.14,9.015z"/>
	<path class="st0" d="M16.779,13.704c4.523-2.155,5.162-0.745,5.162-0.745c0.73,1.572-3.372,3.835-3.652,3.942
		c-0.127,0.122-4.409,2.25-5.367,0.691c-0.037-0.136-0.447-1.246,2.542-3.536c1.484-1.14,3.412-1.937,5.007-2.371
		c-0.777,0.109-2.144,0.285-5.02,1.845c-2.58,1.488-4.392,3.9-3.894,4.878c1.393,1.299,4.98-0.312,6.577-1.098
		c2.428-1.113,5.815-3.632,5.239-5.04C22.109,10.588,16.768,13.61,16.779,13.704z"/>
	<polygon class="st0" points="10.049,21.902 11.339,21.902 11.339,20.262 12.154,20.262 12.425,19.706 8.95,19.706 9.242,20.262 
		10.049,20.262 	"/>
	<path class="st0" d="M12.936,19.706l-1.226,2.196h1.278l0.19-0.434h1.124l0.167,0.434h1.315l-1.174-2.196H12.936z M13.396,20.925
		l0.346-0.663l0.33,0.663H13.396z"/>
	<polygon class="st0" points="16.449,23.283 16.701,22.768 13.624,22.768 13.624,24.937 16.626,24.937 16.626,24.406 14.903,24.406 
		14.903,24.083 16.346,24.083 16.346,23.581 14.903,23.581 14.903,23.283 	"/>
	<path class="st0" d="M18.263,22.768h-1.367v1.87c0,0,0.062,0.299,0.408,0.299h2.324l0.269-0.531h-1.634V22.768z"/>
	<path class="st0" d="M21.457,22.768h-1.369v1.87c0,0,0.066,0.299,0.411,0.299h2.325l0.267-0.531h-1.633V22.768z"/>
	<path class="st0" d="M22.123,23.735c0,0.12,0.047,0.233,0.133,0.32c0.087,0.089,0.203,0.138,0.324,0.138
		c0.119,0,0.234-0.047,0.324-0.134c0.087-0.085,0.134-0.198,0.134-0.324c0-0.123-0.046-0.234-0.13-0.32
		c-0.089-0.09-0.202-0.137-0.328-0.137c-0.124,0-0.233,0.044-0.319,0.13C22.173,23.497,22.123,23.614,22.123,23.735z M22.582,23.345
		c0.108,0,0.203,0.04,0.279,0.117c0.074,0.075,0.111,0.17,0.111,0.28c0,0.102-0.04,0.199-0.114,0.269
		c-0.077,0.075-0.175,0.114-0.282,0.114c-0.099,0-0.196-0.042-0.271-0.117c-0.073-0.075-0.113-0.171-0.113-0.273
		c0-0.102,0.042-0.201,0.118-0.279C22.383,23.383,22.475,23.345,22.582,23.345z"/>
	<path class="st0" d="M22.504,23.769h0.08l0.101,0.214h0.123l-0.114-0.232c0.073-0.016,0.114-0.067,0.114-0.142
		c0-0.09-0.072-0.139-0.217-0.139h-0.197v0.513h0.11V23.769z M22.504,23.54h0.067c0.084,0,0.124,0.024,0.124,0.082
		c0,0.056-0.038,0.079-0.119,0.079h-0.072V23.54z"/>
	<path class="st0" d="M15.631,20.925c0.037,1.114,1.864,0.977,2.018,1.031c0.549,0,1.123-0.109,1.123-0.109v-0.553
		c0,0-0.716,0.121-0.894,0.079c0,0-0.854,0.096-0.893-0.568c0.011-0.46,0.459-0.472,0.459-0.489
		c0.242-0.121,1.173-0.053,1.173-0.053l0.231-0.461c0,0-0.383-0.095-1.162-0.095C17.687,19.706,15.44,19.652,15.631,20.925z"/>
	<path class="st0" d="M20.831,19.706c-1.06,0-1.868,0.502-1.868,1.125c-0.011,0.732,0.808,1.124,1.868,1.124
		c1.057,0,1.926-0.366,1.916-1.124C22.748,20.099,21.888,19.706,20.831,19.706z M20.868,21.468c-0.383,0-0.551-0.271-0.551-0.605
		c0-0.332,0.141-0.681,0.551-0.669c0.319,0,0.536,0.299,0.51,0.665C21.404,21.238,21.226,21.468,20.868,21.468z"/>
	<path class="st0" d="M12.871,23.797c0,0,0.461-0.08,0.397-0.514c0.063-0.46-0.653-0.515-0.653-0.515h-2.566v2.169h2.668
		c0,0,0.678-0.082,0.614-0.636C13.281,23.851,12.871,23.797,12.871,23.797z M11.287,23.188h0.653c0,0,0.166,0.028,0.166,0.178
		c0.049,0.216-0.179,0.216-0.179,0.216h-0.64V23.188z M11.926,24.448h-0.64v-0.419h0.653c0,0,0.215,0.053,0.215,0.188
		C12.208,24.437,11.926,24.448,11.926,24.448z"/>
	<path class="st0" d="M14.315,16.1c-0.013,0-0.268,0.194-0.257,0.22c0.524,0.732,1.382,0.691,1.994,0.487
		c0.735-0.244,1.43-1.122,1.06-2.153c-0.229-0.19-1.852,0.785-1.967,0.853c-0.458,0.204,0.077,0.976,0.944,0.921
		C14.915,16.698,14.418,16.294,14.315,16.1z"/>
</g>
</svg>
