<?xml version="1.0" encoding="utf-8"?>
<!-- Generator: Adobe Illustrator 20.0.0, SVG Export Plug-In . SVG Version: 6.00 Build 0)  -->
<svg version="1.1" id="Vrstva_1" xmlns="http://www.w3.org/2000/svg" xmlns:xlink="http://www.w3.org/1999/xlink" x="0px" y="0px"
	 viewBox="0 0 32 32" style="enable-background:new 0 0 32 32;" xml:space="preserve">
<style type="text/css">
	.st0{fill-rule:evenodd;clip-rule:evenodd;}
</style>
<g>
	<path class="st0" d="M18.931,8.299c-1.507,0-2.851,2.007-3.73,5.146c-0.879-3.139-2.224-5.146-3.73-5.146
		c-2.648,0-4.796,6.679-4.796,14.919h2.132c0-7.651,1.193-13.854,2.664-13.854c1.471,0,2.665,5.726,2.665,12.788h2.131
		c0-7.063,1.193-12.788,2.665-12.788c1.471,0,2.664,6.203,2.664,13.854h2.131C23.726,14.978,21.579,8.299,18.931,8.299z"/>
	<path class="st0" d="M24.259,22.682c0,0.306,0.244,0.535,0.535,0.535c0.289,0,0.531-0.229,0.531-0.535
		c0-0.301-0.242-0.53-0.531-0.53C24.503,22.152,24.259,22.381,24.259,22.682z M25.229,22.682c0,0.261-0.19,0.457-0.435,0.457
		c-0.248,0-0.437-0.196-0.437-0.457c0-0.256,0.189-0.452,0.437-0.452C25.038,22.23,25.229,22.427,25.229,22.682z"/>
	<path class="st0" d="M24.587,22.996h0.097v-0.268h0.102l0.168,0.268h0.103l-0.177-0.275c0.092-0.01,0.162-0.057,0.162-0.17
		c0-0.119-0.069-0.178-0.216-0.178h-0.24V22.996z M24.683,22.451h0.127c0.066,0,0.136,0.013,0.136,0.095
		c0,0.099-0.078,0.103-0.162,0.103h-0.101V22.451z"/>
</g>
</svg>
