<?xml version="1.0" encoding="utf-8"?>
<!-- Generator: Adobe Illustrator 20.0.0, SVG Export Plug-In . SVG Version: 6.00 Build 0)  -->
<svg version="1.1" id="Vrstva_1" xmlns="http://www.w3.org/2000/svg" xmlns:xlink="http://www.w3.org/1999/xlink" x="0px" y="0px"
	 viewBox="0 0 32 32" style="enable-background:new 0 0 32 32;" xml:space="preserve">
<style type="text/css">
	.st0{fill-rule:evenodd;clip-rule:evenodd;}
</style>
<g>
	<path class="st0" d="M8.078,20.591c0,0-0.068,0.684,0.21,0.714c0.039,0,0.294-0.008,0.512-0.588c0.26-0.478,1.1-2.695,1.478-3.921
		c0.269-0.646,0.232-1.066,0.232-1.066s1.41-0.028,1.377,0.901C11.624,17.79,10.3,18.07,10.3,18.07s-0.234,0.028-0.314,0.189
		c0,0-0.039,0.088,0.052,0.082c0.146,0,2.319,0.109,2.756-1.955c0-1.627-1.821-1.615-1.821-1.615c-0.219,0-0.735,0.012-1.312,0.369
		c-0.369,0.22-0.383,0.497-0.344,0.628c0,0,0.078,0.227,0.618,0.014c0,0,0.128-0.068,0.084,0.052
		C8.697,17.482,8.204,19.936,8.078,20.591z"/>
	<path class="st0" d="M13.592,17.717c0.198,0,0.175-0.243,0.175-0.357c0.297-0.494,0.608-1.095,0.737-1.49
		c0.129-0.395,0.167-1.011,0.068-1.11c-0.099-0.099-0.304-0.099-0.304,0.122c0,0-1.117,1.247-1.117,2.136
		C13.204,17.756,13.592,17.717,13.592,17.717z"/>
	<path class="st0" d="M17.658,14.974c0.099-0.403-0.175-0.418-0.175-0.418c-0.509-0.038-1.802,0.129-2.25,0.061
		c-0.433,0.167-0.03,0.57,0.228,0.57c0.281,0,1.383-0.171,1.247-0.061c0,0-1.809,1.436-2.258,2.143
		c-0.19,0.479,0.167,0.54,0.274,0.54c0.308-0.141,0.829-0.251,1.307-0.251c0.985-0.057,2.242,0.038,2.242,0.038
		c0.479,0,1.144-0.148,1.429-0.433c0.152-0.152,0.023-0.213-0.084-0.213c-0.171,0.065-0.677,0.167-0.927,0.167
		c-0.449-0.038-1.543-0.334-2.79-0.19C15.902,16.927,17.096,15.851,17.658,14.974z"/>
	<path class="st0" d="M20.632,16.015c-0.756,0.01-1.053-0.032-1.225-0.054c0,0-0.355-0.01-0.283-0.101
		c-0.084,0.07,1.595-1.476,1.501-1.73c0,0,0.024-0.407-0.922-0.303c-0.451,0.067-1.386,0.195-1.386,0.195
		c-0.108-0.108-0.397-0.108-0.397,0.188c0,0,0.02,0.384,0.384,0.384c0.296,0,0.915-0.047,1.158-0.101c0,0,0.188-0.034,0.108,0.074
		c0,0-0.471,0.397-0.835,0.653c0,0-0.868,0.606-1.057,1.043c0,0-0.195,0.424,0.155,0.424c0.527-0.234,1.104-0.02,1.837-0.067
		c0.713-0.054,1.013-0.286,1.131-0.431C20.8,16.19,21.042,15.954,20.632,16.015z"/>
	<path class="st0" d="M24.305,15.254c-0.072-0.03-0.22-0.048-0.464-0.088c0,0-0.32-0.099-0.132-0.545
		c0.125-0.383,0.184-0.552,0.147-0.699c-0.037-0.147-0.191-0.258-0.361-0.088c0,0-0.383-0.074-0.611-0.015
		c-1.112,0.258-2.039,1.119-1.973,1.818c0.081,0.618,0.663,0.493,0.663,0.493c0.629-0.026,1.332-0.559,1.332-0.611
		c0.096-0.133,0.184,0.059,0.184,0.059s0.154,0.177,0.471,0.147c0.251,0,0.652-0.134,0.779-0.261
		C24.424,15.358,24.376,15.284,24.305,15.254z M22.869,14.958c-0.287,0.116-0.289,0.145-0.637,0.35c0,0-0.396,0.026-0.418,0.026
		c0.167-0.823,1.254-0.984,1.254-0.984S22.905,14.656,22.869,14.958z"/>
	<path class="st0" d="M11.014,20.674c-0.231,0.157-0.139,0.361,0.083,0.481c0.222,0.12,0.555,0.129,0.555,0.129
		c-0.12,0.611-0.287,0.888-0.287,1.601c0.102,0.37,0.379,0.37,0.379,0.37s0.324,0.018,0.49-0.407
		c0.241-0.768,0.481-1.675,0.481-1.675s1.185-0.389,1.351-0.463c-0.083,0.629-0.287,1.37,0.148,1.444
		c0.463,0,0.658-0.777,0.805-1.508c0.083-0.49,0.12-0.537,0.12-0.537c0.153-0.065,0.509-0.278,0.583-0.352
		c0.074-0.074,0-0.167-0.139-0.129c-0.268,0.102-0.342,0.12-0.342,0.12s0.259-1.323,0.259-1.545c0-0.287-0.305-0.231-0.416-0.028
		c-0.111,0.204-0.509,0.722-0.75,1.832c-0.426,0.13-1.24,0.268-1.24,0.268s-0.093,0.009-0.037-0.139
		c0.176-0.389,0.481-1.341,0.481-1.906c-0.012-0.221-0.204-0.083-0.204-0.083s-0.518,0.398-1.379,2.36
		C11.606,20.507,11.111,20.577,11.014,20.674z"/>
	<path class="st0" d="M18.53,18.687c0,0-0.241-0.046-0.521,0.55c-0.132,0.453-1.261,1.149-1.343,1.168
		c-0.078,0.034-0.058-0.083-0.058-0.083s0.122-0.336,0.122-0.633c0-0.297-0.141-0.682-0.613-0.711
		c-0.385-0.029-0.423,0.253-0.345,0.253c0,0,0.278,0.112,0.278,0.312c0,0.2-0.307,0.608-0.307,1.202
		c0,0.594,0.511,0.521,0.511,0.521c0.151,0,0.73,0,1.528-1.1c0.043-0.059-0.061,0.786,0.647,1.007
		c0.222,0.017,0.139-0.221,0.117-0.243c-0.022-0.022-0.024-1.402,0.092-1.699C18.741,18.723,18.53,18.687,18.53,18.687z"/>
	<path class="st0" d="M20.848,17.178c-0.076,0-0.178,0.1-0.178,0.1s-0.443,0.575-0.681,1.084c-0.43,0.066-0.635,0.112-0.694,0.053
		c-0.145-0.046-0.41,0-0.41,0.238c0,0.238,0.35,0.297,0.787,0.297c-0.197,0.518-0.464,1.006-0.365,2.369
		c-0.973,0.28-2.143,0.675-3.547,1.245c-2.631,1.108-2.779,1.16-2.779,1.16s-0.564,0.173-0.376,0.64
		c0.244,0.457,1.143,0.081,1.143,0.081c0.868-0.371,4.33-1.914,5.752-2.418c1.422-0.504,3.336-1.086,3.605-1.175
		c0.131-0.042,0.111-0.111,0.111-0.111c-0.029-0.076-0.138-0.069-0.138-0.069c-0.08,0-1.127-0.079-3.443,0.554
		c0.113-0.392,0.745-2.301,0.852-2.408c1.203-0.416,2.148-0.846,2.148-0.846s0.053-0.035,0.035-0.084
		c-0.033-0.065-0.166-0.04-0.166-0.04c-0.124,0.023-1.73,0.316-1.73,0.316c0.105-0.273,0.265-0.529,0.302-0.747
		C21.054,17.157,20.924,17.178,20.848,17.178z"/>
	<path class="st0" d="M15.536,12.684c0,0-1.333,0.349-1.363,1.228c0,0-0.014,0.326,0.288,0.326c0.231,0,0.387-0.21,0.387-0.21
		c0.699-0.916,0.733-1.062,0.78-1.163C15.723,12.657,15.536,12.684,15.536,12.684z"/>
	<path class="st0" d="M17.831,7.631c0,0-3.538,0.975-4.124,1.155C13.499,8.828,13.3,9.3,13.3,9.3l-0.704,1.327
		c0,0-0.024,0.082,0.032,0.097c0.056,0.015,0.077-0.045,0.123-0.091c0.084-0.133,0.818-1.188,0.931-1.381
		c0.067-0.118,0.285-0.143,0.285-0.143s3.858-1.028,4.064-1.133c0.181-0.092,0.101-0.252,0.101-0.252S18.074,7.544,17.831,7.631z"/>
	<path class="st0" d="M8.448,14.42c1.226-0.336,4.811-1.259,5.936-1.394c0.41-0.26,0.588-0.403,1.175-0.562
		c0.244,0,0.344,0.134,0.344,0.302c0.641-0.165,5.992-0.646,6.249-0.646s0.403-0.257,0.403-0.437c0-0.179-0.093-0.495-0.627-0.437
		c-3.577,0.39-8.85,1.115-13.187,2.53c-0.039,0.013,1.366-1.12,3.761-2.53c0.147-0.086,0.108-0.132,0.108-0.132
		s-0.05-0.106-0.126-0.069c0,0-1.703,0.73-3.156,1.762C7.986,13.841,7.902,13.9,7.902,13.9c-0.206,0.206-0.39,0.348-0.218,0.52
		C7.894,14.706,8.448,14.42,8.448,14.42z"/>
	<path class="st0" d="M19.43,9.937c0,0,4.133,1.328,4.43,1.478c0,0,0.212,0.074,0.267-0.073c0,0,0.066-0.213-0.144-0.319
		c-2.018-0.99-4.47-1.593-4.47-1.593c-0.521-1.566-0.761-1.959-0.803-1.944c-0.042,0.014,0.279,1.626,0.368,2.061
		C19.078,9.546,19.032,9.776,19.43,9.937z"/>
</g>
</svg>
