<?xml version="1.0" encoding="utf-8"?>
<!-- Generator: Adobe Illustrator 20.0.0, SVG Export Plug-In . SVG Version: 6.00 Build 0)  -->
<svg version="1.1" id="Vrstva_1" xmlns="http://www.w3.org/2000/svg" xmlns:xlink="http://www.w3.org/1999/xlink" x="0px" y="0px"
	 viewBox="0 0 32 32" style="enable-background:new 0 0 32 32;" xml:space="preserve">
<style type="text/css">
	.st0{fill-rule:evenodd;clip-rule:evenodd;}
</style>
<g>
	<path class="st0" d="M8.716,17.881l1.412,6.169c0.062,0.293,0.357,0.533,0.657,0.533h9.801c0.3,0,0.595-0.24,0.657-0.533
		l1.412-6.169c0.062-0.293,0.017-0.759-0.099-1.035l-1.04-2.474c0,0-0.048-0.141-0.154-0.052c-0.2,0.167-0.585,0.518-0.778,0.692
		c-0.088,0.079-0.038,0.176-0.038,0.176l0.774,1.843c0.116,0.276-0.034,0.502-0.334,0.502H10.385c-0.3,0-0.45-0.226-0.334-0.502
		l0.939-2.234c0.116-0.276,0.456-0.502,0.756-0.502c0,0,3.314,0,4.419,0c0.087,0,0.142-0.055,0.169-0.095
		c0.116-0.173,0.418-0.582,0.418-0.582s0.123-0.162-0.145-0.162c-1.455,0-5.822,0-5.822,0c-0.3,0-0.64,0.226-0.756,0.502
		l-1.214,2.888C8.699,17.121,8.655,17.588,8.716,17.881z"/>
	<path class="st0" d="M23.135,10.751c-0.131,0-0.262,0.054-0.37,0.153l-4.422,4.156c0,0-0.067,0.069-0.087,0.094
		c-0.326,0.385-1.232,1.596-1.232,1.596s-0.027,0.046,0.017,0.046h0.658c0.025,0,0.046-0.018,0.046-0.018l5.76-5.127
		c0.104-0.095,0.161-0.212,0.167-0.338c0.006-0.134-0.048-0.266-0.157-0.383C23.407,10.813,23.276,10.751,23.135,10.751z"/>
	<path class="st0" d="M15.303,16.796h0.82c0.058,0,0.096-0.047,0.096-0.047l6.106-7.907c0.178-0.236,0.132-0.543-0.109-0.729
		c-0.1-0.077-0.212-0.117-0.325-0.117c-0.156,0-0.304,0.077-0.405,0.212l-6.221,8.528C15.265,16.735,15.232,16.796,15.303,16.796z"
		/>
</g>
</svg>
