<?xml version="1.0" encoding="utf-8"?>
<!-- Generator: Adobe Illustrator 20.0.0, SVG Export Plug-In . SVG Version: 6.00 Build 0)  -->
<svg version="1.1" id="Vrstva_1" xmlns="http://www.w3.org/2000/svg" xmlns:xlink="http://www.w3.org/1999/xlink" x="0px" y="0px"
	 viewBox="0 0 32 32" style="enable-background:new 0 0 32 32;" xml:space="preserve">
<style type="text/css">
	.st0{fill-rule:evenodd;clip-rule:evenodd;}
</style>
<g>
	<path class="st0" d="M14.635,15.037h-1.427c-0.787,0-1.427,0.64-1.427,1.427c0,0.158,0.127,0.285,0.285,0.285
		c0.158,0,0.285-0.128,0.285-0.285c0-0.472,0.384-0.856,0.856-0.856h1.427c0.158,0,0.285-0.128,0.285-0.285
		C14.921,15.165,14.793,15.037,14.635,15.037z"/>
	<path class="st0" d="M14.635,15.894h-1.427c-0.158,0-0.285,0.128-0.285,0.285c0,0.158,0.128,0.285,0.285,0.285h1.427
		c0.158,0,0.285-0.128,0.285-0.285C14.921,16.021,14.793,15.894,14.635,15.894z"/>
	<circle class="st0" cx="14.778" cy="10.329" r="1.284"/>
	<path class="st0" d="M12.638,23.314v0.285h6.849v-0.285c0-0.288,0.1-0.574,0.267-0.856h-7.383
		C12.538,22.739,12.638,23.025,12.638,23.314z"/>
	<circle class="st0" cx="16.919" cy="11.898" r="1.142"/>
	<path class="st0" d="M8.341,18.746c0.368,0.492,1.027,0.998,1.727,1.531c0.662,0.504,1.371,1.046,1.876,1.61h8.237
		c0.506-0.564,1.214-1.106,1.876-1.61c0.699-0.533,1.359-1.039,1.727-1.531c0.465-0.008,0.84-0.388,0.84-0.854
		c0-0.472-0.384-0.856-0.856-0.856H8.357c-0.472,0-0.856,0.384-0.856,0.856C7.501,18.358,7.876,18.737,8.341,18.746z"/>
	<path class="st0" d="M19.487,16.465c0,0.158,0.128,0.285,0.285,0.285c0.158,0,0.285-0.128,0.285-0.285
		c0-0.787-0.64-1.427-1.427-1.427h-1.427c-0.158,0-0.285,0.128-0.285,0.286c0,0.158,0.128,0.285,0.285,0.285h1.427
		C19.103,15.608,19.487,15.993,19.487,16.465z"/>
	<path class="st0" d="M21.485,16.75c0.158,0,0.285-0.128,0.285-0.285c0-1.731-1.408-3.139-3.139-3.139h-1.998
		c-0.158,0-0.285,0.128-0.285,0.286c0,0.158,0.127,0.285,0.285,0.285h1.998c1.416,0,2.569,1.152,2.569,2.569
		C21.199,16.622,21.327,16.75,21.485,16.75z"/>
	<path class="st0" d="M17.204,15.894c-0.158,0-0.285,0.128-0.285,0.285c0,0.158,0.128,0.285,0.285,0.285h1.427
		c0.158,0,0.285-0.128,0.285-0.285c0-0.158-0.128-0.285-0.285-0.285H17.204z"/>
	<path class="st0" d="M20.629,16.75c0.158,0,0.285-0.128,0.285-0.285c0-1.259-1.024-2.283-2.283-2.283h-1.712
		c-0.158,0-0.285,0.128-0.285,0.285c0,0.158,0.127,0.285,0.285,0.285h1.712c0.945,0,1.712,0.768,1.712,1.712
		C20.343,16.622,20.471,16.75,20.629,16.75z"/>
	<path class="st0" d="M11.211,16.75c0.158,0,0.285-0.128,0.285-0.285c0-0.944,0.768-1.712,1.712-1.712h1.142
		c0.158,0,0.285-0.128,0.285-0.285c0-0.158-0.128-0.285-0.285-0.285h-1.142c-1.259,0-2.283,1.024-2.283,2.283
		C10.925,16.622,11.053,16.75,11.211,16.75z"/>
	<path class="st0" d="M10.355,16.75c0.158,0,0.285-0.128,0.285-0.285c0-1.417,1.152-2.569,2.569-2.569h0.571
		c0.158,0,0.285-0.128,0.285-0.285c0-0.158-0.128-0.286-0.285-0.286h-0.571c-1.731,0-3.139,1.409-3.139,3.139
		C10.069,16.622,10.197,16.75,10.355,16.75z"/>
	<path class="st0" d="M16.348,16.75c0.158,0,0.285-0.128,0.285-0.285c0-3.217-1.387-5.137-3.71-5.137
		c-1.101,0-1.998,0.896-1.998,1.997v0.286c0,0.158,0.128,0.285,0.285,0.285c0.158,0,0.285-0.128,0.285-0.285v-0.286
		c0-0.787,0.64-1.427,1.427-1.427c2.833,0,3.139,3.193,3.139,4.566C16.062,16.622,16.19,16.75,16.348,16.75z"/>
	<circle class="st0" cx="19.487" cy="12.184" r="1.142"/>
	<circle class="st0" cx="17.775" cy="9.615" r="1.142"/>
	<path class="st0" d="M15.492,16.75c0.158,0,0.285-0.128,0.285-0.285c0-3.538-1.552-4.281-2.854-4.281
		c-0.472,0-0.856,0.384-0.856,0.856c0,0.158,0.128,0.285,0.285,0.285c0.158,0,0.285-0.127,0.285-0.285
		c0-0.158,0.128-0.285,0.285-0.285c1.536,0,2.283,1.213,2.283,3.71C15.206,16.622,15.334,16.75,15.492,16.75z"/>
</g>
</svg>
