<?xml version="1.0" encoding="utf-8"?>
<!-- Generator: Adobe Illustrator 20.0.0, SVG Export Plug-In . SVG Version: 6.00 Build 0)  -->
<svg version="1.1" id="Vrstva_1" xmlns="http://www.w3.org/2000/svg" xmlns:xlink="http://www.w3.org/1999/xlink" x="0px" y="0px"
	 viewBox="0 0 32 32" style="enable-background:new 0 0 32 32;" xml:space="preserve">
<style type="text/css">
	.st0{fill-rule:evenodd;clip-rule:evenodd;}
</style>
<g>
	<path class="st0" d="M9,18.615l0.466-1.774l0.966,2.024c0.273,0.558,0.825,0.762,1.387,0.762h4.993
		c-0.409-0.216-0.398-0.682-0.307-1.012l0.501-1.842h1.092c0.262,0,0.58,0.068,0.716,0.409l0.364-1.387h-1.922l0.398-1.455h1.717
		c0.262,0,0.569,0.08,0.705,0.409l0.364-1.376h-5.254c0.227,0.091,0.409,0.318,0.33,0.694l-1.251,4.639
		c-0.08,0.33-0.205,0.648-0.534,0.842c-0.318-0.148-0.455-0.409-0.557-0.603l-1.592-3.002l3.366-2.57h-2.991
		c0.5,0.125,0.364,0.648,0.148,0.83l-2.422,1.899l0.523-1.979c0.125-0.421,0.557-0.671,0.739-0.751H7.681
		c0.227,0.091,0.409,0.318,0.33,0.694L6.76,18.706c-0.091,0.387-0.25,0.762-0.728,0.921h3.275C8.886,19.411,8.898,18.945,9,18.615z"
		/>
	<path class="st0" d="M25.842,14.737l0.352-1.308c-1.467-0.318-6.004-0.193-6.857,2.923c-0.899,3.309,3.662,3.934,5.686,3.184
		l0.91-1.387c-0.625,0.296-4.651,1.637-4.298-1.376C21.953,14.078,24.591,13.93,25.842,14.737z"/>
	<path class="st0" d="M26.001,18.879c-0.182,0-0.329,0.147-0.329,0.329c0,0.182,0.147,0.33,0.329,0.33
		c0.182,0,0.329-0.147,0.329-0.33C26.331,19.026,26.183,18.879,26.001,18.879z M26.001,19.479c-0.149,0-0.27-0.121-0.27-0.27
		c0-0.149,0.121-0.27,0.27-0.27c0.149,0,0.27,0.121,0.27,0.27C26.271,19.358,26.15,19.479,26.001,19.479z"/>
	<path class="st0" d="M26.152,19.131c0-0.074-0.044-0.107-0.133-0.107h-0.143v0.376h0.057v-0.163h0.066l0.099,0.163h0.064
		l-0.107-0.165C26.11,19.227,26.152,19.198,26.152,19.131z M25.933,19.188v-0.116h0.077c0.04,0,0.082,0.009,0.082,0.055
		c0,0.058-0.043,0.061-0.091,0.061H25.933z"/>
</g>
</svg>
