<?xml version="1.0" encoding="utf-8"?>
<!-- Generator: Adobe Illustrator 20.0.0, SVG Export Plug-In . SVG Version: 6.00 Build 0)  -->
<svg version="1.1" id="Vrstva_1" xmlns="http://www.w3.org/2000/svg" xmlns:xlink="http://www.w3.org/1999/xlink" x="0px" y="0px"
	 viewBox="0 0 32 32" style="enable-background:new 0 0 32 32;" xml:space="preserve">
<style type="text/css">
	.st0{fill-rule:evenodd;clip-rule:evenodd;}
</style>
<g>
	<path class="st0" d="M20.519,12.604c0-0.832-0.231-1.866-0.632-2.869c-0.085-0.213-0.292-0.353-0.522-0.353h-6.54
		c-0.23,0-0.437,0.14-0.522,0.353c-0.362,0.905-0.643,1.973-0.628,2.958c0,0.001,0,0.002,0,0.003
		c0.045,2.17,1.672,4.048,3.941,4.301v4.894c-1.503,0.123-2.655,0.79-2.655,1.126c0,0.371,1.402,0.67,3.132,0.67
		c1.73,0,3.133-0.3,3.133-0.67c0-0.336-1.152-1.003-2.655-1.126v-4.894C18.878,16.732,20.519,14.803,20.519,12.604z M16.28,13.254
		c-0.877-0.344-1.431-1.905-2.482-1.786c-0.418,0.047-0.776,0.184-1.1,0.375c0.075-0.473,0.206-0.987,0.397-1.507h6
		c0.3,0.816,0.469,1.631,0.469,2.268c0,0.155-0.014,0.306-0.034,0.456c-0.299-0.074-0.608-0.084-0.94,0.034
		C17.724,13.402,17.162,13.599,16.28,13.254z"/>
</g>
</svg>
