<?xml version="1.0" encoding="utf-8"?>
<!-- Generator: Adobe Illustrator 20.0.0, SVG Export Plug-In . SVG Version: 6.00 Build 0)  -->
<svg version="1.1" id="Vrstva_1" xmlns="http://www.w3.org/2000/svg" xmlns:xlink="http://www.w3.org/1999/xlink" x="0px" y="0px"
	 viewBox="0 0 32 32" style="enable-background:new 0 0 32 32;" xml:space="preserve">
<style type="text/css">
	.st0{fill-rule:evenodd;clip-rule:evenodd;}
</style>
<g>
	<path class="st0" d="M22.528,10.49c-1.268-1.486-3.038-2.525-5.049-2.863C17.018,7.55,16.546,7.5,16.062,7.5
		s-0.955,0.05-1.417,0.127c-2.011,0.338-3.78,1.376-5.049,2.862c-0.612,0.718-1.103,1.539-1.452,2.433
		C7.774,13.878,7.562,14.913,7.562,16c0,0.999,0.181,1.953,0.497,2.843c0.322,0.905,0.788,1.742,1.378,2.476
		c1.277,1.588,3.112,2.701,5.208,3.053c0.461,0.078,0.933,0.127,1.417,0.127s0.955-0.05,1.417-0.127
		c2.096-0.352,3.931-1.465,5.208-3.053c0.59-0.735,1.056-1.571,1.378-2.476c0.316-0.89,0.497-1.844,0.497-2.843
		c0-1.086-0.211-2.121-0.583-3.076C23.632,12.029,23.14,11.208,22.528,10.49z M21.522,11.071c0.633,0.701,1.133,1.523,1.461,2.428
		l-1.487,0.858c-0.282-0.93-0.796-1.758-1.475-2.42L21.522,11.071z M14.646,8.773c0.459-0.09,0.932-0.14,1.417-0.14
		c0.485,0,0.958,0.05,1.417,0.14v1.735c-0.454-0.117-0.927-0.186-1.417-0.186c-0.49,0-0.963,0.069-1.417,0.186V8.773z
		 M10.604,11.071l1.5,0.866c-0.679,0.662-1.194,1.49-1.475,2.42l-1.486-0.858C9.471,12.593,9.97,11.772,10.604,11.071z
		 M10.435,20.743c-0.608-0.721-1.08-1.559-1.378-2.476l1.508-0.871c0.24,0.945,0.716,1.795,1.364,2.484L10.435,20.743z
		 M17.479,23.227c-0.459,0.09-0.932,0.14-1.417,0.14c-0.485,0-0.958-0.05-1.417-0.14v-1.735c0.454,0.117,0.927,0.186,1.417,0.186
		c0.49,0,0.963-0.069,1.417-0.186V23.227z M16.062,20.545c-2.506,0-4.545-2.039-4.545-4.545c0-2.506,2.039-4.545,4.545-4.545
		c2.506,0,4.545,2.039,4.545,4.545C20.608,18.506,18.569,20.545,16.062,20.545z M21.69,20.743l-1.493-0.862
		c0.648-0.689,1.123-1.54,1.363-2.484l1.508,0.871C22.771,19.184,22.299,20.023,21.69,20.743z"/>
	<path class="st0" d="M16.543,15.382c-0.723-0.272-1.02-0.451-1.02-0.731c0-0.238,0.178-0.476,0.731-0.476
		c0.319,0,0.578,0.053,0.784,0.117c0.117,0.036,0.243,0.023,0.351-0.037c0.107-0.06,0.184-0.16,0.215-0.279l0.008-0.029
		c0.069-0.271-0.094-0.547-0.365-0.617c-0.208-0.054-0.455-0.093-0.754-0.106v-0.319c0-0.217-0.161-0.407-0.377-0.427
		c-0.248-0.023-0.456,0.171-0.456,0.415v0.391c-0.91,0.178-1.437,0.765-1.437,1.513c0,0.825,0.62,1.25,1.53,1.556
		c0.629,0.212,0.901,0.417,0.901,0.739c0,0.34-0.331,0.527-0.816,0.527c-0.347,0-0.674-0.07-0.958-0.171
		c-0.118-0.042-0.25-0.032-0.361,0.027c-0.111,0.059-0.193,0.162-0.224,0.285l-0.004,0.014c-0.074,0.29,0.093,0.586,0.379,0.672
		c0.281,0.084,0.61,0.144,0.946,0.159v0.38c0,0.23,0.187,0.416,0.417,0.416c0.23,0,0.416-0.186,0.416-0.416v-0.439
		c0.977-0.17,1.513-0.816,1.513-1.572C17.962,16.207,17.554,15.739,16.543,15.382z"/>
</g>
</svg>
