<?xml version="1.0" encoding="utf-8"?>
<!-- Generator: Adobe Illustrator 20.0.0, SVG Export Plug-In . SVG Version: 6.00 Build 0)  -->
<svg version="1.1" id="Vrstva_1" xmlns="http://www.w3.org/2000/svg" xmlns:xlink="http://www.w3.org/1999/xlink" x="0px" y="0px"
	 viewBox="0 0 32 32" style="enable-background:new 0 0 32 32;" xml:space="preserve">
<style type="text/css">
	.st0{fill-rule:evenodd;clip-rule:evenodd;}
</style>
<g>
	<ellipse class="st0" cx="19.679" cy="11.246" rx="1.076" ry="1.093"/>
	<path class="st0" d="M23.66,13.181c-0.151-0.211-0.442-0.258-0.649-0.104l-1.293,0.954l-0.966-0.777
		c-0.149-0.12-0.32-0.21-0.502-0.264l-2.272-0.683l-1.065-1.141l0.535-1.834c0.073-0.25-0.068-0.513-0.314-0.587
		c-0.246-0.074-0.505,0.069-0.578,0.319l-0.611,2.096c-0.047,0.162-0.006,0.336,0.108,0.459l1.588,1.702l-1.088,3.76
		c0,0-0.016,5.509-0.016,5.567c-0.001,0.348,0.276,0.63,0.618,0.631h0.002c0.342,0,0.619-0.281,0.62-0.628l0.014-5.199l0.318,0.096
		l0.929,2.409l-0.306,2.618c-0.04,0.345,0.203,0.658,0.542,0.699c0.34,0.041,0.648-0.206,0.689-0.551l0.324-2.775
		c0.012-0.103-0.001-0.207-0.038-0.304l-0.902-2.34l0.939-3.221l1.131,0.911c0.085,0.068,0.186,0.102,0.289,0.102
		c0.096,0,0.191-0.03,0.273-0.09l1.579-1.164C23.765,13.687,23.811,13.392,23.66,13.181z"/>
	<path class="st0" d="M13.086,13.552l0.002-0.002l1.118-1.464c0.253-0.331,0.4-0.719,0.401-0.72l0.467-1.252
		C15.226,9.706,15,9.57,14.933,9.539l-0.017-0.008l-0.002-0.001l-0.215-0.092c-0.246-0.105-0.359,0.1-0.393,0.183l-0.563,1.473
		c-0.004,0.011-0.154,0.385-0.391,0.656l-0.756,0.862c0,0,0,0,0,0c-0.197,0.225-0.431,0.252-0.517,0.254h-1.1
		c-0.258,0-0.394-0.12-0.441-0.171c-0.224-0.276-0.508-0.82-0.669-1.145c-0.116-0.228-0.042-0.396-0.011-0.449l0.791-1.302v0
		c0.179-0.295-0.078-0.441-0.078-0.441l-0.209-0.134c0,0,0,0,0,0c-0.236-0.15-0.403,0.158-0.403,0.158l-0.999,1.755
		c-0.039,0.072-0.17,0.358,0.01,0.699l2.279,4.324c0.021,0.04,0.125,0.262-0.004,0.405L9.82,18.144c0,0-0.001,0.001-0.001,0.002
		l-0.063,0.07c-0.101,0.121-0.299,0.406-0.428,0.909l-0.804,3.12c-0.025,0.101-0.088,0.454,0.219,0.454h0.55
		c0.084-0.003,0.332-0.041,0.45-0.421v0l0.623-2.437c0,0,0,0,0.001-0.001c0.112-0.437,0.341-0.689,0.427-0.771
		c0.009-0.009,0.021-0.02,0.03-0.029c0.001-0.001,0.005-0.004,0.005-0.004v-0.001c0.264-0.245,0.717-0.687,1.455-1.453v0.001
		c0,0,0.179-0.191,0.167-0.001c-0.093,1.51-0.687,3.903-0.915,4.78c-0.024,0.119-0.033,0.338,0.224,0.338h0.585
		c0.096-0.008,0.304-0.066,0.39-0.414c0.286-1.142,1.074-4.298,1.233-4.994c0.07-0.306,0.094-0.559,0.098-0.76
		c-0.009-0.374-0.186-0.821-0.186-0.821v0l-0.148-0.302l-0.644-1.223c-0.181-0.345-0.056-0.558-0.013-0.616L13.086,13.552z"/>
	<ellipse class="st0" cx="11.728" cy="11.135" rx="1.17" ry="1.189"/>
</g>
</svg>
