<?xml version="1.0" encoding="utf-8"?>
<!-- Generator: Adobe Illustrator 20.0.0, SVG Export Plug-In . SVG Version: 6.00 Build 0)  -->
<svg version="1.1" id="Vrstva_1" xmlns="http://www.w3.org/2000/svg" xmlns:xlink="http://www.w3.org/1999/xlink" x="0px" y="0px"
	 viewBox="0 0 32 32" style="enable-background:new 0 0 32 32;" xml:space="preserve">
<style type="text/css">
	.st0{fill-rule:evenodd;clip-rule:evenodd;}
</style>
<g>
	<path class="st0" d="M9.283,23.922h3.947c0.218,0,0.422-0.107,0.544-0.288c0.578-0.856,1.645-2.742,2.009-5.428
		c0.017-0.128,0.202-0.128,0.22,0c0.364,2.686,1.431,4.572,2.009,5.428c0.122,0.181,0.326,0.288,0.544,0.288h3.947
		c0.505,0,0.82-0.545,0.571-0.984c-0.835-1.468-2.205-4.509-2.205-8.648h-9.953c0,4.139-1.37,7.18-2.205,8.648
		C8.463,23.377,8.778,23.922,9.283,23.922z"/>
	<path class="st0" d="M20.662,9.429c0.309-0.069,0.287-0.518-0.028-0.555C19.242,8.71,17.85,8.959,16.458,8.4V8.145
		c0-0.302-0.245-0.547-0.547-0.547c-0.302,0-0.548,0.245-0.548,0.547v2.976l-3.852,0.875c-0.347,0.079-0.594,0.388-0.594,0.744
		v0.524h9.979v-0.524c0-0.356-0.247-0.665-0.594-0.744l-3.844-0.873v-0.721C17.859,10.481,19.26,9.742,20.662,9.429z"/>
</g>
</svg>
