<?xml version="1.0" encoding="utf-8"?>
<!-- Generator: Adobe Illustrator 20.0.0, SVG Export Plug-In . SVG Version: 6.00 Build 0)  -->
<svg version="1.1" id="Vrstva_1" xmlns="http://www.w3.org/2000/svg" xmlns:xlink="http://www.w3.org/1999/xlink" x="0px" y="0px"
	 viewBox="0 0 32 32" style="enable-background:new 0 0 32 32;" xml:space="preserve">
<style type="text/css">
	.st0{fill-rule:evenodd;clip-rule:evenodd;}
</style>
<g>
	<path class="st0" d="M12.891,16.746c0.032,0.825,0.586,1.508,1.338,1.729v3.727c-1.028,0.088-1.797,0.28-1.797,0.694
		c0,0.481,1.54,0.768,2.818,0.768c1.278,0,2.313-0.39,2.313-0.87c0-0.414-0.769-0.503-1.798-0.591v-3.727
		c0.752-0.221,1.306-0.904,1.338-1.729c1.406-0.622,2.448-1.926,2.718-3.501l0.002,0.001l1.249-0.548
		c0.002,0.043,0.004,0.085,0.004,0.129c0,1.051-0.706,1.938-1.664,2.201c-0.26,0.429-0.581,0.813-0.953,1.141
		c0.12,0.013,0.243,0.02,0.366,0.02c1.833,0,3.318-1.505,3.318-3.362c0-1.857-1.486-3.362-3.318-3.362
		c-1.616,0-2.963,1.171-3.258,2.721h1.099c0.098-0.338,0.271-0.643,0.5-0.896c-0.001,0.002-0.001,0.003-0.002,0.005
		c0.042-0.046,0.086-0.091,0.131-0.133l0.544,1.272h-3.805L13.5,9.057c-0.035-0.172-0.152-0.314-0.313-0.379
		c-0.16-0.065-0.342-0.045-0.484,0.054l-1.871,0.671c-0.235,0.164-0.294,0.489-0.133,0.726c0.162,0.238,0.483,0.298,0.717,0.135
		l1.231-0.225l0.334,2.395h-2.613c-0.072,0-0.141,0.03-0.19,0.083c-0.049,0.053-0.075,0.125-0.071,0.197
		C10.212,14.525,11.328,16.057,12.891,16.746z M20.015,10.893c0.386,0.245,0.693,0.604,0.876,1.031l-1.539,0.675
		c0-0.001-0.001-0.001-0.002-0.002L20.015,10.893z M19.202,10.579c0.012,0.002,0.025,0.004,0.037,0.007
		c0.016,0.003,0.032,0.006,0.048,0.009c0.004,0.001,0.007,0.002,0.011,0.003l-0.669,1.714l-0.677-1.585
		C18.34,10.561,18.772,10.507,19.202,10.579z"/>
</g>
</svg>
