<?xml version="1.0" encoding="utf-8"?>
<!-- Generator: Adobe Illustrator 20.0.0, SVG Export Plug-In . SVG Version: 6.00 Build 0)  -->
<svg version="1.1" id="Vrstva_1" xmlns="http://www.w3.org/2000/svg" xmlns:xlink="http://www.w3.org/1999/xlink" x="0px" y="0px"
	 viewBox="0 0 32 32" style="enable-background:new 0 0 32 32;" xml:space="preserve">
<style type="text/css">
	.st0{fill-rule:evenodd;clip-rule:evenodd;}
</style>
<g>
	<path class="st0" d="M12.388,23.155c1.401,0,2.538-1.133,2.538-2.535c0-0.001-0.008,0.002-0.008,0.002l-0.002-0.266v-7.046
		l6.568-1.456v5.144c-0.445-0.433-1.065-0.699-1.742-0.699c-1.401,0-2.535,1.137-2.535,2.539c0,1.402,1.137,2.539,2.539,2.539
		c1.4,0,2.527-1.134,2.529-2.533l-0.001-0.185V8.417l-8.148,1.631v8.728c-0.445-0.433-1.065-0.699-1.742-0.699
		c-1.401,0-2.535,1.137-2.535,2.539C9.85,22.018,10.987,23.155,12.388,23.155z"/>
</g>
</svg>
