<?xml version="1.0" encoding="utf-8"?>
<!-- Generator: Adobe Illustrator 20.0.0, SVG Export Plug-In . SVG Version: 6.00 Build 0)  -->
<svg version="1.1" id="Vrstva_1" xmlns="http://www.w3.org/2000/svg" xmlns:xlink="http://www.w3.org/1999/xlink" x="0px" y="0px"
	 viewBox="0 0 32 32" style="enable-background:new 0 0 32 32;" xml:space="preserve">
<style type="text/css">
	.st0{fill-rule:evenodd;clip-rule:evenodd;}
</style>
<g>
	<circle class="st0" cx="10.693" cy="11.51" r="2.046"/>
	<path class="st0" d="M7.624,14.427v7.535c0,0.32,0.366,0.579,0.818,0.579H19.08c0.452,0,0.818-0.259,0.818-0.579v-7.535
		c0-0.32-0.366-0.579-0.818-0.579H8.443C7.991,13.848,7.624,14.107,7.624,14.427z"/>
	<circle class="st0" cx="16.318" cy="10.998" r="2.557"/>
	<path class="st0" d="M23.955,13.081c-0.545,0-3.546,2.862-3.546,3.239v3.75c0,0.377,3.068,3.239,3.546,3.239
		c0.477,0,0.546-0.511,0.546-0.511v-9.205C24.501,13.592,24.501,13.081,23.955,13.081z"/>
</g>
</svg>
