<?xml version="1.0" encoding="utf-8"?>
<!-- Generator: Adobe Illustrator 20.0.0, SVG Export Plug-In . SVG Version: 6.00 Build 0)  -->
<svg version="1.1" id="Vrstva_1" xmlns="http://www.w3.org/2000/svg" xmlns:xlink="http://www.w3.org/1999/xlink" x="0px" y="0px"
	 viewBox="0 0 32 32" style="enable-background:new 0 0 32 32;" xml:space="preserve">
<style type="text/css">
	.st0{fill-rule:evenodd;clip-rule:evenodd;}
</style>
<g>
	<path class="st0" d="M16.125,7.634C11.638,7.634,8,11.272,8,15.759c0,4.487,3.638,8.125,8.125,8.125
		c4.487,0,8.125-3.638,8.125-8.125C24.25,11.272,20.612,7.634,16.125,7.634z M13.027,9.655c0.93-0.473,1.983-0.74,3.098-0.74
		c0.066,0,0.13,0.001,0.195,0.003c0.108,0.003,0.182,0.271,0.165,0.595l-0.083,1.667c-0.016,0.324-0.085,0.583-0.154,0.581
		c-0.041-0.001-0.083-0.002-0.124-0.002c-0.587,0-1.144,0.126-1.645,0.353c-0.296,0.134-0.65,0.054-0.815-0.225l-0.851-1.438
		C12.649,10.169,12.738,9.802,13.027,9.655z M12.695,12.713l-1.256-1.099c-0.244-0.214-0.27-0.586-0.035-0.809
		c0.006-0.005,0.011-0.01,0.017-0.016c0.236-0.223,0.605-0.178,0.804,0.078l1.026,1.317c0.199,0.256,0.246,0.555,0.115,0.68
		C13.233,12.989,12.939,12.926,12.695,12.713z M13.25,15.759c0-1.588,1.287-2.875,2.875-2.875c1.588,0,2.875,1.287,2.875,2.875
		c0,1.588-1.287,2.875-2.875,2.875C14.537,18.634,13.25,17.347,13.25,15.759z M19.209,21.87c-0.927,0.468-1.975,0.733-3.084,0.733
		c-0.073,0-0.146-0.002-0.218-0.004c-0.12-0.004-0.203-0.273-0.186-0.597l0.091-1.667c0.018-0.324,0.094-0.582,0.172-0.579
		c0.047,0.001,0.093,0.002,0.14,0.002c0.539,0,1.052-0.106,1.521-0.299c0.3-0.123,0.668-0.042,0.845,0.229l0.91,1.401
		C19.578,21.362,19.499,21.723,19.209,21.87z M20.81,20.748c-0.225,0.211-0.589,0.162-0.794-0.09l-1.054-1.294
		c-0.205-0.251-0.257-0.543-0.128-0.662c0.13-0.119,0.424-0.053,0.668,0.161l1.257,1.1C21.003,20.176,21.035,20.537,20.81,20.748z"
		/>
	<circle class="st0" cx="16.125" cy="15.759" r="1.062"/>
</g>
</svg>
