<?xml version="1.0" encoding="utf-8"?>
<!-- Generator: Adobe Illustrator 20.0.0, SVG Export Plug-In . SVG Version: 6.00 Build 0)  -->
<svg version="1.1" id="Vrstva_1" xmlns="http://www.w3.org/2000/svg" xmlns:xlink="http://www.w3.org/1999/xlink" x="0px" y="0px"
	 viewBox="0 0 32 32" style="enable-background:new 0 0 32 32;" xml:space="preserve">
<style type="text/css">
	.st0{fill-rule:evenodd;clip-rule:evenodd;}
</style>
<g>
	<path class="st0" d="M19.811,13.496c0.039-0.005,0.078-0.011,0.117-0.018c0.003-0.001,0.006-0.001,0.01-0.002
		c0.037-0.007,0.074-0.014,0.112-0.022c0.004-0.001,0.009-0.002,0.014-0.003c0.036-0.008,0.073-0.017,0.109-0.026
		c0.004-0.001,0.009-0.002,0.013-0.004c0.037-0.01,0.073-0.02,0.11-0.031c0.002-0.001,0.005-0.002,0.007-0.002
		c0.151-0.047,0.299-0.106,0.442-0.177c0.007-0.004,0.015-0.007,0.023-0.011c0.026-0.013,0.051-0.027,0.077-0.041
		c0.015-0.008,0.029-0.016,0.044-0.024c0.022-0.013,0.045-0.026,0.067-0.039c0.017-0.01,0.035-0.021,0.052-0.031
		c0.02-0.013,0.041-0.026,0.061-0.039c0.019-0.012,0.037-0.025,0.056-0.038c0.019-0.013,0.037-0.026,0.056-0.039
		c0.02-0.014,0.039-0.029,0.059-0.044c0.017-0.013,0.034-0.026,0.051-0.039c0.021-0.017,0.042-0.034,0.062-0.051
		c0.015-0.013,0.03-0.025,0.045-0.038c0.023-0.02,0.046-0.041,0.069-0.062c0.012-0.011,0.024-0.022,0.036-0.033
		c0.034-0.033,0.068-0.066,0.102-0.101c1.214-1.26,1.214-3.302,0-4.561c-0.152-0.158-0.315-0.295-0.487-0.413
		c-0.129-0.089-0.264-0.166-0.401-0.233c-0.138-0.066-0.279-0.122-0.424-0.166c-0.577-0.177-1.193-0.177-1.77,0
		c-0.144,0.044-0.286,0.1-0.424,0.166c-0.138,0.066-0.272,0.144-0.401,0.233c-0.172,0.118-0.336,0.256-0.488,0.413
		c-0.033,0.035-0.066,0.07-0.097,0.106c-0.011,0.012-0.021,0.025-0.032,0.038c-0.02,0.024-0.04,0.047-0.06,0.072
		c-0.012,0.015-0.024,0.031-0.037,0.047c-0.017,0.022-0.033,0.043-0.049,0.065c-0.013,0.018-0.025,0.035-0.038,0.053
		c-0.014,0.02-0.029,0.041-0.042,0.062c-0.013,0.019-0.025,0.038-0.038,0.058c-0.012,0.019-0.024,0.039-0.036,0.058
		c-0.013,0.021-0.025,0.042-0.038,0.063c-0.01,0.018-0.02,0.036-0.03,0.054c-0.013,0.023-0.025,0.046-0.038,0.069
		c-0.008,0.015-0.016,0.031-0.023,0.046c-0.013,0.026-0.026,0.052-0.039,0.079c-0.004,0.008-0.007,0.016-0.011,0.025
		c-0.068,0.149-0.125,0.301-0.17,0.457c-0.001,0.003-0.002,0.006-0.003,0.009c-0.011,0.038-0.021,0.075-0.03,0.113
		c-0.001,0.005-0.002,0.01-0.004,0.015c-0.009,0.037-0.017,0.075-0.025,0.113c-0.001,0.005-0.002,0.01-0.003,0.015
		c-0.008,0.038-0.015,0.077-0.021,0.115c-0.001,0.004-0.001,0.007-0.002,0.011c-0.007,0.04-0.013,0.081-0.018,0.121
		c-0.01,0.08-0.018,0.16-0.022,0.241l3.275,3.399C19.656,13.515,19.734,13.507,19.811,13.496z"/>
	<path class="st0" d="M9.802,23.868l0.034,0.036c0.55,0.57,1.281,0.885,2.058,0.885s1.508-0.314,2.058-0.885l4.501-4.672
		c0.371-0.385,0.865-0.597,1.39-0.597c0.525,0,1.018,0.212,1.39,0.597l1.252,1.299c0.185,0.192,0.484,0.191,0.669,0
		c0.185-0.192,0.185-0.502,0-0.694l-1.252-1.299c-0.55-0.571-1.28-0.885-2.058-0.885c-0.777,0-1.508,0.314-2.058,0.885l-4.501,4.672
		c-0.371,0.385-0.865,0.597-1.389,0.597c-0.525,0-1.018-0.212-1.39-0.598l-0.035-0.036c-0.766-0.795-0.766-2.09,0-2.885l1.195-1.241
		l0.339,0.352c0.092,0.095,0.213,0.144,0.334,0.144c0.104,0,0.208-0.035,0.294-0.107l6.302-5.202
		c-0.008-0.008-0.017-0.015-0.025-0.023l-3.275-3.399c-0.01-0.01-0.018-0.021-0.027-0.031l-5.048,6.499
		c-0.152,0.195-0.137,0.478,0.034,0.655l0.403,0.418l-1.195,1.241C8.667,20.773,8.667,22.69,9.802,23.868z"/>
</g>
</svg>
