<?xml version="1.0" encoding="utf-8"?>
<!-- Generator: Adobe Illustrator 20.0.0, SVG Export Plug-In . SVG Version: 6.00 Build 0)  -->
<svg version="1.1" id="Vrstva_1" xmlns="http://www.w3.org/2000/svg" xmlns:xlink="http://www.w3.org/1999/xlink" x="0px" y="0px"
	 viewBox="0 0 32 32" style="enable-background:new 0 0 32 32;" xml:space="preserve">
<style type="text/css">
	.st0{fill-rule:evenodd;clip-rule:evenodd;}
</style>
<g>
	<path class="st0" d="M24.083,19.639v-3.158c0-0.563-0.222-1.091-0.626-1.489c-0.404-0.398-0.941-0.617-1.513-0.617h-1.069v-1.05
		c0.65-0.476,1.069-1.232,1.069-2.108c0-1.451-1.199-2.632-2.673-2.632c-0.473,0-0.932,0.123-1.336,0.355
		c-0.703-0.88-1.785-1.408-2.942-1.408c-1.158,0-2.239,0.528-2.942,1.408c-0.404-0.232-0.862-0.355-1.336-0.355
		c-1.474,0-2.674,1.181-2.674,2.632c0,0.856,0.424,1.611,1.069,2.092v9.488c0,0.868,0.722,1.579,1.604,1.579h8.556
		c0.882,0,1.604-0.711,1.604-1.579v-1.053h1.069C23.124,21.744,24.083,20.8,24.083,19.639z M12.854,20.69c0,0,0,0,0,0.001
		c0,0.291-0.239,0.526-0.535,0.526c-0.295,0-0.535-0.235-0.535-0.526v-4.737c0.001-0.291,0.24-0.526,0.535-0.526
		c0.296,0,0.535,0.236,0.535,0.526V20.69z M15.528,20.69c0,0,0,0,0,0.001c0,0.291-0.239,0.526-0.535,0.526
		c-0.295,0-0.535-0.235-0.535-0.526v-4.737c0-0.291,0.24-0.526,0.535-0.526c0.295,0,0.535,0.236,0.535,0.526V20.69z M18.201,20.69
		c0,0,0,0,0,0.001c0,0.291-0.239,0.526-0.535,0.526c-0.295,0-0.535-0.235-0.535-0.526v-4.737c0.001-0.291,0.24-0.526,0.535-0.526
		c0.296,0,0.535,0.236,0.535,0.526V20.69z M19.271,12.796c-0.408,0-0.799-0.155-1.1-0.436c-0.12-0.112-0.286-0.162-0.45-0.138
		c-0.164,0.025-0.306,0.123-0.386,0.266c-0.471,0.84-1.368,1.362-2.341,1.362c-0.973,0-1.87-0.522-2.341-1.362
		c-0.08-0.143-0.223-0.241-0.386-0.266c-0.027-0.004-0.055-0.006-0.082-0.006c-0.136,0-0.268,0.051-0.368,0.145
		c-0.302,0.281-0.692,0.436-1.101,0.436c-0.884,0-1.604-0.708-1.604-1.579c0-0.871,0.72-1.579,1.604-1.579
		c0.408,0,0.799,0.155,1.101,0.437c0.12,0.112,0.286,0.163,0.45,0.138c0.164-0.025,0.306-0.123,0.386-0.266
		c0.471-0.84,1.368-1.361,2.341-1.361c0.973,0,1.87,0.522,2.341,1.361c0.08,0.143,0.223,0.241,0.387,0.266
		c0.163,0.025,0.329-0.026,0.45-0.138c0.302-0.281,0.692-0.437,1.1-0.437c0.885,0,1.604,0.708,1.604,1.579
		C20.875,12.117,20.185,12.796,19.271,12.796z M20.875,16.481h1.069v3.158h-1.069V16.481z"/>
</g>
</svg>
