<?xml version="1.0" encoding="utf-8"?>
<!-- Generator: Adobe Illustrator 20.0.0, SVG Export Plug-In . SVG Version: 6.00 Build 0)  -->
<svg version="1.1" id="Vrstva_1" xmlns="http://www.w3.org/2000/svg" xmlns:xlink="http://www.w3.org/1999/xlink" x="0px" y="0px"
	 viewBox="0 0 32 32" style="enable-background:new 0 0 32 32;" xml:space="preserve">
<style type="text/css">
	.st0{fill-rule:evenodd;clip-rule:evenodd;}
</style>
<g>
	<path class="st0" d="M22.478,18.76c-0.322-4.598-7.25-10.531-7.25-10.531s-6.036,6.84-5.714,11.437
		c0.295,4.223,3.638,5.24,6.214,5.236c0.043-0.617,0.068-1.746,0.068-1.746c-0.281-0.079-0.565-0.181-0.8-0.298
		c-0.229-0.118-0.446-0.255-0.649-0.406c-0.406-0.303-0.75-0.678-1-1.094c0.348,0.338,0.755,0.594,1.187,0.766
		c0.214,0.087,0.436,0.155,0.658,0.204c0.218,0.047,0.457,0.082,0.652,0.083c0,0,0.056-1.384,0.056-2.412
		c-0.259-0.077-0.473-0.172-0.694-0.284c-0.23-0.117-0.447-0.254-0.65-0.406c-0.406-0.304-0.75-0.678-1-1.094
		c0.349,0.339,0.757,0.594,1.187,0.767c0.216,0.087,0.436,0.156,0.658,0.204c0.162,0.035,0.336,0.063,0.494,0.076
		c-0.01-0.802-0.036-1.63-0.078-2.477l-0.023,0.156c-0.195-0.065-0.335-0.142-0.487-0.23c-0.148-0.087-0.284-0.187-0.411-0.296
		c-0.254-0.217-0.461-0.477-0.602-0.756c0.241,0.201,0.511,0.343,0.789,0.43c0.139,0.043,0.28,0.074,0.42,0.093
		c0.092,0.012,0.191,0.02,0.279,0.02c-0.009-0.151-0.018-0.303-0.029-0.456c-0.202-2.896-0.029-1.884,0.261,0.453
		c0.099,0.005,0.22-0.004,0.33-0.019c0.141-0.018,0.282-0.05,0.421-0.092c0.278-0.086,0.549-0.227,0.789-0.429
		c-0.141,0.279-0.348,0.539-0.602,0.756c-0.127,0.109-0.264,0.208-0.411,0.295c-0.138,0.08-0.27,0.15-0.438,0.211
		c0.07,0.589,0.146,1.234,0.224,1.905c0.185-0.004,0.403-0.037,0.604-0.08c0.223-0.048,0.443-0.117,0.659-0.204
		c0.43-0.173,0.838-0.428,1.187-0.766c-0.25,0.415-0.594,0.79-1,1.093c-0.203,0.151-0.42,0.288-0.65,0.407
		c-0.226,0.114-0.447,0.212-0.716,0.29c0.117,1.017,0.313,2.526,0.313,2.526c0.194,0,0.432-0.035,0.651-0.082
		c0.223-0.049,0.444-0.118,0.659-0.204c0.43-0.173,0.838-0.429,1.187-0.767c-0.251,0.416-0.594,0.79-1,1.094
		c-0.203,0.151-0.42,0.288-0.65,0.407c-0.233,0.118-0.458,0.22-0.74,0.298c0,0,0.093,1.33,0.164,1.981
		C19.556,24.479,22.776,23.017,22.478,18.76z"/>
</g>
</svg>
