<?xml version="1.0" encoding="utf-8"?>
<!-- Generator: Adobe Illustrator 20.0.0, SVG Export Plug-In . SVG Version: 6.00 Build 0)  -->
<svg version="1.1" id="Vrstva_1" xmlns="http://www.w3.org/2000/svg" xmlns:xlink="http://www.w3.org/1999/xlink" x="0px" y="0px"
	 viewBox="0 0 32 32" style="enable-background:new 0 0 32 32;" xml:space="preserve">
<style type="text/css">
	.st0{fill-rule:evenodd;clip-rule:evenodd;}
</style>
<g>
	<path class="st0" d="M24.635,18.399v-0.614c0-0.25-0.156-0.454-0.348-0.454h-1.431l0.469,1.522h0.962
		C24.479,18.853,24.635,18.649,24.635,18.399z"/>
	<polygon class="st0" points="19.885,17.331 12.408,17.331 11.939,18.853 20.354,18.853 	"/>
	<path class="st0" d="M22.803,23.039h0.316c0.142,0,0.269-0.088,0.349-0.242c0.079-0.154,0.094-0.341,0.041-0.512l-2.289-7.427
		c-0.064-0.209-0.217-0.344-0.39-0.344h-0.316c-0.142,0-0.269,0.088-0.348,0.242c-0.08,0.154-0.095,0.34-0.041,0.512l2.289,7.427
		C22.477,22.904,22.63,23.039,22.803,23.039z"/>
	<path class="st0" d="M10.611,10.406c-0.192,0-0.348,0.204-0.348,0.454V13c0,0.25,0.156,0.454,0.348,0.454h11.072
		c0.192,0,0.348-0.204,0.348-0.454v-2.14c0-0.25-0.156-0.454-0.348-0.454H10.611z"/>
	<path class="st0" d="M9.175,23.039H9.49c0.172,0,0.325-0.135,0.39-0.344l2.289-7.427c0.053-0.172,0.038-0.359-0.042-0.512
		c-0.079-0.154-0.206-0.242-0.348-0.242h-0.316c-0.172,0-0.325,0.135-0.39,0.344l-2.289,7.427c-0.053,0.172-0.038,0.359,0.042,0.512
		C8.906,22.951,9.032,23.039,9.175,23.039z"/>
	<path class="st0" d="M7.658,17.785v0.614c0,0.25,0.156,0.454,0.348,0.454h0.962l0.469-1.522H8.006
		C7.814,17.331,7.658,17.535,7.658,17.785z"/>
</g>
</svg>
