<?xml version="1.0" encoding="utf-8"?>
<!-- Generator: Adobe Illustrator 20.0.0, SVG Export Plug-In . SVG Version: 6.00 Build 0)  -->
<svg version="1.1" id="Vrstva_1" xmlns="http://www.w3.org/2000/svg" xmlns:xlink="http://www.w3.org/1999/xlink" x="0px" y="0px"
	 viewBox="0 0 32 32" style="enable-background:new 0 0 32 32;" xml:space="preserve">
<style type="text/css">
	.st0{fill-rule:evenodd;clip-rule:evenodd;}
</style>
<g>
	<path class="st0" d="M18.472,16.707h-4.818c0,0-1.171,4.723-5.859,8.14H24.33C19.642,21.43,18.472,16.707,18.472,16.707z"/>
	<path class="st0" d="M17.45,13.574c1.041,0.356,2.422,0.776,2.717-0.906c0.232-1.306,1.976-0.822,2.719-0.906
		c1.346-0.155,0.331-2.682-1.36-2.719c-1.71-0.037-2.489,0.714-3.172,2.266c-0.324,0.746-0.602,1.308-1.811,0.906
		c-1.207-0.404-2.092,0.589-1.359,1.811c0.651,1.084-0.01,2.266-0.01,2.266h1.823c0,0-0.015-0.673-0.454-1.359
		C16.031,14.132,16.384,13.206,17.45,13.574z"/>
</g>
</svg>
