<?xml version="1.0" encoding="utf-8"?>
<!-- Generator: Adobe Illustrator 20.0.0, SVG Export Plug-In . SVG Version: 6.00 Build 0)  -->
<svg version="1.1" id="Vrstva_1" xmlns="http://www.w3.org/2000/svg" xmlns:xlink="http://www.w3.org/1999/xlink" x="0px" y="0px"
	 viewBox="0 0 32 32" style="enable-background:new 0 0 32 32;" xml:space="preserve">
<style type="text/css">
	.st0{fill-rule:evenodd;clip-rule:evenodd;}
</style>
<g>
	<path class="st0" d="M23.346,12.158c-0.034-0.315-0.126-0.614-0.261-0.886c-0.339-1.34-1.591-2.084-2.871-1.888
		c-0.377-0.485-0.887-0.867-1.529-1.091c-1.014-0.353-2.098,0.008-2.761,0.772c-1.87-1.527-4.754-0.77-5.552,1.689
		c-0.039,0.121-0.106,0.233-0.14,0.355c-0.001,0.004-0.002,0.009-0.003,0.013c-0.811,0.211-1.616,0.875-1.682,1.702
		c-0.004,0.052-0.005,0.102-0.005,0.152c-0.423,1.095-0.368,2.162,0.289,3.194c0.685,1.076,1.674,1.604,2.903,1.617
		c1.176,1.592,2.253,3.253,3.233,4.974c-0.045,0.269-0.137,0.562-0.264,0.918c-0.287,0.803-0.018,1.206,0.835,1.232
		c0.129,0.004,0.258,0.007,0.386-0.004c0.495-0.043,0.754-0.412,0.618-0.888c-0.091-0.319-0.251-0.627-0.294-0.951
		c-0.002-0.016,0-0.092,0.009-0.213c0.482-0.914,1.557-1.451,2.161-2.281c0.393-0.539,0.675-1.138,0.838-1.769
		c0.382-0.025,0.767-0.143,1.156-0.389c0.587-0.372,0.926-0.995,1.012-1.657c0.076-0.16,0.173-0.234,0.377-0.266
		c1.165-0.18,1.881-0.929,2.032-2.093c0.102-0.791-0.125-1.497-0.483-2.181C23.348,12.198,23.348,12.179,23.346,12.158z
		 M12.824,18.118c0.317,0.296,0.629,0.599,0.897,0.935c0.153,0.193,0.278,0.579,0.398,0.971
		C13.702,19.379,13.269,18.744,12.824,18.118z M15.628,20.775c-0.242,0.038-0.803-1.192-0.998-1.589
		c0.608-0.039,1.222-0.078,1.871-0.119c-0.015,0.043-0.023,0.093-0.047,0.135C16.246,19.559,16.118,20.698,15.628,20.775z
		 M17.521,20.561c-0.349,0.375-0.748,0.693-1.11,1.037c0.155-0.92,0.441-2.1,0.946-3.012c0.058-0.105,0.126-0.163,0.208-0.19
		c0.326,0.16,0.653,0.285,0.984,0.354C18.357,19.415,18.013,20.032,17.521,20.561z"/>
</g>
</svg>
