<?xml version="1.0" encoding="utf-8"?>
<!-- Generator: Adobe Illustrator 20.0.0, SVG Export Plug-In . SVG Version: 6.00 Build 0)  -->
<svg version="1.1" id="Vrstva_1" xmlns="http://www.w3.org/2000/svg" xmlns:xlink="http://www.w3.org/1999/xlink" x="0px" y="0px"
	 viewBox="0 0 32 32" style="enable-background:new 0 0 32 32;" xml:space="preserve">
<style type="text/css">
	.st0{fill-rule:evenodd;clip-rule:evenodd;}
</style>
<g>
	<path class="st0" d="M19.753,7.692H16.67v6.83c0.788,0.09,1.535,0.376,2.188,0.841c0.358,0.255,0.675,0.554,0.946,0.889
		c0.024-0.014,0.048-0.028,0.072-0.042c0.351-0.199,0.735-0.334,1.132-0.4L20.09,9.873h4.299v-1.09h-4.468L19.753,7.692z"/>
	<path class="st0" d="M23.935,19.216c0-1.305-1.057-2.363-2.361-2.363c-0.844,0-1.585,0.444-2.002,1.111h-0.036
		c-0.51-1.391-1.844-2.383-3.41-2.383s-2.9,0.992-3.41,2.383h-0.036c-0.417-0.667-1.158-1.111-2.002-1.111
		c-1.304,0-2.361,1.058-2.361,2.363c0,0.449,0.125,0.867,0.342,1.225c-0.209-0.081-0.465-0.139-0.796-0.139v1.09
		c0.351,0,0.494,0.095,0.73,0.253c0.291,0.195,0.654,0.437,1.336,0.437c0.682,0,1.044-0.242,1.336-0.437
		c0.236-0.158,0.379-0.253,0.73-0.253c0.351,0,0.494,0.095,0.73,0.253c0.291,0.195,0.654,0.437,1.336,0.437s1.044-0.242,1.336-0.437
		c0.236-0.158,0.379-0.253,0.73-0.253c0.351,0,0.494,0.095,0.73,0.253c0.291,0.195,0.654,0.437,1.336,0.437s1.044-0.242,1.336-0.437
		c0.236-0.158,0.379-0.253,0.73-0.253c0.351,0,0.494,0.095,0.73,0.253c0.291,0.195,0.654,0.437,1.336,0.437
		c0.682,0,1.045-0.242,1.336-0.437c0.228-0.152,0.379-0.253,0.73-0.253v-1.09c-0.331,0-0.587,0.058-0.796,0.139
		C23.81,20.084,23.935,19.665,23.935,19.216z"/>
	<path class="st0" d="M12.374,16.21c0.024,0.014,0.048,0.028,0.072,0.042c0.271-0.335,0.588-0.635,0.946-0.889
		c0.653-0.465,1.4-0.75,2.188-0.841v-6.83h-3.092l-0.169,1.091H7.861v1.09h4.289l-0.918,5.936
		C11.633,15.874,12.02,16.01,12.374,16.21z"/>
	<path class="st0" d="M22.323,23.573c-0.351,0-0.502-0.101-0.73-0.253c-0.291-0.195-0.654-0.437-1.336-0.437
		c-0.682,0-1.044,0.242-1.336,0.437c-0.236,0.158-0.379,0.253-0.73,0.253c-0.351,0-0.494-0.095-0.73-0.253
		c-0.291-0.195-0.654-0.437-1.336-0.437c-0.682,0-1.044,0.242-1.336,0.437c-0.236,0.158-0.379,0.253-0.73,0.253
		s-0.494-0.095-0.73-0.253c-0.291-0.195-0.654-0.437-1.335-0.437c-0.682,0-1.044,0.242-1.336,0.437
		c-0.236,0.158-0.379,0.253-0.73,0.253c-0.351,0-0.494-0.095-0.73-0.253c-0.291-0.195-0.654-0.437-1.336-0.437v1.09
		c0.351,0,0.494,0.095,0.73,0.254c0.291,0.195,0.654,0.437,1.336,0.437c0.682,0,1.044-0.242,1.336-0.437
		c0.236-0.158,0.379-0.254,0.73-0.254c0.351,0,0.494,0.095,0.73,0.254c0.291,0.195,0.654,0.437,1.336,0.437s1.044-0.242,1.336-0.437
		c0.236-0.158,0.379-0.254,0.73-0.254c0.351,0,0.494,0.095,0.73,0.254c0.291,0.195,0.654,0.437,1.336,0.437s1.044-0.242,1.336-0.437
		c0.236-0.158,0.379-0.254,0.73-0.254c0.351,0,0.494,0.095,0.73,0.254c0.291,0.195,0.654,0.437,1.336,0.437
		c0.682,0,1.045-0.242,1.336-0.437c0.228-0.153,0.379-0.254,0.73-0.254v-1.09c-0.682,0-1.044,0.242-1.336,0.437
		C22.825,23.473,22.674,23.573,22.323,23.573z"/>
</g>
</svg>
