<?xml version="1.0" encoding="utf-8"?>
<!-- Generator: Adobe Illustrator 20.0.0, SVG Export Plug-In . SVG Version: 6.00 Build 0)  -->
<svg version="1.1" id="Vrstva_1" xmlns="http://www.w3.org/2000/svg" xmlns:xlink="http://www.w3.org/1999/xlink" x="0px" y="0px"
	 viewBox="0 0 32 32" style="enable-background:new 0 0 32 32;" xml:space="preserve">
<style type="text/css">
	.st0{fill-rule:evenodd;clip-rule:evenodd;}
</style>
<g>
	<path class="st0" d="M7.516,24.205l4.66,0.003c-0.013-0.249-0.021-0.503-0.021-0.76c0-3.892,1.584-6.171,3.537-6.171
		c1.951,0,3.536,2.279,3.536,6.171c0,0.257-0.008,0.511-0.022,0.76l5.423-0.003c1.489,0.001-0.258-3.704-2.127-6.604
		c-1.867-2.9-1.553-6.122-3.039-6.122c-0.643,0-1.579,0.533-2.042,1.419c-0.523-2.739-1.512-4.59-2.65-4.59
		c-1.361,0-2.512,2.645-2.9,6.293c-0.272-0.311-0.925-0.49-1.248-0.49c-1.164,0-1.715,1.934-2.106,5.049
		C8.123,22.272,6.352,24.205,7.516,24.205z"/>
</g>
</svg>
