<?xml version="1.0" encoding="utf-8"?>
<!-- Generator: Adobe Illustrator 20.0.0, SVG Export Plug-In . SVG Version: 6.00 Build 0)  -->
<svg version="1.1" id="Vrstva_1" xmlns="http://www.w3.org/2000/svg" xmlns:xlink="http://www.w3.org/1999/xlink" x="0px" y="0px"
	 viewBox="0 0 32 32" style="enable-background:new 0 0 32 32;" xml:space="preserve">
<style type="text/css">
	.st0{fill-rule:evenodd;clip-rule:evenodd;}
</style>
<g>
	<path class="st0" d="M22.336,21.072c0.063-0.119,0.05-0.266-0.036-0.394l-2.447-3.644h0.803c0.14,0,0.258-0.066,0.316-0.177
		c0.058-0.111,0.045-0.247-0.036-0.363l-2.518-3.638h0.899c0.13,0,0.239-0.062,0.291-0.165c0.052-0.103,0.038-0.226-0.039-0.33
		l-3.159-4.308c-0.068-0.093-0.169-0.146-0.278-0.146c-0.109,0-0.211,0.053-0.279,0.146l-3.16,4.307
		c-0.076,0.104-0.091,0.228-0.039,0.33c0.052,0.103,0.161,0.165,0.291,0.165h0.899l-2.518,3.639
		c-0.08,0.116-0.094,0.252-0.036,0.363c0.058,0.11,0.176,0.176,0.316,0.176h0.803L9.96,20.679c-0.086,0.127-0.099,0.274-0.036,0.393
		c0.063,0.118,0.19,0.188,0.341,0.188h11.729C22.145,21.26,22.273,21.19,22.336,21.072z"/>
	<path class="st0" d="M14.93,22.413c-0.212,0-0.384,0.172-0.384,0.384v1.969c0,0.212,0.172,0.384,0.384,0.384h2.352
		c0.211,0,0.384-0.172,0.384-0.384v-1.969c0-0.212-0.172-0.384-0.384-0.384H14.93z"/>
</g>
</svg>
