<?xml version="1.0" encoding="utf-8"?>
<!-- Generator: Adobe Illustrator 20.0.0, SVG Export Plug-In . SVG Version: 6.00 Build 0)  -->
<svg version="1.1" id="Vrstva_1" xmlns="http://www.w3.org/2000/svg" xmlns:xlink="http://www.w3.org/1999/xlink" x="0px" y="0px"
	 viewBox="0 0 32 32" style="enable-background:new 0 0 32 32;" xml:space="preserve">
<style type="text/css">
	.st0{fill-rule:evenodd;clip-rule:evenodd;}
</style>
<g>
	<path class="st0" d="M23.312,18.967c-0.428,0.373-1.065,0.373-1.492,0c-0.224-0.179-0.433-0.388-0.657-0.582
		c-1.063-0.887-2.608-0.887-3.671,0c-0.239,0.194-0.463,0.418-0.701,0.612c-0.427,0.373-1.065,0.373-1.492,0
		c-0.239-0.194-0.463-0.418-0.701-0.612c-1.06-0.879-2.596-0.879-3.656,0c-0.239,0.194-0.433,0.403-0.672,0.582
		c-0.138,0.108-0.295,0.189-0.463,0.239c-0.441,0.103-0.902-0.04-1.209-0.373c-0.369-0.319-0.764-0.608-1.179-0.866
		c-0.343-0.184-0.734-0.257-1.119-0.209v1.492c0.324,0.052,0.62,0.216,0.836,0.463l0.463,0.403c1.01,0.831,2.456,0.868,3.507,0.09
		c0.284-0.224,0.537-0.478,0.821-0.701c0.427-0.373,1.065-0.373,1.492,0L14,20.027c1.042,0.934,2.607,0.979,3.701,0.105
		c0.223-0.179,0.418-0.373,0.627-0.552c0.454-0.452,1.187-0.452,1.641,0l0.582,0.522c0.732,0.616,1.724,0.823,2.641,0.552
		c0.57-0.155,1.087-0.465,1.492-0.895c0.258-0.296,0.623-0.478,1.015-0.508v-1.492c-0.614-0.001-1.209,0.21-1.686,0.597
		L23.312,18.967z"/>
	<path class="st0" d="M23.312,13.212c-0.428,0.373-1.065,0.373-1.492,0c-0.224-0.179-0.433-0.388-0.657-0.582
		c-1.063-0.887-2.608-0.887-3.671,0c-0.239,0.194-0.463,0.418-0.701,0.612c-0.427,0.373-1.065,0.373-1.492,0
		c-0.239-0.194-0.463-0.418-0.701-0.612c-1.06-0.879-2.596-0.879-3.656,0c-0.239,0.194-0.433,0.403-0.672,0.582
		c-0.138,0.108-0.295,0.189-0.463,0.239c-0.441,0.103-0.902-0.039-1.209-0.373c-0.369-0.319-0.764-0.609-1.179-0.866
		c-0.343-0.184-0.734-0.257-1.119-0.209v1.492c0.324,0.052,0.62,0.215,0.836,0.463l0.463,0.403c1.01,0.831,2.456,0.868,3.507,0.089
		c0.284-0.224,0.537-0.478,0.821-0.701c0.427-0.373,1.065-0.373,1.492,0L14,14.272c1.042,0.934,2.607,0.978,3.701,0.105
		c0.223-0.179,0.418-0.373,0.627-0.552c0.454-0.452,1.187-0.452,1.641,0l0.582,0.522c0.732,0.616,1.724,0.823,2.641,0.552
		c0.57-0.155,1.087-0.465,1.492-0.895c0.258-0.296,0.623-0.478,1.015-0.508v-1.492c-0.614-0.001-1.209,0.21-1.686,0.597
		L23.312,13.212z"/>
</g>
</svg>
