<?xml version="1.0" encoding="utf-8"?>
<!-- Generator: Adobe Illustrator 20.0.0, SVG Export Plug-In . SVG Version: 6.00 Build 0)  -->
<svg version="1.1" id="Vrstva_1" xmlns="http://www.w3.org/2000/svg" xmlns:xlink="http://www.w3.org/1999/xlink" x="0px" y="0px"
	 viewBox="0 0 32 32" style="enable-background:new 0 0 32 32;" xml:space="preserve">
<style type="text/css">
	.st0{fill-rule:evenodd;clip-rule:evenodd;}
</style>
<g>
	<path class="st0" d="M10.616,19.88c0.046-0.561,1.386,1.345,2.069,2.013c0.779,0.762,4.717,0.599,4.647,1.067
		c-0.07,0.466,2.79-0.4,2.259-1.067c-0.601-0.752,2.04-2.421,1.628-2.938c-0.411-0.515,1.909-2.024,1.824-3.042
		c-0.044-0.502-0.256-1.046-0.559-1.598c-0.328-0.596-1.93-2.708-2.231-3.106c-0.449-0.593-0.744-1.052-0.664-1.276
		c0.12-0.334-1.207-0.185-2.659,0.069c-0.561,0.099-1.614-0.182-1.414,0.564c0.198,0.746-2.047,0.151-2.047,0.151
		s-2.533,0.765-2.074,1.224c0.281,0.282-2.187,3.28-2.164,3.971C9.295,17.8,10.571,20.441,10.616,19.88z M20.43,15.668
		c0.266,0,0.482,0.216,0.482,0.482c0,0.267-0.216,0.483-0.482,0.483c-0.266,0-0.483-0.217-0.483-0.483
		C19.947,15.884,20.163,15.668,20.43,15.668z M18.807,13.045c0.638,0,1.159,0.397,1.159,0.886c0,0.488-0.52,0.885-1.159,0.885
		c-0.641,0.001-1.159-0.396-1.159-0.885C17.648,13.441,18.166,13.045,18.807,13.045z M17.116,19.029c0.641,0,1.159,0.52,1.159,1.159
		c0,0.64-0.518,1.159-1.159,1.159c-0.639,0-1.159-0.519-1.159-1.159C15.957,19.548,16.477,19.029,17.116,19.029z M15.506,16.65
		c0,0.363-0.295,0.658-0.658,0.658c-0.363,0-0.659-0.293-0.659-0.658c0-0.363,0.295-0.658,0.659-0.658
		C15.211,15.992,15.506,16.287,15.506,16.65z M12.807,13.658c0.435-0.521,1.057-0.719,1.389-0.441
		c0.333,0.277,0.249,0.924-0.186,1.445c-0.435,0.521-1.056,0.717-1.388,0.441C12.289,14.824,12.373,14.178,12.807,13.658z
		 M11.653,17.248c0.219,0,0.395,0.177,0.395,0.395c0,0.219-0.176,0.395-0.395,0.395c-0.218,0-0.395-0.177-0.395-0.395
		C11.258,17.425,11.435,17.248,11.653,17.248z"/>
</g>
</svg>
