<?xml version="1.0" encoding="utf-8"?>
<!-- Generator: Adobe Illustrator 20.0.0, SVG Export Plug-In . SVG Version: 6.00 Build 0)  -->
<svg version="1.1" id="Vrstva_1" xmlns="http://www.w3.org/2000/svg" xmlns:xlink="http://www.w3.org/1999/xlink" x="0px" y="0px"
	 viewBox="0 0 32 32" style="enable-background:new 0 0 32 32;" xml:space="preserve">
<style type="text/css">
	.st0{fill-rule:evenodd;clip-rule:evenodd;}
</style>
<g>
	<path class="st0" d="M16.138,24.734c0.467,0,0.846-0.379,0.846-0.846v-1.975h2.49l1.22,3.173c0.129,0.336,0.449,0.543,0.789,0.543
		c0.101,0,0.204-0.018,0.303-0.057c0.436-0.168,0.653-0.658,0.485-1.094l-2.258-5.875c1.055-1.018,1.715-2.444,1.715-4.023
		c0-0.467-0.379-0.846-0.846-0.846h-8.587l7.768-3.982c0.416-0.213,0.58-0.723,0.367-1.139c-0.611-1.192-1.471-1.797-2.558-1.797
		c-1.046,0-2.106,0.554-3.334,1.195c-0.18,0.094-0.364,0.19-0.551,0.286c-0.187,0.096-0.372,0.189-0.554,0.28
		c-1.537,0.773-2.865,1.44-3.283,2.721c-0.239,0.73-0.131,1.52,0.328,2.416c0.065,0.128,0.164,0.232,0.28,0.311
		c-0.13,0.149-0.211,0.341-0.211,0.555c0,1.579,0.659,3.005,1.714,4.023l-2.258,5.875c-0.167,0.436,0.05,0.926,0.486,1.094
		c0.1,0.038,0.202,0.057,0.303,0.057c0.34,0,0.66-0.206,0.79-0.543l1.219-3.173h2.49v1.975
		C15.292,24.355,15.671,24.734,16.138,24.734z M16.983,20.104c0.567-0.087,1.105-0.258,1.603-0.502l0.562,1.464h-2.165V20.104z
		 M13.127,21.066l0.562-1.464c0.498,0.244,1.036,0.415,1.603,0.502v0.962H13.127z"/>
</g>
</svg>
