<?xml version="1.0" encoding="utf-8"?>
<!-- Generator: Adobe Illustrator 20.0.0, SVG Export Plug-In . SVG Version: 6.00 Build 0)  -->
<svg version="1.1" id="Vrstva_1" xmlns="http://www.w3.org/2000/svg" xmlns:xlink="http://www.w3.org/1999/xlink" x="0px" y="0px"
	 viewBox="0 0 32 32" style="enable-background:new 0 0 32 32;" xml:space="preserve">
<style type="text/css">
	.st0{fill-rule:evenodd;clip-rule:evenodd;}
</style>
<g>
	<path class="st0" d="M9.432,16.177c-0.99,0-1.493,0.228-1.493,0.678v5.571c0,0.219,0.133,0.317,0.264,0.317
		c0.103,0,0.183-0.058,0.213-0.082c0.063-0.052,0.124-0.101,0.181-0.147c0.48-0.383,1.13-0.829,1.881-1.289
		c0.999-0.611,3.064-1.785,5.682-2.782c0.096-0.037,0.167-0.133,0.178-0.239c0.009-0.09-0.029-0.17-0.101-0.215
		c-0.845-0.526-2.148-0.992-3.46-1.319l-0.036-1.574c0.132,0.04,0.271,0.061,0.413,0.061c0.78,0,1.415-0.635,1.415-1.415
		c0-0.44-0.202-0.848-0.545-1.115c0.009-0.061,0.014-0.123,0.014-0.184c0-0.517-0.321-0.97-0.789-1.15
		c0.043-0.127,0.065-0.26,0.065-0.395c0-0.679-0.552-1.232-1.232-1.232c-0.678,0-1.23,0.551-1.232,1.228
		c-0.597,0.085-1.058,0.599-1.058,1.219c0,0.295,0.105,0.577,0.293,0.798c-0.26,0.263-0.406,0.615-0.406,0.992
		c0,0.78,0.635,1.415,1.415,1.415c0.145,0,0.286-0.023,0.42-0.065l-0.026,1.14C10.717,16.254,9.998,16.177,9.432,16.177z"/>
	<path class="st0" d="M23.786,24.414c0.083,0,0.244-0.016,0.385-0.121c0.115-0.086,0.252-0.259,0.252-0.595v-5.046
		c0-0.262-0.103-0.579-0.591-0.61c-0.166-0.01-0.346-0.016-0.534-0.016c-0.358,0-0.785,0.018-1.28,0.069l-0.043-1.867
		c0.194,0.069,0.402,0.105,0.615,0.105c1.01,0,1.831-0.821,1.831-1.831c0-0.581-0.272-1.12-0.733-1.466
		c0.015-0.09,0.023-0.181,0.023-0.273c0-0.686-0.44-1.285-1.073-1.501c0.069-0.18,0.104-0.371,0.104-0.565
		c0-0.875-0.711-1.586-1.586-1.586c-0.875,0-1.586,0.712-1.586,1.586c0,0.016,0,0.032,0.001,0.049
		c-0.795,0.086-1.415,0.76-1.415,1.577c0,0.399,0.149,0.779,0.415,1.07c-0.362,0.344-0.566,0.816-0.566,1.324
		c0,1.01,0.821,1.831,1.831,1.831c0.217,0,0.428-0.038,0.625-0.11l-0.044,1.902c-0.987,0.198-2.143,0.509-3.464,0.992
		c-2.709,0.989-4.855,2.203-5.893,2.839c-0.712,0.436-1.323,0.854-1.767,1.209c-0.663,0.529-0.694,0.707-0.672,0.832
		c0.017,0.096,0.098,0.199,0.275,0.199h14.829C23.736,24.413,23.758,24.414,23.786,24.414z"/>
</g>
</svg>
