<?xml version="1.0" encoding="utf-8"?>
<!-- Generator: Adobe Illustrator 20.0.0, SVG Export Plug-In . SVG Version: 6.00 Build 0)  -->
<svg version="1.1" id="Vrstva_1" xmlns="http://www.w3.org/2000/svg" xmlns:xlink="http://www.w3.org/1999/xlink" x="0px" y="0px"
	 viewBox="0 0 32 32" style="enable-background:new 0 0 32 32;" xml:space="preserve">
<style type="text/css">
	.st0{fill-rule:evenodd;clip-rule:evenodd;}
</style>
<g>
	<path class="st0" d="M11.03,9.069v1.922l0.004,1.998h0.515l0.004,11.253h3.326v-3.517c0-0.66,0.535-1.194,1.195-1.194
		c0.66,0,1.195,0.534,1.195,1.194v3.516h3.308V12.989h0.519v-3.92h-0.659v1.388h-1.187v0.002h-0.067V9.795
		c0-0.418-0.339-0.758-0.758-0.758c-0.419,0-0.758,0.339-0.758,0.758v0.663h-0.845V9.728c0-0.418-0.339-0.758-0.758-0.758
		c-0.419,0-0.758,0.34-0.758,0.758v0.729h-0.962v0.002h-0.066V9.795c0-0.418-0.34-0.758-0.758-0.758
		c-0.419,0-0.758,0.339-0.758,0.758v0.663h-1.071V9.069H11.03z M14.675,15.365h2.802v1.998h-2.802V15.365z"/>
</g>
</svg>
