<?xml version="1.0" encoding="utf-8"?>
<!-- Generator: Adobe Illustrator 20.0.0, SVG Export Plug-In . SVG Version: 6.00 Build 0)  -->
<svg version="1.1" id="Vrstva_1" xmlns="http://www.w3.org/2000/svg" xmlns:xlink="http://www.w3.org/1999/xlink" x="0px" y="0px"
	 viewBox="0 0 32 32" style="enable-background:new 0 0 32 32;" xml:space="preserve">
<style type="text/css">
	.st0{fill-rule:evenodd;clip-rule:evenodd;}
</style>
<g>
	<path class="st0" d="M25.376,11.932c0-0.951-0.772-1.721-1.725-1.721H8.474c-0.953,0-1.725,0.77-1.725,1.721v1.507h18.628V11.932z"
		/>
	<path class="st0" d="M8.474,22.209h15.178c0.953,0,1.725-0.771,1.725-1.721v-5.221H6.749v5.221
		C6.749,21.439,7.521,22.209,8.474,22.209z M19.523,17.063c0.352,0,0.676,0.118,0.937,0.316c0.26-0.198,0.584-0.316,0.936-0.316
		c0.854,0,1.546,0.691,1.546,1.543c0,0.852-0.692,1.543-1.546,1.543c-0.352,0-0.677-0.118-0.936-0.316
		c-0.26,0.198-0.584,0.316-0.937,0.316c-0.854,0-1.546-0.691-1.546-1.543C17.977,17.754,18.669,17.063,19.523,17.063z M9.256,19.171
		c0-0.128,0.104-0.233,0.233-0.233h3.59c0.128,0,0.233,0.104,0.233,0.233v0.707c0,0.128-0.104,0.232-0.233,0.232h-3.59
		c-0.129,0-0.233-0.104-0.233-0.232V19.171z"/>
</g>
</svg>
