<?xml version="1.0" encoding="utf-8"?>
<!-- Generator: Adobe Illustrator 20.0.0, SVG Export Plug-In . SVG Version: 6.00 Build 0)  -->
<svg version="1.1" id="Vrstva_1" xmlns="http://www.w3.org/2000/svg" xmlns:xlink="http://www.w3.org/1999/xlink" x="0px" y="0px"
	 viewBox="0 0 32 32" style="enable-background:new 0 0 32 32;" xml:space="preserve">
<style type="text/css">
	.st0{fill-rule:evenodd;clip-rule:evenodd;}
</style>
<g>
	<path class="st0" d="M14.54,24.038h3.045c0.316,0,0.571-0.255,0.571-0.571v-5.374h5.374c0.316,0,0.571-0.255,0.571-0.571v-3.045
		c0-0.316-0.255-0.571-0.571-0.571h-5.374V8.533c0-0.316-0.255-0.571-0.571-0.571H14.54c-0.316,0-0.571,0.255-0.571,0.571v5.374
		H8.595c-0.316,0-0.571,0.255-0.571,0.571v3.045c0,0.316,0.255,0.571,0.571,0.571h5.374v5.374
		C13.969,23.783,14.224,24.038,14.54,24.038z"/>
</g>
</svg>
