<?xml version="1.0" encoding="utf-8"?>
<!-- Generator: Adobe Illustrator 20.0.0, SVG Export Plug-In . SVG Version: 6.00 Build 0)  -->
<svg version="1.1" id="Vrstva_1" xmlns="http://www.w3.org/2000/svg" xmlns:xlink="http://www.w3.org/1999/xlink" x="0px" y="0px"
	 viewBox="0 0 32 32" style="enable-background:new 0 0 32 32;" xml:space="preserve">
<style type="text/css">
	.st0{fill-rule:evenodd;clip-rule:evenodd;}
</style>
<g>
	<path class="st0" d="M12.867,19.112c1.023,1.786,2.085,3.544,3.137,5.3c0.648-1.146,1.295-2.308,1.928-3.424
		c0.173-0.328,0.373-0.655,0.546-0.968c0.115-0.208,0.335-0.416,0.436-0.61c1.023-1.935,2.67-3.886,2.67-5.807v-0.789
		c0-0.208-0.25-0.938-0.264-0.983c-0.058-0.223-0.175-0.462-0.261-0.67c-1.037-2.576-3.304-3.499-5.133-3.499
		c-2.45,0-5.148,1.697-5.508,5.196v0.715c0,0.03,0.01,0.298,0.024,0.432C10.643,15.673,11.916,17.445,12.867,19.112z M14.019,13.037
		c0-1.31,1.076-1.906,2.013-1.906c1.153,0,2.044,0.953,2.044,2.144c0,1.191-0.954,2.144-2.107,2.144
		c-0.72,0-1.508-0.372-1.897-1.399c-0.058-0.164-0.053-0.491-0.053-0.521V13.037z"/>
</g>
</svg>
