<?xml version="1.0" encoding="utf-8"?>
<!-- Generator: Adobe Illustrator 20.0.0, SVG Export Plug-In . SVG Version: 6.00 Build 0)  -->
<svg version="1.1" id="Vrstva_1" xmlns="http://www.w3.org/2000/svg" xmlns:xlink="http://www.w3.org/1999/xlink" x="0px" y="0px"
	 viewBox="0 0 32 32" style="enable-background:new 0 0 32 32;" xml:space="preserve">
<style type="text/css">
	.st0{fill-rule:evenodd;clip-rule:evenodd;}
</style>
<g>
	<path class="st0" d="M18.262,12.268l-2.2-3.953l-2.2,3.953H9.583l2.14,3.89l-2.14,3.89h4.279l2.2,3.953l2.2-3.953h4.279l-2.14-3.89
		l2.14-3.89H18.262z M16.062,11.121l0.633,1.116H15.43L16.062,11.121z M11.874,18.773l0.633-1.116l0.603,1.116H11.874z
		 M12.506,14.66l-0.633-1.116h1.236L12.506,14.66z M16.062,21.196L15.43,20.08h1.266L16.062,21.196z M17.479,18.773h-2.833
		l-1.386-2.614l1.386-2.615h2.833l1.386,2.615L17.479,18.773z M19.016,18.773l0.603-1.116l0.633,1.116H19.016z M19.618,14.66
		l-0.603-1.116h1.236L19.618,14.66z"/>
</g>
</svg>
