<?xml version="1.0" encoding="utf-8"?>
<!-- Generator: Adobe Illustrator 20.0.0, SVG Export Plug-In . SVG Version: 6.00 Build 0)  -->
<svg version="1.1" id="Vrstva_1" xmlns="http://www.w3.org/2000/svg" xmlns:xlink="http://www.w3.org/1999/xlink" x="0px" y="0px"
	 viewBox="0 0 32 32" style="enable-background:new 0 0 32 32;" xml:space="preserve">
<style type="text/css">
	.st0{fill-rule:evenodd;clip-rule:evenodd;}
</style>
<g>
	<path class="st0" d="M15.211,15.062l-0.16,0.013l-0.164,1.018c0.412-0.042,0.828-0.07,1.251-0.07c2.282,0,4.42,0.627,6.15,1.7
		l0.702-4.377c0.325-2.027-1.085-3.929-3.15-4.248c-1.632-0.252-3.181,0.562-3.92,1.914c0.042,0.029,0.085,0.054,0.125,0.086
		c0.335,0.279,0.539,0.669,0.576,1.1l0.095,1.119c0.036,0.43-0.1,0.849-0.384,1.178C16.047,14.824,15.649,15.026,15.211,15.062z"/>
	<path class="st0" d="M7.37,22.699h17.535c-0.995-3.159-4.537-5.499-8.767-5.499c-1.355,0-2.637,0.242-3.789,0.672
		c0.127-2.474,0.037-0.721,0.194-3.774l2.569-0.209c0.247-0.02,0.43-0.233,0.409-0.475l-0.094-1.12
		c-0.01-0.116-0.066-0.224-0.157-0.299c-0.081-0.067-0.184-0.104-0.289-0.104c-0.012,0-0.025,0-0.037,0.002l-2.296,0.187
		c0.073-1.419,0.052-1.018,0.094-1.825c0.006-0.12-0.038-0.238-0.122-0.325c-0.085-0.088-0.202-0.137-0.325-0.137h-1.844
		c-0.122,0-0.24,0.049-0.325,0.137c-0.084,0.087-0.128,0.205-0.123,0.325c0.055,1.054,0.032,0.609,0.105,2.032l-2.476,0.202
		c-0.246,0.02-0.429,0.233-0.409,0.475l0.095,1.12c0.01,0.116,0.067,0.224,0.157,0.299c0.081,0.067,0.184,0.104,0.289,0.104
		c0.013,0,0.025,0,0.037-0.002l2.41-0.197c0.159,3.09,0.089,1.721,0.234,4.543C8.956,19.807,7.857,21.154,7.37,22.699z"/>
</g>
</svg>
