<?xml version="1.0" encoding="utf-8"?>
<!-- Generator: Adobe Illustrator 20.0.0, SVG Export Plug-In . SVG Version: 6.00 Build 0)  -->
<svg version="1.1" id="Vrstva_1" xmlns="http://www.w3.org/2000/svg" xmlns:xlink="http://www.w3.org/1999/xlink" x="0px" y="0px"
	 viewBox="0 0 32 32" style="enable-background:new 0 0 32 32;" xml:space="preserve">
<style type="text/css">
	.st0{fill-rule:evenodd;clip-rule:evenodd;}
</style>
<g>
	<path class="st0" d="M23.295,11.81c0-1.086-0.423-2.106-1.19-2.873c-0.766-0.768-1.787-1.189-2.872-1.189
		c-1.086,0-2.105,0.423-2.873,1.191l-6.34,6.339c-0.768,0.768-1.191,1.788-1.191,2.873s0.423,2.105,1.191,2.873
		c0.768,0.766,1.789,1.189,2.873,1.189c1.086,0,2.105-0.423,2.873-1.191l6.338-6.339C22.873,13.916,23.295,12.896,23.295,11.81z
		 M17.339,16.939l-2.812,2.814c-0.436,0.436-1.024,0.687-1.641,0.686c-0.603-0.002-1.171-0.236-1.6-0.658
		c-0.902-0.891-0.89-2.368,0.005-3.266l2.812-2.812c0.189-0.189,0.495-0.189,0.684,0l2.552,2.552
		C17.528,16.444,17.528,16.75,17.339,16.939z"/>
</g>
</svg>
