<?xml version="1.0" encoding="utf-8"?>
<!-- Generator: Adobe Illustrator 20.0.0, SVG Export Plug-In . SVG Version: 6.00 Build 0)  -->
<svg version="1.1" id="Vrstva_1" xmlns="http://www.w3.org/2000/svg" xmlns:xlink="http://www.w3.org/1999/xlink" x="0px" y="0px"
	 viewBox="0 0 32 32" style="enable-background:new 0 0 32 32;" xml:space="preserve">
<style type="text/css">
	.st0{fill-rule:evenodd;clip-rule:evenodd;}
</style>
<g>
	<path class="st0" d="M22.938,17.38c0-0.398-0.118-0.766-0.318-1.075l-6.73,7.976h7.048V17.38z"/>
	<path class="st0" d="M9.063,12.867v5.073c0,0.812,0.747,1.414,1.535,1.239l3.511-0.785v5.888l7.415-8.789
		c-0.176-0.052-0.358-0.089-0.552-0.089H16l-4.415,0.956v-3.493c0.01-0.715-0.57-1.297-1.281-1.286
		C9.609,11.592,9.053,12.167,9.063,12.867z"/>
	<path class="st0" d="M18.523,14.769c3.153,0,3.153-3.488,3.153-3.488V9.696h-6.307v1.585
		C15.369,11.281,15.369,14.769,18.523,14.769z"/>
	<polygon class="st0" points="21.676,9.062 22.307,7.794 14.739,7.794 15.369,9.062 	"/>
</g>
</svg>
