<?xml version="1.0" encoding="utf-8"?>
<!-- Generator: Adobe Illustrator 20.0.0, SVG Export Plug-In . SVG Version: 6.00 Build 0)  -->
<svg version="1.1" id="Vrstva_1" xmlns="http://www.w3.org/2000/svg" xmlns:xlink="http://www.w3.org/1999/xlink" x="0px" y="0px"
	 viewBox="0 0 32 32" style="enable-background:new 0 0 32 32;" xml:space="preserve">
<style type="text/css">
	.st0{fill-rule:evenodd;clip-rule:evenodd;}
</style>
<g>
	<path class="st0" d="M17.82,10.706v0.024l-3.857,0.02l0.119-0.226l0,0l0,0l0,0c-0.657,0.243-1.509,0.419-2.013-0.034l-0.228,0.261
		c0.299,0.27,0.679,0.362,1.079,0.361c0.234,0,0.475-0.038,0.708-0.09c-2.191,1.509-3.721,4.861-3.706,7.401
		c0.016,3.37,2.756,6.087,6.11,6.069c3.359-0.016,6.066-2.763,6.049-6.135C22.064,15.642,20.274,12.002,17.82,10.706z
		 M17.746,20.389c-0.322,0.287-0.725,0.468-1.2,0.548l0.006,0.97l-1.04,0.006l-0.006-0.969c-0.469-0.08-0.891-0.277-1.258-0.582
		c-0.44-0.377-0.666-0.815-0.677-1.301l0.019-0.266l1.009-0.005l0.004,0.102c0.007,0.402,0.129,0.703,0.371,0.917
		c0.243,0.213,0.589,0.321,1.036,0.321c0.445-0.006,0.795-0.116,1.041-0.331c0.243-0.219,0.36-0.514,0.358-0.901
		c-0.001-0.317-0.114-0.565-0.348-0.752c-0.243-0.191-0.663-0.357-1.253-0.497c-0.653-0.152-1.155-0.387-1.485-0.696
		c-0.336-0.317-0.511-0.726-0.513-1.209c-0.003-0.553,0.21-1.013,0.636-1.367c0.29-0.241,0.634-0.4,1.022-0.473l-0.004-0.845
		l1.039-0.006l0.004,0.817c0.464,0.063,0.853,0.226,1.159,0.48c0.408,0.341,0.633,0.817,0.666,1.413l0.006,0.104l-1.018,0.006
		l-0.011-0.085c-0.049-0.372-0.173-0.65-0.375-0.827c-0.197-0.173-0.488-0.264-0.866-0.261c-0.392,0.001-0.708,0.097-0.922,0.279
		c-0.214,0.18-0.316,0.423-0.315,0.749c0,0.282,0.099,0.502,0.296,0.668c0.2,0.169,0.558,0.316,1.064,0.434
		c0.74,0.172,1.301,0.427,1.673,0.762c0.372,0.34,0.564,0.77,0.566,1.283C18.434,19.486,18.205,19.995,17.746,20.389z"/>
	<path class="st0" d="M14.297,10.297l3.1-0.016l0.872-2.977L13.61,7.329l0.668,2.896c-0.483-0.542-1.668-1.694-2.747-1.295
		l0.117,0.324c0.917-0.341,2.039,0.818,2.433,1.271c0,0,0,0,0.001,0L14.297,10.297z"/>
</g>
</svg>
