<?xml version="1.0" encoding="utf-8"?>
<!-- Generator: Adobe Illustrator 20.0.0, SVG Export Plug-In . SVG Version: 6.00 Build 0)  -->
<svg version="1.1" id="Vrstva_1" xmlns="http://www.w3.org/2000/svg" xmlns:xlink="http://www.w3.org/1999/xlink" x="0px" y="0px"
	 viewBox="0 0 32 32" style="enable-background:new 0 0 32 32;" xml:space="preserve">
<style type="text/css">
	.st0{fill-rule:evenodd;clip-rule:evenodd;}
</style>
<g>
	<path class="st0" d="M12.398,15.511c-0.333,0-0.631,0.205-0.747,0.515l-1.524,4.056c-0.091,0.243-0.057,0.516,0.092,0.729
		c0.149,0.213,0.394,0.341,0.656,0.341h0.908v4.208h2.713V22.45c0-0.86,0.703-1.557,1.569-1.557c0.865,0,1.568,0.697,1.568,1.557
		v2.909h2.714v-4.208h0.906c0.261,0,0.506-0.127,0.655-0.341c0.149-0.213,0.184-0.485,0.092-0.729l-1.524-4.056
		c-0.116-0.31-0.414-0.515-0.747-0.515h-1.29v-5.093h0.468c0.094,0,0.184-0.037,0.248-0.107c0.063-0.07,0.093-0.162,0.081-0.256
		c-0.193-1.57-1.538-2.785-3.171-2.785c-1.633,0-2.98,1.217-3.172,2.786c-0.011,0.093,0.018,0.184,0.081,0.254
		c0.063,0.071,0.153,0.108,0.248,0.108h0.469v5.093H12.398z M15.132,12.529c0-0.509,0.398-0.932,0.912-0.932h0.04
		c0.513,0,0.914,0.423,0.914,0.932v1.631h0c0,0.143-0.102,0.257-0.247,0.257h-1.374c-0.145,0-0.245-0.114-0.245-0.257V12.529z"/>
</g>
</svg>
