<?xml version="1.0" encoding="utf-8"?>
<!-- Generator: Adobe Illustrator 20.0.0, SVG Export Plug-In . SVG Version: 6.00 Build 0)  -->
<svg version="1.1" id="Vrstva_1" xmlns="http://www.w3.org/2000/svg" xmlns:xlink="http://www.w3.org/1999/xlink" x="0px" y="0px"
	 viewBox="0 0 32 32" style="enable-background:new 0 0 32 32;" xml:space="preserve">
<style type="text/css">
	.st0{fill-rule:evenodd;clip-rule:evenodd;}
</style>
<g>
	<polygon class="st0" points="22.363,11.321 21.461,10.435 21.025,8.883 20.695,8.792 17.778,12.1 16.548,12.883 15.334,13.052 
		10.173,13.047 9.566,12.613 9.097,10.856 8.572,10.649 8.403,10.974 8.517,12.109 9.159,13.822 9.162,13.849 8.567,15.522 
		8.961,17.593 8.896,18.956 8.686,19.687 8.673,21.653 9.066,22.538 10.056,22.539 10.402,22.217 9.852,21.632 9.691,20.648 
		10.145,19.259 10.28,19.054 10.331,19.084 10.356,20.363 10.848,21.86 11.21,22.391 12.283,22.395 12.462,22.052 11.779,21.329 
		11.708,19.65 12.38,17.822 12.848,17.066 13.515,16.978 17.182,17.654 17.335,18.214 16.983,21.598 17.468,22.397 18.289,22.397 
		18.736,22.072 18.636,21.6 18.086,21.325 18.682,18.383 18.928,21.814 19.643,22.539 20.384,22.538 20.653,22.108 20.168,21.727 
		19.922,21.253 20.402,13.579 20.949,13.214 21.366,13.196 22.379,13.508 23.597,12.984 23.455,11.956 	"/>
</g>
</svg>
