<?xml version="1.0" encoding="utf-8"?>
<!-- Generator: Adobe Illustrator 20.0.0, SVG Export Plug-In . SVG Version: 6.00 Build 0)  -->
<svg version="1.1" id="Vrstva_1" xmlns="http://www.w3.org/2000/svg" xmlns:xlink="http://www.w3.org/1999/xlink" x="0px" y="0px"
	 viewBox="0 0 32 32" style="enable-background:new 0 0 32 32;" xml:space="preserve">
<style type="text/css">
	.st0{fill-rule:evenodd;clip-rule:evenodd;}
</style>
<g>
	<path class="st0" d="M19.554,9.368c-0.35-0.054-1.066-0.038-1.599,0.034L16.063,9.66L14.17,9.402
		c-0.534-0.073-1.249-0.088-1.599-0.034c-0.35,0.054-0.851,0.352-1.121,0.666c-0.269,0.314-0.566,0.999-0.595,1.537
		c-0.051,0.951,0.012,2.458,0.693,3.841c0,0,0.487,0.975,0.487,2.535c0,1.141,0.434,3.6,0.999,4.694
		c0.247,0.479,0.986,0.387,1.135-0.13c0.524-1.813,0.897-6.38,1.893-6.367c0.996-0.013,1.369,4.554,1.894,6.367
		c0.15,0.517,0.889,0.609,1.136,0.13c0.564-1.094,0.998-3.553,0.998-4.694c0-1.56,0.487-2.535,0.487-2.535
		c0.681-1.383,0.744-2.89,0.693-3.841c-0.029-0.537-0.326-1.223-0.595-1.537C20.405,9.72,19.904,9.422,19.554,9.368z"/>
</g>
</svg>
