<?xml version="1.0" encoding="utf-8"?>
<!-- Generator: Adobe Illustrator 20.0.0, SVG Export Plug-In . SVG Version: 6.00 Build 0)  -->
<svg version="1.1" id="Vrstva_1" xmlns="http://www.w3.org/2000/svg" xmlns:xlink="http://www.w3.org/1999/xlink" x="0px" y="0px"
	 viewBox="0 0 32 32" style="enable-background:new 0 0 32 32;" xml:space="preserve">
<style type="text/css">
	.st0{fill-rule:evenodd;clip-rule:evenodd;}
</style>
<g>
	<path class="st0" d="M22.837,21.077c0.005,0.118,0.018,0.238,0.037,0.359h-0.572c-0.659-2.126-0.82-4.049-0.817-5.426
		c0.001-0.541,0.026-1.032,0.063-1.461h1.631v-0.662h-1.561c0.08-0.632,0.173-1.048,0.204-1.182
		c-0.558,0.115-1.119,0.213-1.68,0.294c-0.042,0.243-0.087,0.541-0.126,0.888h-7.708c-0.04-0.346-0.084-0.644-0.126-0.888
		c-0.562-0.081-1.122-0.179-1.681-0.294c0.032,0.133,0.124,0.549,0.205,1.182H9.144v0.662h1.631c0.037,0.429,0.062,0.92,0.063,1.461
		c0.002,1.377-0.158,3.299-0.817,5.426H9.449c0.019-0.121,0.032-0.241,0.037-0.359l-0.358-0.016
		c-0.039,0.899-0.586,2.01-0.776,2.371h0.403c0.186-0.371,0.49-1.039,0.641-1.719h0.536c-0.184,0.562-0.403,1.137-0.664,1.719h1.728
		c0.236-0.583,0.435-1.158,0.602-1.719h0.55c-0.176,0.725-0.531,1.442-0.677,1.719h0.403c0.245-0.488,0.693-1.49,0.731-2.356
		l-0.357-0.016c-0.005,0.122-0.02,0.247-0.042,0.374h-0.527c0.607-2.149,0.755-4.08,0.749-5.488
		c-0.003-0.51-0.025-0.978-0.057-1.398h1.506c-0.235,0.064-0.401,0.265-0.409,0.275l-0.064,0.079l0.064,0.079
		c0.008,0.01,0.181,0.219,0.422,0.278c-0.241,0.06-0.413,0.268-0.422,0.278l-0.064,0.079l0.064,0.079
		c0.008,0.01,0.181,0.219,0.422,0.278c-0.241,0.06-0.413,0.268-0.422,0.278l-0.064,0.079l0.064,0.079
		c0.008,0.01,0.181,0.219,0.422,0.278c-0.241,0.06-0.413,0.268-0.422,0.278l-0.064,0.079l0.064,0.079
		c0.01,0.012,0.243,0.295,0.548,0.295c0.305,0,0.538-0.283,0.548-0.295l0.064-0.079l-0.064-0.079
		c-0.008-0.01-0.181-0.219-0.422-0.278c0.241-0.06,0.413-0.268,0.422-0.278l0.064-0.079l-0.064-0.079
		c-0.008-0.01-0.181-0.219-0.422-0.278c0.241-0.06,0.413-0.268,0.422-0.278l0.064-0.079l-0.064-0.079
		c-0.008-0.01-0.181-0.219-0.422-0.278c0.241-0.06,0.413-0.268,0.422-0.278l0.064-0.079l-0.064-0.079
		c-0.008-0.01-0.175-0.211-0.409-0.275h1.869c-0.234,0.064-0.401,0.265-0.41,0.275l-0.064,0.079l0.064,0.079
		c0.008,0.01,0.181,0.219,0.422,0.278c-0.241,0.06-0.413,0.268-0.422,0.278l-0.064,0.079l0.064,0.079
		c0.008,0.01,0.181,0.219,0.422,0.278c-0.241,0.06-0.413,0.268-0.422,0.278l-0.064,0.079l0.064,0.079
		c0.008,0.01,0.181,0.219,0.422,0.278c-0.241,0.06-0.413,0.268-0.422,0.278l-0.064,0.079l0.064,0.079
		c0.01,0.012,0.243,0.295,0.548,0.295s0.538-0.283,0.548-0.295l0.064-0.079l-0.064-0.079c-0.009-0.01-0.181-0.219-0.422-0.278
		c0.241-0.06,0.413-0.268,0.422-0.278l0.064-0.079l-0.064-0.079c-0.009-0.01-0.181-0.219-0.422-0.278
		c0.241-0.06,0.413-0.268,0.422-0.278l0.064-0.079l-0.064-0.079c-0.009-0.01-0.181-0.219-0.422-0.278
		c0.241-0.06,0.413-0.268,0.422-0.278l0.064-0.079l-0.064-0.079c-0.008-0.01-0.175-0.211-0.409-0.275h1.869
		c-0.235,0.064-0.401,0.265-0.41,0.275l-0.064,0.079l0.064,0.079c0.009,0.01,0.181,0.219,0.422,0.278
		c-0.241,0.06-0.413,0.268-0.422,0.278l-0.064,0.079l0.064,0.079c0.009,0.01,0.181,0.219,0.422,0.278
		c-0.241,0.06-0.413,0.268-0.422,0.278l-0.064,0.079l0.064,0.079c0.009,0.01,0.181,0.219,0.422,0.278
		c-0.241,0.06-0.413,0.268-0.422,0.278l-0.064,0.079l0.064,0.079c0.01,0.012,0.243,0.295,0.548,0.295s0.538-0.283,0.548-0.295
		l0.064-0.079l-0.064-0.079c-0.008-0.01-0.181-0.219-0.422-0.278c0.241-0.06,0.413-0.268,0.422-0.278l0.064-0.079l-0.064-0.079
		c-0.008-0.01-0.181-0.219-0.422-0.278c0.241-0.06,0.413-0.268,0.422-0.278l0.064-0.079l-0.064-0.079
		c-0.008-0.01-0.181-0.219-0.422-0.278c0.241-0.06,0.413-0.268,0.422-0.278l0.064-0.079l-0.064-0.079
		c-0.008-0.01-0.175-0.211-0.409-0.275h1.506c-0.033,0.42-0.055,0.888-0.057,1.398c-0.007,1.409,0.142,3.34,0.749,5.488h-0.527
		c-0.022-0.127-0.037-0.252-0.042-0.374l-0.357,0.016c0.038,0.866,0.486,1.867,0.731,2.356h0.403
		c-0.146-0.277-0.501-0.994-0.677-1.719h0.55c0.167,0.561,0.366,1.136,0.602,1.719h1.728c-0.261-0.582-0.48-1.157-0.664-1.719h0.536
		c0.151,0.68,0.455,1.348,0.641,1.719h0.403c-0.19-0.361-0.737-1.472-0.776-2.371L22.837,21.077z"/>
	<path class="st0" d="M16.161,10.367c-2.403,0-4.806-0.349-7.166-1.046c-0.248,0.804-0.495,1.607-0.742,2.411
		c2.602,0.771,5.256,1.157,7.91,1.157c2.653,0,5.306-0.386,7.908-1.157c-0.247-0.804-0.495-1.608-0.742-2.411
		C20.967,10.018,18.565,10.367,16.161,10.367z"/>
</g>
</svg>
