<?xml version="1.0" encoding="utf-8"?>
<!-- Generator: Adobe Illustrator 20.0.0, SVG Export Plug-In . SVG Version: 6.00 Build 0)  -->
<svg version="1.1" id="Vrstva_1" xmlns="http://www.w3.org/2000/svg" xmlns:xlink="http://www.w3.org/1999/xlink" x="0px" y="0px"
	 viewBox="0 0 32 32" style="enable-background:new 0 0 32 32;" xml:space="preserve">
<style type="text/css">
	.st0{fill-rule:evenodd;clip-rule:evenodd;}
</style>
<g>
	<path class="st0" d="M20.235,16.988c-0.499,0-1.006,0.114-1.483,0.352c-0.344,0.173-0.644,0.398-0.893,0.657
		c0,0-4.863-9.158-4.872-9.173c-0.045-0.087-0.168-0.121-0.255-0.059c-0.417,0.29-1.421,1.185-0.768,2.746l5.383,10.126l0.005-0.003
		c0.578,1.085,1.711,1.709,2.882,1.709c0.506,0,1.02-0.116,1.499-0.36c1.591-0.81,2.209-2.728,1.379-4.283
		C22.531,17.609,21.406,16.988,20.235,16.988z M20.247,21.803c-0.94,0-1.702-0.746-1.702-1.665c0-0.919,0.762-1.664,1.702-1.664
		c0.94,0,1.702,0.746,1.702,1.664C21.949,21.057,21.187,21.803,20.247,21.803z"/>
	<path class="st0" d="M19.012,8.824l-2.621,4.935l1.223,2.303l2.421-4.552c0.651-1.561-0.353-2.456-0.768-2.746
		C19.183,8.705,19.061,8.734,19.012,8.824z"/>
	<path class="st0" d="M10.267,22.982c1.591,0.81,3.552,0.207,4.381-1.347l0.005,0.003l0.955-1.799l-1.223-2.303l-0.245,0.46
		c-0.25-0.262-0.549-0.486-0.893-0.657c-1.594-0.798-3.531-0.194-4.36,1.359C8.059,20.254,8.677,22.171,10.267,22.982z
		 M11.753,18.474c0.94,0,1.702,0.746,1.702,1.664c0,0.919-0.762,1.665-1.702,1.665c-0.94,0-1.702-0.746-1.702-1.665
		C10.051,19.22,10.812,18.474,11.753,18.474z"/>
</g>
</svg>
