<?xml version="1.0" encoding="utf-8"?>
<!-- Generator: Adobe Illustrator 20.0.0, SVG Export Plug-In . SVG Version: 6.00 Build 0)  -->
<svg version="1.1" id="Vrstva_1" xmlns="http://www.w3.org/2000/svg" xmlns:xlink="http://www.w3.org/1999/xlink" x="0px" y="0px"
	 viewBox="0 0 32 32" style="enable-background:new 0 0 32 32;" xml:space="preserve">
<style type="text/css">
	.st0{fill-rule:evenodd;clip-rule:evenodd;}
</style>
<g>
	<path class="st0" d="M21.508,24.789v-4.435h0.251c0.122,0,0.221-0.1,0.221-0.224v-2.184c0-0.124-0.099-0.224-0.221-0.224h-0.501
		v-1.019c0-2.808-3.327-4.927-4.656-5.662c-0.004-0.096-0.034-0.188-0.087-0.268c0.227-0.147,0.368-0.399,0.368-0.672
		c0-0.273-0.141-0.524-0.368-0.672c0.057-0.086,0.089-0.187,0.089-0.291c0-0.183-0.094-0.35-0.248-0.447l-0.194-1.565
		c-0.006-0.05-0.048-0.088-0.098-0.088c-0.05,0-0.092,0.038-0.098,0.088L15.77,8.692c-0.154,0.098-0.248,0.264-0.248,0.447
		c0,0.104,0.031,0.205,0.088,0.291c-0.227,0.148-0.368,0.399-0.368,0.672c0,0.272,0.141,0.524,0.368,0.672
		c-0.053,0.08-0.082,0.172-0.087,0.268c-1.329,0.734-4.656,2.854-4.656,5.662v1.019h-0.501c-0.122,0-0.221,0.1-0.221,0.224v2.184
		c0,0.124,0.099,0.224,0.221,0.224h0.251v4.435h1.976v-0.202c0-2.036,3.469-3.371,3.469-3.371s3.469,1.334,3.469,3.371v0.202H21.508
		z M12.407,19.643H11.77v-0.73c0-0.29,0.177-0.479,0.319-0.479c0.142,0,0.319,0.19,0.319,0.479V19.643z M14.394,19.643h-0.637v-0.73
		c0-0.29,0.177-0.479,0.319-0.479c0.142,0,0.319,0.19,0.319,0.479V19.643z M16.381,19.643h-0.637v-0.73
		c0-0.29,0.177-0.479,0.319-0.479c0.142,0,0.319,0.19,0.319,0.479V19.643z M18.368,19.643h-0.637v-0.73
		c0-0.29,0.177-0.479,0.319-0.479c0.141,0,0.319,0.19,0.319,0.479V19.643z M19.718,18.913c0-0.29,0.177-0.479,0.319-0.479
		c0.142,0,0.319,0.19,0.319,0.479v0.73h-0.638V18.913z"/>
</g>
</svg>
