<?xml version="1.0" encoding="utf-8"?>
<!-- Generator: Adobe Illustrator 20.0.0, SVG Export Plug-In . SVG Version: 6.00 Build 0)  -->
<svg version="1.1" id="Vrstva_1" xmlns="http://www.w3.org/2000/svg" xmlns:xlink="http://www.w3.org/1999/xlink" x="0px" y="0px"
	 viewBox="0 0 32 32" style="enable-background:new 0 0 32 32;" xml:space="preserve">
<style type="text/css">
	.st0{fill-rule:evenodd;clip-rule:evenodd;}
</style>
<g>
	<path class="st0" d="M9.17,18.488l0.002,5.887h13.52l-0.011-5.887c0,0,0.118-2.265-1.825-3.116
		c-0.753,3.696-4.026,3.919-4.466,3.924c-0.011,0.035-0.019,0.075-0.02,0.119c-0.005,0.261,0.224,0.594,0.647,0.939
		c0.752,0.614,0.9,1.503,0.378,2.263c-0.407,0.592-1.17,1.004-2.105,1.004c-0.45,0-0.94-0.096-1.448-0.313
		c-0.155,0.168-0.38,0.274-0.629,0.274c-0.469,0-0.85-0.372-0.85-0.833c0-0.459,0.38-0.832,0.85-0.832
		c0.465,0,0.843,0.367,0.849,0.822c1.266,0.55,2.361,0.207,2.82-0.461c0.342-0.5,0.245-1.043-0.261-1.457
		c-0.594-0.485-0.887-0.969-0.869-1.437c0.001-0.04,0.006-0.078,0.011-0.115c-3.215-0.299-3.979-3.072-4.152-4.094
		C9.155,15.758,9.175,18.255,9.17,18.488z"/>
	<path class="st0" d="M12.1,11.738c0,1.449,0.845,2.702,2.079,3.332h-1.454c-0.174,0-0.339,0-0.497,0.014
		c0.165,0.958,0.897,3.422,4.056,3.458c0.052-0.012,0.105-0.01,0.155,0.004c0.526-0.001,3.17-0.203,3.811-3.365
		c-0.322-0.075-0.686-0.11-1.098-0.11h-1.526c1.233-0.631,2.077-1.882,2.077-3.332c0-0.119-0.006-0.243-0.017-0.358h-2.15
		c0.315-0.322,0.531-0.737,0.597-1.199h1.227c-0.373-0.8-1.025-1.447-1.835-1.822c-0.403-0.407-0.966-0.66-1.59-0.66
		c-0.594,0-1.135,0.231-1.533,0.605c-0.868,0.365-1.568,1.037-1.96,1.877h1.297c0.067,0.461,0.282,0.878,0.598,1.199h-2.22
		C12.106,11.496,12.1,11.62,12.1,11.738z M14.336,9.875c0-0.866,0.718-1.569,1.6-1.569c0.882,0,1.599,0.704,1.599,1.569
		c0,0.865-0.718,1.568-1.599,1.568C15.054,11.443,14.336,10.74,14.336,9.875z"/>
	<ellipse class="st0" cx="15.936" cy="9.874" rx="0.739" ry="0.725"/>
</g>
</svg>
