<?xml version="1.0" encoding="utf-8"?>
<!-- Generator: Adobe Illustrator 20.0.0, SVG Export Plug-In . SVG Version: 6.00 Build 0)  -->
<svg version="1.1" id="Vrstva_1" xmlns="http://www.w3.org/2000/svg" xmlns:xlink="http://www.w3.org/1999/xlink" x="0px" y="0px"
	 viewBox="0 0 32 32" style="enable-background:new 0 0 32 32;" xml:space="preserve">
<style type="text/css">
	.st0{fill-rule:evenodd;clip-rule:evenodd;}
</style>
<g>
	<path class="st0" d="M19.331,16.72c0.214,0.012,0.433,0.014,0.668-0.039c0.117-0.332,0.195-0.663,0.251-0.993
		c0.722-0.174,1.115-0.61,1.146-1.334l-0.002-0.017l0.001-0.008l-0.004-0.053l0.003-0.053l-0.002-0.008l0.001-0.016
		c-0.046-0.723-0.449-1.15-1.175-1.308c-0.063-0.329-0.148-0.659-0.272-0.988c-0.236-0.047-0.455-0.041-0.669-0.023
		c-0.098,0.725-0.43,0.99-0.971,1.158l-1.003-0.005l-0.032-1.185c0.153-0.557,0.404-0.902,1.111-1.019
		c0.012-0.22,0.013-0.443-0.038-0.683c-0.324-0.119-0.648-0.199-0.971-0.256c-0.17-0.74-0.596-1.142-1.304-1.172l-0.011,0
		l-0.058,0.004l-0.058-0.003l-0.011,0c-0.706,0.047-1.124,0.458-1.278,1.202c-0.322,0.064-0.644,0.151-0.965,0.278
		c-0.046,0.242-0.041,0.465-0.023,0.684c0.708,0.101,0.968,0.441,1.133,0.994l-0.007,1.185l-1.002,0.028
		c-0.544-0.156-0.882-0.413-0.996-1.136c-0.215-0.013-0.433-0.014-0.668,0.038c-0.116,0.332-0.195,0.663-0.251,0.994
		c-0.723,0.174-1.116,0.61-1.145,1.334l0.001,0.016l-0.001,0.008l0.004,0.053L10.73,14.45l0.001,0.008l0,0.016
		c0.046,0.723,0.448,1.15,1.174,1.308c0.063,0.329,0.149,0.659,0.272,0.988c0.236,0.048,0.455,0.041,0.669,0.024
		c0.098-0.726,0.431-0.991,0.971-1.159l1.003,0.005l0.088,6.355c-0.153,0.557-0.404,0.902-1.111,1.019
		c-0.013,0.219-0.014,0.443,0.038,0.683c0.324,0.119,0.647,0.2,0.97,0.257c0,0,0,0.001,0,0.001c0.913-0.02,1.828-0.154,2.736-0.036
		c0.317-0.064,0.634-0.151,0.949-0.275c0.046-0.242,0.04-0.465,0.023-0.684c-0.709-0.101-0.968-0.44-1.133-0.993l-0.049-6.356
		l1.002-0.028C18.88,15.739,19.218,15.997,19.331,16.72z"/>
</g>
</svg>
