<?xml version="1.0" encoding="utf-8"?>
<!-- Generator: Adobe Illustrator 20.0.0, SVG Export Plug-In . SVG Version: 6.00 Build 0)  -->
<svg version="1.1" id="Vrstva_1" xmlns="http://www.w3.org/2000/svg" xmlns:xlink="http://www.w3.org/1999/xlink" x="0px" y="0px"
	 viewBox="0 0 32 32" style="enable-background:new 0 0 32 32;" xml:space="preserve">
<style type="text/css">
	.st0{fill-rule:evenodd;clip-rule:evenodd;}
</style>
<g>
	<path class="st0" d="M16.246,11.286c-0.142-0.12-0.351-0.12-0.493,0l-5.681,4.834c-0.083,0.07-0.131,0.173-0.131,0.282v6.991
		c0,0.206,0.169,0.372,0.377,0.372H21.68c0.209,0,0.378-0.166,0.378-0.372v-6.991c0-0.109-0.048-0.211-0.131-0.282L16.246,11.286z
		 M16.77,21.421c0,0.407-0.169,0.76-0.771,0.76c-0.602,0-0.771-0.353-0.771-0.76v-3.777c0-0.406,0.169-0.76,0.771-0.76
		c0.601,0,0.771,0.354,0.771,0.76V21.421z M16,15.954c-0.444,0-0.802-0.354-0.802-0.791c0-0.437,0.359-0.791,0.802-0.791
		c0.443,0,0.802,0.353,0.802,0.791C16.802,15.6,16.442,15.954,16,15.954z"/>
	<path class="st0" d="M16.491,8.698c-0.282-0.24-0.7-0.24-0.983,0l-7.539,6.396c-0.316,0.267-0.352,0.737-0.08,1.049
		c0.272,0.311,0.747,0.347,1.063,0.079L16,10.243l7.047,5.979c0.143,0.121,0.317,0.18,0.492,0.18c0.212,0,0.423-0.088,0.572-0.259
		c0.272-0.311,0.236-0.78-0.08-1.049L16.491,8.698z"/>
</g>
</svg>
