<?xml version="1.0" encoding="utf-8"?>
<!-- Generator: Adobe Illustrator 20.0.0, SVG Export Plug-In . SVG Version: 6.00 Build 0)  -->
<svg version="1.1" id="Vrstva_1" xmlns="http://www.w3.org/2000/svg" xmlns:xlink="http://www.w3.org/1999/xlink" x="0px" y="0px"
	 viewBox="0 0 32 32" style="enable-background:new 0 0 32 32;" xml:space="preserve">
<style type="text/css">
	.st0{fill-rule:evenodd;clip-rule:evenodd;}
</style>
<g>
	<path class="st0" d="M24.146,9.717c0-0.305-0.25-0.557-0.56-0.557h-5.034V8.885c0-0.455-0.375-0.823-0.838-0.823h-3.428
		c-0.463,0-0.838,0.368-0.838,0.823V9.16H8.413c-0.31,0-0.559,0.252-0.559,0.557v9.936c0,0.304,0.249,0.565,0.559,0.565h6.153v3.321
		h2.866v-3.321h6.154c0.31,0,0.559-0.261,0.559-0.565V9.717z M8.972,19.118v-8.859h14.054l0,8.859H8.972z"/>
	<rect x="9.812" y="11.015" class="st0" width="12.306" height="7.349"/>
</g>
</svg>
