<?xml version="1.0" encoding="utf-8"?>
<!-- Generator: Adobe Illustrator 20.0.0, SVG Export Plug-In . SVG Version: 6.00 Build 0)  -->
<svg version="1.1" id="Vrstva_1" xmlns="http://www.w3.org/2000/svg" xmlns:xlink="http://www.w3.org/1999/xlink" x="0px" y="0px"
	 viewBox="0 0 32 32" style="enable-background:new 0 0 32 32;" xml:space="preserve">
<style type="text/css">
	.st0{fill-rule:evenodd;clip-rule:evenodd;}
</style>
<g>
	<path class="st0" d="M23.875,13.905c-0.252,0.279-0.545,0.531-0.879,0.757c-1.197,0.802-2.215,1.492-3.053,2.072l3.931,3.892
		V13.905z"/>
	<path class="st0" d="M22.469,22.206c0.354,0,0.661-0.116,0.921-0.344l-4.462-4.417c-0.107,0.076-0.211,0.149-0.309,0.22
		c-0.334,0.244-0.605,0.434-0.813,0.57c-0.208,0.136-0.485,0.276-0.83,0.418c-0.346,0.142-0.668,0.213-0.967,0.213h-0.017
		c-0.299,0-0.621-0.071-0.967-0.213c-0.346-0.142-0.623-0.281-0.83-0.418c-0.208-0.136-0.479-0.326-0.813-0.57
		c-0.093-0.067-0.196-0.142-0.308-0.221L8.61,21.861c0.261,0.228,0.568,0.344,0.922,0.344H22.469z"/>
	<path class="st0" d="M8.125,13.905v6.721l3.933-3.893c-0.787-0.544-1.801-1.233-3.045-2.07C8.679,14.442,8.383,14.19,8.125,13.905z
		"/>
	<path class="st0" d="M23.458,10.364c-0.279-0.273-0.608-0.409-0.989-0.409H9.531c-0.451,0-0.798,0.151-1.042,0.452
		c-0.243,0.302-0.365,0.679-0.365,1.131c0,0.366,0.161,0.761,0.483,1.188c0.322,0.426,0.665,0.761,1.028,1.005
		c0.199,0.139,0.8,0.552,1.802,1.24c0.541,0.371,1.011,0.694,1.415,0.973c0.345,0.238,0.642,0.443,0.887,0.614
		c0.028,0.019,0.072,0.051,0.131,0.092c0.063,0.045,0.143,0.102,0.242,0.173c0.19,0.137,0.349,0.247,0.475,0.331
		c0.126,0.084,0.278,0.178,0.457,0.283c0.178,0.104,0.347,0.183,0.505,0.235c0.158,0.052,0.305,0.078,0.439,0.078h0.018
		c0.135,0,0.281-0.026,0.439-0.078c0.158-0.052,0.327-0.131,0.506-0.235c0.179-0.105,0.331-0.199,0.457-0.283
		c0.126-0.084,0.284-0.194,0.475-0.331c0.099-0.07,0.179-0.128,0.242-0.172c0.059-0.042,0.103-0.073,0.131-0.093
		c0.191-0.132,0.489-0.337,0.889-0.612c0.729-0.501,1.802-1.239,3.224-2.216c0.428-0.296,0.785-0.653,1.072-1.07
		c0.287-0.418,0.431-0.856,0.431-1.314C23.875,10.965,23.736,10.637,23.458,10.364z"/>
</g>
</svg>
