<?xml version="1.0" encoding="utf-8"?>
<!-- Generator: Adobe Illustrator 20.0.0, SVG Export Plug-In . SVG Version: 6.00 Build 0)  -->
<svg version="1.1" id="Vrstva_1" xmlns="http://www.w3.org/2000/svg" xmlns:xlink="http://www.w3.org/1999/xlink" x="0px" y="0px"
	 viewBox="0 0 32 32" style="enable-background:new 0 0 32 32;" xml:space="preserve">
<style type="text/css">
	.st0{fill-rule:evenodd;clip-rule:evenodd;}
</style>
<g>
	<path class="st0" d="M23.467,20.668l-2.385-1.287l0.014-3.974c0-0.136-0.033-0.269-0.088-0.383l-2.595-5.281
		c-0.182-0.371-0.622-0.52-0.983-0.332c-0.334,0.173-0.483,0.574-0.359,0.927l1.851,5.285l-0.059,1.034l-0.585-1.677
		c-0.182-0.523-0.743-0.795-1.251-0.607c-0.454,0.168-0.713,0.644-0.634,1.116l0.73,4.386c0.061,0.366,0.283,0.662,0.579,0.823
		l0.101,0.054l4.408,2.38c0.661,0.357,1.479,0.095,1.826-0.585C24.383,21.865,24.129,21.025,23.467,20.668z"/>
	<path class="st0" d="M9.915,23.13l4.408-2.379l0.101-0.054c0.295-0.162,0.518-0.458,0.579-0.823l0.73-4.386
		c0.079-0.472-0.18-0.949-0.634-1.116c-0.508-0.187-1.069,0.084-1.251,0.607l-0.585,1.677l-0.059-1.034l1.851-5.285
		c0.124-0.353-0.025-0.753-0.359-0.927c-0.361-0.187-0.801-0.038-0.983,0.332l-2.595,5.281c-0.056,0.114-0.088,0.247-0.088,0.383
		l0.014,3.974l-2.385,1.287c-0.661,0.357-0.916,1.198-0.569,1.878C8.436,23.225,9.254,23.487,9.915,23.13z"/>
</g>
</svg>
