<?xml version="1.0" encoding="utf-8"?>
<!-- Generator: Adobe Illustrator 20.0.0, SVG Export Plug-In . SVG Version: 6.00 Build 0)  -->
<svg version="1.1" id="Vrstva_1" xmlns="http://www.w3.org/2000/svg" xmlns:xlink="http://www.w3.org/1999/xlink" x="0px" y="0px"
	 viewBox="0 0 32 32" style="enable-background:new 0 0 32 32;" xml:space="preserve">
<style type="text/css">
	.st0{fill-rule:evenodd;clip-rule:evenodd;}
</style>
<g>
	<ellipse class="st0" cx="20.67" cy="9.718" rx="2.029" ry="2.097"/>
	<ellipse class="st0" cx="11.158" cy="9.729" rx="2.029" ry="2.076"/>
	<path class="st0" d="M7.729,18.256c0.363,0.142,0.767-0.05,0.904-0.429l0.38-1.056c0,0,0.027-0.107,0.027,0.359v6.231
		c0,0.545,0.423,0.987,0.945,0.987c0.522,0,0.945-0.442,0.945-0.987v-4.071c0,0-0.004-0.036,0.032-0.036h0.355
		c0.035,0,0.033,0.036,0.033,0.036v4.071c0,0.545,0.423,0.987,0.945,0.987s0.945-0.442,0.945-0.987v-6.231
		c0-0.473,0.04-0.324,0.04-0.324l0.367,1.022c0.136,0.379,0.541,0.571,0.904,0.429l0.411-0.943l-1.428-4.49
		c-0.12-0.335-0.446-0.524-0.776-0.524c-0.165,0-0.18,0.004-0.279,0.004H9.523c-0.378,0-0.656,0.185-0.776,0.52l-1.428,4.49
		C7.183,17.691,7.367,18.113,7.729,18.256z"/>
	<path class="st0" d="M22.928,12.854c-0.099-0.22-0.187-0.514-0.593-0.514h-3.072c-0.406,0-0.617,0.273-0.733,0.519l-1.798,4.326
		l0.319,0.98c0.348,0.178,0.768,0.028,0.94-0.335l0.135-0.287c0,0,0.042-0.077,0.026,0.009c-0.098,0.533-0.368,2.135-0.368,2.135
		c-0.066,0.334,0.15,0.606,0.479,0.606c0,0,0.587,0,0.783,0c0.056,0,0.046,0.043,0.046,0.043v3.221c0,0.539,0.325,0.822,0.726,0.822
		c0.401,0,0.726-0.283,0.726-0.822v-3.234c0,0-0.002-0.032,0.031-0.031c0.042,0.002,0.149,0,0.197,0
		c0.027,0,0.024,0.034,0.024,0.034v3.231c0,0.539,0.325,0.822,0.726,0.822c0.401,0,0.726-0.283,0.726-0.822v-3.213
		c0,0-0.005-0.052,0.055-0.052c0.211,0,0.842,0,0.842,0c0.329,0,0.55-0.274,0.491-0.609c0,0-0.271-1.719-0.343-2.187
		c-0.021-0.134,0.195,0.342,0.195,0.342c0.165,0.367,0.483,0.519,0.834,0.348c0.351-0.172,0.502-0.608,0.337-0.974L22.928,12.854z"
		/>
</g>
</svg>
