<?xml version="1.0" encoding="utf-8"?>
<!-- Generator: Adobe Illustrator 20.0.0, SVG Export Plug-In . SVG Version: 6.00 Build 0)  -->
<svg version="1.1" id="Vrstva_1" xmlns="http://www.w3.org/2000/svg" xmlns:xlink="http://www.w3.org/1999/xlink" x="0px" y="0px"
	 viewBox="0 0 32 32" style="enable-background:new 0 0 32 32;" xml:space="preserve">
<style type="text/css">
	.st0{fill-rule:evenodd;clip-rule:evenodd;}
</style>
<g>
	<path class="st0" d="M17.93,10.509c0-1.01-0.849-1.852-1.868-1.852c-1.019,0-1.868,0.842-1.868,1.852
		c0,1.01,0.849,1.852,1.868,1.852C17.08,12.361,17.93,11.519,17.93,10.509z"/>
	<path class="st0" d="M11.646,22.632l0.002,1.281h8.832l-0.002-1.281c0,0-2.038,0-2.038-2.526l0.002-4.612c0,0,0-1.684-1.698-1.684
		h-5.095l-0.002,1.244c0,0,2.549-0.175,2.549,2.123v2.526C14.195,22.23,11.646,22.632,11.646,22.632z"/>
</g>
</svg>
