<?xml version="1.0" encoding="utf-8"?>
<!-- Generator: Adobe Illustrator 19.2.1, SVG Export Plug-In . SVG Version: 6.00 Build 0)  -->
<svg version="1.1" id="Vrstva_1" xmlns="http://www.w3.org/2000/svg" xmlns:xlink="http://www.w3.org/1999/xlink" x="0px" y="0px"
	 viewBox="0 0 32 32" style="enable-background:new 0 0 32 32;" xml:space="preserve">
<g>
	<g>
		<path d="M25.5,23.4l-0.9,0.8c-0.5,0.4-1.3,0.4-1.8,0c-0.3-0.2-0.5-0.4-0.8-0.7c-1.3-1-3.1-1-4.4,0c-0.3,0.3-0.5,0.5-0.9,0.8
			c-0.5,0.4-1.3,0.4-1.8,0c-0.3-0.3-0.5-0.5-0.9-0.8c-1.3-1-3.1-1-4.4,0c-0.3,0.3-0.5,0.5-0.8,0.7c-0.2,0.1-0.3,0.3-0.5,0.3
			c-0.5,0.1-1.1-0.1-1.5-0.4c-0.4-0.3-0.9-0.7-1.4-1c-0.4-0.3-0.9-0.3-1.4-0.3v1.8c0.4,0.1,0.8,0.3,1,0.5L6,25.4
			c1.2,1,2.9,1,4.2,0.1c0.3-0.3,0.6-0.6,0.9-0.9c0.5-0.4,1.3-0.4,1.8,0l0.7,0.6c1.2,1.1,3.1,1.2,4.4,0.1c0.3-0.2,0.5-0.4,0.8-0.7
			c0.5-0.5,1.4-0.5,2,0l0.7,0.6c0.9,0.8,2.1,0.9,3.2,0.7c0.7-0.2,1.3-0.5,1.8-1c0.3-0.3,0.8-0.6,1.2-0.6v-1.8
			C26.8,22.6,26.1,22.9,25.5,23.4z M7.7,21.1h2.7c0.2,0,0.3-0.1,0.4-0.2l3.9-4.5v3.9c0,0.4,0.3,0.9,0.9,0.9c0.5,0,0.9-0.3,0.9-0.9
			v-0.5c0-0.3,0.3-0.6,0.6-0.6h2.8c0.3,0,0.6,0.3,0.6,0.6v0.5c0,0.4,0.3,0.9,0.9,0.9c0.4,0,0.9-0.3,0.9-0.9v-9.2h0.9l0,0
			c0,0,0.2-0.1,0.2-0.2c0.1-0.2,0-0.3-0.1-0.4l-4.6-4.6c-0.1-0.1-0.3-0.1-0.4,0l-4.6,4.6c-0.1,0.1-0.2,0.3-0.1,0.4
			c0.1,0.2,0.2,0.3,0.3,0.3h0.9v2.7h-0.9c-0.3,0-0.7,0.2-0.9,0.4l-4.3,4.9h-1c-0.3,0-0.6,0.3-0.6,0.6v0.7
			C7.1,20.8,7.3,21.1,7.7,21.1z M16.4,13c0-0.3,0.3-0.6,0.6-0.6h2.8c0.3,0,0.6,0.3,0.6,0.6v2.1c0,0.3-0.3,0.6-0.6,0.6H17
			c-0.3,0-0.6-0.3-0.6-0.6V13z"/>
	</g>
</g>
</svg>
