<?xml version="1.0" encoding="utf-8"?>
<!-- Generator: Adobe Illustrator 19.2.1, SVG Export Plug-In . SVG Version: 6.00 Build 0)  -->
<svg version="1.1" id="Vrstva_1" xmlns="http://www.w3.org/2000/svg" xmlns:xlink="http://www.w3.org/1999/xlink" x="0px" y="0px"
	 viewBox="0 0 32 32" style="enable-background:new 0 0 32 32;" xml:space="preserve">
<path d="M26.7,12.9c0.2,0,0.4-0.1,0.5-0.3c0.1-0.2,0-0.4-0.1-0.6l-6.3-6.3c-0.2-0.2-0.5-0.2-0.7,0L13.7,12c-0.1,0.2-0.2,0.4-0.1,0.6
	s0.3,0.3,0.5,0.3h1.3v3.8h-1.2c-0.5,0-0.9,0.2-1.2,0.6L7.1,24H5.6c-0.5,0-0.8,0.4-0.8,0.8v0.9c0,0.5,0.4,0.9,0.8,0.9h3.7
	c0.2,0,0.5-0.1,0.6-0.3l5.4-6.2v5.3c0,0.6,0.5,1.1,1.1,1.1s1.1-0.5,1.1-1.1v-0.7c0-0.5,0.4-0.8,0.8-0.8h3.9c0.5,0,0.8,0.4,0.8,0.8
	v0.7c0,0.6,0.5,1.1,1.1,1.1s1.1-0.5,1.1-1.1V12.9H26.7L26.7,12.9z M23.1,18.4c0,0.5-0.4,0.8-0.8,0.8h-3.9c-0.5,0-0.8-0.4-0.8-0.8
	v-2.8c0-0.5,0.4-0.8,0.8-0.8h3.9c0.5,0,0.8,0.4,0.8,0.8V18.4z"/>
</svg>
