<?xml version="1.0" encoding="utf-8"?>
<!-- Generator: Adobe Illustrator 19.2.1, SVG Export Plug-In . SVG Version: 6.00 Build 0)  -->
<svg version="1.1" id="Vrstva_1" xmlns="http://www.w3.org/2000/svg" xmlns:xlink="http://www.w3.org/1999/xlink" x="0px" y="0px"
	 viewBox="0 0 32 32" style="enable-background:new 0 0 32 32;" xml:space="preserve">
<path d="M21.5,26.7L20,22.4c1.5-0.7,2.8-1.8,3.8-3.2l0.9,0.5l0.7-1.3l-0.9-0.5c0.6-1.2,0.9-2.5,0.9-4c0-1.4-0.3-2.8-0.9-4l0.9-0.5
	l-0.7-1.3l-0.9,0.6c-1.5-2.2-4-3.7-6.9-4v-1h-1.5v1c-2.8,0.2-5.3,1.7-6.9,4L7.7,8.2L6.9,9.5L7.8,10c-0.6,1.2-0.9,2.5-0.9,4
	c0,1.4,0.3,2.8,0.9,4l-0.9,0.5l0.8,1.2l0.9-0.5c0.9,1.4,2.2,2.5,3.8,3.2l-1.7,4.3h-6v1.5h22.7v-1.5H21.5z M19.5,20.9L18,16.8
	c0.3-0.2,0.5-0.4,0.7-0.6l3.8,2.2C21.7,19.5,20.7,20.4,19.5,20.9z M16.2,21.7c-0.7,0-1.3-0.1-1.9-0.2l1.5-4.1c0.1,0,0.3,0,0.5,0
	c0.2,0,0.3,0,0.5,0l1.5,4.1C17.5,21.6,16.8,21.7,16.2,21.7z M16.2,11.9c1.1,0,2,0.9,2,2s-0.9,2-2,2c-1.1,0-2-0.9-2-2
	S15.1,11.9,16.2,11.9z M23.9,13.9c0,1.1-0.2,2.2-0.7,3.2l-3.8-2.2c0.1-0.3,0.2-0.7,0.2-1c0-0.4-0.1-0.7-0.2-1l3.8-2.2
	C23.7,11.7,23.9,12.8,23.9,13.9z M22.5,9.4l-3.8,2.2c-0.5-0.5-1.1-0.9-1.8-1V6.2C19.2,6.4,21.2,7.6,22.5,9.4z M15.4,6.2v4.3
	c-0.7,0.2-1.3,0.6-1.8,1.1L9.8,9.4C11.1,7.6,13.1,6.4,15.4,6.2z M8.4,13.9c0-1.1,0.2-2.2,0.7-3.2l3.8,2.2c-0.2,0.3-0.2,0.7-0.2,1
	c0,0.4,0.1,0.7,0.2,1l-3.8,2.2C8.6,16.2,8.4,15.1,8.4,13.9z M9.8,18.4l3.8-2.2c0.2,0.2,0.4,0.4,0.7,0.6l-1.5,4.1
	C11.6,20.4,10.6,19.5,9.8,18.4z M13.7,22.9c0.6,0.2,1.1,0.3,1.7,0.3v1h1.5v-1c0.6,0,1.2-0.1,1.7-0.3l1.4,3.8h-7.7L13.7,22.9z"/>
</svg>
