<?xml version="1.0" encoding="utf-8"?>
<!-- Generator: Adobe Illustrator 19.2.1, SVG Export Plug-In . SVG Version: 6.00 Build 0)  -->
<svg version="1.1" id="Vrstva_1" xmlns="http://www.w3.org/2000/svg" xmlns:xlink="http://www.w3.org/1999/xlink" x="0px" y="0px"
	 viewBox="0 0 32 32" style="enable-background:new 0 0 32 32;" xml:space="preserve">
<style type="text/css">
	.st0{fill-rule:evenodd;clip-rule:evenodd;}
</style>
<path class="st0" d="M27.1,12.7c0.2,0,0.4-0.1,0.5-0.3c0.1-0.2,0-0.4-0.1-0.6L21,5.3c-0.2-0.2-0.5-0.2-0.7,0l-6.5,6.5
	c-0.1,0.1-0.2,0.4-0.1,0.6c0.1,0.2,0.3,0.3,0.5,0.3h1.3v3.9h-1.2c-0.5,0-1,0.2-1.3,0.6L7,24H5.5c-0.5,0-0.8,0.4-0.8,0.8v1
	c0,0.5,0.4,0.8,0.8,0.8h3.8c0.2,0,0.5-0.1,0.6-0.3l5.5-6.3v5.5c0,0.6,0.5,1.2,1.2,1.2c0.6,0,1.2-0.5,1.2-1.2v-0.7
	c0-0.5,0.4-0.8,0.8-0.8h4c0.5,0,0.8,0.4,0.8,0.8v0.7c0,0.6,0.5,1.2,1.2,1.2c0.6,0,1.2-0.5,1.2-1.2V12.7H27.1L27.1,12.7z M23.4,18.3
	c0,0.5-0.4,0.8-0.8,0.8h-4c-0.5,0-0.8-0.4-0.8-0.8v-2.9c0-0.5,0.4-0.8,0.8-0.8h4c0.5,0,0.8,0.4,0.8,0.8V18.3z"/>
</svg>
