<?xml version="1.0" encoding="UTF-8"?>
<!DOCTYPE svg PUBLIC "-//W3C//DTD SVG 1.1//EN" "http://www.w3.org/Graphics/SVG/1.1/DTD/svg11.dtd">
<svg version="1.1" xmlns="http://www.w3.org/2000/svg" xmlns:xlink="http://www.w3.org/1999/xlink" x="0" y="0" width="32" height="32" viewBox="0, 0, 32, 32">
  <g id="Layer_1">
    <path d="M26.221,7.494 C22.921,4.094 17.521,6.994 19.821,11.694 C17.321,10.294 14.521,10.394 12.021,11.794 C14.521,6.394 7.521,2.794 5.021,7.694 C2.921,11.794 6.621,15.394 9.721,13.994 C8.921,15.094 7.921,17.794 8.421,19.694 C7.271,21.594 10.29,24.838 13.39,25.238 C14.958,27.094 16.646,27.001 17.99,25.438 C21.29,25.038 23.615,21.876 22.821,20.294 C23.427,18.501 23.021,16.094 22.021,14.494 C26.621,16.294 29.421,10.794 26.221,7.494 z" fill="#000000"/>
  </g>
</svg>
