<?xml version="1.0" encoding="utf-8"?>
<!-- Generator: Adobe Illustrator 19.2.1, SVG Export Plug-In . SVG Version: 6.00 Build 0)  -->
<svg version="1.1" id="Vrstva_1" xmlns="http://www.w3.org/2000/svg" xmlns:xlink="http://www.w3.org/1999/xlink" x="0px" y="0px"
	 viewBox="0 0 32 32" style="enable-background:new 0 0 32 32;" xml:space="preserve">
<g>
	<g>
		<path d="M27.2,9.2l-10-5.7c-0.3-0.2-0.7-0.2-1.1-0.2c-0.4,0-0.7,0.1-1.1,0.2L5,9.2c-0.6,0.3-0.6,1,0,1.3s1.6,0.3,2.1,0l8.9-5.2
			l8.9,5.1c0.6,0.3,1.6,0.3,2.1,0C27.7,10.1,27.7,9.5,27.2,9.2z M18.2,12.2c-0.1-0.1-0.4-0.1-0.5,0l-4.9,4.9
			c-0.1,0.1-0.1,0.3-0.1,0.4c0.1,0.1,0.2,0.2,0.3,0.2h1v2.9h-0.7c-0.3,0-0.7,0.1-1,0.4l-4.6,5.2H6.6c-0.3,0-0.6,0.3-0.6,0.6v0.7
			c0,0.3,0.3,0.6,0.6,0.6h2.9c0.2,0,0.3-0.1,0.4-0.2l4.1-4.7v4c0,0.4,0.4,0.8,0.8,0.8c0.4,0,0.8-0.4,0.8-0.8v-0.5
			c0-0.3,0.3-0.6,0.6-0.6h3c0.3,0,0.6,0.3,0.6,0.6v0.5c0,0.4,0.4,0.8,0.8,0.8s0.8-0.4,0.8-0.8v-9.6h1c0.1,0,0.3-0.1,0.3-0.2
			c0.1-0.1,0-0.3-0.1-0.4L18.2,12.2z M20,21.9c0,0.3-0.3,0.6-0.6,0.6h-3c-0.3,0-0.6-0.3-0.6-0.6v-2.1c0-0.3,0.3-0.6,0.6-0.6h3
			c0.3,0,0.6,0.3,0.6,0.6V21.9z"/>
	</g>
</g>
</svg>
