<?xml version="1.0" encoding="utf-8"?>
<!-- Generator: Adobe Illustrator 20.0.0, SVG Export Plug-In . SVG Version: 6.00 Build 0)  -->
<svg version="1.1" id="Vrstva_1" xmlns="http://www.w3.org/2000/svg" xmlns:xlink="http://www.w3.org/1999/xlink" x="0px" y="0px"
	 viewBox="0 0 32 32" style="enable-background:new 0 0 32 32;" xml:space="preserve">
<style type="text/css">
	.st0{fill-rule:evenodd;clip-rule:evenodd;}
</style>
<g>
	<path class="st0" d="M14.465,24.636c0.73,0.13,2.39,0.132,3.128,0.004c1.805-0.313,3.303-1.12,4.627-2.492
		c0.73-0.757,1.136-1.313,1.543-2.115c1.141-2.244,1.191-5.222,0.127-7.478c-0.804-1.704-2.24-3.215-3.859-4.061
		c-2.348-1.226-5.472-1.253-7.823-0.066c-0.708,0.357-1.576,1.002-2.227,1.654c-1.555,1.559-2.37,3.388-2.495,5.606
		c-0.146,2.566,0.798,4.929,2.69,6.736C11.411,23.605,12.853,24.349,14.465,24.636z M15.084,11.17
		c0.423-0.239,1.148-0.202,1.54,0.079c0.825,0.59,0.763,1.909-0.113,2.407c-0.42,0.239-1.058,0.255-1.416,0.035
		C14.069,13.064,14.063,11.746,15.084,11.17z M12.605,18.102c0.282-0.488,0.992-1.155,1.534-1.44
		c0.603-0.317,1.046-0.431,2.01-0.515c1.277-0.111,1.961-0.415,2.77-1.229c0.611-0.614,0.898-1.133,1.066-1.925
		c0.122-0.575,0.085-1.556-0.081-2.115c-0.381-1.285-1.413-2.193-2.951-2.595c-0.658-0.172-0.321-0.173,0.564-0.001
		c1.772,0.343,3.209,1.106,4.43,2.349c1.422,1.448,2.175,3.357,2.175,5.513c0,2.221-0.82,4.173-2.422,5.766
		c-1.023,1.017-2.2,1.716-3.486,2.071c-0.527,0.145-0.806,0.178-1.693,0.2c-1.196,0.029-1.529-0.027-2.271-0.384
		c-0.604-0.29-1.504-1.178-1.797-1.773C11.86,20.814,11.918,19.29,12.605,18.102z"/>
	<path class="st0" d="M16.063,21.978c0.792,0.161,1.388-0.107,1.729-0.778c0.241-0.473,0.249-0.813,0.031-1.296
		c-0.261-0.575-0.637-0.791-1.383-0.791c-0.671,0-0.973,0.15-1.294,0.642C14.613,20.569,15.116,21.786,16.063,21.978z"/>
</g>
</svg>
