<?xml version="1.0" encoding="utf-8"?>
<!-- Generator: Adobe Illustrator 20.0.0, SVG Export Plug-In . SVG Version: 6.00 Build 0)  -->
<svg version="1.1" id="Vrstva_1" xmlns="http://www.w3.org/2000/svg" xmlns:xlink="http://www.w3.org/1999/xlink" x="0px" y="0px"
	 viewBox="0 0 32 32" style="enable-background:new 0 0 32 32;" xml:space="preserve">
<style type="text/css">
	.st0{fill-rule:evenodd;clip-rule:evenodd;}
</style>
<g>
	<path class="st0" d="M22.887,17.345c-3.769,0-6.824,3.053-6.824,6.819C19.832,24.164,22.887,21.112,22.887,17.345z"/>
	<path class="st0" d="M16.062,24.164c0-3.765-3.055-6.819-6.824-6.819C9.238,21.112,12.293,24.164,16.062,24.164z"/>
	<path class="st0" d="M11.21,11.853c0,0.757,0.446,1.401,1.083,1.703c-0.637,0.305-1.083,0.948-1.083,1.706
		c0,1.045,0.849,1.894,1.895,1.894c0.401,0,0.765-0.122,1.076-0.332l-0.015,0.143c0,1.045,0.849,1.894,1.895,1.894
		c1.046,0,1.896-0.849,1.896-1.894l-0.014-0.143c0.303,0.21,0.675,0.332,1.076,0.332c1.046,0,1.895-0.849,1.895-1.894
		c0-0.758-0.447-1.401-1.083-1.705c0.637-0.302,1.083-0.947,1.083-1.703c0-1.047-0.85-1.894-1.895-1.894
		c-0.401,0-0.765,0.122-1.076,0.332l0.014-0.143c0.001-1.046-0.848-1.895-1.895-1.895c-1.047,0-1.896,0.849-1.896,1.894l0.015,0.143
		c-0.304-0.21-0.675-0.332-1.077-0.332C12.059,9.959,11.21,10.806,11.21,11.853z M16.062,11.662c1.047,0,1.895,0.849,1.895,1.894
		c0,1.047-0.849,1.894-1.895,1.894c-1.046,0-1.896-0.847-1.896-1.894C14.167,12.512,15.016,11.662,16.062,11.662z"/>
</g>
</svg>
