<?xml version="1.0" encoding="utf-8"?>
<!-- Generator: Adobe Illustrator 20.0.0, SVG Export Plug-In . SVG Version: 6.00 Build 0)  -->
<svg version="1.1" id="Vrstva_1" xmlns="http://www.w3.org/2000/svg" xmlns:xlink="http://www.w3.org/1999/xlink" x="0px" y="0px"
	 viewBox="0 0 32 32" style="enable-background:new 0 0 32 32;" xml:space="preserve">
<style type="text/css">
	.st0{fill-rule:evenodd;clip-rule:evenodd;}
</style>
<g>
	<path class="st0" d="M13.983,20.841v-1.386c0-0.011,0.003-0.021,0.003-0.032c-0.002-0.606,0.487-1.098,1.089-1.098
		c0.499,0,0.916,0.341,1.046,0.803c0.129-0.462,0.547-0.803,1.047-0.803c0.601,0,1.09,0.493,1.091,1.098
		c-0.003,0.011,0.001,0.021,0.001,0.032v1.386c0,0.405,0.326,0.733,0.728,0.733h3.972c0.603,0,1.092-0.481,1.092-1.075
		c0-0.594-0.488-1.075-1.092-1.075H20.37c0.168-0.211,0.217-0.505,0.097-0.767l-1.956-4.261c-0.033-0.072-0.079-0.133-0.129-0.189
		c-0.2-0.712-0.908-1.042-1.758-1.042h-1.004c-0.822,0-1.508,0.31-1.734,0.974c-0.082,0.068-0.151,0.152-0.199,0.256l-1.956,4.261
		c-0.12,0.261-0.072,0.557,0.097,0.767H8.757c-0.603,0-1.092,0.481-1.092,1.075c0,0.594,0.489,1.075,1.092,1.075h4.498
		C13.657,21.574,13.983,21.246,13.983,20.841z M18.443,19.154v-1.413l0.703,1.53c0.025,0.056,0.061,0.105,0.098,0.152H18.42
		C18.433,19.335,18.443,19.246,18.443,19.154z M13.051,19.272l0.748-1.63v1.512c0,0.092,0.01,0.181,0.023,0.269h-0.87
		C12.99,19.377,13.025,19.328,13.051,19.272z"/>
	<path class="st0" d="M10.867,12.501c-0.157-0.126-0.387-0.1-0.512,0.058c-0.124,0.157-0.099,0.386,0.055,0.513
		c0.09,0.076,0.497,0.483-0.055,1.183c-0.995,1.262,0.317,2.815,0.374,2.881c0.072,0.084,0.174,0.126,0.275,0.126
		c0.085,0,0.169-0.03,0.238-0.09c0.152-0.132,0.169-0.364,0.037-0.517c-0.01-0.011-0.974-1.16-0.354-1.945
		C11.751,13.663,11.248,12.807,10.867,12.501z"/>
	<ellipse class="st0" cx="16.121" cy="10.989" rx="1.863" ry="1.877"/>
	<path class="st0" d="M15.075,23.298c0.402,0,0.728-0.328,0.728-0.733v-3.138c0-0.405-0.326-0.733-0.728-0.733
		c-0.402,0-0.728,0.328-0.728,0.733v3.138C14.347,22.97,14.673,23.298,15.075,23.298z"/>
	<path class="st0" d="M20.758,17.173c0.069,0.06,0.153,0.09,0.238,0.09c0.102,0,0.203-0.043,0.275-0.126
		c0.056-0.066,1.369-1.619,0.374-2.881c-0.553-0.7-0.145-1.107-0.055-1.183c0.155-0.127,0.18-0.355,0.055-0.513
		c-0.125-0.159-0.355-0.184-0.512-0.058c-0.382,0.306-0.885,1.161-0.058,2.21c0.62,0.785-0.345,1.934-0.354,1.945
		C20.589,16.809,20.606,17.04,20.758,17.173z"/>
	<path class="st0" d="M17.168,23.298c0.402,0,0.728-0.328,0.728-0.733v-3.138c0-0.405-0.326-0.733-0.728-0.733
		c-0.402,0-0.728,0.328-0.728,0.733v3.138C16.44,22.97,16.766,23.298,17.168,23.298z"/>
	<path class="st0" d="M8.058,17.173c0.152-0.133,0.168-0.364,0.037-0.517c-0.01-0.011-0.974-1.159-0.354-1.945
		c0.826-1.048,0.323-1.903-0.058-2.21c-0.157-0.126-0.386-0.1-0.512,0.058c-0.125,0.157-0.099,0.386,0.055,0.513
		c0.09,0.076,0.497,0.483-0.055,1.183c-0.995,1.262,0.317,2.815,0.374,2.881c0.072,0.084,0.173,0.126,0.275,0.126
		C7.904,17.262,7.989,17.232,8.058,17.173z"/>
	<path class="st0" d="M24.774,13.072c0.155-0.127,0.18-0.355,0.056-0.513c-0.125-0.159-0.355-0.184-0.512-0.058
		c-0.382,0.306-0.885,1.161-0.058,2.21c0.62,0.785-0.345,1.934-0.354,1.944c-0.132,0.153-0.115,0.385,0.037,0.517
		c0.069,0.06,0.154,0.09,0.238,0.09c0.101,0,0.203-0.043,0.275-0.126c0.056-0.066,1.369-1.619,0.374-2.881
		C24.277,13.555,24.685,13.148,24.774,13.072z"/>
</g>
</svg>
