<?xml version="1.0" encoding="utf-8"?>
<!-- Generator: Adobe Illustrator 20.0.0, SVG Export Plug-In . SVG Version: 6.00 Build 0)  -->
<svg version="1.1" id="Vrstva_1" xmlns="http://www.w3.org/2000/svg" xmlns:xlink="http://www.w3.org/1999/xlink" x="0px" y="0px"
	 viewBox="0 0 32 32" style="enable-background:new 0 0 32 32;" xml:space="preserve">
<style type="text/css">
	.st0{fill-rule:evenodd;clip-rule:evenodd;}
</style>
<g>
	<circle class="st0" cx="21.99" cy="17.92" r="2.174"/>
	<path class="st0" d="M13.074,10.783c0.136,0.051,0.282,0.046,0.426,0.002c-0.012,0.497,0.137,1.002,0.475,1.417
		c0.753,0.926,2.114,1.065,3.04,0.312c0.925-0.754,1.065-2.115,0.311-3.041c-0.739-0.909-2.062-1.055-2.986-0.347
		c-0.064-0.26-0.214-0.465-0.435-0.548c-0.433-0.163-0.97,0.199-1.199,0.808C12.476,9.994,12.642,10.621,13.074,10.783z"/>
	<path class="st0" d="M23.326,22.526h-2.895L20,21.748c0.144-0.355,0.177-0.758,0.06-1.153c-0.233-0.787-0.973-1.281-1.757-1.243
		c0.171-0.121,0.315-0.285,0.403-0.492c0.251-0.593-0.026-1.277-0.619-1.529l-2.144-0.91l-1.313-1.327
		c0.011-0.048,0.016-0.08,0.009-0.08c0.204-0.696-0.038-1.477-0.661-1.923c-0.787-0.563-1.881-0.381-2.444,0.407
		c0,0-1.319,2.163-1.967,2.905c-0.373,0.423-0.694,0.63-1.72,1.468v1.426c0.072-0.004,0.154-0.009,0.256-0.015
		c0.31-0.01,0.753-0.025,1.285-0.042c0.532-0.011,1.152-0.021,1.817-0.017c0.332,0.002,0.676,0.005,1.024,0.007
		c0.099,0.002,0.198,0.004,0.297,0.006c0.051-0.059,0.106-0.117,0.154-0.176c0.364-0.432,0.707-1.017,1.003-1.608l0.766,0.775
		c0.107,0.108,0.234,0.194,0.374,0.253l2.356,0.999c0.111,0.047,0.225,0.07,0.339,0.082c-0.862,0.322-3.033,1.093-4.306,1.166
		c-0.874,0.01-2.88-0.036-5.365,0.035v4.095c1.439,0.041,4.08,0.069,5.513,0.001c1.718-0.133,3.642-0.937,4.833-1.561l0.532,0.961
		c0.206,0.371,0.596,0.601,1.02,0.601h3.582c0.644,0,1.166-0.522,1.166-1.166C24.491,23.048,23.97,22.526,23.326,22.526z"/>
</g>
</svg>
