<?xml version="1.0" encoding="utf-8"?>
<!-- Generator: Adobe Illustrator 20.0.0, SVG Export Plug-In . SVG Version: 6.00 Build 0)  -->
<svg version="1.1" id="Vrstva_1" xmlns="http://www.w3.org/2000/svg" xmlns:xlink="http://www.w3.org/1999/xlink" x="0px" y="0px"
	 viewBox="0 0 32 32" style="enable-background:new 0 0 32 32;" xml:space="preserve">
<style type="text/css">
	.st0{fill-rule:evenodd;clip-rule:evenodd;}
</style>
<g>
	<path class="st0" d="M22.392,15.804c0.841-0.399,1.377-1.246,1.378-2.177c0-1.332-1.079-2.411-2.411-2.411
		c-0.384,0.002-0.762,0.096-1.102,0.276c-0.03-0.922-0.786-1.654-1.708-1.653c-0.098,0.014-0.195,0.037-0.289,0.069
		c-0.125-0.848-0.865-1.47-1.722-1.446c-0.671,0.004-1.278,0.396-1.557,1.006c-0.253-0.173-0.548-0.273-0.854-0.289
		c-0.556,0.011-1.07,0.295-1.378,0.758c-0.218-0.07-0.446-0.102-0.675-0.096c-1.149-0.001-2.081,0.929-2.083,2.078
		c0,0.27,0.052,0.538,0.154,0.788c-1.113,0.215-1.841,1.291-1.627,2.404c0.156,0.809,0.78,1.446,1.586,1.619
		c0.343,1.081,1.497,1.678,2.578,1.335c0.363-0.115,0.687-0.329,0.935-0.618h0.165c0.443-0.001,0.867-0.174,1.185-0.482v5.277
		l-2.218,1.377h6.888l-2.204-1.377V20.86c0.912-1.114,2.024-2.048,3.279-2.755c0.357-0.068,0.69-0.23,0.964-0.468
		c0.465-0.399,0.728-0.985,0.716-1.598C22.396,15.96,22.396,15.882,22.392,15.804z M17.377,19.826v-3.1h0.248
		c0.25-0.002,0.497-0.049,0.73-0.138c0.17,0.626,0.624,1.136,1.226,1.378C18.776,18.497,18.036,19.121,17.377,19.826z"/>
</g>
</svg>
