<?xml version="1.0" encoding="utf-8"?>
<!-- Generator: Adobe Illustrator 20.0.0, SVG Export Plug-In . SVG Version: 6.00 Build 0)  -->
<svg version="1.1" id="Vrstva_1" xmlns="http://www.w3.org/2000/svg" xmlns:xlink="http://www.w3.org/1999/xlink" x="0px" y="0px"
	 viewBox="0 0 32 32" style="enable-background:new 0 0 32 32;" xml:space="preserve">
<style type="text/css">
	.st0{fill-rule:evenodd;clip-rule:evenodd;}
</style>
<g>
	<path class="st0" d="M10.905,20.05l-1.133,1.133c-0.319,0.319-0.324,0.833-0.006,1.15c0.316,0.315,0.826,0.318,1.15-0.006
		l1.133-1.133c0.32-0.319,0.325-0.831,0.006-1.15C11.739,19.729,11.229,19.726,10.905,20.05z"/>
	<path class="st0" d="M21.219,20.05c-0.319-0.319-0.831-0.324-1.15-0.006c-0.315,0.317-0.319,0.826,0.005,1.15l1.133,1.133
		c0.319,0.319,0.831,0.324,1.15,0.006c0.315-0.315,0.318-0.826-0.006-1.15L21.219,20.05z"/>
	<path class="st0" d="M22.358,9.743c-0.317-0.316-0.826-0.318-1.15,0.006l-1.133,1.133c-0.319,0.319-0.324,0.832-0.005,1.15
		c0.317,0.316,0.826,0.318,1.15-0.005l1.133-1.133C22.671,10.573,22.676,10.062,22.358,9.743z"/>
	<path class="st0" d="M16.062,24.94c0.447,0,0.809-0.358,0.809-0.816v-1.602c0-0.452-0.359-0.818-0.809-0.818
		c-0.447,0-0.809,0.36-0.809,0.818v1.602C15.253,24.576,15.612,24.94,16.062,24.94z"/>
	<path class="st0" d="M24.965,16.038c0-0.446-0.36-0.809-0.816-0.809h-1.602c-0.452,0-0.818,0.359-0.818,0.809
		c0,0.447,0.36,0.809,0.818,0.809h1.602C24.599,16.847,24.965,16.488,24.965,16.038z"/>
	<path class="st0" d="M10.917,9.748c-0.32-0.319-0.832-0.323-1.15-0.005c-0.316,0.316-0.318,0.826,0.006,1.15l1.133,1.133
		c0.319,0.318,0.831,0.323,1.15,0.004c0.316-0.315,0.318-0.826-0.006-1.15L10.917,9.748z"/>
	<circle class="st0" cx="16.062" cy="16.035" r="4.855"/>
	<path class="st0" d="M16.871,9.554V7.952c0-0.451-0.359-0.817-0.809-0.817c-0.447,0-0.809,0.359-0.809,0.817v1.602
		c0,0.451,0.359,0.817,0.809,0.817C16.51,10.371,16.871,10.012,16.871,9.554z"/>
	<path class="st0" d="M7.16,16.038c0,0.447,0.359,0.809,0.816,0.809h1.603c0.451,0,0.817-0.359,0.817-0.809
		c0-0.446-0.359-0.809-0.817-0.809H7.976C7.526,15.228,7.16,15.588,7.16,16.038z"/>
</g>
</svg>
