<?xml version="1.0" encoding="utf-8"?>
<!-- Generator: Adobe Illustrator 20.0.0, SVG Export Plug-In . SVG Version: 6.00 Build 0)  -->
<svg version="1.1" id="Vrstva_1" xmlns="http://www.w3.org/2000/svg" xmlns:xlink="http://www.w3.org/1999/xlink" x="0px" y="0px"
	 viewBox="0 0 32 32" style="enable-background:new 0 0 32 32;" xml:space="preserve">
<style type="text/css">
	.st0{fill-rule:evenodd;clip-rule:evenodd;}
</style>
<g>
	<path class="st0" d="M9.209,18.87c0,0,0.398-0.398,0.668-0.526c0.029-0.014,0.029-0.028,0-0.028H7.445
		c-0.398,0-0.725,0.242-0.882,0.427c0,0-0.384,0.398-0.64,0.54c-0.014,0-0.014,0.029,0,0.029h2.333
		C8.725,19.311,8.939,19.14,9.209,18.87z"/>
	<path class="st0" d="M25.21,18.87c0,0,0.384-0.398,0.668-0.526c0.014-0.014,0.014-0.028,0-0.028h-2.446
		c-0.398,0-0.711,0.242-0.868,0.427c0,0-0.384,0.398-0.64,0.54c-0.014,0-0.014,0.029,0,0.029h2.332
		C24.712,19.311,24.925,19.14,25.21,18.87z"/>
	<path class="st0" d="M12.253,19.311c0.469,0,0.683-0.171,0.953-0.441c0,0,0.398-0.398,0.668-0.526c0.028-0.014,0.028-0.028,0-0.028
		h-2.432c-0.398,0-0.725,0.242-0.882,0.427c0,0-0.384,0.398-0.64,0.54c-0.014,0-0.014,0.029,0.014,0.029H12.253z"/>
	<path class="st0" d="M14.557,18.742c0,0-0.37,0.398-0.64,0.54c0,0,0,0.029,0.014,0.029h2.333c0.455,0,0.668-0.171,0.939-0.441
		c0,0,0.398-0.398,0.668-0.526c0.028-0.014,0.028-0.028,0-0.028h-2.432C15.04,18.315,14.713,18.557,14.557,18.742z"/>
	<path class="st0" d="M18.568,18.742c0,0-0.384,0.398-0.64,0.54c-0.014,0-0.014,0.029,0,0.029h2.332
		c0.455,0,0.668-0.171,0.939-0.441c0,0,0.398-0.398,0.668-0.526c0.028-0.014,0.028-0.028,0.014-0.028h-2.446
		C19.037,18.315,18.71,18.557,18.568,18.742z"/>
	<path class="st0" d="M20.061,14.133c0.441,0,0.797,0.171,1.081,0.469v-0.939c-0.299-0.057-0.669-0.099-1.038-0.099
		c-1.536,0-2.56,0.796-2.56,2.005c0,1.109,0.939,1.849,2.333,1.849c0.455,0,0.853-0.057,1.323-0.185V16.31
		c-0.327,0.37-0.725,0.512-1.152,0.512c-0.825,0-1.394-0.54-1.394-1.337C18.653,14.702,19.236,14.133,20.061,14.133z"/>
	<path class="st0" d="M10.176,14.574v-0.882H6.137v0.882c0.284-0.242,0.896-0.341,1.55-0.341v2.418c0,0.356-0.028,0.455-0.171,0.64
		h1.294c-0.142-0.185-0.171-0.285-0.171-0.64v-2.432C9.209,14.219,9.891,14.333,10.176,14.574z"/>
	<path class="st0" d="M12.011,14.233c0.413,0,1.109,0.085,1.38,0.327v-0.867h-2.944c0.142,0.171,0.171,0.284,0.171,0.626v2.333
		c0,0.356-0.028,0.455-0.156,0.64h3.129v-0.882c-0.427,0.327-1.251,0.327-1.579,0.327h-0.455v-1.01h0.327
		c0.228,0,0.64,0.028,0.882,0.114v-0.754c-0.228,0.085-0.654,0.1-0.867,0.1h-0.341v-0.953H12.011z"/>
	<path class="st0" d="M15.524,14.105c0.597,0,1.252,0.185,1.607,0.54v-0.839c-0.469-0.156-1.081-0.242-1.55-0.242
		c-0.853,0-1.678,0.27-1.678,1.18c0,1.565,2.56,0.74,2.56,1.707c0,0.313-0.455,0.441-0.825,0.441c-0.654,0-1.109-0.114-1.678-0.484
		v0.797c0.427,0.142,1.01,0.227,1.636,0.227c0.882,0,1.707-0.256,1.707-1.18c0-1.65-2.546-0.91-2.546-1.707
		C14.756,14.219,15.168,14.105,15.524,14.105z"/>
	<path class="st0" d="M23.702,13.621c-1.38,0-2.361,0.797-2.361,1.92c0,1.109,0.882,1.835,2.176,1.835
		c1.394,0,2.361-0.768,2.361-1.906C25.878,14.361,24.996,13.621,23.702,13.621z M23.602,16.836c-0.74,0-1.209-0.598-1.209-1.337
		s0.469-1.337,1.209-1.337c0.725,0,1.209,0.597,1.209,1.337S24.328,16.836,23.602,16.836z"/>
</g>
</svg>
