<?xml version="1.0" encoding="utf-8"?>
<!-- Generator: Adobe Illustrator 20.0.0, SVG Export Plug-In . SVG Version: 6.00 Build 0)  -->
<svg version="1.1" id="Vrstva_1" xmlns="http://www.w3.org/2000/svg" xmlns:xlink="http://www.w3.org/1999/xlink" x="0px" y="0px"
	 viewBox="0 0 32 32" style="enable-background:new 0 0 32 32;" xml:space="preserve">
<style type="text/css">
	.st0{fill-rule:evenodd;clip-rule:evenodd;}
</style>
<g>
	<path class="st0" d="M22.79,23.182c0-1.363-1.498-1.439-2.47-1.846c-0.268-0.144-0.227-0.404-0.227-0.566v-2.274
		c0.785-0.16,2.512-0.175,2.512-1.726c0-0.767-0.625-1.047-1.388-0.97c-0.608,0.062-0.894,0.468-1.925,0.08
		c-0.131-0.049-0.495-0.371-0.287-0.625c0.533-0.65,0.834-1.498,0.834-2.411c0-0.149-0.001-0.448,0.133-0.504
		c0.686-0.286,1.15-0.997,1.15-1.801c0-1.088-0.866-1.97-1.935-1.97c-0.579,0-1.099,0.259-1.454,0.67
		c-0.031,0.036-0.087,0.111-0.222,0.052c-0.481-0.227-0.884-0.294-1.449-0.294c-0.607,0-1.048,0.082-1.556,0.341
		c-0.16,0.049-0.269-0.116-0.349-0.196c-0.35-0.354-0.831-0.573-1.363-0.573c-1.069,0-1.935,0.882-1.935,1.97
		c0,0.835,0.511,1.549,1.232,1.835c0.07,0.028,0.177,0.111,0.194,0.469c0.044,0.905,0.308,1.739,0.823,2.396
		c0.191,0.243,0.007,0.558-0.28,0.647c-1.048,0.324-1.313-0.025-1.919-0.088c-0.763-0.079-1.388,0.203-1.388,0.97
		c0,1.509,1.727,1.563,2.512,1.721v2.279c0,0.167,0.023,0.402-0.325,0.617c-0.974,0.401-2.372,0.432-2.372,1.795
		c0,0.829,0.688,1.661,1.501,1.501c1.019-0.2,1.555-0.539,3.101-1.239c0.333-0.152,0.568-0.076,0.714-0.055
		c0.439,0.062,0.914,0.085,1.41,0.085c0.554,0,1.082-0.03,1.562-0.109c0.121-0.02,0.405-0.031,0.665,0.074
		c1.509,0.703,1.994,1.04,2.998,1.243C22.101,24.847,22.79,24.011,22.79,23.182z M17.891,14.586c0,0.812-0.839,1.47-1.874,1.47
		c-1.035,0-1.874-0.658-1.874-1.47c0-0.812,0.839-1.47,1.874-1.47S17.891,13.774,17.891,14.586z M13.32,12.161
		c0-0.369,0.299-0.669,0.669-0.669s0.669,0.3,0.669,0.669c0,0.37-0.3,0.669-0.669,0.669C13.62,12.83,13.32,12.53,13.32,12.161z
		 M18.326,20.436c0,1.25-1.013,1.811-2.264,1.811c-1.25,0-2.264-0.561-2.264-1.811v-1.064c0-1.25,1.013-2.263,2.264-2.263
		c1.25,0,2.264,1.013,2.264,2.263V20.436z M17.807,12.83c-0.369,0-0.669-0.299-0.669-0.669c0-0.37,0.299-0.669,0.669-0.669
		c0.369,0,0.669,0.299,0.669,0.669C18.477,12.53,18.177,12.83,17.807,12.83z"/>
	<circle class="st0" cx="16.017" cy="14.028" r="0.557"/>
</g>
</svg>
