<?xml version="1.0" encoding="utf-8"?>
<!-- Generator: Adobe Illustrator 20.0.0, SVG Export Plug-In . SVG Version: 6.00 Build 0)  -->
<svg version="1.1" id="Vrstva_1" xmlns="http://www.w3.org/2000/svg" xmlns:xlink="http://www.w3.org/1999/xlink" x="0px" y="0px"
	 viewBox="0 0 32 32" style="enable-background:new 0 0 32 32;" xml:space="preserve">
<style type="text/css">
	.st0{fill-rule:evenodd;clip-rule:evenodd;}
</style>
<g>
	<path class="st0" d="M7.907,9.957l2.095,0.659l0.737,7.406l-0.485,2.637c-0.039,0.284,0.032,0.536,0.213,0.756
		c0.194,0.22,0.427,0.329,0.698,0.329h11.329c0.246,0,0.459-0.087,0.64-0.262c0.181-0.174,0.272-0.391,0.272-0.649
		c0-0.259-0.091-0.475-0.272-0.649c-0.181-0.174-0.394-0.262-0.64-0.262H12.253l0.213-1.202l10.747-0.667
		c0.22,0,0.417-0.071,0.592-0.213c0.175-0.142,0.275-0.323,0.301-0.543l0.737-3.56c0.039-0.271-0.019-0.504-0.175-0.698
		c-0.142-0.207-0.349-0.33-0.621-0.368l-12.144-1.357l-0.155-1.473c-0.026-0.181-0.094-0.343-0.204-0.485
		c-0.11-0.142-0.249-0.239-0.417-0.291L8.451,8.212C8.218,8.148,7.988,8.17,7.762,8.28C7.535,8.39,7.384,8.568,7.306,8.814
		C7.241,9.059,7.264,9.292,7.374,9.511C7.484,9.731,7.662,9.88,7.907,9.957z"/>
	<path class="st0" d="M21.817,24.643c0.272-0.278,0.407-0.611,0.407-0.998c0-0.388-0.136-0.717-0.407-0.989
		c-0.272-0.272-0.601-0.407-0.989-0.407c-0.388,0-0.718,0.136-0.989,0.407c-0.272,0.271-0.408,0.601-0.408,0.989
		c0,0.388,0.136,0.721,0.408,0.998c0.271,0.278,0.601,0.417,0.989,0.417C21.216,25.06,21.545,24.921,21.817,24.643z"/>
	<path class="st0" d="M13.533,24.643c0.272-0.278,0.407-0.611,0.407-0.998c0-0.388-0.136-0.717-0.407-0.989
		c-0.272-0.272-0.601-0.407-0.989-0.407c-0.388,0-0.718,0.136-0.989,0.407c-0.272,0.271-0.407,0.601-0.407,0.989
		c0,0.388,0.136,0.721,0.407,0.998c0.271,0.278,0.601,0.417,0.989,0.417C12.932,25.06,13.262,24.921,13.533,24.643z"/>
</g>
</svg>
