<?xml version="1.0" encoding="utf-8"?>
<!-- Generator: Adobe Illustrator 20.0.0, SVG Export Plug-In . SVG Version: 6.00 Build 0)  -->
<svg version="1.1" id="Vrstva_1" xmlns="http://www.w3.org/2000/svg" xmlns:xlink="http://www.w3.org/1999/xlink" x="0px" y="0px"
	 viewBox="0 0 32 32" style="enable-background:new 0 0 32 32;" xml:space="preserve">
<style type="text/css">
	.st0{fill-rule:evenodd;clip-rule:evenodd;}
</style>
<g>
	<path class="st0" d="M15.618,10.586c-2.659,2.659-3.732,7.44-2.568,8.604c1.293,1.293,5.945,0.09,8.604-2.568
		c2.659-2.659,2.691-5.393,1.024-7.06C21.012,7.895,18.277,7.928,15.618,10.586z M16.37,12.289c-0.287,0-0.519-0.232-0.519-0.52
		c0-0.287,0.233-0.519,0.519-0.519c0.287,0,0.519,0.232,0.519,0.519C16.889,12.056,16.657,12.289,16.37,12.289z M19.6,10.354
		c-0.573,0-1.167,0.281-1.871,0.884c-0.096,0.082-0.214,0.123-0.331,0.123c-0.143,0-0.286-0.06-0.386-0.177
		c-0.183-0.213-0.158-0.534,0.055-0.717c0.899-0.77,1.704-1.129,2.533-1.129c0.281,0,0.508,0.227,0.508,0.508
		C20.107,10.126,19.88,10.354,19.6,10.354z"/>
	<path class="st0" d="M8.615,21.706c0.284,0.284,0.656,0.426,1.029,0.426c0.256,0,0.464,0.208,0.464,0.464
		c0,0.372,0.142,0.744,0.426,1.028c0.571,0.571,1.497,0.571,2.068,0c0.571-0.571,0.571-1.497,0-2.068
		c-0.042-0.042-0.087-0.081-0.133-0.117l1.184-1.183c-0.443-0.118-0.807-0.312-1.082-0.587c-0.268-0.268-0.446-0.646-0.549-1.098
		l-1.212,1.212c-0.039-0.05-0.08-0.099-0.126-0.145c-0.571-0.571-1.497-0.571-2.068,0C8.045,20.209,8.045,21.135,8.615,21.706z"/>
</g>
</svg>
