<?xml version="1.0" encoding="utf-8"?>
<!-- Generator: Adobe Illustrator 20.0.0, SVG Export Plug-In . SVG Version: 6.00 Build 0)  -->
<svg version="1.1" id="Vrstva_1" xmlns="http://www.w3.org/2000/svg" xmlns:xlink="http://www.w3.org/1999/xlink" x="0px" y="0px"
	 viewBox="0 0 32 32" style="enable-background:new 0 0 32 32;" xml:space="preserve">
<style type="text/css">
	.st0{fill-rule:evenodd;clip-rule:evenodd;}
</style>
<g>
	<path class="st0" d="M16.002,23.913c0.442,0,0.802-0.358,0.802-0.8v-3.42c2.703-0.387,4.802-2.722,4.802-5.546
		c0-3.096-2.51-5.604-5.608-5.604s-5.604,2.507-5.604,5.604c0,2.825,2.088,5.159,4.807,5.546v3.42
		C15.201,23.555,15.561,23.913,16.002,23.913z M13.684,14.947c0-1.201,0.821-2.402,2.323-2.402c1.192,0,1.752,1.111,1.752,1.64
		c0,0.224-0.045,0.787-0.381,1.082c-0.391,0.339-1.131-0.051-0.9-0.509c0.301-0.503,0.032-1.021-0.571-1.021
		c-0.621,0-0.91,0.55-0.91,1.29c0,0.721,0.653,1.576,1.48,1.645c1.531,0.126,2.402-1.104,2.402-2.365
		c0-1.742-1.399-3.033-3.043-3.033c-1.942,0-3.159,1.511-3.159,3.352c0,0.429,0.041,0.896,0.163,1.518
		c0.093,0.464-0.403,0.509-0.529,0.202c-0.221-0.538-0.461-1.399-0.461-2.039c0-2.501,1.682-4.163,3.986-4.163
		c2.204,0,4.165,1.822,4.165,4.163c0,1.521-1.122,3.522-3.345,3.522C14.917,17.83,13.684,16.708,13.684,14.947z"/>
</g>
</svg>
