<?xml version="1.0" encoding="utf-8"?>
<!-- Generator: Adobe Illustrator 20.0.0, SVG Export Plug-In . SVG Version: 6.00 Build 0)  -->
<svg version="1.1" id="Vrstva_1" xmlns="http://www.w3.org/2000/svg" xmlns:xlink="http://www.w3.org/1999/xlink" x="0px" y="0px"
	 viewBox="0 0 32 32" style="enable-background:new 0 0 32 32;" xml:space="preserve">
<style type="text/css">
	.st0{fill-rule:evenodd;clip-rule:evenodd;}
</style>
<g>
	<path class="st0" d="M19.403,11.636c-0.184-0.214-0.45-0.396-0.73-0.396h-5.055c-0.28,0-0.547,0.182-0.731,0.396
		c-0.183,0.214-0.266,0.528-0.227,0.809l0.845,6.002c0.068,0.482,0.476,0.852,0.956,0.852h3.367c0.481,0,0.889-0.355,0.956-0.837
		l0.845-6.018C19.668,12.163,19.585,11.851,19.403,11.636z"/>
	<path class="st0" d="M24.083,18.115c-0.176-0.041-0.359,0.028-0.467,0.173l-0.992,1.337c-0.078,0.105-0.108,0.24-0.082,0.369
		c0.025,0.129,0.104,0.241,0.216,0.308l1.426,0.86c0.156,0.094,0.35,0.085,0.499-0.021c0.147-0.105,0.219-0.29,0.184-0.469
		l-0.436-2.196C24.394,18.297,24.258,18.156,24.083,18.115z"/>
	<path class="st0" d="M11.767,13.541c-0.307-0.137-0.662-0.103-0.939,0.09l-2.263,1.582c-0.44,0.307-0.55,0.917-0.247,1.362
		l1.954,2.871c0.282,0.416,0.83,0.545,1.266,0.3l0.845-0.478c0.347-0.196,0.541-0.588,0.487-0.988l-0.536-3.974
		C12.289,13.968,12.074,13.679,11.767,13.541z"/>
	<path class="st0" d="M23.695,15.213l-2.264-1.582c-0.276-0.193-0.632-0.227-0.939-0.09c-0.307,0.137-0.521,0.427-0.567,0.764
		l-0.536,3.974c-0.054,0.4,0.14,0.792,0.486,0.988l0.846,0.478c0.435,0.246,0.983,0.116,1.266-0.3l1.954-2.871
		C24.245,16.129,24.134,15.519,23.695,15.213z"/>
	<path class="st0" d="M8.645,18.289c-0.108-0.146-0.291-0.215-0.467-0.174c-0.175,0.041-0.312,0.182-0.347,0.361l-0.436,2.196
		c-0.036,0.18,0.037,0.364,0.184,0.471c0.149,0.106,0.343,0.114,0.499,0.021l1.426-0.86c0.112-0.067,0.19-0.179,0.216-0.308
		c0.026-0.129-0.005-0.263-0.083-0.369L8.645,18.289z"/>
</g>
</svg>
