<?xml version="1.0" encoding="utf-8"?>
<!-- Generator: Adobe Illustrator 20.0.0, SVG Export Plug-In . SVG Version: 6.00 Build 0)  -->
<svg version="1.1" id="Vrstva_1" xmlns="http://www.w3.org/2000/svg" xmlns:xlink="http://www.w3.org/1999/xlink" x="0px" y="0px"
	 viewBox="0 0 32 32" style="enable-background:new 0 0 32 32;" xml:space="preserve">
<style type="text/css">
	.st0{fill-rule:evenodd;clip-rule:evenodd;}
</style>
<g>
	<path class="st0" d="M17.439,24.802V23.38h1.422v-1.11c0-0.74,0.185-1.509,0.555-2.306c0.37-0.798,0.774-1.474,1.214-2.029
		c0.439-0.555,0.844-1.144,1.214-1.769c0.37-0.624,0.555-1.156,0.555-1.595v-1.699c0-0.116-0.035-0.231-0.104-0.347
		c-0.069-0.116-0.15-0.173-0.243-0.173h-1.769V8.433c0-0.185-0.069-0.347-0.208-0.485c-0.139-0.139-0.306-0.208-0.503-0.208
		s-0.364,0.069-0.503,0.208c-0.139,0.139-0.208,0.301-0.208,0.485v3.919h-5.687V8.433c0-0.185-0.069-0.347-0.208-0.485
		c-0.139-0.139-0.307-0.208-0.503-0.208c-0.197,0-0.364,0.069-0.503,0.208c-0.139,0.139-0.208,0.301-0.208,0.485v3.919H9.983
		c-0.092,0-0.179,0.058-0.26,0.173c-0.081,0.116-0.122,0.231-0.122,0.347v1.699c0,0.439,0.185,0.971,0.555,1.595
		c0.37,0.624,0.78,1.214,1.231,1.769c0.451,0.555,0.861,1.231,1.231,2.029c0.37,0.798,0.555,1.567,0.555,2.306v1.11h1.422v1.422
		H17.439z M14.145,18.04c-0.092,0-0.116-0.035-0.069-0.104c1.896-2.404,2.867-3.63,2.913-3.676c0.023-0.023,0.04-0.035,0.052-0.035
		c0.012,0,0.018,0.023,0.018,0.069l-0.624,2.566c-0.046,0.069-0.023,0.104,0.069,0.104h1.387c0.115,0,0.139,0.046,0.069,0.139
		c-1.896,2.451-2.867,3.699-2.913,3.745c-0.023,0.046-0.041,0.058-0.052,0.035c-0.011-0.023-0.017-0.058-0.017-0.104l0.659-2.601
		c0.023-0.093-0.011-0.139-0.104-0.139H14.145z"/>
</g>
</svg>
