<?xml version="1.0" encoding="utf-8"?>
<!-- Generator: Adobe Illustrator 20.0.0, SVG Export Plug-In . SVG Version: 6.00 Build 0)  -->
<svg version="1.1" id="Vrstva_1" xmlns="http://www.w3.org/2000/svg" xmlns:xlink="http://www.w3.org/1999/xlink" x="0px" y="0px"
	 viewBox="0 0 32 32" style="enable-background:new 0 0 32 32;" xml:space="preserve">
<style type="text/css">
	.st0{fill-rule:evenodd;clip-rule:evenodd;}
</style>
<g>
	<path class="st0" d="M9.975,14.154c-1.47,2.55-0.376,6.328,1.056,8.396c0.7,1.012,1.535,2.149,2.63,2.109
		c1.055-0.042,1.454-0.683,2.73-0.683s1.634,0.683,2.751,0.662c1.136-0.021,1.855-1.032,2.55-2.047
		c0.804-1.175,1.135-2.312,1.154-2.37c-0.025-0.011-2.214-0.85-2.236-3.371c-0.021-2.11,1.721-3.123,1.799-3.173
		c-0.979-1.432-2.504-1.629-3.047-1.651c-1.298-0.131-2.532,0.764-3.191,0.764c-0.657,0-1.673-0.745-2.75-0.725
		C12.008,12.086,10.704,12.887,9.975,14.154z"/>
	<path class="st0" d="M18.513,10.656c0.582-0.706,0.974-1.685,0.867-2.661c-0.838,0.034-1.853,0.558-2.454,1.262
		c-0.539,0.625-1.011,1.621-0.885,2.579C16.976,11.909,17.931,11.36,18.513,10.656z"/>
</g>
</svg>
