<?xml version="1.0" encoding="utf-8"?>
<!-- Generator: Adobe Illustrator 20.0.0, SVG Export Plug-In . SVG Version: 6.00 Build 0)  -->
<svg version="1.1" id="Vrstva_1" xmlns="http://www.w3.org/2000/svg" xmlns:xlink="http://www.w3.org/1999/xlink" x="0px" y="0px"
	 viewBox="0 0 32 32" style="enable-background:new 0 0 32 32;" xml:space="preserve">
<style type="text/css">
	.st0{fill-rule:evenodd;clip-rule:evenodd;}
</style>
<g>
	<path class="st0" d="M10.784,11.836c-0.158,0.161-0.346,0.29-0.553,0.385v4.775h-0.068c-0.632,0-1.145,0.512-1.145,1.144v5.752
		c0,0.218,0.177,0.395,0.395,0.395h13.298c0.218,0,0.394-0.176,0.394-0.395V18.14c0-0.632-0.511-1.144-1.144-1.144h-0.068v-4.775
		c-0.207-0.095-0.395-0.224-0.553-0.385c-0.144,0.147-0.317,0.264-0.503,0.357v4.802h-9.55v-4.802
		C11.1,12.101,10.927,11.984,10.784,11.836z"/>
	<path class="st0" d="M23.981,10.545V9.031c0-0.31-0.252-0.562-0.562-0.562H8.705c-0.31,0-0.561,0.251-0.561,0.561v1.514
		c0,0.729,0.591,1.319,1.32,1.319c0.729,0,1.319-0.591,1.319-1.319c0,0.729,0.591,1.319,1.32,1.319c0.729,0,1.32-0.591,1.32-1.319
		c0,0.729,0.591,1.319,1.32,1.319c0.729,0,1.32-0.591,1.32-1.319c0,0.729,0.591,1.319,1.32,1.319c0.729,0,1.32-0.591,1.32-1.319
		c0,0.729,0.591,1.319,1.32,1.319c0.729,0,1.319-0.591,1.319-1.319c0,0.729,0.591,1.319,1.32,1.319
		C23.39,11.864,23.981,11.274,23.981,10.545z"/>
</g>
</svg>
