<?xml version="1.0" encoding="utf-8"?>
<!-- Generator: Adobe Illustrator 20.0.0, SVG Export Plug-In . SVG Version: 6.00 Build 0)  -->
<svg version="1.1" id="Vrstva_1" xmlns="http://www.w3.org/2000/svg" xmlns:xlink="http://www.w3.org/1999/xlink" x="0px" y="0px"
	 viewBox="0 0 32 32" style="enable-background:new 0 0 32 32;" xml:space="preserve">
<style type="text/css">
	.st0{fill-rule:evenodd;clip-rule:evenodd;}
</style>
<g>
	<path class="st0" d="M23.579,17.006c-0.441-0.297-0.981-0.474-1.567-0.474c-0.041,0-0.943,0-1.028,0l-1.63,1.567
		c-0.357,0.341-0.778,0.48-0.941,0.31l-0.221-0.231c-0.163-0.17-0.005-0.585,0.352-0.926l1.313-1.255
		c-0.204-0.144-0.414-0.312-0.626-0.497l-2.005,1.916c-0.357,0.341-0.778,0.48-0.941,0.31l-0.221-0.231
		c-0.163-0.17-0.005-0.585,0.352-0.926l1.965-1.878c-0.206-0.211-0.41-0.428-0.609-0.647l-1.335,1.276l-1.214,1.16
		c-0.357,0.341-0.778,0.48-0.941,0.31l-0.221-0.231c-0.163-0.17-0.005-0.585,0.352-0.926c0,0,0.905-0.993,1.34-1.375
		c0.435-0.382,1.241-1.091,1.241-1.091c-0.647-0.745-1.191-1.394-1.506-1.666c-0.953-0.821-2.018,0.674-1.442,1.576
		c0.408,0.841-0.72,2.244-2.497,1.931c-1.776-0.312-2.065-1.969-2.449-2.305c-0.384-0.336-1.673-0.323-1.673,0.561
		c0,0.884,0.004,6.33,0.004,7.096c-0.072,0.697,0.756,1.732,1.692,1.732h3.049c0.528,0,1.152-1.153,2.041-1.153
		c0.888,0,1.801,1.153,2.353,1.153h5.21c0.984,0,2.242-1.392,2.336-1.503c0.003-0.003,0.006-0.006,0.01-0.009
		c0.001-0.002,0.002-0.005,0.003-0.007c0.355-0.424,0.568-0.957,0.568-1.537c0-0.224-0.035-0.44-0.094-0.647
		C24.487,17.789,24.123,17.322,23.579,17.006z"/>
</g>
</svg>
