<?xml version="1.0" encoding="utf-8"?>
<!-- Generator: Adobe Illustrator 20.0.0, SVG Export Plug-In . SVG Version: 6.00 Build 0)  -->
<svg version="1.1" id="Vrstva_1" xmlns="http://www.w3.org/2000/svg" xmlns:xlink="http://www.w3.org/1999/xlink" x="0px" y="0px"
	 viewBox="0 0 32 32" style="enable-background:new 0 0 32 32;" xml:space="preserve">
<style type="text/css">
	.st0{fill-rule:evenodd;clip-rule:evenodd;}
</style>
<g>
	<path class="st0" d="M16,24.852c0.249,0,0.471-0.155,0.558-0.388l2.95-7.957c-0.087,0.007-0.175,0.012-0.264,0.012
		c-0.547,0-1.076-0.138-1.547-0.402c-0.524,0.274-1.131,0.413-1.767,0.401v0.169c0,1.1-0.895,1.995-1.995,1.995h-0.197
		c-0.159,0-0.313-0.019-0.461-0.055l2.164,5.837C15.529,24.697,15.751,24.852,16,24.852z"/>
	<path class="st0" d="M13.739,17.848h0.197c0.641,0,1.162-0.521,1.162-1.162v-0.619c0-0.121,0.052-0.236,0.143-0.315
		c0.091-0.079,0.212-0.115,0.332-0.098c0.141,0.02,0.285,0.03,0.428,0.03c0.541,0,1.068-0.144,1.483-0.406
		c0.14-0.088,0.318-0.085,0.455,0.007c0.385,0.26,0.836,0.398,1.305,0.398c1.291,0,2.341-1.05,2.341-2.341
		c0-1.106-0.785-2.07-1.868-2.293c-0.172-0.036-0.304-0.176-0.328-0.35C19.153,9.024,17.696,7.759,16,7.759
		c-1.696,0-3.152,1.265-3.389,2.942c-0.025,0.174-0.156,0.314-0.328,0.35c-1.082,0.223-1.868,1.188-1.868,2.293
		c0,1.09,0.772,2.051,1.836,2.287c0.191,0.042,0.327,0.211,0.327,0.407v0.649C12.578,17.327,13.099,17.848,13.739,17.848z"/>
</g>
</svg>
