<?xml version="1.0" encoding="utf-8"?>
<!-- Generator: Adobe Illustrator 20.0.0, SVG Export Plug-In . SVG Version: 6.00 Build 0)  -->
<svg version="1.1" id="Vrstva_1" xmlns="http://www.w3.org/2000/svg" xmlns:xlink="http://www.w3.org/1999/xlink" x="0px" y="0px"
	 viewBox="0 0 32 32" style="enable-background:new 0 0 32 32;" xml:space="preserve">
<style type="text/css">
	.st0{fill-rule:evenodd;clip-rule:evenodd;}
</style>
<g>
	<path class="st0" d="M19.118,11.332c-0.025-1.669-1.383-3.014-3.055-3.014c-1.673,0-3.031,1.345-3.055,3.014
		c-1.456-0.813-3.299-0.308-4.135,1.142c-0.836,1.45-0.352,3.3,1.08,4.156c-1.431,0.856-1.916,2.706-1.08,4.156
		c0.836,1.45,2.679,1.955,4.135,1.142c0.025,1.669,1.383,3.014,3.055,3.014c1.673,0,3.031-1.345,3.055-3.014
		c1.456,0.813,3.299,0.308,4.135-1.142c0.836-1.45,0.352-3.3-1.08-4.156c1.431-0.856,1.916-2.706,1.079-4.156
		C22.416,11.024,20.574,10.519,19.118,11.332z M16.063,19.432c-1.546,0-2.799-1.254-2.799-2.802c0-1.547,1.253-2.802,2.799-2.802
		s2.799,1.255,2.799,2.802C18.862,18.177,17.608,19.432,16.063,19.432z"/>
</g>
</svg>
