<?xml version="1.0" encoding="utf-8"?>
<!-- Generator: Adobe Illustrator 20.0.0, SVG Export Plug-In . SVG Version: 6.00 Build 0)  -->
<svg version="1.1" id="Vrstva_1" xmlns="http://www.w3.org/2000/svg" xmlns:xlink="http://www.w3.org/1999/xlink" x="0px" y="0px"
	 viewBox="0 0 32 32" style="enable-background:new 0 0 32 32;" xml:space="preserve">
<style type="text/css">
	.st0{fill-rule:evenodd;clip-rule:evenodd;}
</style>
<g>
	<path class="st0" d="M13.385,8.747l-2.175,3.735h1.467l1.8-3.095c0.175-0.302,0.076-0.691-0.227-0.866
		C13.948,8.345,13.56,8.445,13.385,8.747z"/>
	<path class="st0" d="M8.771,16.965h0.336l1.037,5.624c0.131,0.663,0.735,1.189,1.364,1.189H20.4c0.629,0,1.233-0.526,1.364-1.189
		l1.044-5.628h0.546c0.595,0,1.075-0.481,1.075-1.075v-1.192c-0.003-0.591-0.484-1.072-1.079-1.072H8.771
		c-0.594,0-1.075,0.481-1.075,1.075v1.192C7.696,16.484,8.177,16.965,8.771,16.965z M18.28,18.268c0-0.326,0.261-0.608,0.608-0.608
		c0.326,0,0.608,0.261,0.608,0.608v3.401c0,0.326-0.261,0.608-0.608,0.608c-0.327,0-0.608-0.261-0.608-0.608V18.268z M16.329,18.268
		c0-0.326,0.282-0.608,0.608-0.608c0.326,0,0.608,0.261,0.608,0.608v3.401c0,0.326-0.261,0.608-0.608,0.608
		c-0.326,0-0.608-0.261-0.608-0.608V18.268z M14.367,18.268c0-0.347,0.282-0.608,0.608-0.608s0.608,0.282,0.608,0.608v3.401
		c0,0.347-0.282,0.608-0.608,0.608c-0.347,0-0.608-0.282-0.608-0.608V18.268z M12.416,18.268c0-0.347,0.282-0.608,0.608-0.608
		c0.347,0,0.608,0.282,0.608,0.608v3.401c0,0.347-0.282,0.608-0.608,0.608c-0.347,0-0.608-0.282-0.608-0.608V18.268z"/>
	<path class="st0" d="M17.881,8.52c-0.302,0.175-0.405,0.564-0.227,0.866l1.8,3.092h1.467l-2.175-3.731
		C18.572,8.445,18.184,8.342,17.881,8.52z"/>
</g>
</svg>
