<?xml version="1.0" encoding="utf-8"?>
<!-- Generator: Adobe Illustrator 20.0.0, SVG Export Plug-In . SVG Version: 6.00 Build 0)  -->
<svg version="1.1" id="Vrstva_1" xmlns="http://www.w3.org/2000/svg" xmlns:xlink="http://www.w3.org/1999/xlink" x="0px" y="0px"
	 viewBox="0 0 32 32" style="enable-background:new 0 0 32 32;" xml:space="preserve">
<g>
	<g>
		<path d="M22.257,16.209c-1.152,0-2.092-0.94-2.092-2.091c0,1.151-0.94,2.091-2.092,2.091s-2.109-0.94-2.109-2.091
			c0,1.151-0.94,2.091-2.092,2.091c-1.152,0-2.092-0.94-2.092-2.091c0,1.151-0.94,2.091-2.092,2.091
			c-1.152,0-2.126-0.94-2.126-2.091v11.015c0,0.673,0.559,1.236,1.236,1.236h14.324c0.673,0,1.236-0.559,1.236-1.236V14.118
			C24.361,15.273,23.426,16.209,22.257,16.209z M22.617,15.337V7.803h-5.352v7.289c1.13,0.863,2.147-0.3,2.058-0.973h0.843h0.838
			C21.004,14.808,21.643,15.565,22.617,15.337z M13.873,15.383c0.69,0,1.266-0.559,1.266-1.265h0.724V8.89
			c-0.017-1.794-1.465-3.259-3.277-3.259c-1.795,0-3.26,1.464-3.26,3.259v6.447c0.97,0.237,1.601-0.525,1.601-1.219h0.855h0.826
			C12.607,14.808,13.166,15.383,13.873,15.383z"/>
	</g>
</g>
</svg>
