<?xml version="1.0" encoding="utf-8"?>
<!-- Generator: Adobe Illustrator 20.0.0, SVG Export Plug-In . SVG Version: 6.00 Build 0)  -->
<svg version="1.1" id="Vrstva_1" xmlns="http://www.w3.org/2000/svg" xmlns:xlink="http://www.w3.org/1999/xlink" x="0px" y="0px"
	 viewBox="0 0 32 32" style="enable-background:new 0 0 32 32;" xml:space="preserve">
<style type="text/css">
	.st0{fill-rule:evenodd;clip-rule:evenodd;}
</style>
<g>
	<path class="st0" d="M20.014,14.227l-1.276-1.276c-0.556-0.556-1.273-0.823-1.983-0.823c-0.97,0-1.929,0.498-2.455,1.435
		l-1.402,2.49l1.521,2.508l-2.186-1.326L9.149,22.72c-0.324,0.577,0.133,1.202,0.696,1.202c0.129,0,0.264-0.033,0.397-0.107
		l2.397-1.347l-0.805-1.493l1.767,0.952l4.926-2.767l-1.352-2.36l2.692,1.542C21.071,17.302,21.192,15.407,20.014,14.227z"/>
	<path class="st0" d="M22.965,13.68c0.27-0.05,0.349-0.401,0.126-0.563c-0.38-0.277-0.869-0.55-1.235-0.468l0.761-1.891
		c0.104-0.256-0.152-0.512-0.408-0.408l-1.892,0.759c0.082-0.366-0.192-0.855-0.469-1.235C19.685,9.653,19.335,9.729,19.284,10
		c-0.145,0.778-0.506,1.653-0.69,2.066c0.203,0.131,0.393,0.285,0.569,0.459l1.276,1.276c0.176,0.176,0.328,0.365,0.46,0.569
		C21.312,14.186,22.187,13.825,22.965,13.68z"/>
</g>
</svg>
