<?xml version="1.0" encoding="utf-8"?>
<!-- Generator: Adobe Illustrator 20.0.0, SVG Export Plug-In . SVG Version: 6.00 Build 0)  -->
<svg version="1.1" id="Vrstva_1" xmlns="http://www.w3.org/2000/svg" xmlns:xlink="http://www.w3.org/1999/xlink" x="0px" y="0px"
	 viewBox="0 0 32 32" style="enable-background:new 0 0 32 32;" xml:space="preserve">
<style type="text/css">
	.st0{fill-rule:evenodd;clip-rule:evenodd;}
</style>
<g>
	<path class="st0" d="M23.981,13.399h-7.856v-4.91H8.269V24.2h7.855v-9.819h7.856V13.399z M11.215,20.273H9.251v-1.964h1.964V20.273
		z M11.215,16.345H9.251v-1.964h1.964V16.345z M11.215,12.417H9.251v-1.964h1.964V12.417z M15.143,20.273h-1.964v-1.964h1.964
		V20.273z M15.143,16.345h-1.964v-1.964h1.964V16.345z M15.143,12.417h-1.964v-1.964h1.964V12.417z"/>
	<polygon class="st0" points="23.981,15.363 16.493,15.363 16.493,24.2 19.071,24.2 19.071,20.273 22.017,20.273 22.017,24.2 
		23.981,24.2 	"/>
</g>
</svg>
