<?xml version="1.0" encoding="utf-8"?>
<!-- Generator: Adobe Illustrator 20.0.0, SVG Export Plug-In . SVG Version: 6.00 Build 0)  -->
<svg version="1.1" id="Vrstva_1" xmlns="http://www.w3.org/2000/svg" xmlns:xlink="http://www.w3.org/1999/xlink" x="0px" y="0px"
	 viewBox="0 0 32 32" style="enable-background:new 0 0 32 32;" xml:space="preserve">
<style type="text/css">
	.st0{fill-rule:evenodd;clip-rule:evenodd;}
</style>
<g>
	<path class="st0" d="M18.825,19.929c-0.087-0.25-0.288-0.444-0.541-0.524l-1.353-0.426v-0.455c0.195,0,0.354-0.158,0.354-0.353
		c0-0.195-0.159-0.353-0.354-0.353v-0.742H14.57v0.742c-0.195,0-0.354,0.158-0.354,0.353c0,0.195,0.159,0.353,0.354,0.353v0.455
		l-1.353,0.426c-0.253,0.08-0.454,0.274-0.541,0.524l-0.861,2.456h-0.751c0.145-0.044,0.252-0.174,0.252-0.333
		c0-0.195-0.158-0.353-0.354-0.353v-0.742H8.601v0.742c-0.195,0-0.354,0.158-0.354,0.353c0,0.159,0.107,0.289,0.252,0.333H8.106
		c-0.214,0-0.387,0.173-0.387,0.387v1.614c0,0.214,0.173,0.387,0.387,0.387h15.29c0.214,0,0.387-0.173,0.387-0.387v-1.614
		c0-0.214-0.173-0.387-0.387-0.387h-0.394c0.145-0.044,0.253-0.174,0.253-0.333c0-0.195-0.159-0.353-0.354-0.353v-0.742h-2.362
		v0.742c-0.195,0-0.354,0.158-0.354,0.353c0,0.159,0.107,0.289,0.252,0.333h-0.752L18.825,19.929z M16.477,22.684h-1.45v-1.219
		c0-0.401,0.325-0.725,0.725-0.725c0.401,0,0.725,0.325,0.725,0.725V22.684z"/>
	<path class="st0" d="M21.897,12.557v-0.341c0-0.097-0.079-0.177-0.177-0.177c-0.098,0-0.177,0.08-0.177,0.177v2.885
		c-0.187,0.008-0.338,0.161-0.338,0.351c0,0.16,0.108,0.289,0.253,0.333l-1.159,4.008h-0.102c-0.195,0-0.354,0.158-0.354,0.354
		c0,0.195,0.158,0.353,0.354,0.353h3.047c0.195,0,0.354-0.158,0.354-0.353c0-0.195-0.158-0.354-0.354-0.354h-0.102l-1.159-4.008
		c0.146-0.044,0.253-0.174,0.253-0.333c0-0.19-0.151-0.342-0.339-0.351v-0.928l2.867-0.734c0.033-0.008,0.057-0.038,0.057-0.073
		c0-0.035-0.024-0.065-0.057-0.073L21.897,12.557z"/>
	<path class="st0" d="M8.258,19.792c-0.195,0-0.354,0.158-0.354,0.354c0,0.195,0.158,0.353,0.354,0.353h3.048
		c0.195,0,0.354-0.158,0.354-0.353c0-0.196-0.159-0.354-0.354-0.354h-0.103l-1.159-4.008c0.146-0.044,0.253-0.174,0.253-0.333
		c0-0.19-0.151-0.342-0.338-0.351v-0.928l2.867-0.735c0.033-0.008,0.057-0.038,0.057-0.073c0-0.035-0.024-0.065-0.057-0.073
		l-2.867-0.734v-0.341c0-0.097-0.079-0.177-0.177-0.177c-0.098,0-0.177,0.08-0.177,0.177v2.885
		c-0.188,0.008-0.339,0.161-0.339,0.351c0,0.16,0.108,0.289,0.254,0.333L8.36,19.792H8.258z"/>
	<path class="st0" d="M14.227,15.912c-0.195,0-0.354,0.158-0.354,0.354c0,0.195,0.159,0.353,0.354,0.353h3.048
		c0.195,0,0.354-0.158,0.354-0.353c0-0.195-0.158-0.354-0.354-0.354h-0.101l-1.16-4.008c0.145-0.044,0.253-0.173,0.253-0.333
		c0-0.19-0.15-0.342-0.338-0.35v-0.928l2.867-0.735c0.034-0.008,0.057-0.039,0.057-0.073c0-0.035-0.024-0.065-0.057-0.073
		l-2.868-0.735V8.336c0-0.098-0.079-0.177-0.177-0.177c-0.098,0-0.177,0.079-0.177,0.177l0,2.885
		c-0.188,0.008-0.339,0.16-0.339,0.351c0,0.16,0.108,0.289,0.253,0.333l-1.159,4.008H14.227z"/>
</g>
</svg>
