<?xml version="1.0" encoding="utf-8"?>
<!-- Generator: Adobe Illustrator 20.0.0, SVG Export Plug-In . SVG Version: 6.00 Build 0)  -->
<svg version="1.1" id="Vrstva_1" xmlns="http://www.w3.org/2000/svg" xmlns:xlink="http://www.w3.org/1999/xlink" x="0px" y="0px"
	 viewBox="0 0 32 32" style="enable-background:new 0 0 32 32;" xml:space="preserve">
<style type="text/css">
	.st0{fill-rule:evenodd;clip-rule:evenodd;}
</style>
<g>
	<path class="st0" d="M21.625,9.69c0-0.059-0.039-0.11-0.096-0.124l-5.088-1.303V7.734c0-0.167-0.135-0.301-0.301-0.301
		c-0.167,0-0.301,0.135-0.301,0.301l0,4.564h-0.211c-0.071,0-0.129,0.058-0.129,0.128v1.393h-1.128v-1.393
		c0-0.071-0.058-0.128-0.129-0.128h-1.022c-0.071,0-0.129,0.058-0.129,0.128v1.393h-1.128v-1.393c0-0.071-0.058-0.128-0.129-0.128
		h-1.022c-0.071,0-0.129,0.058-0.129,0.128v3.632c0,0.321,0.26,0.582,0.582,0.582h0.85l-1.429,8.015
		c-0.031,0.169,0.016,0.344,0.126,0.476c0.111,0.132,0.274,0.208,0.446,0.208h9.76c0.172,0,0.335-0.076,0.446-0.208
		c0.111-0.132,0.157-0.306,0.127-0.476l-1.429-8.015h0.849c0.322,0,0.582-0.26,0.582-0.582v-3.632c0-0.071-0.058-0.128-0.129-0.128
		h-1.021c-0.071,0-0.129,0.058-0.129,0.128v1.393h-1.129v-1.393c0-0.071-0.058-0.128-0.129-0.128h-1.021
		c-0.071,0-0.129,0.058-0.129,0.128v1.393h-1.129v-1.393c0-0.071-0.058-0.128-0.129-0.128h-0.209l-0.001-1.18l5.088-1.303
		C21.586,9.8,21.625,9.749,21.625,9.69z M17.526,19.55v2.52h-2.772v-2.52c0-0.765,0.62-1.386,1.386-1.386
		C16.906,18.165,17.526,18.785,17.526,19.55z"/>
</g>
</svg>
