<?xml version="1.0" encoding="utf-8"?>
<!-- Generator: Adobe Illustrator 20.0.0, SVG Export Plug-In . SVG Version: 6.00 Build 0)  -->
<svg version="1.1" id="Vrstva_1" xmlns="http://www.w3.org/2000/svg" xmlns:xlink="http://www.w3.org/1999/xlink" x="0px" y="0px"
	 viewBox="0 0 32 32" style="enable-background:new 0 0 32 32;" xml:space="preserve">
<style type="text/css">
	.st0{fill-rule:evenodd;clip-rule:evenodd;}
</style>
<g>
	<ellipse class="st0" cx="16.168" cy="12.396" rx="0.832" ry="0.845"/>
	<path class="st0" d="M12.211,17.431c0.255,0,0.511-0.1,0.706-0.298l2.819-3.567c-0.332-0.127-0.596-0.395-0.721-0.732l-3.511,2.863
		c-0.391,0.397-0.391,1.039,0,1.436C11.7,17.332,11.955,17.431,12.211,17.431z"/>
	<path class="st0" d="M20.531,24.591l-1.637-6.843l-2.726-3.433l-2.725,3.429l-1.638,6.841c-0.036,0.149-0.002,0.317,0.091,0.437
		c0.093,0.121,0.236,0.202,0.386,0.202h2.714v-1.959c0-0.661,0.517-1.197,1.167-1.197c0.65,0,1.167,0.536,1.167,1.197v1.959h2.723
		c0.151,0,0.294-0.081,0.386-0.202C20.533,24.902,20.567,24.74,20.531,24.591z"/>
	<path class="st0" d="M20.832,7.657c-0.195-0.198-0.451-0.297-0.707-0.297s-0.511,0.099-0.707,0.297L16.6,11.224
		c0.332,0.127,0.596,0.396,0.721,0.733l3.511-2.864C21.223,8.696,21.223,8.054,20.832,7.657z"/>
	<path class="st0" d="M20.832,15.698l-3.511-2.863c-0.125,0.337-0.389,0.606-0.721,0.732l2.819,3.567
		c0.195,0.198,0.451,0.297,0.707,0.297c0.256,0,0.511-0.099,0.707-0.298C21.223,16.737,21.223,16.094,20.832,15.698z"/>
	<path class="st0" d="M15.015,11.957c0.125-0.337,0.389-0.606,0.721-0.733l-2.819-3.566c-0.195-0.198-0.451-0.298-0.707-0.298
		c-0.256,0-0.512,0.099-0.707,0.298c-0.391,0.396-0.391,1.039,0,1.436L15.015,11.957z"/>
</g>
</svg>
