<?xml version="1.0" encoding="utf-8"?>
<!-- Generator: Adobe Illustrator 20.0.0, SVG Export Plug-In . SVG Version: 6.00 Build 0)  -->
<svg version="1.1" id="Vrstva_1" xmlns="http://www.w3.org/2000/svg" xmlns:xlink="http://www.w3.org/1999/xlink" x="0px" y="0px"
	 viewBox="0 0 32 32" style="enable-background:new 0 0 32 32;" xml:space="preserve">
<style type="text/css">
	.st0{fill-rule:evenodd;clip-rule:evenodd;}
</style>
<g>
	<path class="st0" d="M7.872,18.083l1.892-0.001v5.064l8.982,1.555l1.589-0.275v-6.5l2.823,0.012v5.998l1.312-0.227v-7.925
		l0.437,0.031v-1.187l-4.928-0.532v-2.229l0.516,0.086v-1.669l-6.239-1.365l-7.035,1.913v1.953l0.652-0.129V18.083z M12.36,22.224
		l-1.758-0.228v-3.913h1.758V22.224z M17.462,12.366l1.88,0.273v1.955l-1.88,0.05V12.366z M15.271,18.074l2.369,0.001v4.846
		l-2.369-0.309V18.074z M14.254,18.074h0.588v4.457l-2.035-0.264v-4.186h1.447V18.074z M8.849,12.959l4.266-0.773v4.351
		l-4.266,0.202V12.959z"/>
</g>
</svg>
