<?xml version="1.0" encoding="utf-8"?>
<!-- Generator: Adobe Illustrator 20.0.0, SVG Export Plug-In . SVG Version: 6.00 Build 0)  -->
<svg version="1.1" id="Vrstva_1" xmlns="http://www.w3.org/2000/svg" xmlns:xlink="http://www.w3.org/1999/xlink" x="0px" y="0px"
	 viewBox="0 0 32 32" style="enable-background:new 0 0 32 32;" xml:space="preserve">
<style type="text/css">
	.st0{fill-rule:evenodd;clip-rule:evenodd;}
</style>
<g>
	<path class="st0" d="M13.63,12.963c-0.63-0.176-1.02-0.466-1.152-1.282c-0.248-0.015-0.501-0.015-0.773,0.043
		c-0.134,0.374-0.226,0.748-0.29,1.122c-0.836,0.197-1.29,0.688-1.325,1.506l0.001,0.019l-0.001,0.009l0.004,0.06l-0.003,0.06
		l0.001,0.008l-0.001,0.019c0.053,0.817,0.518,1.298,1.358,1.476c0.073,0.372,0.172,0.744,0.315,1.115
		c0.274,0.054,0.526,0.046,0.774,0.027c0.114-0.819,0.498-1.119,1.123-1.309l1.16,0.006l0.102,7.173
		c-0.177,0.628-0.468,1.018-1.285,1.15c-0.015,0.248-0.015,0.5,0.044,0.771c0.374,0.135,0.749,0.225,1.123,0.29c0,0,0,0.001,0,0.002
		c1.056-0.023,2.115-0.174,3.166-0.041c0.366-0.072,0.733-0.17,1.098-0.31c0.053-0.273,0.047-0.525,0.027-0.772
		c-0.82-0.114-1.119-0.497-1.311-1.121L17.73,15.81l1.16-0.032c0.63,0.176,1.021,0.467,1.152,1.283
		c0.248,0.014,0.501,0.015,0.773-0.044c0.135-0.374,0.226-0.748,0.29-1.121c0.836-0.196,1.291-0.688,1.326-1.506l-0.002-0.019
		l0.002-0.008l-0.005-0.06l0.004-0.06l-0.002-0.008l0.002-0.019c-0.054-0.816-0.519-1.298-1.359-1.476
		c-0.073-0.372-0.171-0.744-0.315-1.115c-0.273-0.053-0.526-0.046-0.773-0.026c-0.113,0.818-0.497,1.117-1.124,1.307l-1.16-0.006
		l-0.037-1.337c0.177-0.628,0.468-1.018,1.285-1.15c0.015-0.248,0.016-0.5-0.044-0.771c-0.375-0.134-0.749-0.225-1.124-0.289
		c-0.197-0.835-0.689-1.289-1.508-1.323l-0.013,0l-0.067,0.004L16.122,8.03h-0.013c-0.817,0.053-1.3,0.517-1.479,1.357
		c-0.372,0.072-0.745,0.171-1.116,0.313c-0.053,0.273-0.047,0.525-0.027,0.772c0.82,0.114,1.119,0.498,1.31,1.122l-0.008,1.338
		L13.63,12.963z"/>
</g>
</svg>
