<?xml version="1.0" encoding="utf-8"?>
<!-- Generator: Adobe Illustrator 20.0.0, SVG Export Plug-In . SVG Version: 6.00 Build 0)  -->
<svg version="1.1" id="Vrstva_1" xmlns="http://www.w3.org/2000/svg" xmlns:xlink="http://www.w3.org/1999/xlink" x="0px" y="0px"
	 viewBox="0 0 32 32" style="enable-background:new 0 0 32 32;" xml:space="preserve">
<style type="text/css">
	.st0{fill-rule:evenodd;clip-rule:evenodd;}
</style>
<g>
	<path class="st0" d="M11.759,23.57c0,0.535,0.434,0.969,0.97,0.969h6.465c0.536,0,0.97-0.434,0.97-0.969v-1.951h-8.404V23.57z"/>
	<path class="st0" d="M11.207,16.91c-0.063,0.229-0.095,0.466-0.095,0.704c0,0.834,0.387,1.579,0.991,2.066h7.715
		c0.604-0.487,0.991-1.232,0.991-2.066c0-0.239-0.032-0.475-0.095-0.704l-0.432-2.877h-3.352v1.615c0,0.535-0.434,0.969-0.97,0.969
		c-0.535,0-0.97-0.434-0.97-0.969v-1.615h-3.352L11.207,16.91z"/>
	<path class="st0" d="M19.79,10.75c-0.018-0.161-0.094-0.663-0.377-1.184c-0.474-0.869-1.28-1.348-2.271-1.348H14.78
		c-0.991,0-1.797,0.479-2.271,1.348c-0.284,0.521-0.36,1.022-0.378,1.184l-0.202,1.344h8.062L19.79,10.75z"/>
</g>
</svg>
