<?xml version="1.0" encoding="utf-8"?>
<!-- Generator: Adobe Illustrator 20.0.0, SVG Export Plug-In . SVG Version: 6.00 Build 0)  -->
<svg version="1.1" id="Vrstva_1" xmlns="http://www.w3.org/2000/svg" xmlns:xlink="http://www.w3.org/1999/xlink" x="0px" y="0px"
	 viewBox="0 0 32 32" style="enable-background:new 0 0 32 32;" xml:space="preserve">
<style type="text/css">
	.st0{fill-rule:evenodd;clip-rule:evenodd;}
</style>
<g>
	<polygon class="st0" points="16.489,15.787 16.24,13.785 12.268,13.785 11.643,18.815 	"/>
	<path class="st0" d="M11.33,21.342l-0.286,2.304c-0.002,0.021-0.003,0.041-0.002,0.062h-0.564c-0.234,0-0.423,0.189-0.423,0.423
		c0,0.234,0.189,0.423,0.423,0.423h7.554c0.234,0,0.423-0.189,0.423-0.423c0-0.234-0.189-0.423-0.423-0.423h-0.563
		c0-0.003,0-0.006,0-0.009c0-0.029-0.003-0.057-0.008-0.083l-0.703-5.662l-5.4,3.375C11.349,21.333,11.339,21.337,11.33,21.342z"/>
	<path class="st0" d="M21.589,9.715l-5.184,0.919c-0.202,0.036-0.348,0.211-0.348,0.416c0,0.205,0.148,0.381,0.35,0.416l5.187,0.919
		c0.024,0.004,0.049,0.007,0.074,0.007c0.098,0,0.186-0.035,0.262-0.099c0.096-0.08,0.142-0.199,0.142-0.324v-1.838
		c0-0.125-0.046-0.244-0.142-0.324C21.834,9.727,21.712,9.693,21.589,9.715z"/>
	<path class="st0" d="M12.111,12.206c-0.233,0-0.423,0.189-0.423,0.423c0,0.123,0.053,0.233,0.136,0.31h4.802
		c0.083-0.077,0.136-0.187,0.136-0.31c0-0.234-0.189-0.423-0.423-0.423h-0.295l-0.088-0.676h-1.402
		c-0.041,0-0.081-0.022-0.117-0.038s-0.068-0.044-0.095-0.071c-0.041-0.041-0.079-0.097-0.091-0.156
		c-0.004-0.02-0.015-0.042-0.015-0.062v-0.331c0-0.021,0.011-0.041,0.015-0.061c0.02-0.098,0.092-0.178,0.182-0.216
		c0.036-0.015,0.08-0.024,0.122-0.024h1.286l-0.068-0.541c0.151-0.064,0.257-0.214,0.257-0.389c0-0.222-0.171-0.404-0.389-0.421
		c-0.186-0.535-0.697-0.904-1.286-0.904h-0.202c-0.588,0-1.098,0.368-1.285,0.902h-0.023c-0.234,0-0.423,0.189-0.423,0.423
		c0,0.195,0.132,0.358,0.311,0.407l-0.269,2.158H12.111z"/>
</g>
</svg>
