<?xml version="1.0" encoding="utf-8"?>
<!-- Generator: Adobe Illustrator 20.0.0, SVG Export Plug-In . SVG Version: 6.00 Build 0)  -->
<svg version="1.1" id="Vrstva_1" xmlns="http://www.w3.org/2000/svg" xmlns:xlink="http://www.w3.org/1999/xlink" x="0px" y="0px"
	 viewBox="0 0 32 32" style="enable-background:new 0 0 32 32;" xml:space="preserve">
<style type="text/css">
	.st0{fill-rule:evenodd;clip-rule:evenodd;}
</style>
<g>
	<path class="st0" d="M22.79,16.214C22.79,16.214,22.79,16.214,22.79,16.214c0-1.037-0.029-2.019-0.233-2.981
		c-1.13,0.927-3.752,1.419-6.256,1.419c-2.504,0-5.127-0.492-6.257-1.418c-0.204,0.962-0.233,1.944-0.233,2.981v1.048
		c0,0.483,0.006,0.953,0.033,1.416c1.092,0.556,3.381,1.071,6.456,1.071c3.108,0,5.372-0.503,6.455-1.057
		c0.027-0.467,0.034-0.943,0.034-1.431V16.214z"/>
	<path class="st0" d="M16.301,24.923c2.639,0,5.308-0.673,5.308-1.961v-0.356c0.248-0.394,0.44-0.787,0.595-1.181
		c-1.363,0.659-3.641,0.998-5.903,0.998s-4.54-0.339-5.903-0.997c0.155,0.394,0.348,0.787,0.595,1.181v0.355
		C10.993,24.249,13.662,24.923,16.301,24.923z"/>
	<path class="st0" d="M16.301,13.968c3.373,0,5.589-0.806,6.053-1.502c-0.173-0.534-0.413-1.065-0.748-1.598
		c0-0.009,0.004-0.02,0.004-0.03c0-1.287-2.669-1.96-5.308-1.96c-2.638,0-5.308,0.673-5.308,1.96c0,0.01,0.003,0.02,0.004,0.03
		c-0.335,0.534-0.574,1.064-0.748,1.598C10.712,13.162,12.928,13.968,16.301,13.968z M16.301,9.56c2.824,0,4.626,0.757,4.626,1.278
		c0,0.521-1.802,1.278-4.626,1.278c-2.823,0-4.626-0.757-4.626-1.278C11.675,10.317,13.477,9.56,16.301,9.56z"/>
	<ellipse class="st0" cx="17.325" cy="10.496" rx="1.571" ry="0.513"/>
	<path class="st0" d="M22.686,19.471c-1.502,0.635-3.952,0.961-6.385,0.961c-2.433,0-4.882-0.326-6.385-0.961
		c0.04,0.321,0.095,0.639,0.17,0.955c0.742,0.645,2.972,1.313,6.215,1.313c3.243,0,5.474-0.668,6.215-1.313
		C22.592,20.11,22.646,19.793,22.686,19.471z"/>
</g>
</svg>
