<?xml version="1.0" encoding="utf-8"?>
<!-- Generator: Adobe Illustrator 20.0.0, SVG Export Plug-In . SVG Version: 6.00 Build 0)  -->
<svg version="1.1" id="Vrstva_1" xmlns="http://www.w3.org/2000/svg" xmlns:xlink="http://www.w3.org/1999/xlink" x="0px" y="0px"
	 viewBox="0 0 32 32" style="enable-background:new 0 0 32 32;" xml:space="preserve">
<style type="text/css">
	.st0{fill-rule:evenodd;clip-rule:evenodd;}
</style>
<g>
	<path class="st0" d="M20.572,9.591h-1.261v0.002H19.24V8.888c0-0.445-0.36-0.805-0.805-0.805c-0.445,0-0.805,0.36-0.805,0.805
		v0.704h-0.897V8.817c0-0.444-0.36-0.805-0.805-0.805c-0.445,0-0.805,0.361-0.805,0.805v0.774h-1.021v0.002h-0.07V8.888
		c0-0.445-0.361-0.805-0.805-0.805c-0.445,0-0.805,0.36-0.805,0.805v0.704h-1.137V8.117h-0.7v2.041l0.004,2.122h0.547l0.004,11.951
		h3.533v-3.735c0-0.7,0.568-1.268,1.269-1.268c0.701,0,1.269,0.568,1.269,1.268v3.734h3.513V12.28h0.551V8.117h-0.7V9.591z
		 M17.429,16.926h-2.976v-2.122h2.976V16.926z"/>
</g>
</svg>
