<?xml version="1.0" encoding="utf-8"?>
<!-- Generator: Adobe Illustrator 20.0.0, SVG Export Plug-In . SVG Version: 6.00 Build 0)  -->
<svg version="1.1" id="Vrstva_1" xmlns="http://www.w3.org/2000/svg" xmlns:xlink="http://www.w3.org/1999/xlink" x="0px" y="0px"
	 viewBox="0 0 32 32" style="enable-background:new 0 0 32 32;" xml:space="preserve">
<style type="text/css">
	.st0{fill-rule:evenodd;clip-rule:evenodd;}
</style>
<g>
	<path class="st0" d="M9.721,23.855h12.813c0.881,0,1.602-0.721,1.602-1.602V12.035c0-0.881-0.721-1.602-1.602-1.602h-2.539
		l-1.465-1.602h-4.805l-1.465,1.602H9.721c-0.881,0-1.601,0.721-1.601,1.602v10.218C8.12,23.134,8.841,23.855,9.721,23.855z
		 M16.128,12.836c2.21,0,4.004,1.794,4.004,4.004s-1.794,4.613-4.004,4.613s-4.004-2.402-4.004-4.613S13.918,12.836,16.128,12.836z"
		/>
	<circle class="st0" cx="16.128" cy="16.84" r="2.563"/>
</g>
</svg>
