<?xml version="1.0" encoding="utf-8"?>
<!-- Generator: Adobe Illustrator 20.0.0, SVG Export Plug-In . SVG Version: 6.00 Build 0)  -->
<svg version="1.1" id="Vrstva_1" xmlns="http://www.w3.org/2000/svg" xmlns:xlink="http://www.w3.org/1999/xlink" x="0px" y="0px"
	 viewBox="0 0 32 32" style="enable-background:new 0 0 32 32;" xml:space="preserve">
<style type="text/css">
	.st0{fill-rule:evenodd;clip-rule:evenodd;}
</style>
<g>
	<path class="st0" d="M19.323,22.501c0.135-0.003,0.239-0.148,0.239-0.332v-0.433c0-0.183-0.149-0.332-0.331-0.332h-1.483
		l0.466-4.77c0.368-0.024,0.724-0.307,0.724-0.826v-4.134c0-0.518-1.005-0.873-1.791-1.05c0.406-0.317,0.673-0.85,0.673-1.454
		c0-0.97-0.69-1.76-1.539-1.76c-0.849,0-1.539,0.789-1.539,1.76c0,0.608,0.271,1.144,0.682,1.461
		c-0.781,0.178-1.761,0.531-1.761,1.043v4.134c0,0.52,0.356,0.802,0.724,0.826l0.466,4.77h-1.483c-0.183,0-0.331,0.149-0.331,0.332
		v0.433c0,0.185,0.105,0.329,0.239,0.332c0.013,0.009,0.04,0.053,0.04,0.123v1.083c0,0.07-0.027,0.114-0.04,0.123
		c-0.135,0.003-0.239,0.148-0.239,0.332v0.433c0,0.183,0.149,0.332,0.331,0.332h5.863c0.183,0,0.331-0.149,0.331-0.332v-0.433
		c0-0.185-0.105-0.329-0.239-0.332c-0.013-0.009-0.039-0.053-0.039-0.123v-1.083C19.284,22.554,19.31,22.51,19.323,22.501z"/>
</g>
</svg>
