<?xml version="1.0" encoding="utf-8"?>
<!-- Generator: Adobe Illustrator 20.0.0, SVG Export Plug-In . SVG Version: 6.00 Build 0)  -->
<svg version="1.1" id="Vrstva_1" xmlns="http://www.w3.org/2000/svg" xmlns:xlink="http://www.w3.org/1999/xlink" x="0px" y="0px"
	 viewBox="0 0 32 32" style="enable-background:new 0 0 32 32;" xml:space="preserve">
<style type="text/css">
	.st0{fill-rule:evenodd;clip-rule:evenodd;}
</style>
<g>
	<path class="st0" d="M9.082,23.037c-0.005,0.017-0.013,0.033-0.023,0.048c-0.212,0.324-0.167,0.757,0.107,1.031
		c0.27,0.27,0.717,0.314,1.033,0.106c0.015-0.01,0.031-0.018,0.047-0.024l0.079-0.079c0.002-0.002,0.004-0.004,0.006-0.006
		c0,0,5.475-5.489,9.496-9.523l-1.149-1.149L9.082,23.037z"/>
	<path class="st0" d="M20.357,14.485l2.301,4.525l0.81-0.601l-1.081-5.471l-3.562-3.556l-0.745-0.149
		c-0.065-0.013-0.12-0.053-0.154-0.11l-0.745-1.285l-2.706,2.705l1.514,0.403c0.053,0.014,0.099,0.046,0.13,0.091l0.51,0.736
		l2.155,1.137c0.02,0.011,0.039,0.024,0.055,0.041l1.474,1.474C20.332,14.443,20.346,14.463,20.357,14.485z"/>
</g>
</svg>
