<?xml version="1.0" encoding="utf-8"?>
<!-- Generator: Adobe Illustrator 20.0.0, SVG Export Plug-In . SVG Version: 6.00 Build 0)  -->
<svg version="1.1" id="Vrstva_1" xmlns="http://www.w3.org/2000/svg" xmlns:xlink="http://www.w3.org/1999/xlink" x="0px" y="0px"
	 viewBox="0 0 32 32" style="enable-background:new 0 0 32 32;" xml:space="preserve">
<style type="text/css">
	.st0{fill-rule:evenodd;clip-rule:evenodd;}
</style>
<g>
	<path class="st0" d="M9.51,17.933c0.067,0.126,0.197,0.205,0.34,0.205h0.81c0.301,2.052,2.072,4.146,4.065,4.838l-0.149,0.183
		c-0.106,0.13-0.115,0.315-0.023,0.455l1.188,1.799c0.071,0.108,0.192,0.173,0.321,0.173c0.13,0,0.25-0.065,0.321-0.173l1.188-1.799
		c0.093-0.14,0.083-0.325-0.023-0.455L17.4,22.975c1.994-0.692,3.764-2.786,4.065-4.838h0.81c0.143,0,0.273-0.079,0.34-0.205
		c0.067-0.126,0.058-0.278-0.022-0.396l-1.505-2.216c-0.071-0.106-0.191-0.169-0.318-0.169c-0.128,0-0.247,0.063-0.318,0.169
		l-1.505,2.216c-0.08,0.118-0.088,0.27-0.022,0.396c0.067,0.126,0.198,0.205,0.34,0.205h0.742c-0.32,1.319-1.648,2.376-3.048,2.709
		v-8.495h1.196c0.33,0,0.598-0.268,0.598-0.598c0-0.33-0.268-0.598-0.598-0.598H17.54c0.431-0.399,0.705-0.964,0.705-1.596
		c0-1.203-0.979-2.181-2.183-2.181c-1.204,0-2.183,0.978-2.183,2.181c0,0.632,0.274,1.197,0.706,1.596h-0.616
		c-0.33,0-0.598,0.268-0.598,0.598c0,0.33,0.268,0.598,0.598,0.598h1.196v8.495c-1.4-0.332-2.728-1.389-3.049-2.709h0.743
		c0.143,0,0.273-0.079,0.34-0.205c0.067-0.126,0.059-0.278-0.022-0.396l-1.505-2.216c-0.072-0.106-0.191-0.169-0.318-0.169
		c-0.127,0-0.247,0.063-0.318,0.169l-1.505,2.216C9.452,17.654,9.444,17.807,9.51,17.933z M15.076,9.56
		c0-0.543,0.442-0.986,0.986-0.986c0.544,0,0.986,0.442,0.986,0.986c0,0.544-0.442,0.986-0.986,0.986
		C15.518,10.546,15.076,10.103,15.076,9.56z"/>
</g>
</svg>
