<?xml version="1.0" encoding="utf-8"?>
<!-- Generator: Adobe Illustrator 20.0.0, SVG Export Plug-In . SVG Version: 6.00 Build 0)  -->
<svg version="1.1" id="Vrstva_1" xmlns="http://www.w3.org/2000/svg" xmlns:xlink="http://www.w3.org/1999/xlink" x="0px" y="0px"
	 viewBox="0 0 32 32" style="enable-background:new 0 0 32 32;" xml:space="preserve">
<style type="text/css">
	.st0{fill-rule:evenodd;clip-rule:evenodd;}
</style>
<g>
	<path class="st0" d="M21.583,20.491H10.83c1.299,1.211,3.158,1.875,5.376,1.875S20.284,21.702,21.583,20.491z"/>
	<path class="st0" d="M18.886,24.067c0-0.429-0.102-0.835-0.283-1.195c-0.748,0.176-1.547,0.265-2.396,0.265
		c-0.849,0-1.649-0.089-2.396-0.265c-0.181,0.36-0.283,0.765-0.283,1.195c0,0.305,0.247,0.552,0.553,0.552h4.254
		C18.639,24.619,18.886,24.372,18.886,24.067z"/>
	<path class="st0" d="M13.001,12.466c-0.087,0.087-0.137,0.208-0.137,0.331c0,0.123,0.05,0.244,0.137,0.331
		c0.088,0.087,0.208,0.137,0.332,0.137c0.124,0,0.245-0.05,0.332-0.137c0.087-0.087,0.138-0.208,0.138-0.331
		c0-0.124-0.05-0.244-0.138-0.331c-0.087-0.087-0.208-0.137-0.332-0.137C13.21,12.329,13.089,12.379,13.001,12.466z"/>
	<path class="st0" d="M18.232,9.387c0.745,0,1.351,0.606,1.351,1.35c0,0.305,0.248,0.551,0.553,0.551
		c0.305,0,0.552-0.247,0.552-0.551c0-1.353-1.102-2.453-2.456-2.453c-0.946,0-1.768,0.537-2.179,1.322
		C15.728,9.372,15.33,9.234,14.9,9.234c-1.092,0-1.981,0.887-1.981,1.978c0,0.305,0.247,0.551,0.553,0.551
		c0.305,0,0.552-0.247,0.552-0.551c0-0.482,0.393-0.875,0.876-0.875c0.483,0,0.875,0.392,0.875,0.875v2.82
		c-0.134-0.038-0.275-0.059-0.42-0.059c-0.841,0-1.525,0.683-1.525,1.523c0,0.305,0.248,0.551,0.553,0.551
		c0.305,0,0.553-0.247,0.553-0.551c0-0.232,0.188-0.42,0.42-0.42c0.232,0,0.42,0.188,0.42,0.42v1.521h1.105v-3.309
		c0-0.243,0.197-0.44,0.44-0.44c0.243,0,0.44,0.197,0.44,0.44c0,0.305,0.247,0.552,0.553,0.552c0.305,0,0.552-0.247,0.552-0.552
		c0-0.851-0.693-1.543-1.545-1.543c-0.153,0-0.301,0.023-0.44,0.064v-1.492C16.88,9.992,17.487,9.387,18.232,9.387z"/>
	<path class="st0" d="M18.361,15.059c-0.123,0-0.245,0.05-0.332,0.137c-0.087,0.087-0.137,0.208-0.137,0.332s0.05,0.244,0.137,0.331
		c0.087,0.087,0.209,0.137,0.332,0.137s0.245-0.05,0.332-0.137c0.088-0.087,0.138-0.208,0.138-0.331s-0.05-0.244-0.138-0.332
		C18.606,15.109,18.485,15.059,18.361,15.059z"/>
	<path class="st0" d="M20.515,13.267c0.124,0,0.245-0.05,0.332-0.137c0.087-0.087,0.137-0.208,0.137-0.331
		c0-0.124-0.05-0.244-0.137-0.331c-0.087-0.087-0.208-0.137-0.332-0.137c-0.123,0-0.245,0.05-0.332,0.137
		c-0.087,0.087-0.138,0.208-0.138,0.331c0,0.123,0.05,0.244,0.138,0.331C20.271,13.217,20.392,13.267,20.515,13.267z"/>
	<path class="st0" d="M22.98,17.999c-0.087-0.132-0.234-0.211-0.392-0.211H9.826c-0.158,0-0.305,0.079-0.392,0.211
		c-0.087,0.132-0.102,0.298-0.039,0.443c0.19,0.441,0.424,0.849,0.699,1.221H22.32c0.275-0.373,0.509-0.78,0.699-1.221
		C23.081,18.297,23.067,18.131,22.98,17.999z"/>
</g>
</svg>
