<?xml version="1.0" encoding="utf-8"?>
<!-- Generator: Adobe Illustrator 20.0.0, SVG Export Plug-In . SVG Version: 6.00 Build 0)  -->
<svg version="1.1" id="Vrstva_1" xmlns="http://www.w3.org/2000/svg" xmlns:xlink="http://www.w3.org/1999/xlink" x="0px" y="0px"
	 viewBox="0 0 32 32" style="enable-background:new 0 0 32 32;" xml:space="preserve">
<style type="text/css">
	.st0{fill-rule:evenodd;clip-rule:evenodd;}
</style>
<g>
	<path class="st0" d="M24.67,11.432l-1.777,0.531c-0.075,0.022-0.126,0.091-0.126,0.169v9.133c0,0,0.008,0.144-0.144,0.144
		c-0.174,0-0.288,0-0.288,0c-1.433,0-4.096,0.149-5.831,1.144l-0.344,0.197l-0.344-0.197c-1.735-0.996-4.398-1.144-5.831-1.144
		c0,0-0.293,0-0.367,0c-0.068,0-0.064-0.082-0.064-0.082v-9.194c0-0.078-0.051-0.146-0.126-0.169l-1.776-0.531
		c-0.053-0.016-0.111-0.006-0.156,0.027c-0.044,0.033-0.071,0.086-0.071,0.141V22.65c0,0.05,0.021,0.097,0.058,0.131
		c0.037,0.033,0.086,0.05,0.136,0.045c0.528-0.052,1.353-0.113,2.287-0.113c2.051,0,3.699,0.299,4.767,0.866
		c0.157,0.082,1.067,0.572,1.488,0.572c0.421,0,1.331-0.49,1.488-0.572c1.068-0.567,2.716-0.866,4.768-0.866
		c0.934,0,1.759,0.062,2.287,0.113c0.05,0.005,0.099-0.011,0.136-0.045c0.037-0.033,0.058-0.081,0.058-0.131V11.6
		c0-0.056-0.026-0.108-0.071-0.141C24.781,11.426,24.724,11.416,24.67,11.432z"/>
	<path class="st0" d="M16.761,21.542c0.029,0.02,0.063,0.03,0.098,0.03c0.023,0,0.045-0.004,0.067-0.013
		c1.265-0.521,2.98-0.817,4.958-0.855c0.096-0.002,0.173-0.08,0.173-0.176V9.944c0-0.058-0.029-0.113-0.077-0.146
		c-0.048-0.033-0.11-0.04-0.164-0.018l-5.023,1.998c-0.067,0.027-0.111,0.092-0.111,0.164l0.001,9.454
		C16.683,21.454,16.712,21.509,16.761,21.542z"/>
	<path class="st0" d="M10.436,20.703c1.979,0.038,3.693,0.334,4.958,0.855c0.021,0.009,0.044,0.013,0.067,0.013
		c0.034,0,0.069-0.01,0.098-0.03c0.049-0.033,0.078-0.088,0.078-0.146l0.001-9.454c0-0.072-0.044-0.137-0.111-0.164L10.505,9.78
		c-0.054-0.022-0.116-0.015-0.164,0.018c-0.048,0.033-0.078,0.087-0.078,0.146v10.583C10.263,20.623,10.34,20.701,10.436,20.703z"/>
</g>
</svg>
