<?xml version="1.0" encoding="utf-8"?>
<!-- Generator: Adobe Illustrator 20.0.0, SVG Export Plug-In . SVG Version: 6.00 Build 0)  -->
<svg version="1.1" id="Vrstva_1" xmlns="http://www.w3.org/2000/svg" xmlns:xlink="http://www.w3.org/1999/xlink" x="0px" y="0px"
	 viewBox="0 0 32 32" style="enable-background:new 0 0 32 32;" xml:space="preserve">
<style type="text/css">
	.st0{fill-rule:evenodd;clip-rule:evenodd;}
</style>
<g>
	<path class="st0" d="M10.267,8.813v2.023l0.005,2.103h0.593l0.005,11.844h3.83v-3.701c0-0.694,0.616-1.257,1.376-1.257
		c0.76,0,1.376,0.563,1.376,1.257v3.701h3.809V12.939h0.597V8.813h-0.759v1.461h-1.367v0.002h-0.077V9.576
		c0-0.441-0.391-0.798-0.873-0.798c-0.482,0-0.873,0.357-0.873,0.798v0.697h-0.972V9.506c0-0.44-0.391-0.798-0.873-0.798
		c-0.483,0-0.873,0.357-0.873,0.798v0.768h-1.107v0.002h-0.077V9.576c0-0.441-0.391-0.798-0.873-0.798
		c-0.482,0-0.873,0.357-0.873,0.798v0.697h-1.233V8.813H10.267z M14.465,15.44h3.227v2.103h-3.227V15.44z"/>
</g>
</svg>
