<?xml version="1.0" encoding="utf-8"?>
<!-- Generator: Adobe Illustrator 20.0.0, SVG Export Plug-In . SVG Version: 6.00 Build 0)  -->
<svg version="1.1" id="Vrstva_1" xmlns="http://www.w3.org/2000/svg" xmlns:xlink="http://www.w3.org/1999/xlink" x="0px" y="0px"
	 viewBox="0 0 32 32" style="enable-background:new 0 0 32 32;" xml:space="preserve">
<style type="text/css">
	.st0{fill-rule:evenodd;clip-rule:evenodd;}
</style>
<g>
	<path class="st0" d="M23.322,15.374c0-3.58-3.254-6.509-7.322-6.509c-4.068,0-7.322,3.254-7.322,7.322
		c0,4.068,3.254,7.322,7.322,7.322c0.651,0,1.22-0.57,1.22-1.22c0-0.325-0.081-0.569-0.325-0.814
		c-0.163-0.244-0.325-0.488-0.325-0.814c0-0.651,0.569-1.22,1.22-1.22h1.464C21.532,19.442,23.322,17.652,23.322,15.374z
		 M11.525,16.187c-0.651,0-1.221-0.569-1.221-1.22c0-0.651,0.57-1.22,1.221-1.22c0.651,0,1.22,0.569,1.22,1.22
		C12.746,15.618,12.176,16.187,11.525,16.187z M13.966,12.933c-0.651,0-1.22-0.57-1.22-1.22c0-0.651,0.57-1.22,1.22-1.22
		c0.651,0,1.221,0.569,1.221,1.22C15.186,12.364,14.617,12.933,13.966,12.933z M18.034,12.933c-0.651,0-1.22-0.57-1.22-1.22
		c0-0.651,0.569-1.22,1.22-1.22c0.651,0,1.22,0.569,1.22,1.22C19.254,12.364,18.685,12.933,18.034,12.933z M20.475,16.187
		c-0.651,0-1.221-0.569-1.221-1.22c0-0.651,0.57-1.22,1.221-1.22c0.651,0,1.22,0.569,1.22,1.22
		C21.695,15.618,21.125,16.187,20.475,16.187z"/>
</g>
</svg>
