<?xml version="1.0" encoding="utf-8"?>
<!-- Generator: Adobe Illustrator 20.0.0, SVG Export Plug-In . SVG Version: 6.00 Build 0)  -->
<svg version="1.1" id="Vrstva_1" xmlns="http://www.w3.org/2000/svg" xmlns:xlink="http://www.w3.org/1999/xlink" x="0px" y="0px"
	 viewBox="0 0 32 32" style="enable-background:new 0 0 32 32;" xml:space="preserve">
<style type="text/css">
	.st0{fill-rule:evenodd;clip-rule:evenodd;}
</style>
<g>
	<path class="st0" d="M21.336,10.332l-2.597,4.216h0.636v3.078h-1.272v-4.499h0.636l-2.597-4.216l-2.597,4.216h0.636v4.499h-1.272
		v-3.078h0.636l-2.597-4.216l-2.597,4.216h0.636l-0.001,5.587H8.39v0.908h0.595l0,3.213h6.033v-2.862h2.248v2.862h6.033l0-3.213
		h0.595v-0.908h-0.595l0-5.587h0.636L21.336,10.332z M11.634,23.193h-1.479v-2.604h1.479V23.193z M11.634,17.885h-1.479v-2.604
		h1.479V17.885z M16.881,16.682h-1.479v-2.604h1.479V16.682z M22.128,23.193h-1.48v-2.604h1.48V23.193z M22.128,17.885h-1.48v-2.604
		h1.48V17.885z"/>
</g>
</svg>
