<?xml version="1.0" encoding="utf-8"?>
<!-- Generator: Adobe Illustrator 20.0.0, SVG Export Plug-In . SVG Version: 6.00 Build 0)  -->
<svg version="1.1" id="Vrstva_1" xmlns="http://www.w3.org/2000/svg" xmlns:xlink="http://www.w3.org/1999/xlink" x="0px" y="0px"
	 viewBox="0 0 32 32" style="enable-background:new 0 0 32 32;" xml:space="preserve">
<style type="text/css">
	.st0{fill-rule:evenodd;clip-rule:evenodd;}
</style>
<g>
	<path class="st0" d="M20.902,23.653h-9.502c-0.275,0-0.498,0.223-0.498,0.498v0.928c0,0.275,0.223,0.498,0.498,0.498h9.502
		c0.275,0,0.498-0.223,0.498-0.498v-0.928C21.4,23.876,21.178,23.653,20.902,23.653z"/>
	<path class="st0" d="M19.394,10.623c0-1.789-1.455-3.245-3.242-3.245c-1.787,0-3.242,1.456-3.242,3.245
		c0,1.173,0.664,2.781,1.79,3.608v0.482c-1.097,0.289-2.752,0.959-3.519,2.05c-0.144,0.205-0.113,0.486,0.072,0.655
		c0.566,0.516,2.414,2.378,2.414,4.65c0,0.197-0.007,0.392-0.021,0.583c-0.01,0.138,0.038,0.274,0.132,0.375
		c0.094,0.101,0.226,0.159,0.365,0.159h4.018c0.139,0,0.27-0.058,0.364-0.159c0.094-0.101,0.142-0.237,0.132-0.375
		c-0.013-0.192-0.021-0.386-0.021-0.583c0-2.272,1.848-4.133,2.415-4.65c0.185-0.169,0.216-0.45,0.072-0.655
		c-0.767-1.091-2.422-1.76-3.519-2.05v-0.482C18.73,13.405,19.394,11.796,19.394,10.623z"/>
</g>
</svg>
