<?xml version="1.0" encoding="utf-8"?>
<!-- Generator: Adobe Illustrator 20.0.0, SVG Export Plug-In . SVG Version: 6.00 Build 0)  -->
<svg version="1.1" id="Vrstva_1" xmlns="http://www.w3.org/2000/svg" xmlns:xlink="http://www.w3.org/1999/xlink" x="0px" y="0px"
	 viewBox="0 0 32 32" style="enable-background:new 0 0 32 32;" xml:space="preserve">
<style type="text/css">
	.st0{fill-rule:evenodd;clip-rule:evenodd;}
</style>
<g>
	<path class="st0" d="M17.432,24.252v-2.83c0-0.223-0.181-0.404-0.404-0.404h-5.66c-0.223,0-0.404,0.181-0.404,0.404v2.83
		c0,0.223,0.181,0.404,0.404,0.404h5.66C17.251,24.656,17.432,24.475,17.432,24.252z"/>
	<path class="st0" d="M24.007,12.766h-5.66c-0.223,0-0.404,0.181-0.404,0.404V16c0,0.223,0.181,0.404,0.404,0.404h5.66
		c0.223,0,0.404-0.181,0.404-0.404v-2.83C24.411,12.948,24.23,12.766,24.007,12.766z"/>
	<path class="st0" d="M14.484,17.296v2.83c0,0.223,0.181,0.404,0.404,0.404h5.66c0.223,0,0.404-0.181,0.404-0.404v-2.83
		c0-0.223-0.181-0.404-0.404-0.404h-5.66C14.665,16.892,14.484,17.073,14.484,17.296z"/>
	<path class="st0" d="M24.007,21.018h-5.66c-0.223,0-0.404,0.181-0.404,0.404v2.83c0,0.223,0.181,0.404,0.404,0.404h5.66
		c0.223,0,0.404-0.181,0.404-0.404v-2.83C24.411,21.199,24.23,21.018,24.007,21.018z"/>
	<path class="st0" d="M10.964,13.17V16c0,0.223,0.181,0.404,0.404,0.404h5.66c0.223,0,0.404-0.181,0.404-0.404v-2.83
		c0-0.223-0.181-0.404-0.404-0.404h-5.66C11.145,12.767,10.964,12.948,10.964,13.17z"/>
	<path class="st0" d="M13.886,20.126v-2.83c0-0.223-0.181-0.404-0.404-0.404h-5.66c-0.223,0-0.404,0.181-0.404,0.404v2.83
		c0,0.223,0.181,0.404,0.404,0.404h5.66C13.705,20.53,13.886,20.349,13.886,20.126z"/>
	<path class="st0" d="M14.771,8.641c-0.223,0-0.404,0.181-0.404,0.404v2.83c0,0.223,0.181,0.404,0.404,0.404h5.66
		c0.223,0,0.404-0.181,0.404-0.404v-2.83c0-0.223-0.181-0.404-0.404-0.404H14.771z"/>
</g>
</svg>
