<?xml version="1.0" encoding="utf-8"?>
<!-- Generator: Adobe Illustrator 20.0.0, SVG Export Plug-In . SVG Version: 6.00 Build 0)  -->
<svg version="1.1" id="Vrstva_1" xmlns="http://www.w3.org/2000/svg" xmlns:xlink="http://www.w3.org/1999/xlink" x="0px" y="0px"
	 viewBox="0 0 32 32" style="enable-background:new 0 0 32 32;" xml:space="preserve">
<style type="text/css">
	.st0{fill-rule:evenodd;clip-rule:evenodd;}
</style>
<g>
	<path class="st0" d="M9.329,22.317c0,0.486,0.378,0.973,0.756,0.973c0.378,0,0.756-0.486,0.756-0.973v-0.973h10.582v0.973
		c0,0.486,0.378,0.973,0.756,0.973c0.378,0,0.756-0.486,0.756-0.973v-1.946c0-0.486-0.378-0.973-0.756-0.973H10.085
		c-0.378,0-0.756,0.486-0.756,0.973C9.329,21.335,9.329,21.484,9.329,22.317z"/>
	<ellipse class="st0" cx="10.841" cy="11.616" rx="1.512" ry="1.946"/>
	<path class="st0" d="M9.707,17.453h13.227v-2.918c0-0.973,0-2.918-3.779-2.918h-5.291c0,1.946-0.756,3.891-3.023,3.891H9.707
		c-0.191,0-0.379,0-0.378,0.486c0,0.132,0,0.599,0,0.973C9.329,17.453,9.623,17.453,9.707,17.453z"/>
</g>
</svg>
