<?xml version="1.0" encoding="utf-8"?>
<!-- Generator: Adobe Illustrator 20.0.0, SVG Export Plug-In . SVG Version: 6.00 Build 0)  -->
<svg version="1.1" id="Vrstva_1" xmlns="http://www.w3.org/2000/svg" xmlns:xlink="http://www.w3.org/1999/xlink" x="0px" y="0px"
	 viewBox="0 0 32 32" style="enable-background:new 0 0 32 32;" xml:space="preserve">
<style type="text/css">
	.st0{fill-rule:evenodd;clip-rule:evenodd;}
</style>
<g>
	<path class="st0" d="M16.298,24.282c1.365,0,2.681-0.313,3.911-0.929c2.224-1.115,3.873-3.135,4.526-5.543l0.205-0.789
		l-0.722,0.396c-0.085,0.046-0.169,0.093-0.257,0.137c-1.132,0.567-2.341,0.854-3.597,0.854c-3.069,0-5.829-1.706-7.203-4.452
		c-0.886-1.771-1.089-3.8-0.572-5.712l0.215-0.795l-0.721,0.395c-4.142,2.273-5.73,7.368-3.615,11.598
		C9.962,22.428,12.961,24.282,16.298,24.282z"/>
</g>
</svg>
