<?xml version="1.0" encoding="utf-8"?>
<!-- Generator: Adobe Illustrator 20.0.0, SVG Export Plug-In . SVG Version: 6.00 Build 0)  -->
<svg version="1.1" id="Vrstva_1" xmlns="http://www.w3.org/2000/svg" xmlns:xlink="http://www.w3.org/1999/xlink" x="0px" y="0px"
	 viewBox="0 0 32 32" style="enable-background:new 0 0 32 32;" xml:space="preserve">
<style type="text/css">
	.st0{fill-rule:evenodd;clip-rule:evenodd;}
</style>
<g>
	<path class="st0" d="M23.304,23.142H8.696c-0.282,0-0.511,0.229-0.511,0.511c0,0.282,0.229,0.511,0.511,0.511h14.607
		c0.282,0,0.511-0.229,0.511-0.511C23.814,23.371,23.586,23.142,23.304,23.142z"/>
	<path class="st0" d="M19.558,16.564v5.381h2.186v-5.756c-0.001,0-0.002,0-0.002,0v0C21.043,16.346,20.303,16.47,19.558,16.564z"/>
	<path class="st0" d="M22.919,14.789c0.324,0,0.587-0.263,0.587-0.587c0-0.325-0.263-0.588-0.587-0.588h-0.574l-1.877-3.101V9.659
		c0-0.325-0.263-0.587-0.587-0.587c-0.324,0-0.587,0.263-0.587,0.587v0.478h-6.586V9.659c0-0.325-0.263-0.587-0.588-0.587
		c-0.325,0-0.587,0.263-0.587,0.587v0.853l-1.877,3.101H9.082c-0.325,0-0.587,0.263-0.587,0.588
		c-0.001,0.324,0.262,0.587,0.587,0.587h0.005c1.002,0.302,2.365,0.574,4.038,0.727c0.878,0.08,1.833,0.13,2.874,0.13H16
		c0.001,0,0.001,0,0.001,0c1.038,0,1.99-0.05,2.865-0.129c1.677-0.153,3.044-0.425,4.048-0.727H22.919z"/>
	<path class="st0" d="M10.255,16.189v5.756h2.186v-5.381c-0.745-0.094-1.484-0.217-2.184-0.375v0
		C10.257,16.189,10.256,16.189,10.255,16.189z"/>
	<path class="st0" d="M16,16.821c-0.853,0-1.834-0.036-2.848-0.121H13.15v5.245h5.699l0-5.245c0,0-0.001,0-0.001,0
		C17.834,16.785,16.853,16.821,16,16.821z"/>
</g>
</svg>
