<?xml version="1.0" encoding="utf-8"?>
<!-- Generator: Adobe Illustrator 20.0.0, SVG Export Plug-In . SVG Version: 6.00 Build 0)  -->
<svg version="1.1" id="Vrstva_1" xmlns="http://www.w3.org/2000/svg" xmlns:xlink="http://www.w3.org/1999/xlink" x="0px" y="0px"
	 viewBox="0 0 32 32" style="enable-background:new 0 0 32 32;" xml:space="preserve">
<style type="text/css">
	.st0{fill-rule:evenodd;clip-rule:evenodd;}
</style>
<path class="st0" d="M7.375,9.05v15.644h0.715v-1.487h11.077v1.487h0.715v-1.487h4.03v1.487h0.715V10.469h-0.715v1.378
	c-0.261-0.178-0.575-0.282-0.914-0.282h-3.116v-1.096h-0.715v1.096h-5.841v-0.212c0-0.838-0.681-1.519-1.519-1.519H9.899
	c-0.837,0-1.519,0.681-1.519,1.519v0.336c-0.103,0.043-0.201,0.095-0.292,0.157V9.05H7.375z M19.881,12.28h3.116
	c0.504,0,0.914,0.41,0.914,0.915v0.202h-4.03V12.28z M19.881,15.234h4.03v0.478h-4.03V15.234z M19.881,16.427h4.03v1.669h-4.03
	V16.427z M19.881,18.811h4.03v1.008c-0.261-0.178-0.575-0.282-0.914-0.282h-3.116V18.811z M19.881,20.252h3.116
	c0.23,0,0.441,0.086,0.602,0.228h-3.718V20.252z M19.881,21.195h4.03v0.173h-4.03V21.195z M19.166,21.369H8.089v-0.202
	c0-0.504,0.41-0.914,0.914-0.914h10.163V21.369z M19.166,19.538h-5.841v-0.212c0-0.838-0.681-1.519-1.519-1.519H9.899
	c-0.837,0-1.519,0.682-1.519,1.519v0.336c-0.103,0.043-0.2,0.095-0.292,0.157v-4.585h11.077V19.538z M9.003,12.28h10.163v1.116
	H8.089v-0.202C8.089,12.691,8.499,12.28,9.003,12.28z"/>
</svg>
