<?xml version="1.0" encoding="utf-8"?>
<!-- Generator: Adobe Illustrator 20.0.0, SVG Export Plug-In . SVG Version: 6.00 Build 0)  -->
<svg version="1.1" id="Vrstva_1" xmlns="http://www.w3.org/2000/svg" xmlns:xlink="http://www.w3.org/1999/xlink" x="0px" y="0px"
	 viewBox="0 0 32 32" style="enable-background:new 0 0 32 32;" xml:space="preserve">
<style type="text/css">
	.st0{fill-rule:evenodd;clip-rule:evenodd;}
</style>
<g>
	<path class="st0" d="M11.523,21.969c0.169,0,0.338-0.028,0.497-0.086c2.505-0.908,3.466-3.718,3.808-5.205
		c0.042-0.182,0.298-0.182,0.34,0c0.34,1.486,1.303,4.296,3.808,5.205c0.159,0.058,0.328,0.086,0.497,0.086h3.111l-6.841-10.432
		l1.383-2.109c0.185-0.283,0.107-0.662-0.176-0.847c-0.283-0.185-0.661-0.107-0.846,0.176l-1.092,1.667l-0.014-0.023l-0.017,0.026
		l-1.096-1.671c-0.185-0.283-0.563-0.361-0.846-0.176c-0.283,0.185-0.361,0.564-0.176,0.847l1.387,2.114L8.412,21.969H11.523z"/>
	<path class="st0" d="M23.934,22.528H8.065c-0.253,0-0.457,0.196-0.457,0.436v0.349c0,0.241,0.204,0.436,0.457,0.436h15.869
		c0.253,0,0.457-0.196,0.457-0.436v-0.349C24.391,22.723,24.187,22.528,23.934,22.528z"/>
</g>
</svg>
