<?xml version="1.0" encoding="utf-8"?>
<!-- Generator: Adobe Illustrator 20.0.0, SVG Export Plug-In . SVG Version: 6.00 Build 0)  -->
<svg version="1.1" id="Vrstva_1" xmlns="http://www.w3.org/2000/svg" xmlns:xlink="http://www.w3.org/1999/xlink" x="0px" y="0px"
	 viewBox="0 0 32 32" style="enable-background:new 0 0 32 32;" xml:space="preserve">
<style type="text/css">
	.st0{fill-rule:evenodd;clip-rule:evenodd;}
</style>
<g>
	<path class="st0" d="M18.806,8.213l-0.38,0.38c-0.107,0.107-0.109,0.279-0.002,0.385c0.106,0.106,0.277,0.107,0.385-0.002
		l0.38-0.38c0.107-0.107,0.109-0.279,0.002-0.385C19.085,8.105,18.915,8.104,18.806,8.213z"/>
	<path class="st0" d="M15.356,8.212c-0.107-0.107-0.279-0.109-0.385-0.002c-0.106,0.106-0.107,0.277,0.002,0.385l0.38,0.38
		c0.107,0.107,0.278,0.108,0.385,0.001c0.106-0.106,0.107-0.277-0.002-0.386L15.356,8.212z"/>
	<path class="st0" d="M14.097,10.321c0,0.15,0.12,0.271,0.273,0.271h0.537c0.151,0,0.274-0.12,0.274-0.271
		c0-0.15-0.121-0.271-0.274-0.271H14.37C14.219,10.05,14.097,10.17,14.097,10.321z"/>
	<path class="st0" d="M20.065,10.321c0-0.15-0.12-0.271-0.274-0.271h-0.537c-0.151,0-0.274,0.12-0.274,0.271
		c0,0.15,0.121,0.271,0.274,0.271h0.537C19.943,10.592,20.065,10.472,20.065,10.321z"/>
	<path class="st0" d="M15.352,11.666l-0.38,0.38c-0.107,0.107-0.108,0.279-0.002,0.385c0.106,0.106,0.277,0.106,0.385-0.002
		l0.38-0.38c0.107-0.107,0.109-0.279,0.002-0.385C15.632,11.558,15.461,11.557,15.352,11.666z"/>
	<path class="st0" d="M17.352,8.147V7.61c0-0.151-0.12-0.274-0.271-0.274c-0.15,0-0.271,0.12-0.271,0.274v0.537
		c0,0.151,0.121,0.274,0.271,0.274C17.231,8.421,17.352,8.301,17.352,8.147z"/>
	<path class="st0" d="M16.81,12.495v0.537c0,0.151,0.121,0.274,0.271,0.274c0.15,0,0.271-0.12,0.271-0.274v-0.537
		c0-0.151-0.12-0.274-0.271-0.274C16.931,12.22,16.81,12.341,16.81,12.495z"/>
	<path class="st0" d="M18.809,11.666c-0.107-0.107-0.278-0.109-0.385-0.002c-0.106,0.106-0.107,0.277,0.002,0.385l0.38,0.38
		c0.107,0.107,0.278,0.109,0.385,0.002c0.106-0.106,0.106-0.277-0.002-0.385L18.809,11.666z"/>
	<circle class="st0" cx="17.081" cy="10.32" r="1.627"/>
	<path class="st0" d="M9.307,24.09c0.871,0,1.354-0.387,1.674-0.643c0.234-0.188,0.313-0.251,0.557-0.251
		c0.244,0,0.323,0.063,0.557,0.251c0.32,0.256,0.802,0.643,1.674,0.643c0.871,0,1.354-0.387,1.674-0.643
		c0.234-0.188,0.313-0.251,0.557-0.251c0.244,0,0.323,0.063,0.557,0.251c0.32,0.256,0.803,0.643,1.674,0.643
		c0.871,0,1.354-0.387,1.674-0.643c0.234-0.188,0.313-0.251,0.557-0.251s0.323,0.063,0.558,0.251
		c0.319,0.256,0.802,0.643,1.674,0.643c0.871,0,1.354-0.387,1.674-0.643c0.234-0.188,0.313-0.251,0.557-0.251V21.41
		c-0.871,0-1.354,0.387-1.674,0.643c-0.234,0.187-0.313,0.251-0.557,0.251c-0.244,0-0.323-0.063-0.558-0.251
		c-0.319-0.256-0.802-0.643-1.674-0.643c-0.871,0-1.354,0.387-1.674,0.643c-0.234,0.187-0.313,0.251-0.557,0.251
		c-0.244,0-0.323-0.063-0.557-0.251c-0.32-0.256-0.803-0.643-1.674-0.643c-0.871,0-1.354,0.387-1.674,0.643
		c-0.234,0.187-0.313,0.251-0.557,0.251c-0.244,0-0.323-0.063-0.557-0.251c-0.319-0.256-0.802-0.643-1.674-0.643
		c-0.871,0-1.354,0.387-1.674,0.643c-0.234,0.187-0.313,0.251-0.557,0.251c-0.244,0-0.323-0.063-0.557-0.251
		C8.43,21.797,7.947,21.41,7.076,21.41v1.787c0.244,0,0.323,0.063,0.557,0.251C7.953,23.703,8.436,24.09,9.307,24.09z"/>
	<path class="st0" d="M11.583,20.705c0.871,0,1.354,0.387,1.674,0.642c0.234,0.188,0.313,0.251,0.557,0.251
		c0.244,0,0.323-0.063,0.557-0.251c0.319-0.256,0.802-0.642,1.674-0.642c0.871,0,1.354,0.387,1.674,0.642
		c0.234,0.188,0.313,0.251,0.557,0.251s0.323-0.063,0.557-0.251c0.106-0.085,0.232-0.185,0.383-0.28l-2.542-4.296l-3.473-2.593
		l-3.967,1.126l-0.499,2.29l4.126-0.811l1.834,1.369l-3.635,2.605C11.217,20.725,11.39,20.705,11.583,20.705z"/>
	<circle class="st0" cx="20.948" cy="17.61" r="2.903"/>
</g>
</svg>
