<?xml version="1.0" encoding="utf-8"?>
<!-- Generator: Adobe Illustrator 20.0.0, SVG Export Plug-In . SVG Version: 6.00 Build 0)  -->
<svg version="1.1" id="Vrstva_1" xmlns="http://www.w3.org/2000/svg" xmlns:xlink="http://www.w3.org/1999/xlink" x="0px" y="0px"
	 viewBox="0 0 32 32" style="enable-background:new 0 0 32 32;" xml:space="preserve">
<style type="text/css">
	.st0{fill-rule:evenodd;clip-rule:evenodd;}
</style>
<g>
	<rect x="23.338" y="14.374" class="st0" width="2.34" height="4.598"/>
	<path class="st0" d="M25.678,10.031h-9.04v3.616c1.398,0.295,2.452,1.54,2.452,3.026c0,1.486-1.053,2.731-2.452,3.026v3.616h9.04
		V20.25h-3.616v-7.153h3.616V10.031z"/>
	<path class="st0" d="M14.186,16.673c0,0.776,0.489,1.44,1.176,1.699v-3.398C14.676,15.233,14.186,15.897,14.186,16.673z"/>
	<path class="st0" d="M15.362,19.699c-1.399-0.295-2.452-1.54-2.452-3.026c0-1.487,1.053-2.731,2.452-3.026v-3.616h-9.04v3.065
		h3.616v7.153H6.322v3.065h9.04V19.699z"/>
	<path class="st0" d="M16.638,14.974v3.398c0.686-0.259,1.176-0.923,1.176-1.699C17.814,15.897,17.324,15.233,16.638,14.974z"/>
	<rect x="6.322" y="14.374" class="st0" width="2.34" height="4.598"/>
</g>
</svg>
