<?xml version="1.0" encoding="utf-8"?>
<!-- Generator: Adobe Illustrator 20.0.0, SVG Export Plug-In . SVG Version: 6.00 Build 0)  -->
<svg version="1.1" id="Vrstva_1" xmlns="http://www.w3.org/2000/svg" xmlns:xlink="http://www.w3.org/1999/xlink" x="0px" y="0px"
	 viewBox="0 0 32 32" style="enable-background:new 0 0 32 32;" xml:space="preserve">
<style type="text/css">
	.st0{fill-rule:evenodd;clip-rule:evenodd;}
</style>
<g>
	<path class="st0" d="M24.487,11.507L17.02,8.043c-0.226-0.105-0.523-0.158-0.817-0.157c-0.297,0-0.591,0.051-0.818,0.157
		L7.92,11.507c-0.45,0.208-0.45,0.547,0,0.755c0.45,0.208,1.178,0.208,1.628,0l6.655-3.088l6.657,3.088
		c0.449,0.208,1.178,0.208,1.628,0C24.936,12.054,24.936,11.715,24.487,11.507z"/>
	<path class="st0" d="M23.89,24.309v-1.647c-0.803,0-1.248,0.356-1.543,0.592c-0.216,0.173-0.288,0.231-0.513,0.231
		c-0.225,0-0.298-0.058-0.514-0.231c-0.295-0.236-0.74-0.592-1.542-0.592c-0.803,0-1.248,0.356-1.542,0.592
		c-0.216,0.173-0.288,0.231-0.513,0.231c-0.225,0-0.298-0.058-0.514-0.231c-0.294-0.236-0.74-0.592-1.542-0.592
		c-0.803,0-1.248,0.356-1.542,0.592c-0.216,0.173-0.288,0.231-0.513,0.231c-0.225,0-0.298-0.058-0.513-0.231
		c-0.294-0.236-0.74-0.592-1.542-0.592c-0.803,0-1.248,0.356-1.542,0.592c-0.216,0.173-0.288,0.231-0.514,0.231
		c-0.225,0-0.298-0.058-0.513-0.231c-0.294-0.236-0.739-0.592-1.542-0.592v1.647c0.225,0,0.298,0.058,0.514,0.231
		c0.294,0.236,0.74,0.592,1.542,0.592c0.803,0,1.248-0.356,1.542-0.592c0.216-0.173,0.288-0.231,0.513-0.231
		c0.225,0,0.298,0.058,0.513,0.231c0.294,0.236,0.74,0.592,1.542,0.592c0.803,0,1.248-0.356,1.542-0.592
		c0.216-0.173,0.288-0.231,0.513-0.231c0.225,0,0.298,0.058,0.513,0.231c0.295,0.236,0.74,0.592,1.542,0.592
		c0.803,0,1.248-0.356,1.542-0.592c0.216-0.173,0.288-0.231,0.513-0.231s0.298,0.058,0.514,0.231
		c0.295,0.236,0.74,0.592,1.543,0.592c0.803,0,1.248-0.356,1.542-0.592C23.592,24.368,23.664,24.309,23.89,24.309z"/>
	<circle class="st0" cx="20.225" cy="19.161" r="2.676"/>
	<path class="st0" d="M13.087,15.999l-3.656,1.037l-0.46,2.11l3.802-0.747l1.69,1.262l-3.35,2.4c0.145-0.03,0.305-0.048,0.482-0.048
		c0.803,0,1.248,0.356,1.542,0.592c0.216,0.173,0.288,0.231,0.513,0.231s0.298-0.058,0.513-0.231
		c0.294-0.236,0.74-0.592,1.542-0.592c0.803,0,1.248,0.356,1.542,0.592c0.216,0.173,0.289,0.231,0.513,0.231
		c0.225,0,0.298-0.058,0.514-0.231c0.098-0.078,0.213-0.17,0.353-0.258l-2.342-3.959L13.087,15.999z"/>
</g>
</svg>
