<?xml version="1.0" encoding="utf-8"?>
<!-- Generator: Adobe Illustrator 20.0.0, SVG Export Plug-In . SVG Version: 6.00 Build 0)  -->
<svg version="1.1" id="Vrstva_1" xmlns="http://www.w3.org/2000/svg" xmlns:xlink="http://www.w3.org/1999/xlink" x="0px" y="0px"
	 viewBox="0 0 32 32" style="enable-background:new 0 0 32 32;" xml:space="preserve">
<style type="text/css">
	.st0{fill-rule:evenodd;clip-rule:evenodd;}
</style>
<g>
	<path class="st0" d="M22.444,14.164c-0.158,0-0.313,0.011-0.466,0.029l-0.961-3.294c0.094-0.11,0.151-0.252,0.151-0.407
		c0-0.346-0.28-0.626-0.625-0.626h-2.579c-0.345,0-0.625,0.281-0.625,0.626c0,0.346,0.28,0.626,0.625,0.626h1.634l-0.664,1.059
		c-0.029-0.004-0.06-0.006-0.09-0.005l-5.584,0.081c0.138-0.115,0.227-0.288,0.227-0.482c0-0.346-0.28-0.626-0.625-0.626h-1.506
		c-0.345,0-0.625,0.28-0.625,0.626c0,0.346,0.28,0.626,0.625,0.626h0.112c0.015,0.056,0.038,0.111,0.069,0.163l0.251,0.414
		l-0.693,1.37c-0.367-0.116-0.757-0.18-1.162-0.18c-2.125,0-3.854,1.732-3.854,3.861c0,2.129,1.729,3.861,3.854,3.861
		c1.835,0,3.374-1.292,3.76-3.015l2.062,0.119c0.012,0.001,0.024,0.001,0.036,0.001c0.214,0,0.414-0.11,0.529-0.293l3.87-6.169
		l0.588,2.016c-1.293,0.624-2.188,1.949-2.188,3.48c0,2.129,1.729,3.861,3.854,3.861s3.854-1.732,3.854-3.861
		C26.298,15.896,24.569,14.164,22.444,14.164z M9.931,20.632c-1.436,0-2.604-1.17-2.604-2.608c0-1.438,1.168-2.608,2.604-2.608
		c0.201,0,0.396,0.024,0.585,0.067l-1.142,2.258c-0.095,0.188-0.089,0.412,0.016,0.595c0.105,0.183,0.295,0.301,0.506,0.313
		l2.523,0.146C12.089,19.858,11.099,20.632,9.931,20.632z M10.921,17.454l0.71-1.403c0.438,0.379,0.749,0.902,0.859,1.494
		L10.921,17.454z M13.764,17.619c-0.116-1.109-0.703-2.08-1.557-2.707l0.343-0.678l2.084,3.436L13.764,17.619z M15.798,17.174
		l-2.228-3.673l4.574-0.066L15.798,17.174z M22.444,20.632c-1.436,0-2.604-1.17-2.604-2.608c0-0.96,0.521-1.8,1.295-2.253
		l0.708,2.429c0.097,0.332,0.444,0.523,0.775,0.426c0.332-0.097,0.522-0.445,0.425-0.777l-0.709-2.429
		c0.036-0.001,0.072-0.003,0.109-0.003c1.436,0,2.604,1.17,2.604,2.608S23.879,20.632,22.444,20.632z"/>
</g>
</svg>
