<?xml version="1.0" encoding="utf-8"?>
<!-- Generator: Adobe Illustrator 20.0.0, SVG Export Plug-In . SVG Version: 6.00 Build 0)  -->
<svg version="1.1" id="Vrstva_1" xmlns="http://www.w3.org/2000/svg" xmlns:xlink="http://www.w3.org/1999/xlink" x="0px" y="0px"
	 viewBox="0 0 32 32" style="enable-background:new 0 0 32 32;" xml:space="preserve">
<style type="text/css">
	.st0{fill-rule:evenodd;clip-rule:evenodd;}
</style>
<g>
	<path class="st0" d="M21.153,24.51v0.347c1.458-0.139,2.569-1.319,2.708-2.708h-0.347C22.264,22.08,21.153,23.191,21.153,24.51z"/>
	<path class="st0" d="M21.153,18.679v0.347c0,1.736-1.388,3.124-3.124,3.124h-0.347c0.139,1.458,1.319,2.638,2.777,2.777V24.58
		c0-1.736,1.388-3.124,3.124-3.124h0.347C23.792,19.998,22.611,18.818,21.153,18.679z"/>
	<path class="st0" d="M7.963,24.58c0.417,0.417,1.042,0.417,1.458,0c0.278-0.278,0.347-0.694,0.278-1.111l-1.597-1.597
		c-0.347-0.139-0.764-0.07-1.111,0.278c-0.417,0.417-0.417,1.041,0,1.458L7.963,24.58z"/>
	<path class="st0" d="M24.278,7.501l-0.208-0.208c-0.903-0.902-2.291-0.833-3.124,0.07l-6.804,7.706l2.36,2.36l7.706-6.803
		C25.18,9.792,25.18,8.404,24.278,7.501z"/>
	<polygon class="st0" points="8.588,21.456 10.185,22.983 16.016,17.915 13.725,15.624 	"/>
	<path class="st0" d="M20.459,18.956v-0.347c-1.458,0.139-2.569,1.319-2.708,2.708h0.347C19.349,21.386,20.459,20.345,20.459,18.956
		z"/>
</g>
</svg>
