<?xml version="1.0" encoding="utf-8"?>
<!-- Generator: Adobe Illustrator 20.0.0, SVG Export Plug-In . SVG Version: 6.00 Build 0)  -->
<svg version="1.1" id="Vrstva_1" xmlns="http://www.w3.org/2000/svg" xmlns:xlink="http://www.w3.org/1999/xlink" x="0px" y="0px"
	 viewBox="0 0 32 32" style="enable-background:new 0 0 32 32;" xml:space="preserve">
<style type="text/css">
	.st0{fill-rule:evenodd;clip-rule:evenodd;}
</style>
<g>
	<path class="st0" d="M10.705,21.294c0.26-0.208,0.348-0.279,0.619-0.279c0.271,0,0.359,0.07,0.619,0.279
		c0.355,0.284,0.891,0.714,1.86,0.714c0.968,0,1.504-0.43,1.86-0.714c0.26-0.208,0.348-0.279,0.619-0.279
		c0.271,0,0.359,0.07,0.619,0.279c0.355,0.284,0.892,0.714,1.86,0.714c0.968,0,1.505-0.43,1.86-0.714
		c0.26-0.208,0.348-0.279,0.619-0.279s0.359,0.07,0.619,0.279c0.355,0.284,0.891,0.714,1.86,0.714c0.968,0,1.504-0.43,1.86-0.714
		c0.26-0.208,0.348-0.279,0.619-0.279V19.03c-0.968,0-1.505,0.43-1.86,0.714c-0.26,0.208-0.348,0.279-0.619,0.279
		c-0.272,0-0.359-0.07-0.62-0.279c-0.355-0.284-0.891-0.714-1.859-0.714c-0.968,0-1.504,0.43-1.86,0.714
		c-0.26,0.208-0.348,0.279-0.619,0.279c-0.271,0-0.359-0.07-0.619-0.279c-0.355-0.284-0.892-0.714-1.86-0.714
		c-0.968,0-1.504,0.43-1.859,0.714c-0.26,0.208-0.348,0.279-0.619,0.279c-0.271,0-0.359-0.07-0.619-0.279
		c-0.355-0.284-0.891-0.714-1.859-0.714s-1.504,0.43-1.86,0.714c-0.26,0.208-0.348,0.279-0.619,0.279
		c-0.271,0-0.359-0.07-0.619-0.279c-0.355-0.284-0.891-0.714-1.86-0.714v1.985c0.271,0,0.359,0.07,0.619,0.279
		c0.355,0.284,0.892,0.714,1.859,0.714C9.813,22.008,10.35,21.578,10.705,21.294z"/>
	<path class="st0" d="M11.374,18.247c0.968,0,1.505,0.43,1.86,0.714c0.26,0.208,0.348,0.279,0.619,0.279
		c0.271,0,0.359-0.07,0.619-0.279c0.355-0.284,0.891-0.714,1.859-0.714c0.968,0,1.504,0.43,1.86,0.714
		c0.26,0.208,0.348,0.279,0.619,0.279s0.359-0.07,0.619-0.279c0.118-0.095,0.258-0.205,0.425-0.311l-2.824-4.773l-3.858-2.881
		l-4.408,1.251L8.21,14.791l4.584-0.901l2.037,1.521l-4.038,2.894C10.968,18.269,11.16,18.247,11.374,18.247z"/>
	<circle class="st0" cx="21.779" cy="14.809" r="3.226"/>
</g>
</svg>
