<?xml version="1.0" encoding="utf-8"?>
<!-- Generator: Adobe Illustrator 20.0.0, SVG Export Plug-In . SVG Version: 6.00 Build 0)  -->
<svg version="1.1" id="Vrstva_1" xmlns="http://www.w3.org/2000/svg" xmlns:xlink="http://www.w3.org/1999/xlink" x="0px" y="0px"
	 viewBox="0 0 32 32" style="enable-background:new 0 0 32 32;" xml:space="preserve">
<style type="text/css">
	.st0{fill-rule:evenodd;clip-rule:evenodd;}
</style>
<g>
	<polygon class="st0" points="13.446,22.598 14.069,22.598 14.069,14.872 22.17,11.382 13.446,7.643 	"/>
	<path class="st0" d="M9.084,22.287c0,1.558,3.178,2.804,7.166,2.804c3.988,0,7.166-1.246,7.166-2.804
		c0-1.558-3.178-2.804-7.166-2.804c-0.561,0-1.059,0-1.558,0.062v1.994c0.374,0.187,0.623,0.436,0.623,0.748
		c0,0.498-0.686,0.935-1.558,0.935c-0.872,0-1.558-0.437-1.558-0.935c0-0.312,0.249-0.561,0.623-0.748v-1.745
		C10.579,20.293,9.084,21.165,9.084,22.287z M18.742,21.352c0.498,0,0.935,0.25,0.935,0.623c0,0.374-0.436,0.623-0.935,0.623
		c-0.498,0-0.935-0.249-0.935-0.623C17.808,21.601,18.244,21.352,18.742,21.352z"/>
</g>
</svg>
