<?xml version="1.0" encoding="utf-8"?>
<!-- Generator: Adobe Illustrator 20.0.0, SVG Export Plug-In . SVG Version: 6.00 Build 0)  -->
<svg version="1.1" id="Vrstva_1" xmlns="http://www.w3.org/2000/svg" xmlns:xlink="http://www.w3.org/1999/xlink" x="0px" y="0px"
	 viewBox="0 0 32 32" style="enable-background:new 0 0 32 32;" xml:space="preserve">
<style type="text/css">
	.st0{fill-rule:evenodd;clip-rule:evenodd;}
</style>
<g>
	<path class="st0" d="M16.237,24.125c4.806,0,8.701-1.287,8.701-2.873v-7.469c0-0.762-0.899-1.455-2.366-1.969v-1.242l0.808-0.331
		c0.186-0.076,0.186-0.339,0-0.415l-1.402-0.574c-0.148-0.059-0.309,0.049-0.309,0.208v2.078c-0.617-0.162-1.301-0.3-2.039-0.403
		V9.956l0.808-0.33c0.186-0.076,0.186-0.339,0-0.415l-1.402-0.574c-0.148-0.06-0.309,0.049-0.309,0.208v2.182
		c-0.651-0.065-1.333-0.103-2.039-0.115V9.528l0.808-0.33c0.186-0.076,0.186-0.339,0-0.415l-1.402-0.574
		c-0.148-0.06-0.309,0.049-0.309,0.208v2.498c-0.711,0.013-1.4,0.052-2.057,0.117V9.958l0.809-0.33c0.186-0.076,0.186-0.339,0-0.415
		l-1.402-0.574c-0.148-0.06-0.309,0.049-0.309,0.207v2.292c-0.738,0.105-1.422,0.24-2.039,0.404v-0.971l0.808-0.331
		c0.186-0.076,0.186-0.339,0-0.415l-1.402-0.574C10.045,9.192,9.884,9.301,9.884,9.46v2.359c-1.456,0.514-2.348,1.204-2.348,1.964
		v7.469C7.536,22.838,11.431,24.125,16.237,24.125z M12.97,21.495c-0.467-0.062-0.922-0.135-1.355-0.224
		c-0.036-0.004-0.072-0.013-0.108-0.02c-0.128-0.027-0.254-0.054-0.377-0.083V20.24c0.213,0.052,0.435,0.103,0.664,0.148
		c0.377,0.076,0.771,0.143,1.177,0.197V21.495z M12.97,18.623c-0.045-0.006-0.089-0.013-0.134-0.018
		c-0.42-0.056-0.83-0.124-1.222-0.204c-0.166-0.034-0.329-0.069-0.485-0.105v-0.928c0.213,0.052,0.435,0.103,0.664,0.148
		c0.377,0.076,0.771,0.143,1.177,0.197V18.623z M15.786,21.699c-0.65-0.011-1.29-0.045-1.913-0.103V20.69
		c0.621,0.06,1.261,0.094,1.913,0.106V21.699z M15.786,18.827c-0.65-0.011-1.29-0.045-1.913-0.103v-0.906
		c0.621,0.059,1.261,0.094,1.913,0.106V18.827z M18.583,21.598c-0.617,0.056-1.252,0.09-1.895,0.101v-0.902
		c0.65-0.011,1.285-0.047,1.895-0.105V21.598z M18.583,18.726c-0.617,0.056-1.252,0.09-1.895,0.101v-0.903
		c0.65-0.011,1.285-0.047,1.895-0.105V18.726z M21.326,21.173c-0.118,0.027-0.238,0.054-0.359,0.08
		c-0.061,0.011-0.121,0.023-0.182,0.036c-0.417,0.083-0.852,0.153-1.299,0.211v-0.91c0.657-0.089,1.274-0.204,1.841-0.343V21.173z
		 M21.326,18.3c-0.177,0.041-0.358,0.079-0.542,0.115c-0.37,0.072-0.753,0.137-1.148,0.191c-0.051,0.007-0.101,0.014-0.151,0.02
		v-0.91c0.657-0.088,1.274-0.204,1.841-0.343V18.3z M23.705,20.363c-0.422,0.211-0.919,0.402-1.476,0.57v-0.944
		c0.392-0.128,0.745-0.271,1.054-0.424c0.112-0.056,0.218-0.114,0.319-0.171c0.032-0.02,0.069-0.034,0.103-0.045V20.363z
		 M23.703,16.475v1.015c-0.422,0.211-0.919,0.402-1.476,0.57v-0.944h0.002c0.532-0.175,0.996-0.375,1.372-0.596
		C23.633,16.501,23.669,16.486,23.703,16.475z M9.397,13.504c0.404-0.226,0.96-0.44,1.608-0.621
		c1.448-0.403,3.306-0.623,5.232-0.623c1.926,0,3.785,0.222,5.232,0.623c0.648,0.18,1.204,0.393,1.608,0.621
		c0.199,0.11,0.327,0.206,0.408,0.276c-0.083,0.072-0.211,0.166-0.408,0.276c-0.404,0.226-0.96,0.44-1.608,0.621
		c-1.448,0.402-3.306,0.623-5.232,0.623c-1.925,0-3.784-0.22-5.232-0.623c-0.648-0.18-1.204-0.393-1.608-0.621
		c-0.199-0.11-0.327-0.206-0.408-0.276C9.07,13.71,9.198,13.616,9.397,13.504z M8.689,16.427c0.038,0.011,0.076,0.027,0.112,0.049
		c0.377,0.233,0.859,0.446,1.428,0.632v0.948h-0.002c-0.587-0.177-1.105-0.381-1.538-0.606V16.427z M8.689,19.3
		c0.038,0.011,0.076,0.027,0.112,0.049c0.119,0.074,0.251,0.146,0.391,0.215c0.301,0.15,0.648,0.289,1.036,0.417v0.947h-0.002
		c-0.587-0.177-1.105-0.381-1.538-0.607V19.3z"/>
</g>
</svg>
