<?xml version="1.0" encoding="utf-8"?>
<!-- Generator: Adobe Illustrator 20.0.0, SVG Export Plug-In . SVG Version: 6.00 Build 0)  -->
<svg version="1.1" id="Vrstva_1" xmlns="http://www.w3.org/2000/svg" xmlns:xlink="http://www.w3.org/1999/xlink" x="0px" y="0px"
	 viewBox="0 0 32 32" style="enable-background:new 0 0 32 32;" xml:space="preserve">
<style type="text/css">
	.st0{fill-rule:evenodd;clip-rule:evenodd;}
</style>
<g>
	<path class="st0" d="M24.843,12.4l-4.776-5.107c-0.171-0.196-0.343-0.208-0.514-0.037l-0.808,0.771
		c-0.196,0.171-0.208,0.355-0.037,0.551l4.776,5.107c0.171,0.196,0.343,0.208,0.515,0.037l0.808-0.772
		C25.003,12.78,25.015,12.596,24.843,12.4z"/>
	<path class="st0" d="M12.572,17.875l1.213,1.323c0.172,0.171,0.355,0.171,0.551,0l5.144-4.813c0.172-0.171,0.172-0.343,0-0.514
		l-1.213-1.323c-0.171-0.196-0.355-0.208-0.551-0.037l-5.144,4.813C12.401,17.495,12.401,17.678,12.572,17.875z"/>
	<path class="st0" d="M9.89,16.735l-0.845,0.772c-0.172,0.171-0.172,0.343,0,0.514l4.74,5.143c0.172,0.171,0.355,0.171,0.551,0
		l0.808-0.772c0.196-0.171,0.208-0.343,0.037-0.514l-4.776-5.144C10.233,16.564,10.062,16.564,9.89,16.735z"/>
	<path class="st0" d="M22.235,15.34l0.845-0.772c0.172-0.171,0.172-0.343,0-0.514L18.34,8.91c-0.171-0.171-0.355-0.171-0.551,0
		l-0.808,0.772c-0.172,0.172-0.172,0.343,0,0.514l4.739,5.144C21.892,15.511,22.063,15.511,22.235,15.34z"/>
	<path class="st0" d="M8.127,18.352l-0.808,0.772c-0.196,0.171-0.208,0.355-0.037,0.551l4.776,5.107
		c0.171,0.196,0.343,0.208,0.514,0.037l0.808-0.772c0.196-0.171,0.208-0.343,0.037-0.514l-4.776-5.144
		C8.469,18.193,8.298,18.181,8.127,18.352z"/>
</g>
</svg>
