<?xml version="1.0" encoding="utf-8"?>
<!-- Generator: Adobe Illustrator 20.0.0, SVG Export Plug-In . SVG Version: 6.00 Build 0)  -->
<svg version="1.1" id="Vrstva_1" xmlns="http://www.w3.org/2000/svg" xmlns:xlink="http://www.w3.org/1999/xlink" x="0px" y="0px"
	 viewBox="0 0 32 32" style="enable-background:new 0 0 32 32;" xml:space="preserve">
<style type="text/css">
	.st0{fill-rule:evenodd;clip-rule:evenodd;}
</style>
<g>
	<path class="st0" d="M6.504,14.737c0,0.536-0.052,1.087-0.032,1.65l0.042,0.325c0.065,0.949,0.28,1.865,0.614,2.725
		c0,0.001,0.006,0.001,0.006,0.002c0.001,0.002,0.005,0.004,0.005,0.006c0.001,0.001,0.002,0.003,0.003,0.005
		c0,0,0.001,0.001,0.002,0.001c0.075,0.206,0.165,0.418,0.274,0.648c0.379,0.801,0.868,1.544,1.464,2.22
		c0.02,0.024,0.041,0.047,0.063,0.07c0.104,0.124,0.22,0.25,0.346,0.376c0.595,0.596,1.266,1.11,2.003,1.534
		c0.034,0.02,0.068,0.038,0.102,0.056c0.001,0,0.002,0.002,0.004,0.002c1.191,0.667,2.548,1.07,3.922,1.167
		c0.223,0.017,0.45,0.026,0.677,0.026c0.114,0,0.228-0.002,0.341-0.007c0.001,0,0.002,0,0.004-0.001
		c1.063-0.033,2.102-0.241,3.086-0.618c0.151-0.058,0.302-0.119,0.453-0.187c0.014-0.007,0.029-0.014,0.043-0.022
		c0.922-0.412,1.771-0.971,2.521-1.662c0.012-0.01,0.024-0.022,0.036-0.034c0.083-0.07,0.166-0.149,0.237-0.223l-0.026-0.027
		c1.177-1.175,2.095-2.638,2.4-4.231v0.096h0.08c0.088-0.305,0.171-0.697,0.221-1.011c0.001-0.005,0.008-0.035,0.009-0.04
		c0.121-0.725,0.158-1.484,0.104-2.222c-0.003-0.07-0.006-0.156-0.012-0.227c-0.102-1.106-0.39-2.171-0.858-3.166
		c0,0,0-0.001,0-0.001c-0.463-0.989-1.093-1.887-1.871-2.665C22.609,9.142,22.456,9,22.311,8.878
		c-0.444-0.394-0.931-0.75-1.447-1.058c-0.001,0-0.001,0-0.001-0.001c-0.291-0.172-0.574-0.32-0.861-0.452
		c-0.835-0.385-1.723-0.644-2.638-0.77c-0.21-0.029-0.421-0.051-0.635-0.067c-0.179-0.013-0.368,0.026-0.526,0.025
		c-0.604-0.013-1.212-0.124-1.805,0.181h-0.004c-1.207,0-2.344,0.527-3.377,1.173c-0.499,0.307-0.978,0.657-1.422,0.963h0
		L9.593,8.945C9.592,8.945,9.591,8.982,9.589,8.983c0,0,0,0.018,0,0.018C9.493,9.088,9.397,9.186,9.305,9.279
		C9.262,9.322,9.216,9.373,9.176,9.422c-0.717,0.743-1.348,1.586-1.781,2.503C6.968,12.813,6.809,13.76,6.504,14.737L6.504,14.737z
		 M22.206,22.012l-3.743-0.921l-0.688-1.81l1.732-3.108l2.55-0.249l2.194,2.601C23.86,19.828,23.159,21.026,22.206,22.012z
		 M17.295,10.391l3.531-1.439c0.018-0.007,0.031-0.02,0.048-0.029c0.29,0.2,0.574,0.412,0.84,0.649
		c0.132,0.111,0.263,0.232,0.403,0.375c0.648,0.648,1.174,1.388,1.58,2.194l-1.787,2.876l-2.539,0.248l-2.397-2.582L17.295,10.391z
		 M16.942,19.662l0.746,1.961l-1.864,3.009c-0.145-0.003-0.29-0.01-0.433-0.02c-1.179-0.084-2.297-0.402-3.328-0.942l-0.239-3.252
		l1.625-1.447L16.942,19.662z M11.497,8.712c0.863-0.54,1.804-0.913,2.8-1.117l2.115,2.506l-0.339,2.421l-3.212,1.49l-1.971-0.944
		l-0.27-3.683c-0.001-0.014-0.007-0.026-0.01-0.04C10.895,9.114,11.191,8.901,11.497,8.712z M7.482,15.117l3.006-1.226l1.955,0.937
		l0.414,3.442l-1.621,1.444l-3.315-0.816c-0.255-0.714-0.417-1.468-0.47-2.244l-0.018-0.31C7.419,15.931,7.44,15.52,7.482,15.117z"
		/>
</g>
</svg>
