<?xml version="1.0" encoding="utf-8"?>
<!-- Generator: Adobe Illustrator 20.0.0, SVG Export Plug-In . SVG Version: 6.00 Build 0)  -->
<svg version="1.1" id="Vrstva_1" xmlns="http://www.w3.org/2000/svg" xmlns:xlink="http://www.w3.org/1999/xlink" x="0px" y="0px"
	 viewBox="0 0 32 32" style="enable-background:new 0 0 32 32;" xml:space="preserve">
<style type="text/css">
	.st0{fill-rule:evenodd;clip-rule:evenodd;}
</style>
<g>
	<path class="st0" d="M13.057,9.523c0,0.308,0.115,0.577,0.346,0.805c0.231,0.228,0.513,0.343,0.847,0.343
		c0.334,0,0.616-0.114,0.847-0.343c0.23-0.228,0.346-0.496,0.346-0.805c0-0.308-0.115-0.576-0.346-0.805
		c-0.23-0.228-0.512-0.342-0.847-0.342c-0.334,0-0.616,0.114-0.847,0.342C13.172,8.946,13.057,9.215,13.057,9.523z"/>
	<path class="st0" d="M24.22,12.588l-2.384-1.507l0.138-1.199l-4.804,4.829h-1.728v-1.096l1.486,0.342
		c0.138,0.023,0.277-0.006,0.415-0.086c0.138-0.08,0.225-0.194,0.259-0.343c0.035-0.148,0.012-0.285-0.069-0.411
		c-0.081-0.126-0.202-0.2-0.363-0.223l-1.728-0.445v-0.377c0-0.32-0.127-0.588-0.38-0.805c-0.253-0.217-0.547-0.325-0.881-0.325
		c-0.334,0-0.622,0.108-0.864,0.325c-0.242,0.217-0.363,0.485-0.363,0.805v2.637h-3.56c-0.507,0-0.927,0.143-1.261,0.428
		c-0.334,0.285-0.501,0.656-0.501,1.113v2.671h1.071v-2.637l0.691-0.959v3.288l-0.691,0.993v4.178c0,0.183,0.092,0.354,0.277,0.513
		c0.184,0.16,0.386,0.24,0.605,0.24c0.219,0,0.42-0.074,0.605-0.223c0.184-0.148,0.276-0.325,0.276-0.531v-3.63l0.726-1.164v1.233
		l1.728,3.904c0.115,0.183,0.277,0.303,0.484,0.36c0.207,0.057,0.409,0.034,0.605-0.068c0.196-0.103,0.323-0.251,0.38-0.445
		c0.058-0.194,0.029-0.383-0.086-0.565l-1.486-3.356l0.726-1.13h4.009v4.863c0,0.205,0.063,0.382,0.19,0.531
		c0.127,0.149,0.3,0.223,0.519,0.223c0.219,0,0.391-0.074,0.518-0.223c0.127-0.148,0.19-0.325,0.19-0.531v-4.829l1.832-3.493
		c0.207,0.046,0.415,0.068,0.622,0.068c0.484,0,0.916-0.143,1.296-0.428c0.38-0.285,0.628-0.656,0.743-1.113l0.207,0.034
		c0.391,0.069,0.679-0.057,0.864-0.377c0.115-0.183,0.138-0.377,0.069-0.582C24.531,12.862,24.404,12.702,24.22,12.588z
		 M22.457,14.78c-0.3,0.228-0.645,0.342-1.037,0.342c-0.138,0-0.265-0.011-0.38-0.034l0.76-1.404l1.244,0.24
		C22.953,14.266,22.757,14.552,22.457,14.78z"/>
</g>
</svg>
