<?xml version="1.0" encoding="utf-8"?>
<!-- Generator: Adobe Illustrator 20.0.0, SVG Export Plug-In . SVG Version: 6.00 Build 0)  -->
<svg version="1.1" id="Vrstva_1" xmlns="http://www.w3.org/2000/svg" xmlns:xlink="http://www.w3.org/1999/xlink" x="0px" y="0px"
	 viewBox="0 0 32 32" style="enable-background:new 0 0 32 32;" xml:space="preserve">
<style type="text/css">
	.st0{fill-rule:evenodd;clip-rule:evenodd;}
</style>
<g>
	<path class="st0" d="M8.021,24.808h14.447c0.912,0,1.655-0.745,1.655-1.661c0-0.334-0.1-0.646-0.271-0.907
		c0.745-0.272,1.19-0.834,1.205-1.569c0.033-1.668-1.157-2.2-2.804-2.938c-0.443-0.199-0.946-0.423-1.483-0.694
		c-0.139-0.07-0.274-0.15-0.404-0.236l-1.101,1.528c-0.093,0.129-0.237,0.197-0.385,0.197c-0.096,0-0.193-0.029-0.277-0.09
		c-0.212-0.153-0.26-0.449-0.107-0.662l1.137-1.578c-0.253-0.254-0.483-0.537-0.694-0.841l-1.52,1.207
		c-0.087,0.069-0.191,0.103-0.294,0.103c-0.14,0-0.278-0.061-0.371-0.179c-0.163-0.205-0.128-0.503,0.076-0.666l1.613-1.28
		c-0.141-0.263-0.27-0.534-0.388-0.808l-1.984,0.817c-0.059,0.024-0.12,0.036-0.18,0.036c-0.186,0-0.363-0.111-0.438-0.294
		c-0.099-0.242,0.016-0.519,0.258-0.619l2.001-0.824c-0.096-0.274-0.182-0.547-0.26-0.816l-1.948,0.302
		c-0.025,0.004-0.049,0.006-0.073,0.006c-0.23,0-0.431-0.167-0.467-0.401c-0.04-0.259,0.137-0.501,0.396-0.541l1.852-0.288
		c-0.338-1.44-0.428-2.563-0.43-2.59c-0.01-0.131-0.074-0.253-0.177-0.335c-0.103-0.082-0.236-0.118-0.366-0.098l-5.916,0.89
		c-0.187,0.028-0.34,0.166-0.388,0.349c-0.065,0.247-1.578,6.112-0.444,10.402c0,0.002,0.001,0.004,0.002,0.006l0.669,2.646h1.278
		v1.481H8.021c-0.262,0-0.474,0.212-0.474,0.474C7.547,24.596,7.759,24.808,8.021,24.808z M20.673,22.497
		c0.059,0,0.065,0.001,0.089,0.001h0c0.551,0,1.19-0.024,1.784-0.058c0.354,0.044,0.629,0.344,0.629,0.707
		c0,0.394-0.317,0.714-0.707,0.714h-1.794V22.497z M12.383,22.379h1.481v-1.365c0.178,0.057,0.258,0.117,0.378,0.179
		c1,0.524,3.116,1.125,5.484,1.264v1.402h-7.343V22.379z"/>
</g>
</svg>
