<?xml version="1.0" encoding="utf-8"?>
<!-- Generator: Adobe Illustrator 20.0.0, SVG Export Plug-In . SVG Version: 6.00 Build 0)  -->
<svg version="1.1" id="Vrstva_1" xmlns="http://www.w3.org/2000/svg" xmlns:xlink="http://www.w3.org/1999/xlink" x="0px" y="0px"
	 viewBox="0 0 32 32" style="enable-background:new 0 0 32 32;" xml:space="preserve">
<style type="text/css">
	.st0{fill-rule:evenodd;clip-rule:evenodd;}
</style>
<g>
	<path class="st0" d="M14.485,12.309c-0.108,0.837,0.551,1.595,1.471,1.693c0.92,0.098,1.753-0.501,1.86-1.338
		c0.108-0.837-0.551-1.595-1.471-1.693C15.425,10.873,14.592,11.472,14.485,12.309z"/>
	<path class="st0" d="M10.387,13.618l-0.015,0.023c-0.052,0.025-0.101,0.058-0.144,0.098c-0.217,0.206-0.209,0.533,0.017,0.731
		l1.938,1.691c0.139,0.119,0.336,0.183,0.54,0.155l0.089-0.013l1.924-0.27l0.54,3.625l-1.404,5.343
		c-0.074,0.355,0.143,0.717,0.529,0.845c0.428,0.142,0.902-0.059,1.058-0.449l1.99-4.433l0.778,1.496l-0.558,2.562
		c-0.087,0.415,0.276,0.756,0.715,0.819c0.464,0.067,0.866-0.221,0.972-0.643l0.8-2.804c0.02-0.12,0.009-0.249-0.041-0.371
		l-0.028-0.069l-0.787-1.917l-0.71-4.705l2.109-0.859l0.058-0.023c0.173-0.071,0.315-0.203,0.383-0.378l0.748-1.911
		c0.121-0.312-0.038-0.664-0.375-0.803c-0.356-0.147-0.776-0.003-0.937,0.321l-0.768,1.542c0,0-1.875,0.692-2.205,0.79
		c-0.641,0.189-1.403,0.13-2.576,0.413l-2.223,0.499l-1.561-1.06c0.294-0.464,0.79-1.248,0.914-1.446
		c0.134-0.214,0.436-0.504,0.588-0.644c0.32,0.044,0.657,0.005,0.986-0.113c0.519-0.186,0.971-0.553,1.271-1.032
		c0.3-0.48,0.416-1.02,0.327-1.521c-0.094-0.526-0.4-0.948-0.862-1.187c-0.255-0.132-0.536-0.199-0.835-0.199
		c-0.24,0-0.485,0.044-0.727,0.131c-0.519,0.186-0.971,0.553-1.271,1.032c-0.3,0.48-0.416,1.02-0.327,1.521
		c0.057,0.317,0.194,0.603,0.398,0.83c-0.053,0.187-0.169,0.564-0.31,0.788C11.268,12.227,10.605,13.274,10.387,13.618z
		 M12.231,9.193c0.322-0.515,0.871-0.847,1.399-0.847c0.181,0,0.349,0.039,0.498,0.117c0.6,0.311,0.725,1.144,0.278,1.857
		c-0.322,0.515-0.871,0.847-1.399,0.847c-0.181,0-0.349-0.039-0.498-0.117c-0.287-0.148-0.474-0.421-0.529-0.768
		C11.924,9.928,12.013,9.541,12.231,9.193z"/>
	<ellipse class="st0" cx="20.398" cy="9.89" rx="0.634" ry="0.576"/>
</g>
</svg>
