<?xml version="1.0" encoding="utf-8"?>
<!-- Generator: Adobe Illustrator 20.0.0, SVG Export Plug-In . SVG Version: 6.00 Build 0)  -->
<svg version="1.1" id="Vrstva_1" xmlns="http://www.w3.org/2000/svg" xmlns:xlink="http://www.w3.org/1999/xlink" x="0px" y="0px"
	 viewBox="0 0 32 32" style="enable-background:new 0 0 32 32;" xml:space="preserve">
<style type="text/css">
	.st0{fill-rule:evenodd;clip-rule:evenodd;}
</style>
<g>
	<path class="st0" d="M15.598,11.312c0.181,0.053,0.368,0.08,0.556,0.08c0.872,0,1.652-0.584,1.897-1.42
		c0.306-1.045-0.296-2.144-1.342-2.45c-0.182-0.053-0.369-0.08-0.556-0.08c-0.872,0-1.652,0.584-1.897,1.42
		C13.949,9.907,14.551,11.006,15.598,11.312z"/>
	<circle class="st0" cx="19.691" cy="24.15" r="0.507"/>
	<path class="st0" d="M12.496,17.633c-0.079,0.271,0.054,0.575,0.305,0.704v5.904c0,0.499,0.407,0.905,0.906,0.905h0.186
		c0.5,0,0.906-0.406,0.906-0.905v-5.921c0-0.007-0.002-0.013-0.002-0.02l0.8-2.728l0.559,2.203c0.077,0.304,0.341,0.532,0.65,0.578
		v6.22c0,0.074,0.03,0.141,0.078,0.19c0.005,0.006,0.007,0.013,0.013,0.019c0.098,0.11,0.264,0.14,0.77,0.14
		c0.691,0,1.041-0.163,1.041-0.485c0-0.339-0.442-0.586-1.051-0.586c-0.119,0-0.219,0.012-0.306,0.03v-5.605
		c0.113-0.051,0.21-0.129,0.279-0.234c0.105-0.158,0.135-0.35,0.086-0.54l-0.365-1.42v-0.717c0-0.144-0.112-0.26-0.254-0.27
		l-0.642-2.495c-0.014-0.055-0.037-0.106-0.063-0.154c-0.008-0.02-0.015-0.041-0.026-0.06c-0.07-0.128-0.185-0.22-0.324-0.261
		l-1.257-0.367c-0.049-0.015-0.101-0.022-0.152-0.022c-0.24,0-0.455,0.161-0.522,0.39L12.496,17.633z"/>
</g>
</svg>
