<?xml version="1.0" encoding="utf-8"?>
<!-- Generator: Adobe Illustrator 20.0.0, SVG Export Plug-In . SVG Version: 6.00 Build 0)  -->
<svg version="1.1" id="Vrstva_1" xmlns="http://www.w3.org/2000/svg" xmlns:xlink="http://www.w3.org/1999/xlink" x="0px" y="0px"
	 viewBox="0 0 32 32" style="enable-background:new 0 0 32 32;" xml:space="preserve">
<style type="text/css">
	.st0{fill-rule:evenodd;clip-rule:evenodd;}
</style>
<g>
	<path class="st0" d="M6.94,21.969c0.298,0.144,0.6,0.151,0.906,0.022c0.346-0.092,0.591-0.297,0.734-0.614l1.029-3.988
		c0.039-0.002,0.419-0.231,1.14-0.688c-0.016,0.078-0.119,0.666-0.308,1.764c-0.189,1.097-0.283,1.646-0.283,1.646l-0.122,0.589
		l-0.141,0.748c0.015-0.117,0.061-0.66-0.504,3.579l3.446-0.029c0.088-0.704,0.114-1.667,0.148-1.786
		c0.118,0.109,0.735,1.24,1.289,1.81l4.243-0.005l-3.235-3.072c0.036-0.079,0.258-1.314,0.666-3.705l1.139,2.172l0.369,0.452
		l0.532,0.153l3.022,0.461l-0.003,0.015l1.198,0.237l0.014-0.068c0.313,0.064,0.602-0.006,0.865-0.211
		c0.264-0.205,0.429-0.465,0.494-0.779l-0.01-0.233c-0.008-0.194-0.232-0.673-0.357-0.862l-0.538-0.208l0.293-1.479l-0.108-0.021
		l0.364-1.212c0.522-0.035,1.034-0.24,1.485-0.602c0.613-0.493,1.041-1.221,1.205-2.05c0.164-0.829,0.046-1.665-0.332-2.355
		c-0.39-0.709-1.007-1.18-1.738-1.325c-0.731-0.145-1.481,0.055-2.111,0.562c-0.613,0.493-1.041,1.221-1.205,2.05
		c-0.164,0.829-0.046,1.665,0.332,2.355c0.279,0.507,0.674,0.892,1.143,1.123l-0.125,1.26l-0.108-0.021l-0.292,1.475
		c-0.585-0.083-1.427-0.206-2.529-0.368l-2.395-4.339c-0.171-0.382-0.399-0.713-0.683-0.994c-0.284-0.28-0.496-0.466-0.636-0.558
		c-0.14-0.092-0.229-0.137-0.268-0.135c-0.278-0.144-0.535-0.231-0.769-0.261c-0.587-0.093-1.167,0.009-1.739,0.304l-4.213,2.624
		l-0.51,0.371c-0.074,0.081-0.129,0.18-0.163,0.298l-1.192,4.286c-0.143,0.317-0.15,0.629-0.02,0.935
		C6.448,21.6,6.642,21.825,6.94,21.969z M23.843,15.785c-0.268,0.128-0.557,0.192-0.848,0.181l0.174-0.876l0.782,0.155
		L23.843,15.785z M24.053,14.724l-0.782-0.155l0.155-0.782l0.782,0.155L24.053,14.724z M24.987,12.743l0.262,0.052
		c0.044,0.26,0.053,0.535,0.022,0.817l-0.438-0.087L24.987,12.743z M25.167,14.133c-0.079,0.272-0.193,0.523-0.334,0.746
		l-0.258-0.051l0.155-0.782L25.167,14.133z M23.963,11.078c0.274,0.101,0.516,0.271,0.715,0.491l-0.109,0.549l-0.782-0.155
		L23.963,11.078z M23.684,12.485l0.781,0.155l-0.155,0.782l-0.782-0.155L23.684,12.485z M22.594,11.156
		c0.268-0.128,0.556-0.192,0.848-0.181l-0.176,0.886l-0.782-0.155L22.594,11.156z M22.381,12.227l0.782,0.155l-0.155,0.782
		l-0.782-0.155L22.381,12.227z M22.124,13.529l0.781,0.155l-0.155,0.782l-0.782-0.155L22.124,13.529z M21.447,14.208l-0.258-0.051
		c-0.045-0.26-0.055-0.536-0.024-0.817l0.438,0.087L21.447,14.208z M21.267,12.818c0.078-0.272,0.191-0.523,0.331-0.747l0.262,0.052
		l-0.155,0.782L21.267,12.818z M21.758,15.372l0.107-0.539l0.781,0.155l-0.173,0.876C22.199,15.762,21.958,15.592,21.758,15.372z"/>
	<path class="st0" d="M14.661,11.754c0.641-0.026,1.185-0.282,1.632-0.767c0.447-0.485,0.657-1.058,0.63-1.718
		c-0.027-0.661-0.283-1.214-0.768-1.661C15.67,7.16,15.107,6.95,14.466,6.976c-0.641,0.026-1.185,0.282-1.632,0.767
		c-0.447,0.485-0.657,1.058-0.631,1.718c0.027,0.66,0.283,1.214,0.768,1.661C13.457,11.57,14.02,11.781,14.661,11.754z"/>
</g>
</svg>
