<?xml version="1.0" encoding="utf-8"?>
<!-- Generator: Adobe Illustrator 20.0.0, SVG Export Plug-In . SVG Version: 6.00 Build 0)  -->
<svg version="1.1" id="Vrstva_1" xmlns="http://www.w3.org/2000/svg" xmlns:xlink="http://www.w3.org/1999/xlink" x="0px" y="0px"
	 viewBox="0 0 32 32" style="enable-background:new 0 0 32 32;" xml:space="preserve">
<style type="text/css">
	.st0{fill-rule:evenodd;clip-rule:evenodd;}
</style>
<g>
	<path class="st0" d="M23.486,13.964h-1.544c-0.382-0.994-0.878-1.968-1.442-2.336c-1.952-1.27-7.13-1.27-9.082,0
		c-0.565,0.368-1.059,1.343-1.442,2.336H8.432c-0.123,0-0.238,0.055-0.315,0.148c-0.077,0.094-0.108,0.217-0.083,0.335l0.229,1.096
		c0.039,0.187,0.206,0.32,0.398,0.32h0.457c-0.442,0.504-0.656,1.138-0.658,1.773c-0.003,0.784,0.298,1.493,0.849,1.995
		c0.006,0.005,0.012,0.009,0.018,0.014v1.534c0,0.332,0.273,0.603,0.609,0.603h1.424c0.336,0,0.61-0.27,0.61-0.603v-0.617h7.979
		v0.617c0,0.332,0.273,0.603,0.609,0.603h1.424c0.336,0,0.609-0.27,0.609-0.603v-1.504c0.584-0.529,0.863-1.257,0.866-1.984
		c0.002-0.656-0.221-1.314-0.689-1.828h0.488c0.193,0,0.36-0.133,0.398-0.32l0.229-1.096c0.024-0.118-0.006-0.241-0.083-0.335
		C23.723,14.019,23.607,13.964,23.486,13.964z M12.087,12.635c1.556-1.012,6.187-1.012,7.742,0c0.302,0.196,0.691,0.989,1.047,1.959
		h-9.836C11.396,13.625,11.785,12.832,12.087,12.635z M11.464,18.974c-0.662,0-1.199-0.531-1.199-1.186s0.537-1.186,1.199-1.186
		c0.663,0,1.199,0.531,1.199,1.186S12.126,18.974,11.464,18.974z M20.469,18.974c-0.662,0-1.199-0.531-1.199-1.186
		s0.537-1.186,1.199-1.186c0.663,0,1.199,0.531,1.199,1.186S21.131,18.974,20.469,18.974z"/>
</g>
</svg>
