<?xml version="1.0" encoding="utf-8"?>
<!-- Generator: Adobe Illustrator 20.0.0, SVG Export Plug-In . SVG Version: 6.00 Build 0)  -->
<svg version="1.1" id="Vrstva_1" xmlns="http://www.w3.org/2000/svg" xmlns:xlink="http://www.w3.org/1999/xlink" x="0px" y="0px"
	 viewBox="0 0 32 32" style="enable-background:new 0 0 32 32;" xml:space="preserve">
<style type="text/css">
	.st0{fill-rule:evenodd;clip-rule:evenodd;}
</style>
<g>
	<path class="st0" d="M20.257,12.696h-0.164v-0.759h-1.848l1.338-0.841c0.133-0.083,0.204-0.237,0.179-0.391
		c-0.025-0.154-0.139-0.28-0.291-0.318L12.38,8.598c-0.208-0.051-0.422,0.073-0.474,0.283c-0.053,0.208,0.074,0.42,0.283,0.473
		l6.206,1.565l-1.619,1.017h-4.492v0.759H9.859c-0.85,0-1.538,0.689-1.538,1.539v6.357c0,0.724,0.499,1.326,1.171,1.491
		c-0.043,0.118-0.07,0.246-0.07,0.38c0,0.619,0.502,1.123,1.123,1.123c0.446,0,0.827-0.263,1.008-0.639
		c0.181,0.376,0.563,0.639,1.009,0.639c0.62,0,1.122-0.504,1.122-1.123c0-0.116-0.023-0.226-0.055-0.331h4.665
		c-0.032,0.105-0.055,0.214-0.055,0.331c0,0.619,0.501,1.123,1.123,1.123c0.445,0,0.826-0.263,1.007-0.639
		c0.181,0.376,0.563,0.639,1.011,0.639c0.619,0,1.121-0.504,1.121-1.123c0-0.116-0.022-0.226-0.056-0.331h0.027
		c0.851,0,1.541-0.689,1.541-1.54l-1.924-6.357C21.749,13.395,21.107,12.696,20.257,12.696z M11.925,18.087H9.323v-3.71h2.602
		V18.087z M18.053,18.085H12.62v-3.709h5.433V18.085z M18.801,18.087v-3.71h2.234l1.075,3.71H18.801z"/>
</g>
</svg>
