<?xml version="1.0" encoding="utf-8"?>
<!-- Generator: Adobe Illustrator 20.0.0, SVG Export Plug-In . SVG Version: 6.00 Build 0)  -->
<svg version="1.1" id="Vrstva_1" xmlns="http://www.w3.org/2000/svg" xmlns:xlink="http://www.w3.org/1999/xlink" x="0px" y="0px"
	 viewBox="0 0 32 32" style="enable-background:new 0 0 32 32;" xml:space="preserve">
<style type="text/css">
	.st0{fill-rule:evenodd;clip-rule:evenodd;}
</style>
<g>
	<path class="st0" d="M23.476,8.262H8.816c-0.405,0-0.733,0.332-0.733,0.741c0,0.409,0.328,0.741,0.733,0.741h5.696l-2.255,4.941
		h-1.486c-0.374,0-0.687,0.284-0.729,0.66l-0.489,4.447c-0.001,0.007-0.001,0.014-0.001,0.021c-0.001,0.013-0.002,0.026-0.002,0.039
		c0,0.014,0,0.027,0,0.041c0,0.013,0.001,0.025,0.002,0.038c0.001,0.014,0.003,0.028,0.005,0.042
		c0.001,0.007,0.001,0.015,0.002,0.022l0.489,2.965c0.059,0.357,0.365,0.619,0.723,0.619h10.75c0.358,0,0.664-0.262,0.723-0.619
		l0.489-2.965c0.001-0.007,0.001-0.015,0.002-0.022c0.002-0.014,0.004-0.028,0.005-0.042c0.001-0.013,0.002-0.025,0.002-0.038
		c0-0.014,0-0.027,0-0.041c0-0.013-0.001-0.026-0.002-0.039c0-0.007,0-0.014-0.001-0.022l-0.489-4.447
		c-0.041-0.375-0.355-0.66-0.729-0.66h-1.486L17.78,9.744h5.696c0.405,0,0.733-0.332,0.733-0.741
		C24.208,8.594,23.88,8.262,23.476,8.262z M13.458,19.133h-2.357l0.326-2.965h2.031V19.133z M17.367,19.133h-2.443v-2.965h2.443
		V19.133z M18.833,16.168h0.709c0.008,0,0.016,0.001,0.024,0.001c0.006,0,0.011-0.001,0.016-0.001h1.282l0.326,2.965h-2.357V16.168z
		 M18.421,14.685h-4.55l2.255-4.941h0.039L18.421,14.685z"/>
</g>
</svg>
