<?xml version="1.0" encoding="utf-8"?>
<!-- Generator: Adobe Illustrator 20.0.0, SVG Export Plug-In . SVG Version: 6.00 Build 0)  -->
<svg version="1.1" id="Vrstva_1" xmlns="http://www.w3.org/2000/svg" xmlns:xlink="http://www.w3.org/1999/xlink" x="0px" y="0px"
	 viewBox="0 0 32 32" style="enable-background:new 0 0 32 32;" xml:space="preserve">
<style type="text/css">
	.st0{fill-rule:evenodd;clip-rule:evenodd;}
</style>
<g>
	<path class="st0" d="M23.882,12.428l-6.431-0.419c-0.138-0.953-0.404-1.891-0.809-2.785c-0.253-0.558-1.033-0.558-1.286,0
		c-0.405,0.894-0.671,1.832-0.81,2.785l-6.43,0.419c-0.366,0.024-0.651,0.328-0.651,0.695v1.111c0,0.351,0.261,0.647,0.61,0.691
		l2.973,0.371c0.572,0.071,1.147,0.107,1.723,0.107h1.84c0.062,0.34,0.137,0.679,0.234,1.014c0.259,0.899,0.465,1.813,0.539,2.746
		c0.019,0.246,0.038,0.465,0.057,0.688l-1.789,0.314c-0.333,0.059-0.576,0.348-0.576,0.686v0.231c0,0.349,0.258,0.644,0.605,0.69
		l1.929,0.257c0.017,0.307,0.032,0.626,0.042,0.973c0,0.508,0.696,0.508,0.696,0c0.01-0.348,0.025-0.667,0.042-0.973l1.929-0.257
		c0.346-0.046,0.604-0.341,0.605-0.69V20.85c0-0.338-0.243-0.627-0.576-0.686l-1.789-0.314c0.019-0.223,0.038-0.442,0.057-0.687
		c0.073-0.933,0.28-1.846,0.539-2.746c0.096-0.334,0.171-0.673,0.234-1.014h1.839c0.576,0,1.152-0.036,1.723-0.107l2.973-0.371
		c0.349-0.043,0.611-0.34,0.61-0.691v-1.111C24.533,12.756,24.249,12.452,23.882,12.428z"/>
</g>
</svg>
