<?xml version="1.0" encoding="utf-8"?>
<!-- Generator: Adobe Illustrator 20.0.0, SVG Export Plug-In . SVG Version: 6.00 Build 0)  -->
<svg version="1.1" id="Vrstva_1" xmlns="http://www.w3.org/2000/svg" xmlns:xlink="http://www.w3.org/1999/xlink" x="0px" y="0px"
	 viewBox="0 0 32 32" style="enable-background:new 0 0 32 32;" xml:space="preserve">
<style type="text/css">
	.st0{fill-rule:evenodd;clip-rule:evenodd;}
</style>
<g>
	<path class="st0" d="M8.122,24.037c0,0.27,0.222,0.49,0.493,0.49h0.493c0.272,0,0.493-0.22,0.493-0.49v-0.49h3.948v0.49
		c0,0.27,0.222,0.49,0.493,0.49h0.494c0.271,0,0.493-0.22,0.493-0.49v-0.872c0.301-0.269,0.493-0.657,0.493-1.088v-4.58
		c0-1.715-1.767-1.96-3.948-1.96c-2.181,0-3.948,0.245-3.948,1.96v4.58c0,0.431,0.193,0.818,0.493,1.088V24.037z M13.797,22.567
		c-0.41,0-0.74-0.328-0.74-0.735c0-0.407,0.331-0.735,0.74-0.735c0.41,0,0.74,0.328,0.74,0.735
		C14.537,22.239,14.206,22.567,13.797,22.567z M8.615,17.497h5.922v2.13H8.615V17.497z M9.355,21.097c0.41,0,0.74,0.328,0.74,0.735
		c0,0.407-0.331,0.735-0.74,0.735c-0.409,0-0.74-0.328-0.74-0.735C8.615,21.425,8.946,21.097,9.355,21.097z"/>
	<path class="st0" d="M24.272,21.84v-4.476c0-1.599-1.647-1.827-3.68-1.827s-3.68,0.228-3.68,1.827v4.476
		c0,0.882,0.722,1.599,1.61,1.599l-0.69,0.685v0.228h5.52v-0.228l-0.69-0.685C23.55,23.439,24.272,22.722,24.272,21.84z
		 M20.593,22.525c-0.506,0-0.92-0.411-0.92-0.913c0-0.502,0.414-0.914,0.92-0.914s0.92,0.411,0.92,0.914
		C21.512,22.114,21.099,22.525,20.593,22.525z M23.353,19.328h-5.52v-1.964h5.52V19.328z"/>
	<path class="st0" d="M9.687,12.766h2.822c-0.067,0.422-0.117,0.844-0.117,1.278h1.67c0-0.435,0.058-0.863,0.133-1.278h3.907
		c0.075,0.415,0.133,0.844,0.133,1.278h1.67c0-0.435-0.05-0.857-0.117-1.278h2.822c0.134,0.409,0.217,0.837,0.217,1.278h1.669
		c0-3.528-3.74-6.392-8.357-6.392c-4.608,0-8.34,2.863-8.34,6.392h1.67C9.47,13.603,9.553,13.175,9.687,12.766z M21.926,11.487
		h-2.463c-0.267-0.799-0.651-1.566-1.152-2.275C19.847,9.615,21.124,10.433,21.926,11.487z M16.149,8.956
		c0.693,0.767,1.236,1.617,1.595,2.531h-3.189C14.913,10.573,15.456,9.723,16.149,8.956z M13.986,9.212
		c-0.501,0.709-0.885,1.476-1.152,2.275h-2.463C11.173,10.427,12.45,9.615,13.986,9.212z"/>
</g>
</svg>
