<?xml version="1.0" encoding="utf-8"?>
<!-- Generator: Adobe Illustrator 20.0.0, SVG Export Plug-In . SVG Version: 6.00 Build 0)  -->
<svg version="1.1" id="Vrstva_1" xmlns="http://www.w3.org/2000/svg" xmlns:xlink="http://www.w3.org/1999/xlink" x="0px" y="0px"
	 viewBox="0 0 32 32" style="enable-background:new 0 0 32 32;" xml:space="preserve">
<style type="text/css">
	.st0{fill-rule:evenodd;clip-rule:evenodd;}
</style>
<g>
	<path class="st0" d="M14.336,15.879c0.011-0.687,0.149-1.321,0.474-1.876v0l-0.002,0.901l-0.008,4.328v3.433
		c0,0.37,0.273,0.669,0.657,0.669c0.384,0,0.695-0.299,0.695-0.669v-4.908h0.614v4.923c0,0.801,1.254,0.801,1.254,0v-3.449
		l0.053-4.337c0-0.414,0.001-0.784,0.002-1.041l-0.021-0.442c1.551,0.33,2.994-0.26,3.956-1.653
		c0.416-0.036,0.742-0.324,0.742-0.678v-0.776c0-0.379-0.37-0.686-0.826-0.686v-0.18c0-0.19-0.185-0.343-0.414-0.343
		c-0.228,0-0.413,0.153-0.413,0.343v1.446c-0.013,0.017-0.026,0.031-0.038,0.05c-0.746,1.196-1.935,1.663-3.241,1.126
		c-0.457-0.207-1.756-0.644-3.148,0.223c-0.034,0.017-0.067,0.039-0.1,0.065c-0.04,0.026-0.079,0.052-0.118,0.081l0.004,0.019
		c-0.954,0.913-1.354,2.131-1.375,3.43C13.068,16.681,14.322,16.679,14.336,15.879z"/>
	<ellipse class="st0" cx="16.463" cy="10.266" rx="1.181" ry="1.169"/>
	<path class="st0" d="M11.224,17.014h-0.91c-0.148,0-0.269,0.119-0.269,0.266v0.884H9.655c-0.316,0-0.571,0.254-0.571,0.566v4.174
		c0,0.312,0.256,0.565,0.571,0.565h2.228c0.316,0,0.571-0.253,0.571-0.565v-4.174c0-0.313-0.255-0.566-0.571-0.566h-0.391V17.28
		C11.492,17.133,11.372,17.014,11.224,17.014z M11.368,18.165h-1.199V17.28c0-0.079,0.065-0.143,0.144-0.143h0.91
		c0.08,0,0.145,0.064,0.145,0.143V18.165z"/>
</g>
</svg>
