<?xml version="1.0" encoding="utf-8"?>
<!-- Generator: Adobe Illustrator 20.0.0, SVG Export Plug-In . SVG Version: 6.00 Build 0)  -->
<svg version="1.1" id="Vrstva_1" xmlns="http://www.w3.org/2000/svg" xmlns:xlink="http://www.w3.org/1999/xlink" x="0px" y="0px"
	 viewBox="0 0 32 32" style="enable-background:new 0 0 32 32;" xml:space="preserve">
<style type="text/css">
	.st0{fill-rule:evenodd;clip-rule:evenodd;}
</style>
<g>
	<path class="st0" d="M12.518,23.771l1.489-1.971h4.079l1.489,1.971h1.165l-1.975-3.005l-0.032-0.065l0.032-0.032
		c0.28-0.108,0.54-0.248,0.777-0.42c0.216-0.172,0.367-0.431,0.453-0.775c0.022-0.108,0.032-0.194,0.032-0.258v-6.914
		c0-0.172-0.043-0.345-0.129-0.517c-0.108-0.172-0.227-0.323-0.356-0.452c-0.129-0.129-0.291-0.248-0.486-0.355
		c-0.151-0.065-0.324-0.097-0.518-0.097h-4.953c-0.194,0-0.367,0.032-0.518,0.097c-0.194,0.108-0.361,0.221-0.502,0.339
		c-0.14,0.119-0.264,0.264-0.372,0.436c-0.086,0.172-0.13,0.345-0.13,0.517v7.011c0,0.129,0.022,0.248,0.065,0.355
		c0.086,0.151,0.162,0.269,0.227,0.355c0.086,0.129,0.183,0.237,0.291,0.323c0.108,0.086,0.205,0.162,0.291,0.226
		c0.065,0.022,0.151,0.054,0.259,0.097l0.146,0.048l0.016,0.016l-2.007,3.069H12.518z M19.089,18.957
		c0,0.215-0.075,0.404-0.227,0.565c-0.151,0.161-0.34,0.242-0.566,0.242c-0.227,0-0.415-0.081-0.567-0.242
		c-0.151-0.162-0.227-0.355-0.227-0.582c0-0.226,0.081-0.409,0.243-0.549c0.162-0.14,0.351-0.21,0.567-0.21
		c0.216,0,0.399,0.075,0.55,0.226C19.014,18.559,19.089,18.741,19.089,18.957z M14.395,11.526c0-0.086,0.032-0.162,0.097-0.226
		c0.065-0.065,0.14-0.097,0.227-0.097h2.654c0.086,0,0.162,0.032,0.227,0.097c0.065,0.065,0.097,0.14,0.097,0.226v0.323
		c0,0.108-0.032,0.194-0.097,0.258c-0.065,0.065-0.14,0.097-0.227,0.097h-2.654c-0.087,0-0.162-0.032-0.227-0.097
		c-0.065-0.065-0.097-0.151-0.097-0.258V11.526z M13.068,13.142c0.065-0.129,0.119-0.215,0.162-0.258
		c0.13-0.151,0.205-0.226,0.227-0.226c0.151-0.086,0.248-0.129,0.291-0.129h4.597l0.259,0.097c0.043,0.022,0.119,0.086,0.227,0.194
		c0.022,0.022,0.076,0.097,0.162,0.226c0.022,0.043,0.032,0.129,0.032,0.258v1.583c0,0.108-0.011,0.194-0.032,0.258
		c-0.065,0.086-0.13,0.162-0.194,0.226c-0.022,0-0.097,0.032-0.226,0.097c-0.043,0.022-0.13,0.032-0.259,0.032H13.78l-0.032,0.016
		l-0.048,0.016c0,0-0.048,0.005-0.048-0.016L13.619,15.5c-0.151-0.021-0.291-0.108-0.421-0.258
		c-0.086-0.108-0.129-0.258-0.129-0.452V13.142z M13.214,19.522c-0.14-0.162-0.21-0.35-0.21-0.565c0-0.215,0.075-0.398,0.227-0.549
		c0.151-0.151,0.335-0.226,0.55-0.226c0.216,0,0.399,0.07,0.55,0.21c0.151,0.14,0.227,0.328,0.227,0.565
		c0,0.215-0.075,0.404-0.227,0.565c-0.151,0.162-0.34,0.242-0.566,0.242C13.538,19.765,13.354,19.684,13.214,19.522z"/>
	<path class="st0" d="M9.734,15.468c0-1.766,0.61-3.279,1.829-4.539c1.219-1.26,2.714-1.89,4.483-1.89c1.77,0,3.264,0.63,4.484,1.89
		c1.219,1.26,1.829,2.784,1.829,4.572v8.271h1.975v-8.303c0-2.262-0.809-4.2-2.428-5.815c-1.619-1.616-3.572-2.423-5.859-2.423
		c-2.288,0-4.235,0.808-5.843,2.423c-1.608,1.615-2.412,3.554-2.412,5.816l0.065,8.303h1.877V15.468z"/>
</g>
</svg>
