<?xml version="1.0" encoding="utf-8"?>
<!-- Generator: Adobe Illustrator 20.0.0, SVG Export Plug-In . SVG Version: 6.00 Build 0)  -->
<svg version="1.1" id="Vrstva_1" xmlns="http://www.w3.org/2000/svg" xmlns:xlink="http://www.w3.org/1999/xlink" x="0px" y="0px"
	 viewBox="0 0 32 32" style="enable-background:new 0 0 32 32;" xml:space="preserve">
<style type="text/css">
	.st0{fill-rule:evenodd;clip-rule:evenodd;}
</style>
<g>
	<path class="st0" d="M22.823,13.889c0.328,0,0.594-0.262,0.594-0.585v-1.946c0-0.323-0.266-0.585-0.594-0.585h-1.056V9.537
		c0-0.323-0.266-0.585-0.594-0.585H10.744c-0.328,0-0.594,0.262-0.594,0.585v1.235H9.094c-0.328,0-0.594,0.262-0.594,0.585v1.946
		c0,0.323,0.266,0.585,0.594,0.585c0.328,0,0.594-0.262,0.594-0.585v-1.361h0.462v9.101c0,0.323,0.266,0.585,0.594,0.585h0.124
		v0.909c0,0.323,0.266,0.585,0.594,0.585h1.229c0.328,0,0.594-0.262,0.594-0.585v-0.909h5.347v0.909
		c0,0.323,0.266,0.585,0.594,0.585h1.229c0.328,0,0.594-0.262,0.594-0.585v-0.909h0.123c0.328,0,0.594-0.262,0.594-0.585v-9.101
		h0.462v1.361C22.229,13.627,22.495,13.889,22.823,13.889z M12.59,20.525c-0.569,0-1.03-0.454-1.03-1.015
		c0-0.561,0.461-1.015,1.03-1.015c0.57,0,1.031,0.454,1.031,1.015C13.621,20.07,13.16,20.525,12.59,20.525z M19.323,20.525
		c-0.569,0-1.03-0.454-1.03-1.015c0-0.561,0.461-1.015,1.03-1.015s1.031,0.454,1.031,1.015
		C20.354,20.07,19.892,20.525,19.323,20.525z M20.579,16.553h-9.24v-6.43h9.24V16.553z"/>
</g>
</svg>
