<?xml version="1.0" encoding="utf-8"?>
<!-- Generator: Adobe Illustrator 20.0.0, SVG Export Plug-In . SVG Version: 6.00 Build 0)  -->
<svg version="1.1" id="Vrstva_1" xmlns="http://www.w3.org/2000/svg" xmlns:xlink="http://www.w3.org/1999/xlink" x="0px" y="0px"
	 viewBox="0 0 32 32" style="enable-background:new 0 0 32 32;" xml:space="preserve">
<style type="text/css">
	.st0{fill-rule:evenodd;clip-rule:evenodd;}
</style>
<g>
	<path class="st0" d="M22.479,19.204v-7.919c0-2.917-2.916-3.334-6.479-3.334s-6.479,0.417-6.479,3.334v7.919
		c0,1.584,1.296,2.918,2.835,2.918l-1.215,1.25v0.417h9.719v-0.417l-1.215-1.25C21.183,22.122,22.479,20.788,22.479,19.204z
		 M12.355,20.455c-0.648,0-1.215-0.584-1.215-1.25c0-0.667,0.567-1.25,1.215-1.25c0.648,0,1.215,0.584,1.215,1.25
		C13.57,19.871,13.003,20.455,12.355,20.455z M15.19,15.453h-4.049v-4.168h4.049V15.453z M19.645,20.455
		c-0.648,0-1.215-0.584-1.215-1.25c0-0.667,0.567-1.25,1.215-1.25c0.648,0,1.215,0.584,1.215,1.25
		C20.859,19.871,20.292,20.455,19.645,20.455z M20.859,15.453H16.81v-4.168h4.049V15.453z"/>
</g>
</svg>
