<?xml version="1.0" encoding="utf-8"?>
<!-- Generator: Adobe Illustrator 20.0.0, SVG Export Plug-In . SVG Version: 6.00 Build 0)  -->
<svg version="1.1" id="Vrstva_1" xmlns="http://www.w3.org/2000/svg" xmlns:xlink="http://www.w3.org/1999/xlink" x="0px" y="0px"
	 viewBox="0 0 32 32" style="enable-background:new 0 0 32 32;" xml:space="preserve">
<style type="text/css">
	.st0{fill-rule:evenodd;clip-rule:evenodd;}
</style>
<g>
	<path class="st0" d="M22.722,13.46c0-0.405-0.329-0.734-0.733-0.734h-0.734v-2.201c0-0.405-0.329-0.734-0.734-0.734
		c-0.405,0-0.734,0.329-0.734,0.734v2.201c0,0.81,0.657,1.467,1.467,1.467v6.236c0,0.203-0.164,0.367-0.367,0.367
		c-0.202,0-0.367-0.164-0.367-0.367v-2.568c0-1.215-0.985-2.201-2.201-2.201V11.26c0-0.81-0.657-1.467-1.467-1.467h-5.869
		c-0.81,0-1.467,0.657-1.467,1.467V21.53c0,0.81,0.657,1.467,1.467,1.467h5.869c0.81,0,1.467-0.657,1.467-1.467v-4.402
		c0.405,0,0.734,0.329,0.734,0.734v2.568c0,1.013,0.821,1.834,1.834,1.834c1.013,0,1.834-0.821,1.834-1.834V13.46z M16.853,14.928
		c0.008,0.397-0.307,0.725-0.704,0.734h-4.402c-0.413,0.008-0.755-0.32-0.763-0.733v-2.201c0-0.405,0.329-0.734,0.734-0.734h4.402
		c0.405,0,0.734,0.329,0.734,0.734V14.928z"/>
</g>
</svg>
