<?xml version="1.0" encoding="utf-8"?>
<!-- Generator: Adobe Illustrator 20.0.0, SVG Export Plug-In . SVG Version: 6.00 Build 0)  -->
<svg version="1.1" id="Vrstva_1" xmlns="http://www.w3.org/2000/svg" xmlns:xlink="http://www.w3.org/1999/xlink" x="0px" y="0px"
	 viewBox="0 0 32 32" style="enable-background:new 0 0 32 32;" xml:space="preserve">
<style type="text/css">
	.st0{fill-rule:evenodd;clip-rule:evenodd;}
</style>
<g>
	<path class="st0" d="M9.657,16.093l2.85,0.604c0.717,2.17,2.599,3.751,4.818,4.117l-0.163,0.756
		c-0.004,0.021-0.005,0.041-0.007,0.062H16.18c-0.246,0-0.445,0.2-0.445,0.446c0,0.246,0.199,0.446,0.445,0.446h7.823
		c0.246,0,0.445-0.2,0.445-0.446c0-0.246-0.199-0.446-0.445-0.446H23.14c-0.001-0.021-0.002-0.041-0.007-0.062l-0.165-0.766
		c0.603-0.214,1.036-0.788,1.036-1.464v-0.069c0-0.471-0.062-0.927-0.178-1.362c-0.003-0.018-0.008-0.036-0.014-0.054
		c-0.001-0.004-0.005-0.015-0.011-0.034c-0.156-0.55-0.398-1.064-0.711-1.526c-0.029-0.044-0.059-0.088-0.089-0.13
		c-0.064-0.091-0.134-0.179-0.207-0.264c-0.285-0.346-0.613-0.654-0.975-0.919c-0.052-0.04-0.084-0.064-0.09-0.068
		c-0.012-0.008-0.024-0.015-0.037-0.022c-0.782-0.537-1.714-0.87-2.719-0.921c0.002-0.025,0.004-0.05,0.004-0.075v-0.374
		c0-0.529-0.43-0.96-0.959-0.96H17.3v-1.613h7.887c0.246,0,0.445-0.2,0.445-0.446c0-0.246-0.199-0.446-0.445-0.446H7.654
		c-0.246,0-0.445,0.2-0.445,0.446c0,0.246,0.199,0.446,0.445,0.446h7.887v1.613H13.41c-0.529,0-0.959,0.431-0.959,0.96v0.374
		c0,0.023,0.002,0.046,0.004,0.068h-2.252c-0.245-0.695-0.867-1.211-1.619-1.304l-0.418-0.98c-0.07-0.164-0.231-0.271-0.41-0.271
		H7.021c-0.14,0-0.272,0.066-0.356,0.178c-0.084,0.112-0.111,0.257-0.072,0.392l0.357,1.241c-0.36,0.358-0.583,0.854-0.583,1.401
		c0,1.09,0.886,1.977,1.974,1.977C8.846,16.597,9.307,16.406,9.657,16.093z M19.777,15.791c0.017-0.026,0.057-0.069,0.13-0.069
		h1.412c0.208,0.164,0.662,0.545,0.958,0.962c0.183,0.258,0.344,0.585,0.464,0.864h-1.533c-0.485,0-0.917-0.291-1.098-0.742
		l-0.349-0.867C19.734,15.871,19.759,15.817,19.777,15.791z M22.076,20.895L22.076,20.895l0.159,0.737H18.06l0.159-0.739
		c0.031,0,0.061,0.002,0.092,0.002H22.076z M17.821,15.517c0.501,0,0.908,0.408,0.908,0.909c0,0.501-0.407,0.909-0.908,0.909
		c-0.501,0-0.908-0.408-0.908-0.909C16.913,15.924,17.32,15.517,17.821,15.517z M15.112,15.517c0.5,0,0.908,0.408,0.908,0.909
		c0,0.501-0.407,0.909-0.908,0.909c-0.501,0-0.908-0.408-0.908-0.909C14.204,15.924,14.611,15.517,15.112,15.517z M7.258,14.621
		c0-0.363,0.179-0.684,0.453-0.881c0.001-0.001,0.003-0.002,0.005-0.003c0.171-0.122,0.373-0.19,0.585-0.198
		c0.01,0,0.019-0.002,0.028-0.003c0.004,0,0.008-0.001,0.012-0.001c0.544,0,0.995,0.404,1.071,0.928c0,0.003,0,0.005,0.001,0.007
		c0.004,0.027,0.006,0.051,0.008,0.073c0.002,0.024,0.004,0.047,0.004,0.071c0,0.002,0,0.003,0,0.005
		c0,0.035-0.002,0.069-0.005,0.103c-0.001,0.012-0.003,0.024-0.005,0.036c-0.003,0.022-0.006,0.043-0.01,0.064
		c-0.003,0.015-0.006,0.029-0.01,0.044c-0.004,0.018-0.009,0.036-0.014,0.054c-0.004,0.015-0.009,0.03-0.014,0.044
		c-0.006,0.017-0.012,0.035-0.019,0.052c-0.005,0.014-0.011,0.027-0.017,0.041c-0.008,0.018-0.017,0.036-0.026,0.054
		c-0.006,0.011-0.011,0.023-0.018,0.034c-0.012,0.021-0.024,0.041-0.037,0.061c-0.005,0.007-0.009,0.015-0.014,0.023
		c-0.017,0.025-0.036,0.05-0.055,0.073c-0.001,0.002-0.003,0.004-0.005,0.006c-0.199,0.241-0.499,0.394-0.835,0.394
		C7.744,15.705,7.258,15.219,7.258,14.621z"/>
	<circle class="st0" cx="8.341" cy="14.621" r="0.592"/>
</g>
</svg>
